G04 #@! TF.FileFunction,Legend,Bot*
%FSLAX46Y46*%
G04 Gerber Fmt 4.6, Leading zero omitted, Abs format (unit mm)*
G04 Created by KiCad (PCBNEW 4.0.5) date 08/02/17 20:53:55*
%MOMM*%
%LPD*%
G01*
G04 APERTURE LIST*
%ADD10C,0.100000*%
%ADD11C,0.150000*%
%ADD12C,1.100000*%
%ADD13C,0.120000*%
%ADD14C,0.010000*%
G04 APERTURE END LIST*
D10*
D11*
X106042857Y-105728572D02*
X104842857Y-105728572D01*
X104842857Y-106185715D01*
X104900000Y-106300001D01*
X104957143Y-106357144D01*
X105071429Y-106414287D01*
X105242857Y-106414287D01*
X105357143Y-106357144D01*
X105414286Y-106300001D01*
X105471429Y-106185715D01*
X105471429Y-105728572D01*
X106042857Y-107100001D02*
X105985714Y-106985715D01*
X105928571Y-106928572D01*
X105814286Y-106871429D01*
X105471429Y-106871429D01*
X105357143Y-106928572D01*
X105300000Y-106985715D01*
X105242857Y-107100001D01*
X105242857Y-107271429D01*
X105300000Y-107385715D01*
X105357143Y-107442858D01*
X105471429Y-107500001D01*
X105814286Y-107500001D01*
X105928571Y-107442858D01*
X105985714Y-107385715D01*
X106042857Y-107271429D01*
X106042857Y-107100001D01*
X105242857Y-107900001D02*
X106042857Y-108128572D01*
X105471429Y-108357143D01*
X106042857Y-108585715D01*
X105242857Y-108814286D01*
X105985714Y-109728572D02*
X106042857Y-109614286D01*
X106042857Y-109385715D01*
X105985714Y-109271429D01*
X105871429Y-109214286D01*
X105414286Y-109214286D01*
X105300000Y-109271429D01*
X105242857Y-109385715D01*
X105242857Y-109614286D01*
X105300000Y-109728572D01*
X105414286Y-109785715D01*
X105528571Y-109785715D01*
X105642857Y-109214286D01*
X106042857Y-110300000D02*
X105242857Y-110300000D01*
X105471429Y-110300000D02*
X105357143Y-110357143D01*
X105300000Y-110414286D01*
X105242857Y-110528572D01*
X105242857Y-110642857D01*
D12*
X99300000Y-102500000D02*
X105700000Y-102500000D01*
D11*
X180614286Y-111404762D02*
X180671429Y-111547619D01*
X180728571Y-111595238D01*
X180842857Y-111642857D01*
X181014286Y-111642857D01*
X181128571Y-111595238D01*
X181185714Y-111547619D01*
X181242857Y-111452381D01*
X181242857Y-111071428D01*
X180042857Y-111071428D01*
X180042857Y-111404762D01*
X180100000Y-111500000D01*
X180157143Y-111547619D01*
X180271429Y-111595238D01*
X180385714Y-111595238D01*
X180500000Y-111547619D01*
X180557143Y-111500000D01*
X180614286Y-111404762D01*
X180614286Y-111071428D01*
X181242857Y-112071428D02*
X180442857Y-112071428D01*
X180042857Y-112071428D02*
X180100000Y-112023809D01*
X180157143Y-112071428D01*
X180100000Y-112119047D01*
X180042857Y-112071428D01*
X180157143Y-112071428D01*
X180442857Y-112547618D02*
X181642857Y-112547618D01*
X180500000Y-112547618D02*
X180442857Y-112642856D01*
X180442857Y-112833333D01*
X180500000Y-112928571D01*
X180557143Y-112976190D01*
X180671429Y-113023809D01*
X181014286Y-113023809D01*
X181128571Y-112976190D01*
X181185714Y-112928571D01*
X181242857Y-112833333D01*
X181242857Y-112642856D01*
X181185714Y-112547618D01*
X181242857Y-113595237D02*
X181185714Y-113499999D01*
X181128571Y-113452380D01*
X181014286Y-113404761D01*
X180671429Y-113404761D01*
X180557143Y-113452380D01*
X180500000Y-113499999D01*
X180442857Y-113595237D01*
X180442857Y-113738095D01*
X180500000Y-113833333D01*
X180557143Y-113880952D01*
X180671429Y-113928571D01*
X181014286Y-113928571D01*
X181128571Y-113880952D01*
X181185714Y-113833333D01*
X181242857Y-113738095D01*
X181242857Y-113595237D01*
X181242857Y-114499999D02*
X181185714Y-114404761D01*
X181071429Y-114357142D01*
X180042857Y-114357142D01*
X181242857Y-115309524D02*
X180614286Y-115309524D01*
X180500000Y-115261905D01*
X180442857Y-115166667D01*
X180442857Y-114976190D01*
X180500000Y-114880952D01*
X181185714Y-115309524D02*
X181242857Y-115214286D01*
X181242857Y-114976190D01*
X181185714Y-114880952D01*
X181071429Y-114833333D01*
X180957143Y-114833333D01*
X180842857Y-114880952D01*
X180785714Y-114976190D01*
X180785714Y-115214286D01*
X180728571Y-115309524D01*
X181242857Y-115785714D02*
X180442857Y-115785714D01*
X180671429Y-115785714D02*
X180557143Y-115833333D01*
X180500000Y-115880952D01*
X180442857Y-115976190D01*
X180442857Y-116071429D01*
X155314286Y-98417857D02*
X155314286Y-97217857D01*
X154742857Y-98417857D01*
X154742857Y-97217857D01*
X154123810Y-98417857D02*
X154219048Y-98360714D01*
X154266667Y-98303571D01*
X154314286Y-98189286D01*
X154314286Y-97846429D01*
X154266667Y-97732143D01*
X154219048Y-97675000D01*
X154123810Y-97617857D01*
X153980952Y-97617857D01*
X153885714Y-97675000D01*
X153838095Y-97732143D01*
X153790476Y-97846429D01*
X153790476Y-98189286D01*
X153838095Y-98303571D01*
X153885714Y-98360714D01*
X153980952Y-98417857D01*
X154123810Y-98417857D01*
X153361905Y-98417857D02*
X153361905Y-97617857D01*
X153361905Y-97846429D02*
X153314286Y-97732143D01*
X153266667Y-97675000D01*
X153171429Y-97617857D01*
X153076190Y-97617857D01*
X152742857Y-98417857D02*
X152742857Y-97617857D01*
X152742857Y-97732143D02*
X152695238Y-97675000D01*
X152600000Y-97617857D01*
X152457142Y-97617857D01*
X152361904Y-97675000D01*
X152314285Y-97789286D01*
X152314285Y-98417857D01*
X152314285Y-97789286D02*
X152266666Y-97675000D01*
X152171428Y-97617857D01*
X152028571Y-97617857D01*
X151933333Y-97675000D01*
X151885714Y-97789286D01*
X151885714Y-98417857D01*
X154457143Y-99910714D02*
X153695238Y-99910714D01*
X154076190Y-100367857D02*
X154076190Y-99453571D01*
X152742857Y-99167857D02*
X153219048Y-99167857D01*
X153266667Y-99739286D01*
X153219048Y-99682143D01*
X153123810Y-99625000D01*
X152885714Y-99625000D01*
X152790476Y-99682143D01*
X152742857Y-99739286D01*
X152695238Y-99853571D01*
X152695238Y-100139286D01*
X152742857Y-100253571D01*
X152790476Y-100310714D01*
X152885714Y-100367857D01*
X153123810Y-100367857D01*
X153219048Y-100310714D01*
X153266667Y-100253571D01*
X154114286Y-111404762D02*
X154171429Y-111547619D01*
X154228571Y-111595238D01*
X154342857Y-111642857D01*
X154514286Y-111642857D01*
X154628571Y-111595238D01*
X154685714Y-111547619D01*
X154742857Y-111452381D01*
X154742857Y-111071428D01*
X153542857Y-111071428D01*
X153542857Y-111404762D01*
X153600000Y-111500000D01*
X153657143Y-111547619D01*
X153771429Y-111595238D01*
X153885714Y-111595238D01*
X154000000Y-111547619D01*
X154057143Y-111500000D01*
X154114286Y-111404762D01*
X154114286Y-111071428D01*
X154742857Y-112071428D02*
X153942857Y-112071428D01*
X153542857Y-112071428D02*
X153600000Y-112023809D01*
X153657143Y-112071428D01*
X153600000Y-112119047D01*
X153542857Y-112071428D01*
X153657143Y-112071428D01*
X153942857Y-112547618D02*
X155142857Y-112547618D01*
X154000000Y-112547618D02*
X153942857Y-112642856D01*
X153942857Y-112833333D01*
X154000000Y-112928571D01*
X154057143Y-112976190D01*
X154171429Y-113023809D01*
X154514286Y-113023809D01*
X154628571Y-112976190D01*
X154685714Y-112928571D01*
X154742857Y-112833333D01*
X154742857Y-112642856D01*
X154685714Y-112547618D01*
X154742857Y-113595237D02*
X154685714Y-113499999D01*
X154628571Y-113452380D01*
X154514286Y-113404761D01*
X154171429Y-113404761D01*
X154057143Y-113452380D01*
X154000000Y-113499999D01*
X153942857Y-113595237D01*
X153942857Y-113738095D01*
X154000000Y-113833333D01*
X154057143Y-113880952D01*
X154171429Y-113928571D01*
X154514286Y-113928571D01*
X154628571Y-113880952D01*
X154685714Y-113833333D01*
X154742857Y-113738095D01*
X154742857Y-113595237D01*
X154742857Y-114499999D02*
X154685714Y-114404761D01*
X154571429Y-114357142D01*
X153542857Y-114357142D01*
X154742857Y-115309524D02*
X154114286Y-115309524D01*
X154000000Y-115261905D01*
X153942857Y-115166667D01*
X153942857Y-114976190D01*
X154000000Y-114880952D01*
X154685714Y-115309524D02*
X154742857Y-115214286D01*
X154742857Y-114976190D01*
X154685714Y-114880952D01*
X154571429Y-114833333D01*
X154457143Y-114833333D01*
X154342857Y-114880952D01*
X154285714Y-114976190D01*
X154285714Y-115214286D01*
X154228571Y-115309524D01*
X154742857Y-115785714D02*
X153942857Y-115785714D01*
X154171429Y-115785714D02*
X154057143Y-115833333D01*
X154000000Y-115880952D01*
X153942857Y-115976190D01*
X153942857Y-116071429D01*
X128814286Y-98417857D02*
X128814286Y-97217857D01*
X128242857Y-98417857D01*
X128242857Y-97217857D01*
X127623810Y-98417857D02*
X127719048Y-98360714D01*
X127766667Y-98303571D01*
X127814286Y-98189286D01*
X127814286Y-97846429D01*
X127766667Y-97732143D01*
X127719048Y-97675000D01*
X127623810Y-97617857D01*
X127480952Y-97617857D01*
X127385714Y-97675000D01*
X127338095Y-97732143D01*
X127290476Y-97846429D01*
X127290476Y-98189286D01*
X127338095Y-98303571D01*
X127385714Y-98360714D01*
X127480952Y-98417857D01*
X127623810Y-98417857D01*
X126861905Y-98417857D02*
X126861905Y-97617857D01*
X126861905Y-97846429D02*
X126814286Y-97732143D01*
X126766667Y-97675000D01*
X126671429Y-97617857D01*
X126576190Y-97617857D01*
X126242857Y-98417857D02*
X126242857Y-97617857D01*
X126242857Y-97732143D02*
X126195238Y-97675000D01*
X126100000Y-97617857D01*
X125957142Y-97617857D01*
X125861904Y-97675000D01*
X125814285Y-97789286D01*
X125814285Y-98417857D01*
X125814285Y-97789286D02*
X125766666Y-97675000D01*
X125671428Y-97617857D01*
X125528571Y-97617857D01*
X125433333Y-97675000D01*
X125385714Y-97789286D01*
X125385714Y-98417857D01*
X127957143Y-99910714D02*
X127195238Y-99910714D01*
X127576190Y-100367857D02*
X127576190Y-99453571D01*
X126242857Y-99167857D02*
X126719048Y-99167857D01*
X126766667Y-99739286D01*
X126719048Y-99682143D01*
X126623810Y-99625000D01*
X126385714Y-99625000D01*
X126290476Y-99682143D01*
X126242857Y-99739286D01*
X126195238Y-99853571D01*
X126195238Y-100139286D01*
X126242857Y-100253571D01*
X126290476Y-100310714D01*
X126385714Y-100367857D01*
X126623810Y-100367857D01*
X126719048Y-100310714D01*
X126766667Y-100253571D01*
X127614286Y-111404762D02*
X127671429Y-111547619D01*
X127728571Y-111595238D01*
X127842857Y-111642857D01*
X128014286Y-111642857D01*
X128128571Y-111595238D01*
X128185714Y-111547619D01*
X128242857Y-111452381D01*
X128242857Y-111071428D01*
X127042857Y-111071428D01*
X127042857Y-111404762D01*
X127100000Y-111500000D01*
X127157143Y-111547619D01*
X127271429Y-111595238D01*
X127385714Y-111595238D01*
X127500000Y-111547619D01*
X127557143Y-111500000D01*
X127614286Y-111404762D01*
X127614286Y-111071428D01*
X128242857Y-112071428D02*
X127442857Y-112071428D01*
X127042857Y-112071428D02*
X127100000Y-112023809D01*
X127157143Y-112071428D01*
X127100000Y-112119047D01*
X127042857Y-112071428D01*
X127157143Y-112071428D01*
X127442857Y-112547618D02*
X128642857Y-112547618D01*
X127500000Y-112547618D02*
X127442857Y-112642856D01*
X127442857Y-112833333D01*
X127500000Y-112928571D01*
X127557143Y-112976190D01*
X127671429Y-113023809D01*
X128014286Y-113023809D01*
X128128571Y-112976190D01*
X128185714Y-112928571D01*
X128242857Y-112833333D01*
X128242857Y-112642856D01*
X128185714Y-112547618D01*
X128242857Y-113595237D02*
X128185714Y-113499999D01*
X128128571Y-113452380D01*
X128014286Y-113404761D01*
X127671429Y-113404761D01*
X127557143Y-113452380D01*
X127500000Y-113499999D01*
X127442857Y-113595237D01*
X127442857Y-113738095D01*
X127500000Y-113833333D01*
X127557143Y-113880952D01*
X127671429Y-113928571D01*
X128014286Y-113928571D01*
X128128571Y-113880952D01*
X128185714Y-113833333D01*
X128242857Y-113738095D01*
X128242857Y-113595237D01*
X128242857Y-114499999D02*
X128185714Y-114404761D01*
X128071429Y-114357142D01*
X127042857Y-114357142D01*
X128242857Y-115309524D02*
X127614286Y-115309524D01*
X127500000Y-115261905D01*
X127442857Y-115166667D01*
X127442857Y-114976190D01*
X127500000Y-114880952D01*
X128185714Y-115309524D02*
X128242857Y-115214286D01*
X128242857Y-114976190D01*
X128185714Y-114880952D01*
X128071429Y-114833333D01*
X127957143Y-114833333D01*
X127842857Y-114880952D01*
X127785714Y-114976190D01*
X127785714Y-115214286D01*
X127728571Y-115309524D01*
X128242857Y-115785714D02*
X127442857Y-115785714D01*
X127671429Y-115785714D02*
X127557143Y-115833333D01*
X127500000Y-115880952D01*
X127442857Y-115976190D01*
X127442857Y-116071429D01*
X105764286Y-92167857D02*
X105764286Y-90967857D01*
X105192857Y-92167857D01*
X105192857Y-90967857D01*
X104573810Y-92167857D02*
X104669048Y-92110714D01*
X104716667Y-92053571D01*
X104764286Y-91939286D01*
X104764286Y-91596429D01*
X104716667Y-91482143D01*
X104669048Y-91425000D01*
X104573810Y-91367857D01*
X104430952Y-91367857D01*
X104335714Y-91425000D01*
X104288095Y-91482143D01*
X104240476Y-91596429D01*
X104240476Y-91939286D01*
X104288095Y-92053571D01*
X104335714Y-92110714D01*
X104430952Y-92167857D01*
X104573810Y-92167857D01*
X103811905Y-92167857D02*
X103811905Y-91367857D01*
X103811905Y-91596429D02*
X103764286Y-91482143D01*
X103716667Y-91425000D01*
X103621429Y-91367857D01*
X103526190Y-91367857D01*
X103192857Y-92167857D02*
X103192857Y-91367857D01*
X103192857Y-91482143D02*
X103145238Y-91425000D01*
X103050000Y-91367857D01*
X102907142Y-91367857D01*
X102811904Y-91425000D01*
X102764285Y-91539286D01*
X102764285Y-92167857D01*
X102764285Y-91539286D02*
X102716666Y-91425000D01*
X102621428Y-91367857D01*
X102478571Y-91367857D01*
X102383333Y-91425000D01*
X102335714Y-91539286D01*
X102335714Y-92167857D01*
X104907143Y-93660714D02*
X104145238Y-93660714D01*
X104526190Y-94117857D02*
X104526190Y-93203571D01*
X103192857Y-92917857D02*
X103669048Y-92917857D01*
X103716667Y-93489286D01*
X103669048Y-93432143D01*
X103573810Y-93375000D01*
X103335714Y-93375000D01*
X103240476Y-93432143D01*
X103192857Y-93489286D01*
X103145238Y-93603571D01*
X103145238Y-93889286D01*
X103192857Y-94003571D01*
X103240476Y-94060714D01*
X103335714Y-94117857D01*
X103573810Y-94117857D01*
X103669048Y-94060714D01*
X103716667Y-94003571D01*
X98501100Y-119238600D02*
X198501100Y-119238600D01*
X198501100Y-119238600D02*
X198501100Y-90768600D01*
X198501100Y-90768600D02*
X98501100Y-90768600D01*
X98501100Y-90768600D02*
X98501100Y-119238600D01*
D13*
X106930000Y-114870000D02*
X106930000Y-113320000D01*
X106930000Y-109530000D02*
X106930000Y-111080000D01*
X112270000Y-114110000D02*
X112270000Y-113320000D01*
X112270000Y-110290000D02*
X112270000Y-111080000D01*
X106930000Y-109530000D02*
X111510000Y-109530000D01*
X111510000Y-109530000D02*
X112270000Y-110290000D01*
X112270000Y-114110000D02*
X111510000Y-114870000D01*
X111510000Y-114870000D02*
X106930000Y-114870000D01*
X112670000Y-101530000D02*
X112670000Y-103080000D01*
X112670000Y-106870000D02*
X112670000Y-105320000D01*
X107330000Y-102290000D02*
X107330000Y-103080000D01*
X107330000Y-106110000D02*
X107330000Y-105320000D01*
X112670000Y-106870000D02*
X108090000Y-106870000D01*
X108090000Y-106870000D02*
X107330000Y-106110000D01*
X107330000Y-102290000D02*
X108090000Y-101530000D01*
X108090000Y-101530000D02*
X112670000Y-101530000D01*
X102128000Y-101300000D02*
X102128000Y-99300000D01*
X102001000Y-101300000D02*
X102001000Y-99300000D01*
X101874000Y-101300000D02*
X101874000Y-99300000D01*
X101747000Y-101300000D02*
X101747000Y-99300000D01*
X101620000Y-101300000D02*
X101620000Y-99300000D01*
X101493000Y-101300000D02*
X101493000Y-99300000D01*
X100350000Y-99300000D02*
X104250000Y-99300000D01*
X100350000Y-101300000D02*
X104250000Y-101300000D01*
X102972000Y-117300000D02*
X102972000Y-119300000D01*
X103099000Y-117300000D02*
X103099000Y-119300000D01*
X103226000Y-117300000D02*
X103226000Y-119300000D01*
X103353000Y-117300000D02*
X103353000Y-119300000D01*
X103480000Y-117300000D02*
X103480000Y-119300000D01*
X103607000Y-117300000D02*
X103607000Y-119300000D01*
X104750000Y-119300000D02*
X100850000Y-119300000D01*
X104750000Y-117300000D02*
X100850000Y-117300000D01*
D14*
G36*
X128761540Y-104814230D02*
X128831952Y-105024543D01*
X128958090Y-105203001D01*
X128965314Y-105210750D01*
X129094942Y-105348333D01*
X130758804Y-105348333D01*
X131194983Y-105348265D01*
X131552963Y-105348876D01*
X131839210Y-105351383D01*
X132060191Y-105357006D01*
X132222371Y-105366965D01*
X132332218Y-105382477D01*
X132396196Y-105404763D01*
X132420772Y-105435041D01*
X132412412Y-105474530D01*
X132377583Y-105524450D01*
X132322750Y-105586019D01*
X132277757Y-105634705D01*
X132132847Y-105792833D01*
X130838147Y-105801088D01*
X130514654Y-105803864D01*
X130218307Y-105807772D01*
X129959749Y-105812563D01*
X129749621Y-105817991D01*
X129598565Y-105823806D01*
X129517222Y-105829760D01*
X129506538Y-105832155D01*
X129448552Y-105902676D01*
X129392182Y-106025099D01*
X129349438Y-106167304D01*
X129332334Y-106297167D01*
X129332333Y-106298007D01*
X129353888Y-106470246D01*
X129410542Y-106629854D01*
X129490278Y-106748163D01*
X129535754Y-106783253D01*
X129615416Y-106803203D01*
X129767217Y-106820644D01*
X129978656Y-106835265D01*
X130237234Y-106846756D01*
X130530451Y-106854806D01*
X130845807Y-106859104D01*
X131170802Y-106859339D01*
X131492937Y-106855200D01*
X131799712Y-106846377D01*
X131901936Y-106842088D01*
X132175019Y-106829196D01*
X132377710Y-106817634D01*
X132524199Y-106804974D01*
X132628677Y-106788787D01*
X132705334Y-106766645D01*
X132768361Y-106736120D01*
X132831949Y-106694783D01*
X132854436Y-106679084D01*
X133059955Y-106490948D01*
X133247868Y-106231768D01*
X133409508Y-105914695D01*
X133481617Y-105727506D01*
X133605569Y-105369500D01*
X134924627Y-105358305D01*
X135317068Y-105355782D01*
X135632250Y-105355722D01*
X135877550Y-105358350D01*
X136060345Y-105363893D01*
X136188013Y-105372575D01*
X136267933Y-105384624D01*
X136307480Y-105400264D01*
X136307939Y-105400639D01*
X136382152Y-105427818D01*
X136527914Y-105451364D01*
X136732128Y-105469438D01*
X136840412Y-105475333D01*
X137044699Y-105485357D01*
X137179890Y-105496025D01*
X137261491Y-105511325D01*
X137305005Y-105535242D01*
X137325939Y-105571764D01*
X137334341Y-105602333D01*
X137353297Y-105671347D01*
X137366944Y-105666610D01*
X137386513Y-105583611D01*
X137387032Y-105581166D01*
X137393086Y-105510047D01*
X137398182Y-105364877D01*
X137402201Y-105156272D01*
X137405024Y-104894843D01*
X137406530Y-104591203D01*
X137406599Y-104255965D01*
X137405424Y-103951333D01*
X137396833Y-102448500D01*
X135585105Y-102455000D01*
X135585105Y-102787339D01*
X135900481Y-102787798D01*
X136205422Y-102788996D01*
X136484181Y-102790812D01*
X136721012Y-102793130D01*
X136900167Y-102795828D01*
X136984083Y-102797922D01*
X137291000Y-102808333D01*
X137290351Y-103221083D01*
X137286495Y-103404528D01*
X137276664Y-103559062D01*
X137262568Y-103663009D01*
X137253253Y-103691361D01*
X137229996Y-103707753D01*
X137178142Y-103719957D01*
X137089324Y-103728140D01*
X136955173Y-103732469D01*
X136767320Y-103733111D01*
X136517398Y-103730234D01*
X136197037Y-103724004D01*
X135929036Y-103717802D01*
X134641271Y-103686714D01*
X134590355Y-103321607D01*
X134564441Y-103144913D01*
X134539833Y-102992769D01*
X134520718Y-102890580D01*
X134516241Y-102871833D01*
X134511621Y-102846118D01*
X134519853Y-102826220D01*
X134550347Y-102811397D01*
X134612511Y-102800904D01*
X134715754Y-102793998D01*
X134869485Y-102789934D01*
X135083113Y-102787970D01*
X135366046Y-102787361D01*
X135585105Y-102787339D01*
X135585105Y-102455000D01*
X134348833Y-102459436D01*
X134193828Y-102319878D01*
X134124475Y-102257149D01*
X134063280Y-102205767D01*
X134001368Y-102164605D01*
X133929866Y-102132537D01*
X133839898Y-102108436D01*
X133722589Y-102091175D01*
X133569065Y-102079628D01*
X133370451Y-102072668D01*
X133117873Y-102069168D01*
X132802456Y-102068002D01*
X132422309Y-102068042D01*
X132422309Y-102143279D01*
X132723297Y-102144040D01*
X132995854Y-102148005D01*
X133227414Y-102155424D01*
X133382789Y-102164646D01*
X133616486Y-102185767D01*
X133783046Y-102208069D01*
X133899965Y-102235174D01*
X133984736Y-102270702D01*
X134028372Y-102298224D01*
X134113383Y-102364018D01*
X134151797Y-102411745D01*
X134136913Y-102443526D01*
X134062033Y-102461484D01*
X133920456Y-102467737D01*
X133705483Y-102464409D01*
X133523333Y-102458116D01*
X132888333Y-102433711D01*
X132888333Y-102817816D01*
X133385750Y-102802491D01*
X133883166Y-102787166D01*
X133883166Y-104565166D01*
X133385750Y-104561829D01*
X132888333Y-104558492D01*
X132888333Y-104925000D01*
X135174333Y-104925000D01*
X135174333Y-104558613D01*
X134609357Y-104577774D01*
X134044382Y-104596935D01*
X134017059Y-104369384D01*
X134002548Y-104187430D01*
X133993741Y-103949305D01*
X133990650Y-103682934D01*
X133993288Y-103416238D01*
X134001668Y-103177142D01*
X134015803Y-102993568D01*
X134016431Y-102988250D01*
X134043126Y-102766000D01*
X134207611Y-102766000D01*
X134294208Y-102772664D01*
X134358277Y-102800839D01*
X134405558Y-102862797D01*
X134441790Y-102970809D01*
X134472710Y-103137147D01*
X134504058Y-103374084D01*
X134508245Y-103408879D01*
X134557928Y-103824333D01*
X135903297Y-103824333D01*
X136280566Y-103824757D01*
X136581465Y-103826289D01*
X136814288Y-103829322D01*
X136987327Y-103834247D01*
X137108876Y-103841455D01*
X137187229Y-103851337D01*
X137230678Y-103864285D01*
X137247519Y-103880691D01*
X137248666Y-103887833D01*
X137271525Y-103944169D01*
X137291000Y-103951333D01*
X137315076Y-103989422D01*
X137330411Y-104086874D01*
X137333333Y-104164489D01*
X137330959Y-104288704D01*
X137317928Y-104344853D01*
X137285374Y-104349515D01*
X137244723Y-104330223D01*
X137110766Y-104301893D01*
X137109447Y-104302320D01*
X137109447Y-104544572D01*
X137229591Y-104581155D01*
X137266809Y-104610523D01*
X137319407Y-104714596D01*
X137333647Y-104860234D01*
X137310832Y-105014202D01*
X137291000Y-105057902D01*
X137291000Y-105179000D01*
X137332103Y-105211214D01*
X137333333Y-105221333D01*
X137301118Y-105262436D01*
X137291000Y-105263666D01*
X137249896Y-105231452D01*
X137248666Y-105221333D01*
X137280881Y-105180230D01*
X137291000Y-105179000D01*
X137291000Y-105057902D01*
X137252264Y-105143260D01*
X137245594Y-105152124D01*
X137175328Y-105222350D01*
X137088621Y-105255337D01*
X136952045Y-105263665D01*
X136949260Y-105263666D01*
X136829481Y-105261222D01*
X136754043Y-105254981D01*
X136740666Y-105250274D01*
X136751882Y-105151477D01*
X136780354Y-105010070D01*
X136818318Y-104857183D01*
X136858010Y-104723946D01*
X136891667Y-104641487D01*
X136893056Y-104639250D01*
X136985404Y-104564849D01*
X137109447Y-104544572D01*
X137109447Y-104302320D01*
X136978505Y-104344802D01*
X136888495Y-104432740D01*
X136849245Y-104521761D01*
X136805427Y-104665513D01*
X136765683Y-104835095D01*
X136760872Y-104859586D01*
X136728350Y-105019354D01*
X136698758Y-105146978D01*
X136677541Y-105219365D01*
X136674580Y-105225518D01*
X136607854Y-105262440D01*
X136504013Y-105253573D01*
X136393051Y-105204752D01*
X136336575Y-105159757D01*
X136256756Y-105024778D01*
X136231438Y-104851233D01*
X136262518Y-104666898D01*
X136297253Y-104584231D01*
X136332116Y-104494319D01*
X136318239Y-104459415D01*
X136316260Y-104459333D01*
X136259564Y-104498106D01*
X136209763Y-104600194D01*
X136172938Y-104744248D01*
X136155170Y-104908919D01*
X136156863Y-105018888D01*
X136174569Y-105263666D01*
X134847622Y-105263666D01*
X134458173Y-105264421D01*
X134146359Y-105266869D01*
X133905160Y-105271287D01*
X133727555Y-105277951D01*
X133606526Y-105287140D01*
X133535051Y-105299128D01*
X133506111Y-105314194D01*
X133505049Y-105316583D01*
X133380572Y-105702345D01*
X133255619Y-106012870D01*
X133125074Y-106257460D01*
X132983824Y-106445417D01*
X132826751Y-106586043D01*
X132794864Y-106608068D01*
X132619506Y-106724166D01*
X131139083Y-106736332D01*
X130746230Y-106739455D01*
X130429222Y-106741396D01*
X130179242Y-106741711D01*
X129987471Y-106739952D01*
X129845090Y-106735674D01*
X129743282Y-106728431D01*
X129673229Y-106717777D01*
X129626112Y-106703265D01*
X129593114Y-106684451D01*
X129565416Y-106660887D01*
X129560727Y-106656496D01*
X129472633Y-106521525D01*
X129431907Y-106344349D01*
X129443061Y-106155785D01*
X129473103Y-106058005D01*
X129536582Y-105906080D01*
X130842041Y-105891790D01*
X131228079Y-105887411D01*
X131538883Y-105882311D01*
X131783874Y-105874525D01*
X131972475Y-105862090D01*
X132114109Y-105843044D01*
X132218197Y-105815422D01*
X132294163Y-105777263D01*
X132351429Y-105726602D01*
X132399418Y-105661476D01*
X132447552Y-105579923D01*
X132462134Y-105554236D01*
X132503791Y-105483156D01*
X132535727Y-105424681D01*
X132551099Y-105377586D01*
X132543062Y-105340646D01*
X132504773Y-105312635D01*
X132429386Y-105292328D01*
X132310057Y-105278500D01*
X132139943Y-105269926D01*
X131912199Y-105265381D01*
X131619981Y-105263639D01*
X131256444Y-105263476D01*
X130838929Y-105263666D01*
X129128192Y-105263666D01*
X129022234Y-105137742D01*
X128889313Y-104916574D01*
X128832945Y-104659690D01*
X128837006Y-104475772D01*
X128894486Y-104220126D01*
X129009360Y-104024372D01*
X129155081Y-103900976D01*
X129188203Y-103881552D01*
X129224249Y-103865389D01*
X129270532Y-103852310D01*
X129334362Y-103842137D01*
X129423052Y-103834694D01*
X129543914Y-103829802D01*
X129704258Y-103827285D01*
X129911397Y-103826965D01*
X130172642Y-103828666D01*
X130495305Y-103832210D01*
X130886697Y-103837420D01*
X131354131Y-103844119D01*
X131446041Y-103845456D01*
X131958148Y-103852426D01*
X132390784Y-103857183D01*
X132749119Y-103859682D01*
X133038320Y-103859882D01*
X133263557Y-103857737D01*
X133429997Y-103853205D01*
X133542810Y-103846243D01*
X133607164Y-103836807D01*
X133627437Y-103827131D01*
X133643335Y-103746712D01*
X133638470Y-103615196D01*
X133617385Y-103462283D01*
X133584620Y-103317673D01*
X133544718Y-103211066D01*
X133529700Y-103187975D01*
X133506238Y-103164454D01*
X133472459Y-103145161D01*
X133419369Y-103129274D01*
X133337976Y-103115969D01*
X133219289Y-103104424D01*
X133054315Y-103093815D01*
X132834062Y-103083319D01*
X132549538Y-103072114D01*
X132191752Y-103059376D01*
X132084000Y-103055656D01*
X131619656Y-103037997D01*
X131239171Y-103019856D01*
X130942728Y-103001245D01*
X130730509Y-102982177D01*
X130602695Y-102962664D01*
X130573876Y-102954199D01*
X130430272Y-102860085D01*
X130338342Y-102727194D01*
X130300149Y-102575643D01*
X130317758Y-102425554D01*
X130393234Y-102297047D01*
X130498778Y-102222331D01*
X130574846Y-102206517D01*
X130723009Y-102191896D01*
X130930702Y-102178718D01*
X131185359Y-102167235D01*
X131474415Y-102157698D01*
X131785302Y-102150359D01*
X132105455Y-102145469D01*
X132422309Y-102143279D01*
X132422309Y-102068042D01*
X132415324Y-102068043D01*
X132211000Y-102068157D01*
X131792805Y-102068596D01*
X131450734Y-102069790D01*
X131176243Y-102072111D01*
X130960789Y-102075929D01*
X130795830Y-102081616D01*
X130672823Y-102089541D01*
X130583225Y-102100077D01*
X130518493Y-102113594D01*
X130470084Y-102130463D01*
X130440248Y-102145052D01*
X130307227Y-102258987D01*
X130220254Y-102416902D01*
X130193896Y-102588345D01*
X130201352Y-102644399D01*
X130273059Y-102808626D01*
X130398057Y-102953520D01*
X130549078Y-103048739D01*
X130571968Y-103056763D01*
X130647484Y-103068822D01*
X130796001Y-103082637D01*
X131005892Y-103097490D01*
X131265528Y-103112665D01*
X131563280Y-103127444D01*
X131887520Y-103141112D01*
X132020500Y-103146053D01*
X132348235Y-103158360D01*
X132650737Y-103170865D01*
X132917070Y-103183026D01*
X133136299Y-103194302D01*
X133297489Y-103204151D01*
X133389705Y-103212030D01*
X133405446Y-103214683D01*
X133465435Y-103273184D01*
X133503135Y-103392802D01*
X133525553Y-103525395D01*
X133546330Y-103637436D01*
X133547745Y-103644416D01*
X133567279Y-103739666D01*
X129224987Y-103739666D01*
X129071520Y-103843950D01*
X128907327Y-104004654D01*
X128794935Y-104220536D01*
X128742496Y-104474227D01*
X128739666Y-104551048D01*
X128761540Y-104814230D01*
X128761540Y-104814230D01*
G37*
X128761540Y-104814230D02*
X128831952Y-105024543D01*
X128958090Y-105203001D01*
X128965314Y-105210750D01*
X129094942Y-105348333D01*
X130758804Y-105348333D01*
X131194983Y-105348265D01*
X131552963Y-105348876D01*
X131839210Y-105351383D01*
X132060191Y-105357006D01*
X132222371Y-105366965D01*
X132332218Y-105382477D01*
X132396196Y-105404763D01*
X132420772Y-105435041D01*
X132412412Y-105474530D01*
X132377583Y-105524450D01*
X132322750Y-105586019D01*
X132277757Y-105634705D01*
X132132847Y-105792833D01*
X130838147Y-105801088D01*
X130514654Y-105803864D01*
X130218307Y-105807772D01*
X129959749Y-105812563D01*
X129749621Y-105817991D01*
X129598565Y-105823806D01*
X129517222Y-105829760D01*
X129506538Y-105832155D01*
X129448552Y-105902676D01*
X129392182Y-106025099D01*
X129349438Y-106167304D01*
X129332334Y-106297167D01*
X129332333Y-106298007D01*
X129353888Y-106470246D01*
X129410542Y-106629854D01*
X129490278Y-106748163D01*
X129535754Y-106783253D01*
X129615416Y-106803203D01*
X129767217Y-106820644D01*
X129978656Y-106835265D01*
X130237234Y-106846756D01*
X130530451Y-106854806D01*
X130845807Y-106859104D01*
X131170802Y-106859339D01*
X131492937Y-106855200D01*
X131799712Y-106846377D01*
X131901936Y-106842088D01*
X132175019Y-106829196D01*
X132377710Y-106817634D01*
X132524199Y-106804974D01*
X132628677Y-106788787D01*
X132705334Y-106766645D01*
X132768361Y-106736120D01*
X132831949Y-106694783D01*
X132854436Y-106679084D01*
X133059955Y-106490948D01*
X133247868Y-106231768D01*
X133409508Y-105914695D01*
X133481617Y-105727506D01*
X133605569Y-105369500D01*
X134924627Y-105358305D01*
X135317068Y-105355782D01*
X135632250Y-105355722D01*
X135877550Y-105358350D01*
X136060345Y-105363893D01*
X136188013Y-105372575D01*
X136267933Y-105384624D01*
X136307480Y-105400264D01*
X136307939Y-105400639D01*
X136382152Y-105427818D01*
X136527914Y-105451364D01*
X136732128Y-105469438D01*
X136840412Y-105475333D01*
X137044699Y-105485357D01*
X137179890Y-105496025D01*
X137261491Y-105511325D01*
X137305005Y-105535242D01*
X137325939Y-105571764D01*
X137334341Y-105602333D01*
X137353297Y-105671347D01*
X137366944Y-105666610D01*
X137386513Y-105583611D01*
X137387032Y-105581166D01*
X137393086Y-105510047D01*
X137398182Y-105364877D01*
X137402201Y-105156272D01*
X137405024Y-104894843D01*
X137406530Y-104591203D01*
X137406599Y-104255965D01*
X137405424Y-103951333D01*
X137396833Y-102448500D01*
X135585105Y-102455000D01*
X135585105Y-102787339D01*
X135900481Y-102787798D01*
X136205422Y-102788996D01*
X136484181Y-102790812D01*
X136721012Y-102793130D01*
X136900167Y-102795828D01*
X136984083Y-102797922D01*
X137291000Y-102808333D01*
X137290351Y-103221083D01*
X137286495Y-103404528D01*
X137276664Y-103559062D01*
X137262568Y-103663009D01*
X137253253Y-103691361D01*
X137229996Y-103707753D01*
X137178142Y-103719957D01*
X137089324Y-103728140D01*
X136955173Y-103732469D01*
X136767320Y-103733111D01*
X136517398Y-103730234D01*
X136197037Y-103724004D01*
X135929036Y-103717802D01*
X134641271Y-103686714D01*
X134590355Y-103321607D01*
X134564441Y-103144913D01*
X134539833Y-102992769D01*
X134520718Y-102890580D01*
X134516241Y-102871833D01*
X134511621Y-102846118D01*
X134519853Y-102826220D01*
X134550347Y-102811397D01*
X134612511Y-102800904D01*
X134715754Y-102793998D01*
X134869485Y-102789934D01*
X135083113Y-102787970D01*
X135366046Y-102787361D01*
X135585105Y-102787339D01*
X135585105Y-102455000D01*
X134348833Y-102459436D01*
X134193828Y-102319878D01*
X134124475Y-102257149D01*
X134063280Y-102205767D01*
X134001368Y-102164605D01*
X133929866Y-102132537D01*
X133839898Y-102108436D01*
X133722589Y-102091175D01*
X133569065Y-102079628D01*
X133370451Y-102072668D01*
X133117873Y-102069168D01*
X132802456Y-102068002D01*
X132422309Y-102068042D01*
X132422309Y-102143279D01*
X132723297Y-102144040D01*
X132995854Y-102148005D01*
X133227414Y-102155424D01*
X133382789Y-102164646D01*
X133616486Y-102185767D01*
X133783046Y-102208069D01*
X133899965Y-102235174D01*
X133984736Y-102270702D01*
X134028372Y-102298224D01*
X134113383Y-102364018D01*
X134151797Y-102411745D01*
X134136913Y-102443526D01*
X134062033Y-102461484D01*
X133920456Y-102467737D01*
X133705483Y-102464409D01*
X133523333Y-102458116D01*
X132888333Y-102433711D01*
X132888333Y-102817816D01*
X133385750Y-102802491D01*
X133883166Y-102787166D01*
X133883166Y-104565166D01*
X133385750Y-104561829D01*
X132888333Y-104558492D01*
X132888333Y-104925000D01*
X135174333Y-104925000D01*
X135174333Y-104558613D01*
X134609357Y-104577774D01*
X134044382Y-104596935D01*
X134017059Y-104369384D01*
X134002548Y-104187430D01*
X133993741Y-103949305D01*
X133990650Y-103682934D01*
X133993288Y-103416238D01*
X134001668Y-103177142D01*
X134015803Y-102993568D01*
X134016431Y-102988250D01*
X134043126Y-102766000D01*
X134207611Y-102766000D01*
X134294208Y-102772664D01*
X134358277Y-102800839D01*
X134405558Y-102862797D01*
X134441790Y-102970809D01*
X134472710Y-103137147D01*
X134504058Y-103374084D01*
X134508245Y-103408879D01*
X134557928Y-103824333D01*
X135903297Y-103824333D01*
X136280566Y-103824757D01*
X136581465Y-103826289D01*
X136814288Y-103829322D01*
X136987327Y-103834247D01*
X137108876Y-103841455D01*
X137187229Y-103851337D01*
X137230678Y-103864285D01*
X137247519Y-103880691D01*
X137248666Y-103887833D01*
X137271525Y-103944169D01*
X137291000Y-103951333D01*
X137315076Y-103989422D01*
X137330411Y-104086874D01*
X137333333Y-104164489D01*
X137330959Y-104288704D01*
X137317928Y-104344853D01*
X137285374Y-104349515D01*
X137244723Y-104330223D01*
X137110766Y-104301893D01*
X137109447Y-104302320D01*
X137109447Y-104544572D01*
X137229591Y-104581155D01*
X137266809Y-104610523D01*
X137319407Y-104714596D01*
X137333647Y-104860234D01*
X137310832Y-105014202D01*
X137291000Y-105057902D01*
X137291000Y-105179000D01*
X137332103Y-105211214D01*
X137333333Y-105221333D01*
X137301118Y-105262436D01*
X137291000Y-105263666D01*
X137249896Y-105231452D01*
X137248666Y-105221333D01*
X137280881Y-105180230D01*
X137291000Y-105179000D01*
X137291000Y-105057902D01*
X137252264Y-105143260D01*
X137245594Y-105152124D01*
X137175328Y-105222350D01*
X137088621Y-105255337D01*
X136952045Y-105263665D01*
X136949260Y-105263666D01*
X136829481Y-105261222D01*
X136754043Y-105254981D01*
X136740666Y-105250274D01*
X136751882Y-105151477D01*
X136780354Y-105010070D01*
X136818318Y-104857183D01*
X136858010Y-104723946D01*
X136891667Y-104641487D01*
X136893056Y-104639250D01*
X136985404Y-104564849D01*
X137109447Y-104544572D01*
X137109447Y-104302320D01*
X136978505Y-104344802D01*
X136888495Y-104432740D01*
X136849245Y-104521761D01*
X136805427Y-104665513D01*
X136765683Y-104835095D01*
X136760872Y-104859586D01*
X136728350Y-105019354D01*
X136698758Y-105146978D01*
X136677541Y-105219365D01*
X136674580Y-105225518D01*
X136607854Y-105262440D01*
X136504013Y-105253573D01*
X136393051Y-105204752D01*
X136336575Y-105159757D01*
X136256756Y-105024778D01*
X136231438Y-104851233D01*
X136262518Y-104666898D01*
X136297253Y-104584231D01*
X136332116Y-104494319D01*
X136318239Y-104459415D01*
X136316260Y-104459333D01*
X136259564Y-104498106D01*
X136209763Y-104600194D01*
X136172938Y-104744248D01*
X136155170Y-104908919D01*
X136156863Y-105018888D01*
X136174569Y-105263666D01*
X134847622Y-105263666D01*
X134458173Y-105264421D01*
X134146359Y-105266869D01*
X133905160Y-105271287D01*
X133727555Y-105277951D01*
X133606526Y-105287140D01*
X133535051Y-105299128D01*
X133506111Y-105314194D01*
X133505049Y-105316583D01*
X133380572Y-105702345D01*
X133255619Y-106012870D01*
X133125074Y-106257460D01*
X132983824Y-106445417D01*
X132826751Y-106586043D01*
X132794864Y-106608068D01*
X132619506Y-106724166D01*
X131139083Y-106736332D01*
X130746230Y-106739455D01*
X130429222Y-106741396D01*
X130179242Y-106741711D01*
X129987471Y-106739952D01*
X129845090Y-106735674D01*
X129743282Y-106728431D01*
X129673229Y-106717777D01*
X129626112Y-106703265D01*
X129593114Y-106684451D01*
X129565416Y-106660887D01*
X129560727Y-106656496D01*
X129472633Y-106521525D01*
X129431907Y-106344349D01*
X129443061Y-106155785D01*
X129473103Y-106058005D01*
X129536582Y-105906080D01*
X130842041Y-105891790D01*
X131228079Y-105887411D01*
X131538883Y-105882311D01*
X131783874Y-105874525D01*
X131972475Y-105862090D01*
X132114109Y-105843044D01*
X132218197Y-105815422D01*
X132294163Y-105777263D01*
X132351429Y-105726602D01*
X132399418Y-105661476D01*
X132447552Y-105579923D01*
X132462134Y-105554236D01*
X132503791Y-105483156D01*
X132535727Y-105424681D01*
X132551099Y-105377586D01*
X132543062Y-105340646D01*
X132504773Y-105312635D01*
X132429386Y-105292328D01*
X132310057Y-105278500D01*
X132139943Y-105269926D01*
X131912199Y-105265381D01*
X131619981Y-105263639D01*
X131256444Y-105263476D01*
X130838929Y-105263666D01*
X129128192Y-105263666D01*
X129022234Y-105137742D01*
X128889313Y-104916574D01*
X128832945Y-104659690D01*
X128837006Y-104475772D01*
X128894486Y-104220126D01*
X129009360Y-104024372D01*
X129155081Y-103900976D01*
X129188203Y-103881552D01*
X129224249Y-103865389D01*
X129270532Y-103852310D01*
X129334362Y-103842137D01*
X129423052Y-103834694D01*
X129543914Y-103829802D01*
X129704258Y-103827285D01*
X129911397Y-103826965D01*
X130172642Y-103828666D01*
X130495305Y-103832210D01*
X130886697Y-103837420D01*
X131354131Y-103844119D01*
X131446041Y-103845456D01*
X131958148Y-103852426D01*
X132390784Y-103857183D01*
X132749119Y-103859682D01*
X133038320Y-103859882D01*
X133263557Y-103857737D01*
X133429997Y-103853205D01*
X133542810Y-103846243D01*
X133607164Y-103836807D01*
X133627437Y-103827131D01*
X133643335Y-103746712D01*
X133638470Y-103615196D01*
X133617385Y-103462283D01*
X133584620Y-103317673D01*
X133544718Y-103211066D01*
X133529700Y-103187975D01*
X133506238Y-103164454D01*
X133472459Y-103145161D01*
X133419369Y-103129274D01*
X133337976Y-103115969D01*
X133219289Y-103104424D01*
X133054315Y-103093815D01*
X132834062Y-103083319D01*
X132549538Y-103072114D01*
X132191752Y-103059376D01*
X132084000Y-103055656D01*
X131619656Y-103037997D01*
X131239171Y-103019856D01*
X130942728Y-103001245D01*
X130730509Y-102982177D01*
X130602695Y-102962664D01*
X130573876Y-102954199D01*
X130430272Y-102860085D01*
X130338342Y-102727194D01*
X130300149Y-102575643D01*
X130317758Y-102425554D01*
X130393234Y-102297047D01*
X130498778Y-102222331D01*
X130574846Y-102206517D01*
X130723009Y-102191896D01*
X130930702Y-102178718D01*
X131185359Y-102167235D01*
X131474415Y-102157698D01*
X131785302Y-102150359D01*
X132105455Y-102145469D01*
X132422309Y-102143279D01*
X132422309Y-102068042D01*
X132415324Y-102068043D01*
X132211000Y-102068157D01*
X131792805Y-102068596D01*
X131450734Y-102069790D01*
X131176243Y-102072111D01*
X130960789Y-102075929D01*
X130795830Y-102081616D01*
X130672823Y-102089541D01*
X130583225Y-102100077D01*
X130518493Y-102113594D01*
X130470084Y-102130463D01*
X130440248Y-102145052D01*
X130307227Y-102258987D01*
X130220254Y-102416902D01*
X130193896Y-102588345D01*
X130201352Y-102644399D01*
X130273059Y-102808626D01*
X130398057Y-102953520D01*
X130549078Y-103048739D01*
X130571968Y-103056763D01*
X130647484Y-103068822D01*
X130796001Y-103082637D01*
X131005892Y-103097490D01*
X131265528Y-103112665D01*
X131563280Y-103127444D01*
X131887520Y-103141112D01*
X132020500Y-103146053D01*
X132348235Y-103158360D01*
X132650737Y-103170865D01*
X132917070Y-103183026D01*
X133136299Y-103194302D01*
X133297489Y-103204151D01*
X133389705Y-103212030D01*
X133405446Y-103214683D01*
X133465435Y-103273184D01*
X133503135Y-103392802D01*
X133525553Y-103525395D01*
X133546330Y-103637436D01*
X133547745Y-103644416D01*
X133567279Y-103739666D01*
X129224987Y-103739666D01*
X129071520Y-103843950D01*
X128907327Y-104004654D01*
X128794935Y-104220536D01*
X128742496Y-104474227D01*
X128739666Y-104551048D01*
X128761540Y-104814230D01*
G36*
X135915166Y-106273350D02*
X136106758Y-106269337D01*
X136262863Y-106270005D01*
X136366793Y-106275011D01*
X136402000Y-106283386D01*
X136374062Y-106327696D01*
X136318926Y-106384057D01*
X136222371Y-106521775D01*
X136165883Y-106710287D01*
X136157259Y-106922113D01*
X136159571Y-106945689D01*
X136219230Y-107163042D01*
X136334162Y-107328907D01*
X136490152Y-107440168D01*
X136672987Y-107493708D01*
X136868453Y-107486412D01*
X137062333Y-107415164D01*
X137240415Y-107276848D01*
X137307573Y-107197344D01*
X137377075Y-107047642D01*
X137410431Y-106854666D01*
X137406520Y-106652223D01*
X137364220Y-106474123D01*
X137333610Y-106412903D01*
X137278897Y-106315580D01*
X137269966Y-106250619D01*
X137303283Y-106181564D01*
X137310145Y-106170976D01*
X137357915Y-106090880D01*
X137375666Y-106048322D01*
X137335303Y-106041878D01*
X137222092Y-106036147D01*
X137047850Y-106031404D01*
X136824396Y-106027923D01*
X136763323Y-106027469D01*
X136763323Y-106244172D01*
X136981461Y-106258344D01*
X137096327Y-106296361D01*
X137256888Y-106400117D01*
X137348813Y-106551140D01*
X137375666Y-106736842D01*
X137360472Y-106880826D01*
X137302930Y-106989165D01*
X137255356Y-107041490D01*
X137090259Y-107159621D01*
X136899791Y-107223038D01*
X136703402Y-107233058D01*
X136520543Y-107190997D01*
X136370667Y-107098171D01*
X136281524Y-106975581D01*
X136231331Y-106778534D01*
X136255320Y-106591642D01*
X136347041Y-106432412D01*
X136500040Y-106318352D01*
X136528230Y-106306080D01*
X136763323Y-106244172D01*
X136763323Y-106027469D01*
X136563547Y-106025980D01*
X136402000Y-106025666D01*
X135428333Y-106025666D01*
X135428333Y-106288804D01*
X135915166Y-106273350D01*
X135915166Y-106273350D01*
G37*
X135915166Y-106273350D02*
X136106758Y-106269337D01*
X136262863Y-106270005D01*
X136366793Y-106275011D01*
X136402000Y-106283386D01*
X136374062Y-106327696D01*
X136318926Y-106384057D01*
X136222371Y-106521775D01*
X136165883Y-106710287D01*
X136157259Y-106922113D01*
X136159571Y-106945689D01*
X136219230Y-107163042D01*
X136334162Y-107328907D01*
X136490152Y-107440168D01*
X136672987Y-107493708D01*
X136868453Y-107486412D01*
X137062333Y-107415164D01*
X137240415Y-107276848D01*
X137307573Y-107197344D01*
X137377075Y-107047642D01*
X137410431Y-106854666D01*
X137406520Y-106652223D01*
X137364220Y-106474123D01*
X137333610Y-106412903D01*
X137278897Y-106315580D01*
X137269966Y-106250619D01*
X137303283Y-106181564D01*
X137310145Y-106170976D01*
X137357915Y-106090880D01*
X137375666Y-106048322D01*
X137335303Y-106041878D01*
X137222092Y-106036147D01*
X137047850Y-106031404D01*
X136824396Y-106027923D01*
X136763323Y-106027469D01*
X136763323Y-106244172D01*
X136981461Y-106258344D01*
X137096327Y-106296361D01*
X137256888Y-106400117D01*
X137348813Y-106551140D01*
X137375666Y-106736842D01*
X137360472Y-106880826D01*
X137302930Y-106989165D01*
X137255356Y-107041490D01*
X137090259Y-107159621D01*
X136899791Y-107223038D01*
X136703402Y-107233058D01*
X136520543Y-107190997D01*
X136370667Y-107098171D01*
X136281524Y-106975581D01*
X136231331Y-106778534D01*
X136255320Y-106591642D01*
X136347041Y-106432412D01*
X136500040Y-106318352D01*
X136528230Y-106306080D01*
X136763323Y-106244172D01*
X136763323Y-106027469D01*
X136563547Y-106025980D01*
X136402000Y-106025666D01*
X135428333Y-106025666D01*
X135428333Y-106288804D01*
X135915166Y-106273350D01*
G36*
X136172428Y-108527684D02*
X136185663Y-108630474D01*
X136214049Y-108675775D01*
X136262760Y-108677106D01*
X136289499Y-108668200D01*
X136334413Y-108640252D01*
X136322609Y-108592891D01*
X136295558Y-108551951D01*
X136244533Y-108426069D01*
X136235390Y-108279074D01*
X136267005Y-108147104D01*
X136310083Y-108085394D01*
X136422635Y-108021407D01*
X136524504Y-108039471D01*
X136612627Y-108137314D01*
X136683945Y-108312662D01*
X136700444Y-108375166D01*
X136769572Y-108594777D01*
X136854895Y-108734869D01*
X136961131Y-108799812D01*
X137093000Y-108793971D01*
X137137222Y-108779466D01*
X137274804Y-108683545D01*
X137367374Y-108522532D01*
X137410504Y-108305644D01*
X137412931Y-108205833D01*
X137407382Y-108056955D01*
X137397974Y-107935812D01*
X137389694Y-107882296D01*
X137341610Y-107831615D01*
X137288771Y-107834316D01*
X137229896Y-107852427D01*
X137213464Y-107880046D01*
X137239722Y-107939875D01*
X137290841Y-108024893D01*
X137355603Y-108185468D01*
X137364171Y-108344065D01*
X137320758Y-108479805D01*
X137229580Y-108571813D01*
X137176203Y-108592865D01*
X137056948Y-108584374D01*
X136958785Y-108495901D01*
X136884187Y-108330058D01*
X136866944Y-108266324D01*
X136820014Y-108119803D01*
X136759467Y-107991387D01*
X136733489Y-107952324D01*
X136616642Y-107863588D01*
X136476888Y-107846110D01*
X136336826Y-107899746D01*
X136271795Y-107955243D01*
X136215204Y-108027929D01*
X136183970Y-108111733D01*
X136171062Y-108233959D01*
X136169166Y-108353882D01*
X136172428Y-108527684D01*
X136172428Y-108527684D01*
G37*
X136172428Y-108527684D02*
X136185663Y-108630474D01*
X136214049Y-108675775D01*
X136262760Y-108677106D01*
X136289499Y-108668200D01*
X136334413Y-108640252D01*
X136322609Y-108592891D01*
X136295558Y-108551951D01*
X136244533Y-108426069D01*
X136235390Y-108279074D01*
X136267005Y-108147104D01*
X136310083Y-108085394D01*
X136422635Y-108021407D01*
X136524504Y-108039471D01*
X136612627Y-108137314D01*
X136683945Y-108312662D01*
X136700444Y-108375166D01*
X136769572Y-108594777D01*
X136854895Y-108734869D01*
X136961131Y-108799812D01*
X137093000Y-108793971D01*
X137137222Y-108779466D01*
X137274804Y-108683545D01*
X137367374Y-108522532D01*
X137410504Y-108305644D01*
X137412931Y-108205833D01*
X137407382Y-108056955D01*
X137397974Y-107935812D01*
X137389694Y-107882296D01*
X137341610Y-107831615D01*
X137288771Y-107834316D01*
X137229896Y-107852427D01*
X137213464Y-107880046D01*
X137239722Y-107939875D01*
X137290841Y-108024893D01*
X137355603Y-108185468D01*
X137364171Y-108344065D01*
X137320758Y-108479805D01*
X137229580Y-108571813D01*
X137176203Y-108592865D01*
X137056948Y-108584374D01*
X136958785Y-108495901D01*
X136884187Y-108330058D01*
X136866944Y-108266324D01*
X136820014Y-108119803D01*
X136759467Y-107991387D01*
X136733489Y-107952324D01*
X136616642Y-107863588D01*
X136476888Y-107846110D01*
X136336826Y-107899746D01*
X136271795Y-107955243D01*
X136215204Y-108027929D01*
X136183970Y-108111733D01*
X136171062Y-108233959D01*
X136169166Y-108353882D01*
X136172428Y-108527684D01*
G36*
X133956100Y-106264746D02*
X133980254Y-106413108D01*
X134008600Y-106488305D01*
X134052415Y-106560949D01*
X134105827Y-106609799D01*
X134185369Y-106639558D01*
X134307576Y-106654930D01*
X134488984Y-106660616D01*
X134616879Y-106661314D01*
X134829420Y-106664055D01*
X134972639Y-106674332D01*
X135061816Y-106696428D01*
X135112232Y-106734624D01*
X135139169Y-106793202D01*
X135143358Y-106808833D01*
X135157230Y-106827029D01*
X135167199Y-106771309D01*
X135169422Y-106727500D01*
X135156614Y-106596942D01*
X135117675Y-106499686D01*
X135111388Y-106491946D01*
X135076219Y-106438991D01*
X135078838Y-106377750D01*
X135121936Y-106278414D01*
X135132554Y-106257411D01*
X135201732Y-106051832D01*
X135208681Y-105845903D01*
X135162513Y-105688279D01*
X135085454Y-105589452D01*
X134995744Y-105519815D01*
X134911446Y-105481444D01*
X134847417Y-105489922D01*
X134847417Y-105732904D01*
X134965496Y-105754011D01*
X135052281Y-105818947D01*
X135109755Y-105896917D01*
X135127521Y-105994212D01*
X135120787Y-106095832D01*
X135090833Y-106231769D01*
X135041757Y-106343028D01*
X135024612Y-106366051D01*
X134939187Y-106423900D01*
X134806416Y-106447474D01*
X134744438Y-106449000D01*
X134631613Y-106446141D01*
X134567263Y-106426469D01*
X134543662Y-106373340D01*
X134553086Y-106270111D01*
X134586132Y-106107951D01*
X134649925Y-105914716D01*
X134739624Y-105788086D01*
X134847417Y-105732904D01*
X134847417Y-105489922D01*
X134845478Y-105490179D01*
X134763683Y-105544151D01*
X134691402Y-105616615D01*
X134632721Y-105722990D01*
X134582142Y-105877983D01*
X134534167Y-106096300D01*
X134512474Y-106216166D01*
X134485220Y-106343529D01*
X134450679Y-106409291D01*
X134393616Y-106436145D01*
X134361510Y-106441026D01*
X134209575Y-106424690D01*
X134098538Y-106345126D01*
X134033084Y-106215639D01*
X134017902Y-106049535D01*
X134057681Y-105860118D01*
X134112842Y-105735234D01*
X134138945Y-105663241D01*
X134115329Y-105644666D01*
X134054898Y-105683300D01*
X134006136Y-105785370D01*
X133971666Y-105930132D01*
X133954112Y-106096839D01*
X133956100Y-106264746D01*
X133956100Y-106264746D01*
G37*
X133956100Y-106264746D02*
X133980254Y-106413108D01*
X134008600Y-106488305D01*
X134052415Y-106560949D01*
X134105827Y-106609799D01*
X134185369Y-106639558D01*
X134307576Y-106654930D01*
X134488984Y-106660616D01*
X134616879Y-106661314D01*
X134829420Y-106664055D01*
X134972639Y-106674332D01*
X135061816Y-106696428D01*
X135112232Y-106734624D01*
X135139169Y-106793202D01*
X135143358Y-106808833D01*
X135157230Y-106827029D01*
X135167199Y-106771309D01*
X135169422Y-106727500D01*
X135156614Y-106596942D01*
X135117675Y-106499686D01*
X135111388Y-106491946D01*
X135076219Y-106438991D01*
X135078838Y-106377750D01*
X135121936Y-106278414D01*
X135132554Y-106257411D01*
X135201732Y-106051832D01*
X135208681Y-105845903D01*
X135162513Y-105688279D01*
X135085454Y-105589452D01*
X134995744Y-105519815D01*
X134911446Y-105481444D01*
X134847417Y-105489922D01*
X134847417Y-105732904D01*
X134965496Y-105754011D01*
X135052281Y-105818947D01*
X135109755Y-105896917D01*
X135127521Y-105994212D01*
X135120787Y-106095832D01*
X135090833Y-106231769D01*
X135041757Y-106343028D01*
X135024612Y-106366051D01*
X134939187Y-106423900D01*
X134806416Y-106447474D01*
X134744438Y-106449000D01*
X134631613Y-106446141D01*
X134567263Y-106426469D01*
X134543662Y-106373340D01*
X134553086Y-106270111D01*
X134586132Y-106107951D01*
X134649925Y-105914716D01*
X134739624Y-105788086D01*
X134847417Y-105732904D01*
X134847417Y-105489922D01*
X134845478Y-105490179D01*
X134763683Y-105544151D01*
X134691402Y-105616615D01*
X134632721Y-105722990D01*
X134582142Y-105877983D01*
X134534167Y-106096300D01*
X134512474Y-106216166D01*
X134485220Y-106343529D01*
X134450679Y-106409291D01*
X134393616Y-106436145D01*
X134361510Y-106441026D01*
X134209575Y-106424690D01*
X134098538Y-106345126D01*
X134033084Y-106215639D01*
X134017902Y-106049535D01*
X134057681Y-105860118D01*
X134112842Y-105735234D01*
X134138945Y-105663241D01*
X134115329Y-105644666D01*
X134054898Y-105683300D01*
X134006136Y-105785370D01*
X133971666Y-105930132D01*
X133954112Y-106096839D01*
X133956100Y-106264746D01*
G36*
X133956100Y-110709746D02*
X133980254Y-110858108D01*
X134008600Y-110933305D01*
X134052415Y-111005949D01*
X134105827Y-111054799D01*
X134185369Y-111084558D01*
X134307576Y-111099930D01*
X134488984Y-111105616D01*
X134616879Y-111106314D01*
X134829420Y-111109055D01*
X134972639Y-111119332D01*
X135061816Y-111141428D01*
X135112232Y-111179624D01*
X135139169Y-111238202D01*
X135143358Y-111253833D01*
X135157230Y-111272029D01*
X135167199Y-111216309D01*
X135169422Y-111172500D01*
X135156614Y-111041942D01*
X135117675Y-110944686D01*
X135111388Y-110936946D01*
X135076219Y-110883991D01*
X135078838Y-110822750D01*
X135121936Y-110723414D01*
X135132554Y-110702411D01*
X135199951Y-110498051D01*
X135208036Y-110286231D01*
X135173927Y-110145051D01*
X135110720Y-110052786D01*
X135030699Y-109982910D01*
X134941427Y-109938439D01*
X134859526Y-109947308D01*
X134847417Y-109952551D01*
X134847417Y-110177904D01*
X134965496Y-110199011D01*
X135052281Y-110263947D01*
X135109755Y-110341917D01*
X135127521Y-110439212D01*
X135120787Y-110540832D01*
X135090833Y-110676769D01*
X135041757Y-110788028D01*
X135024612Y-110811051D01*
X134939187Y-110868900D01*
X134806416Y-110892474D01*
X134744438Y-110894000D01*
X134631613Y-110891141D01*
X134567263Y-110871469D01*
X134543662Y-110818340D01*
X134553086Y-110715111D01*
X134586132Y-110552951D01*
X134649925Y-110359716D01*
X134739624Y-110233086D01*
X134847417Y-110177904D01*
X134847417Y-109952551D01*
X134806557Y-109970244D01*
X134712932Y-110033781D01*
X134643401Y-110131372D01*
X134590324Y-110279086D01*
X134546064Y-110492996D01*
X134539740Y-110531619D01*
X134510360Y-110705940D01*
X134484497Y-110812922D01*
X134453263Y-110868983D01*
X134407772Y-110890535D01*
X134343551Y-110894000D01*
X134188593Y-110859600D01*
X134080520Y-110765013D01*
X134023509Y-110623154D01*
X134021733Y-110446939D01*
X134079368Y-110249284D01*
X134112842Y-110180234D01*
X134138945Y-110108241D01*
X134115329Y-110089666D01*
X134054898Y-110128300D01*
X134006136Y-110230370D01*
X133971666Y-110375132D01*
X133954112Y-110541839D01*
X133956100Y-110709746D01*
X133956100Y-110709746D01*
G37*
X133956100Y-110709746D02*
X133980254Y-110858108D01*
X134008600Y-110933305D01*
X134052415Y-111005949D01*
X134105827Y-111054799D01*
X134185369Y-111084558D01*
X134307576Y-111099930D01*
X134488984Y-111105616D01*
X134616879Y-111106314D01*
X134829420Y-111109055D01*
X134972639Y-111119332D01*
X135061816Y-111141428D01*
X135112232Y-111179624D01*
X135139169Y-111238202D01*
X135143358Y-111253833D01*
X135157230Y-111272029D01*
X135167199Y-111216309D01*
X135169422Y-111172500D01*
X135156614Y-111041942D01*
X135117675Y-110944686D01*
X135111388Y-110936946D01*
X135076219Y-110883991D01*
X135078838Y-110822750D01*
X135121936Y-110723414D01*
X135132554Y-110702411D01*
X135199951Y-110498051D01*
X135208036Y-110286231D01*
X135173927Y-110145051D01*
X135110720Y-110052786D01*
X135030699Y-109982910D01*
X134941427Y-109938439D01*
X134859526Y-109947308D01*
X134847417Y-109952551D01*
X134847417Y-110177904D01*
X134965496Y-110199011D01*
X135052281Y-110263947D01*
X135109755Y-110341917D01*
X135127521Y-110439212D01*
X135120787Y-110540832D01*
X135090833Y-110676769D01*
X135041757Y-110788028D01*
X135024612Y-110811051D01*
X134939187Y-110868900D01*
X134806416Y-110892474D01*
X134744438Y-110894000D01*
X134631613Y-110891141D01*
X134567263Y-110871469D01*
X134543662Y-110818340D01*
X134553086Y-110715111D01*
X134586132Y-110552951D01*
X134649925Y-110359716D01*
X134739624Y-110233086D01*
X134847417Y-110177904D01*
X134847417Y-109952551D01*
X134806557Y-109970244D01*
X134712932Y-110033781D01*
X134643401Y-110131372D01*
X134590324Y-110279086D01*
X134546064Y-110492996D01*
X134539740Y-110531619D01*
X134510360Y-110705940D01*
X134484497Y-110812922D01*
X134453263Y-110868983D01*
X134407772Y-110890535D01*
X134343551Y-110894000D01*
X134188593Y-110859600D01*
X134080520Y-110765013D01*
X134023509Y-110623154D01*
X134021733Y-110446939D01*
X134079368Y-110249284D01*
X134112842Y-110180234D01*
X134138945Y-110108241D01*
X134115329Y-110089666D01*
X134054898Y-110128300D01*
X134006136Y-110230370D01*
X133971666Y-110375132D01*
X133954112Y-110541839D01*
X133956100Y-110709746D01*
G36*
X133953664Y-113545791D02*
X133981038Y-113654974D01*
X134038357Y-113747547D01*
X134055117Y-113768056D01*
X134105068Y-113824142D01*
X134154321Y-113861458D01*
X134220928Y-113884387D01*
X134322945Y-113897310D01*
X134478423Y-113904610D01*
X134635366Y-113908888D01*
X134840588Y-113914814D01*
X134976731Y-113922628D01*
X135059362Y-113935989D01*
X135104051Y-113958555D01*
X135126365Y-113993985D01*
X135136529Y-114026666D01*
X135155259Y-114081087D01*
X135165191Y-114064289D01*
X135170033Y-113969630D01*
X135170113Y-113966500D01*
X135157021Y-113837509D01*
X135118686Y-113740107D01*
X135111388Y-113730946D01*
X135076219Y-113677991D01*
X135078838Y-113616750D01*
X135121936Y-113517414D01*
X135132554Y-113496411D01*
X135194140Y-113316329D01*
X135212618Y-113124039D01*
X135186769Y-112968333D01*
X135127589Y-112868181D01*
X135038917Y-112776510D01*
X134949543Y-112720594D01*
X134918663Y-112714333D01*
X134863349Y-112731143D01*
X134863349Y-112976537D01*
X134991198Y-112998567D01*
X135080531Y-113081484D01*
X135125862Y-113208213D01*
X135121703Y-113361683D01*
X135062567Y-113524820D01*
X135047797Y-113550416D01*
X134989730Y-113632542D01*
X134925917Y-113673290D01*
X134825184Y-113686909D01*
X134746815Y-113688000D01*
X134529719Y-113688000D01*
X134558688Y-113486916D01*
X134613573Y-113241679D01*
X134696248Y-113076042D01*
X134806994Y-112989531D01*
X134863349Y-112976537D01*
X134863349Y-112731143D01*
X134836469Y-112739312D01*
X134738918Y-112799417D01*
X134738392Y-112799830D01*
X134695271Y-112837039D01*
X134661432Y-112880497D01*
X134632249Y-112944303D01*
X134603096Y-113042553D01*
X134569347Y-113189342D01*
X134526378Y-113398769D01*
X134502510Y-113518666D01*
X134448984Y-113636907D01*
X134356639Y-113684741D01*
X134236973Y-113659858D01*
X134136455Y-113592293D01*
X134045942Y-113461931D01*
X134017681Y-113292580D01*
X134053299Y-113104353D01*
X134090147Y-113019727D01*
X134125484Y-112931961D01*
X134124484Y-112885757D01*
X134118174Y-112883666D01*
X134058955Y-112922609D01*
X134006140Y-113025878D01*
X133966669Y-113173136D01*
X133947482Y-113344044D01*
X133946666Y-113386316D01*
X133953664Y-113545791D01*
X133953664Y-113545791D01*
G37*
X133953664Y-113545791D02*
X133981038Y-113654974D01*
X134038357Y-113747547D01*
X134055117Y-113768056D01*
X134105068Y-113824142D01*
X134154321Y-113861458D01*
X134220928Y-113884387D01*
X134322945Y-113897310D01*
X134478423Y-113904610D01*
X134635366Y-113908888D01*
X134840588Y-113914814D01*
X134976731Y-113922628D01*
X135059362Y-113935989D01*
X135104051Y-113958555D01*
X135126365Y-113993985D01*
X135136529Y-114026666D01*
X135155259Y-114081087D01*
X135165191Y-114064289D01*
X135170033Y-113969630D01*
X135170113Y-113966500D01*
X135157021Y-113837509D01*
X135118686Y-113740107D01*
X135111388Y-113730946D01*
X135076219Y-113677991D01*
X135078838Y-113616750D01*
X135121936Y-113517414D01*
X135132554Y-113496411D01*
X135194140Y-113316329D01*
X135212618Y-113124039D01*
X135186769Y-112968333D01*
X135127589Y-112868181D01*
X135038917Y-112776510D01*
X134949543Y-112720594D01*
X134918663Y-112714333D01*
X134863349Y-112731143D01*
X134863349Y-112976537D01*
X134991198Y-112998567D01*
X135080531Y-113081484D01*
X135125862Y-113208213D01*
X135121703Y-113361683D01*
X135062567Y-113524820D01*
X135047797Y-113550416D01*
X134989730Y-113632542D01*
X134925917Y-113673290D01*
X134825184Y-113686909D01*
X134746815Y-113688000D01*
X134529719Y-113688000D01*
X134558688Y-113486916D01*
X134613573Y-113241679D01*
X134696248Y-113076042D01*
X134806994Y-112989531D01*
X134863349Y-112976537D01*
X134863349Y-112731143D01*
X134836469Y-112739312D01*
X134738918Y-112799417D01*
X134738392Y-112799830D01*
X134695271Y-112837039D01*
X134661432Y-112880497D01*
X134632249Y-112944303D01*
X134603096Y-113042553D01*
X134569347Y-113189342D01*
X134526378Y-113398769D01*
X134502510Y-113518666D01*
X134448984Y-113636907D01*
X134356639Y-113684741D01*
X134236973Y-113659858D01*
X134136455Y-113592293D01*
X134045942Y-113461931D01*
X134017681Y-113292580D01*
X134053299Y-113104353D01*
X134090147Y-113019727D01*
X134125484Y-112931961D01*
X134124484Y-112885757D01*
X134118174Y-112883666D01*
X134058955Y-112922609D01*
X134006140Y-113025878D01*
X133966669Y-113173136D01*
X133947482Y-113344044D01*
X133946666Y-113386316D01*
X133953664Y-113545791D01*
G36*
X133952032Y-109193098D02*
X133975790Y-109291261D01*
X134029429Y-109371953D01*
X134076287Y-109421466D01*
X134149908Y-109490166D01*
X134214932Y-109526482D01*
X134299212Y-109537357D01*
X134430604Y-109529734D01*
X134489037Y-109524344D01*
X134674295Y-109509835D01*
X134860265Y-109499999D01*
X134973250Y-109497300D01*
X135094890Y-109493239D01*
X135154103Y-109473739D01*
X135173042Y-109427106D01*
X135174333Y-109391166D01*
X135174333Y-109285333D01*
X134690572Y-109285333D01*
X134481536Y-109284528D01*
X134339981Y-109279876D01*
X134248723Y-109268024D01*
X134190579Y-109245618D01*
X134148364Y-109209304D01*
X134119072Y-109173790D01*
X134043618Y-109013326D01*
X134044548Y-108831288D01*
X134094369Y-108693564D01*
X134139625Y-108621397D01*
X134198002Y-108571877D01*
X134285114Y-108540789D01*
X134416575Y-108523915D01*
X134608001Y-108517039D01*
X134752032Y-108515972D01*
X135174333Y-108514973D01*
X135174333Y-108269333D01*
X134690572Y-108269333D01*
X134481814Y-108268610D01*
X134340457Y-108264113D01*
X134249233Y-108252349D01*
X134190877Y-108229826D01*
X134148122Y-108193051D01*
X134115041Y-108152916D01*
X134047403Y-108004430D01*
X134046891Y-107837658D01*
X134110162Y-107681245D01*
X134179243Y-107602649D01*
X134237763Y-107559281D01*
X134304813Y-107531410D01*
X134399793Y-107515693D01*
X134542103Y-107508784D01*
X134732193Y-107507333D01*
X135174333Y-107507333D01*
X135174333Y-107274500D01*
X133960777Y-107274500D01*
X133960777Y-107390916D01*
X133974753Y-107476682D01*
X134032226Y-107505795D01*
X134066934Y-107507333D01*
X134173091Y-107507333D01*
X134073972Y-107612841D01*
X133997548Y-107740962D01*
X133958807Y-107905700D01*
X133955817Y-108083891D01*
X133986649Y-108252369D01*
X134049371Y-108387968D01*
X134142052Y-108467524D01*
X134145319Y-108468819D01*
X134189652Y-108497101D01*
X134157296Y-108536469D01*
X134151746Y-108540724D01*
X134029022Y-108674266D01*
X133962860Y-108852538D01*
X133946666Y-109044009D01*
X133952032Y-109193098D01*
X133952032Y-109193098D01*
G37*
X133952032Y-109193098D02*
X133975790Y-109291261D01*
X134029429Y-109371953D01*
X134076287Y-109421466D01*
X134149908Y-109490166D01*
X134214932Y-109526482D01*
X134299212Y-109537357D01*
X134430604Y-109529734D01*
X134489037Y-109524344D01*
X134674295Y-109509835D01*
X134860265Y-109499999D01*
X134973250Y-109497300D01*
X135094890Y-109493239D01*
X135154103Y-109473739D01*
X135173042Y-109427106D01*
X135174333Y-109391166D01*
X135174333Y-109285333D01*
X134690572Y-109285333D01*
X134481536Y-109284528D01*
X134339981Y-109279876D01*
X134248723Y-109268024D01*
X134190579Y-109245618D01*
X134148364Y-109209304D01*
X134119072Y-109173790D01*
X134043618Y-109013326D01*
X134044548Y-108831288D01*
X134094369Y-108693564D01*
X134139625Y-108621397D01*
X134198002Y-108571877D01*
X134285114Y-108540789D01*
X134416575Y-108523915D01*
X134608001Y-108517039D01*
X134752032Y-108515972D01*
X135174333Y-108514973D01*
X135174333Y-108269333D01*
X134690572Y-108269333D01*
X134481814Y-108268610D01*
X134340457Y-108264113D01*
X134249233Y-108252349D01*
X134190877Y-108229826D01*
X134148122Y-108193051D01*
X134115041Y-108152916D01*
X134047403Y-108004430D01*
X134046891Y-107837658D01*
X134110162Y-107681245D01*
X134179243Y-107602649D01*
X134237763Y-107559281D01*
X134304813Y-107531410D01*
X134399793Y-107515693D01*
X134542103Y-107508784D01*
X134732193Y-107507333D01*
X135174333Y-107507333D01*
X135174333Y-107274500D01*
X133960777Y-107274500D01*
X133960777Y-107390916D01*
X133974753Y-107476682D01*
X134032226Y-107505795D01*
X134066934Y-107507333D01*
X134173091Y-107507333D01*
X134073972Y-107612841D01*
X133997548Y-107740962D01*
X133958807Y-107905700D01*
X133955817Y-108083891D01*
X133986649Y-108252369D01*
X134049371Y-108387968D01*
X134142052Y-108467524D01*
X134145319Y-108468819D01*
X134189652Y-108497101D01*
X134157296Y-108536469D01*
X134151746Y-108540724D01*
X134029022Y-108674266D01*
X133962860Y-108852538D01*
X133946666Y-109044009D01*
X133952032Y-109193098D01*
G36*
X133979533Y-112472131D02*
X134031333Y-112472599D01*
X134089850Y-112436478D01*
X134113638Y-112353620D01*
X134116000Y-112289135D01*
X134134465Y-112156089D01*
X134201874Y-112061631D01*
X134227542Y-112040072D01*
X134291884Y-111998509D01*
X134370296Y-111972352D01*
X134483023Y-111958244D01*
X134650309Y-111952830D01*
X134756709Y-111952333D01*
X134947274Y-111951620D01*
X135068735Y-111946906D01*
X135136655Y-111934327D01*
X135166594Y-111910023D01*
X135174115Y-111870128D01*
X135174333Y-111848675D01*
X135174333Y-111745016D01*
X134563565Y-111732258D01*
X133952798Y-111719500D01*
X133956174Y-111835916D01*
X133971274Y-111919357D01*
X134027861Y-111949511D01*
X134084494Y-111952333D01*
X134209437Y-111952333D01*
X134078052Y-112101973D01*
X133995549Y-112219741D01*
X133950121Y-112332647D01*
X133944029Y-112422756D01*
X133979533Y-112472131D01*
X133979533Y-112472131D01*
G37*
X133979533Y-112472131D02*
X134031333Y-112472599D01*
X134089850Y-112436478D01*
X134113638Y-112353620D01*
X134116000Y-112289135D01*
X134134465Y-112156089D01*
X134201874Y-112061631D01*
X134227542Y-112040072D01*
X134291884Y-111998509D01*
X134370296Y-111972352D01*
X134483023Y-111958244D01*
X134650309Y-111952830D01*
X134756709Y-111952333D01*
X134947274Y-111951620D01*
X135068735Y-111946906D01*
X135136655Y-111934327D01*
X135166594Y-111910023D01*
X135174115Y-111870128D01*
X135174333Y-111848675D01*
X135174333Y-111745016D01*
X134563565Y-111732258D01*
X133952798Y-111719500D01*
X133956174Y-111835916D01*
X133971274Y-111919357D01*
X134027861Y-111949511D01*
X134084494Y-111952333D01*
X134209437Y-111952333D01*
X134078052Y-112101973D01*
X133995549Y-112219741D01*
X133950121Y-112332647D01*
X133944029Y-112422756D01*
X133979533Y-112472131D01*
D11*
X152857000Y-91969700D02*
X152857000Y-94116000D01*
X152857000Y-94116000D02*
X153111000Y-94370000D01*
X153111000Y-94370000D02*
X152857000Y-94624000D01*
X152857000Y-94624000D02*
X152857000Y-96783000D01*
X152857000Y-96783000D02*
X155143000Y-96783000D01*
X155143000Y-96783000D02*
X155143000Y-94624000D01*
X155143000Y-94624000D02*
X154889000Y-94370000D01*
X154889000Y-94370000D02*
X155143000Y-94116000D01*
X155143000Y-94116000D02*
X155143000Y-91957000D01*
X155143000Y-91957000D02*
X152857000Y-91957000D01*
X179443000Y-116070300D02*
X179443000Y-113924000D01*
X179443000Y-113924000D02*
X179189000Y-113670000D01*
X179189000Y-113670000D02*
X179443000Y-113416000D01*
X179443000Y-113416000D02*
X179443000Y-111257000D01*
X179443000Y-111257000D02*
X177157000Y-111257000D01*
X177157000Y-111257000D02*
X177157000Y-113416000D01*
X177157000Y-113416000D02*
X177411000Y-113670000D01*
X177411000Y-113670000D02*
X177157000Y-113924000D01*
X177157000Y-113924000D02*
X177157000Y-116083000D01*
X177157000Y-116083000D02*
X179443000Y-116083000D01*
X126357000Y-91969700D02*
X126357000Y-94116000D01*
X126357000Y-94116000D02*
X126611000Y-94370000D01*
X126611000Y-94370000D02*
X126357000Y-94624000D01*
X126357000Y-94624000D02*
X126357000Y-96783000D01*
X126357000Y-96783000D02*
X128643000Y-96783000D01*
X128643000Y-96783000D02*
X128643000Y-94624000D01*
X128643000Y-94624000D02*
X128389000Y-94370000D01*
X128389000Y-94370000D02*
X128643000Y-94116000D01*
X128643000Y-94116000D02*
X128643000Y-91957000D01*
X128643000Y-91957000D02*
X126357000Y-91957000D01*
X152943000Y-116070300D02*
X152943000Y-113924000D01*
X152943000Y-113924000D02*
X152689000Y-113670000D01*
X152689000Y-113670000D02*
X152943000Y-113416000D01*
X152943000Y-113416000D02*
X152943000Y-111257000D01*
X152943000Y-111257000D02*
X150657000Y-111257000D01*
X150657000Y-111257000D02*
X150657000Y-113416000D01*
X150657000Y-113416000D02*
X150911000Y-113670000D01*
X150911000Y-113670000D02*
X150657000Y-113924000D01*
X150657000Y-113924000D02*
X150657000Y-116083000D01*
X150657000Y-116083000D02*
X152943000Y-116083000D01*
X99857000Y-91969700D02*
X99857000Y-94116000D01*
X99857000Y-94116000D02*
X100111000Y-94370000D01*
X100111000Y-94370000D02*
X99857000Y-94624000D01*
X99857000Y-94624000D02*
X99857000Y-96783000D01*
X99857000Y-96783000D02*
X102143000Y-96783000D01*
X102143000Y-96783000D02*
X102143000Y-94624000D01*
X102143000Y-94624000D02*
X101889000Y-94370000D01*
X101889000Y-94370000D02*
X102143000Y-94116000D01*
X102143000Y-94116000D02*
X102143000Y-91957000D01*
X102143000Y-91957000D02*
X99857000Y-91957000D01*
X126443000Y-116070300D02*
X126443000Y-113924000D01*
X126443000Y-113924000D02*
X126189000Y-113670000D01*
X126189000Y-113670000D02*
X126443000Y-113416000D01*
X126443000Y-113416000D02*
X126443000Y-111257000D01*
X126443000Y-111257000D02*
X124157000Y-111257000D01*
X124157000Y-111257000D02*
X124157000Y-113416000D01*
X124157000Y-113416000D02*
X124411000Y-113670000D01*
X124411000Y-113670000D02*
X124157000Y-113924000D01*
X124157000Y-113924000D02*
X124157000Y-116083000D01*
X124157000Y-116083000D02*
X126443000Y-116083000D01*
D10*
X152870000Y-109550000D02*
X151120000Y-109550000D01*
X151120000Y-106050000D02*
X151120000Y-109550000D01*
X152870000Y-109550000D02*
X152870000Y-106050000D01*
X151120000Y-106050000D02*
X152870000Y-106050000D01*
X120470000Y-109550000D02*
X118720000Y-109550000D01*
X118720000Y-106050000D02*
X118720000Y-109550000D01*
X120470000Y-109550000D02*
X120470000Y-106050000D01*
X118720000Y-106050000D02*
X120470000Y-106050000D01*
X177970000Y-109550000D02*
X176220000Y-109550000D01*
X176220000Y-106050000D02*
X176220000Y-109550000D01*
X177970000Y-109550000D02*
X177970000Y-106050000D01*
X176220000Y-106050000D02*
X177970000Y-106050000D01*
X158170000Y-103750000D02*
X156420000Y-103750000D01*
X156420000Y-100250000D02*
X156420000Y-103750000D01*
X158170000Y-103750000D02*
X158170000Y-100250000D01*
X156420000Y-100250000D02*
X158170000Y-100250000D01*
X119170000Y-103750000D02*
X117420000Y-103750000D01*
X117420000Y-100250000D02*
X117420000Y-103750000D01*
X119170000Y-103750000D02*
X119170000Y-100250000D01*
X117420000Y-100250000D02*
X119170000Y-100250000D01*
X183370000Y-103750000D02*
X181620000Y-103750000D01*
X181620000Y-100250000D02*
X181620000Y-103750000D01*
X183370000Y-103750000D02*
X183370000Y-100250000D01*
X181620000Y-100250000D02*
X183370000Y-100250000D01*
D11*
X102130000Y-103230000D02*
X102130000Y-105770000D01*
X102130000Y-105770000D02*
X104670000Y-105770000D01*
D13*
X99616000Y-103234000D02*
X99616000Y-115930000D01*
X99590000Y-115930000D02*
X104644000Y-115930000D01*
X104644000Y-115930000D02*
X104644000Y-103234000D01*
X104670000Y-103230000D02*
X99590000Y-103230000D01*
D11*
X111566666Y-116157143D02*
X111614285Y-116204762D01*
X111757142Y-116252381D01*
X111852380Y-116252381D01*
X111995238Y-116204762D01*
X112090476Y-116109524D01*
X112138095Y-116014286D01*
X112185714Y-115823810D01*
X112185714Y-115680952D01*
X112138095Y-115490476D01*
X112090476Y-115395238D01*
X111995238Y-115300000D01*
X111852380Y-115252381D01*
X111757142Y-115252381D01*
X111614285Y-115300000D01*
X111566666Y-115347619D01*
X110709523Y-115252381D02*
X110900000Y-115252381D01*
X110995238Y-115300000D01*
X111042857Y-115347619D01*
X111138095Y-115490476D01*
X111185714Y-115680952D01*
X111185714Y-116061905D01*
X111138095Y-116157143D01*
X111090476Y-116204762D01*
X110995238Y-116252381D01*
X110804761Y-116252381D01*
X110709523Y-116204762D01*
X110661904Y-116157143D01*
X110614285Y-116061905D01*
X110614285Y-115823810D01*
X110661904Y-115728571D01*
X110709523Y-115680952D01*
X110804761Y-115633333D01*
X110995238Y-115633333D01*
X111090476Y-115680952D01*
X111138095Y-115728571D01*
X111185714Y-115823810D01*
X113360952Y-114621429D02*
X112599047Y-114621429D01*
X112979999Y-115002381D02*
X112979999Y-114240476D01*
X113042857Y-101157143D02*
X113090476Y-101204762D01*
X113233333Y-101252381D01*
X113328571Y-101252381D01*
X113471429Y-101204762D01*
X113566667Y-101109524D01*
X113614286Y-101014286D01*
X113661905Y-100823810D01*
X113661905Y-100680952D01*
X113614286Y-100490476D01*
X113566667Y-100395238D01*
X113471429Y-100300000D01*
X113328571Y-100252381D01*
X113233333Y-100252381D01*
X113090476Y-100300000D01*
X113042857Y-100347619D01*
X112090476Y-101252381D02*
X112661905Y-101252381D01*
X112376191Y-101252381D02*
X112376191Y-100252381D01*
X112471429Y-100395238D01*
X112566667Y-100490476D01*
X112661905Y-100538095D01*
X111471429Y-100252381D02*
X111376190Y-100252381D01*
X111280952Y-100300000D01*
X111233333Y-100347619D01*
X111185714Y-100442857D01*
X111138095Y-100633333D01*
X111138095Y-100871429D01*
X111185714Y-101061905D01*
X111233333Y-101157143D01*
X111280952Y-101204762D01*
X111376190Y-101252381D01*
X111471429Y-101252381D01*
X111566667Y-101204762D01*
X111614286Y-101157143D01*
X111661905Y-101061905D01*
X111709524Y-100871429D01*
X111709524Y-100633333D01*
X111661905Y-100442857D01*
X111614286Y-100347619D01*
X111566667Y-100300000D01*
X111471429Y-100252381D01*
X107000952Y-101921429D02*
X106239047Y-101921429D01*
X106619999Y-102302381D02*
X106619999Y-101540476D01*
X106838095Y-100752381D02*
X106838095Y-99752381D01*
X106600000Y-99752381D01*
X106457142Y-99800000D01*
X106361904Y-99895238D01*
X106314285Y-99990476D01*
X106266666Y-100180952D01*
X106266666Y-100323810D01*
X106314285Y-100514286D01*
X106361904Y-100609524D01*
X106457142Y-100704762D01*
X106600000Y-100752381D01*
X106838095Y-100752381D01*
X105933333Y-99752381D02*
X105314285Y-99752381D01*
X105647619Y-100133333D01*
X105504761Y-100133333D01*
X105409523Y-100180952D01*
X105361904Y-100228571D01*
X105314285Y-100323810D01*
X105314285Y-100561905D01*
X105361904Y-100657143D01*
X105409523Y-100704762D01*
X105504761Y-100752381D01*
X105790476Y-100752381D01*
X105885714Y-100704762D01*
X105933333Y-100657143D01*
X106588095Y-118852381D02*
X106588095Y-117852381D01*
X106350000Y-117852381D01*
X106207142Y-117900000D01*
X106111904Y-117995238D01*
X106064285Y-118090476D01*
X106016666Y-118280952D01*
X106016666Y-118423810D01*
X106064285Y-118614286D01*
X106111904Y-118709524D01*
X106207142Y-118804762D01*
X106350000Y-118852381D01*
X106588095Y-118852381D01*
X105064285Y-118852381D02*
X105635714Y-118852381D01*
X105350000Y-118852381D02*
X105350000Y-117852381D01*
X105445238Y-117995238D01*
X105540476Y-118090476D01*
X105635714Y-118138095D01*
X150857143Y-107633334D02*
X150904762Y-107585715D01*
X150952381Y-107442858D01*
X150952381Y-107347620D01*
X150904762Y-107204762D01*
X150809524Y-107109524D01*
X150714286Y-107061905D01*
X150523810Y-107014286D01*
X150380952Y-107014286D01*
X150190476Y-107061905D01*
X150095238Y-107109524D01*
X150000000Y-107204762D01*
X149952381Y-107347620D01*
X149952381Y-107442858D01*
X150000000Y-107585715D01*
X150047619Y-107633334D01*
X149952381Y-107966667D02*
X149952381Y-108633334D01*
X150952381Y-108204762D01*
X118457143Y-107633334D02*
X118504762Y-107585715D01*
X118552381Y-107442858D01*
X118552381Y-107347620D01*
X118504762Y-107204762D01*
X118409524Y-107109524D01*
X118314286Y-107061905D01*
X118123810Y-107014286D01*
X117980952Y-107014286D01*
X117790476Y-107061905D01*
X117695238Y-107109524D01*
X117600000Y-107204762D01*
X117552381Y-107347620D01*
X117552381Y-107442858D01*
X117600000Y-107585715D01*
X117647619Y-107633334D01*
X117980952Y-108204762D02*
X117933333Y-108109524D01*
X117885714Y-108061905D01*
X117790476Y-108014286D01*
X117742857Y-108014286D01*
X117647619Y-108061905D01*
X117600000Y-108109524D01*
X117552381Y-108204762D01*
X117552381Y-108395239D01*
X117600000Y-108490477D01*
X117647619Y-108538096D01*
X117742857Y-108585715D01*
X117790476Y-108585715D01*
X117885714Y-108538096D01*
X117933333Y-108490477D01*
X117980952Y-108395239D01*
X117980952Y-108204762D01*
X118028571Y-108109524D01*
X118076190Y-108061905D01*
X118171429Y-108014286D01*
X118361905Y-108014286D01*
X118457143Y-108061905D01*
X118504762Y-108109524D01*
X118552381Y-108204762D01*
X118552381Y-108395239D01*
X118504762Y-108490477D01*
X118457143Y-108538096D01*
X118361905Y-108585715D01*
X118171429Y-108585715D01*
X118076190Y-108538096D01*
X118028571Y-108490477D01*
X117980952Y-108395239D01*
X175957143Y-107633334D02*
X176004762Y-107585715D01*
X176052381Y-107442858D01*
X176052381Y-107347620D01*
X176004762Y-107204762D01*
X175909524Y-107109524D01*
X175814286Y-107061905D01*
X175623810Y-107014286D01*
X175480952Y-107014286D01*
X175290476Y-107061905D01*
X175195238Y-107109524D01*
X175100000Y-107204762D01*
X175052381Y-107347620D01*
X175052381Y-107442858D01*
X175100000Y-107585715D01*
X175147619Y-107633334D01*
X176052381Y-108109524D02*
X176052381Y-108300000D01*
X176004762Y-108395239D01*
X175957143Y-108442858D01*
X175814286Y-108538096D01*
X175623810Y-108585715D01*
X175242857Y-108585715D01*
X175147619Y-108538096D01*
X175100000Y-108490477D01*
X175052381Y-108395239D01*
X175052381Y-108204762D01*
X175100000Y-108109524D01*
X175147619Y-108061905D01*
X175242857Y-108014286D01*
X175480952Y-108014286D01*
X175576190Y-108061905D01*
X175623810Y-108109524D01*
X175671429Y-108204762D01*
X175671429Y-108395239D01*
X175623810Y-108490477D01*
X175576190Y-108538096D01*
X175480952Y-108585715D01*
X156157143Y-101357143D02*
X156204762Y-101309524D01*
X156252381Y-101166667D01*
X156252381Y-101071429D01*
X156204762Y-100928571D01*
X156109524Y-100833333D01*
X156014286Y-100785714D01*
X155823810Y-100738095D01*
X155680952Y-100738095D01*
X155490476Y-100785714D01*
X155395238Y-100833333D01*
X155300000Y-100928571D01*
X155252381Y-101071429D01*
X155252381Y-101166667D01*
X155300000Y-101309524D01*
X155347619Y-101357143D01*
X156252381Y-102309524D02*
X156252381Y-101738095D01*
X156252381Y-102023809D02*
X155252381Y-102023809D01*
X155395238Y-101928571D01*
X155490476Y-101833333D01*
X155538095Y-101738095D01*
X156252381Y-103261905D02*
X156252381Y-102690476D01*
X156252381Y-102976190D02*
X155252381Y-102976190D01*
X155395238Y-102880952D01*
X155490476Y-102785714D01*
X155538095Y-102690476D01*
X117157143Y-101357143D02*
X117204762Y-101309524D01*
X117252381Y-101166667D01*
X117252381Y-101071429D01*
X117204762Y-100928571D01*
X117109524Y-100833333D01*
X117014286Y-100785714D01*
X116823810Y-100738095D01*
X116680952Y-100738095D01*
X116490476Y-100785714D01*
X116395238Y-100833333D01*
X116300000Y-100928571D01*
X116252381Y-101071429D01*
X116252381Y-101166667D01*
X116300000Y-101309524D01*
X116347619Y-101357143D01*
X117252381Y-102309524D02*
X117252381Y-101738095D01*
X117252381Y-102023809D02*
X116252381Y-102023809D01*
X116395238Y-101928571D01*
X116490476Y-101833333D01*
X116538095Y-101738095D01*
X116347619Y-102690476D02*
X116300000Y-102738095D01*
X116252381Y-102833333D01*
X116252381Y-103071429D01*
X116300000Y-103166667D01*
X116347619Y-103214286D01*
X116442857Y-103261905D01*
X116538095Y-103261905D01*
X116680952Y-103214286D01*
X117252381Y-102642857D01*
X117252381Y-103261905D01*
X181357143Y-101357143D02*
X181404762Y-101309524D01*
X181452381Y-101166667D01*
X181452381Y-101071429D01*
X181404762Y-100928571D01*
X181309524Y-100833333D01*
X181214286Y-100785714D01*
X181023810Y-100738095D01*
X180880952Y-100738095D01*
X180690476Y-100785714D01*
X180595238Y-100833333D01*
X180500000Y-100928571D01*
X180452381Y-101071429D01*
X180452381Y-101166667D01*
X180500000Y-101309524D01*
X180547619Y-101357143D01*
X181452381Y-102309524D02*
X181452381Y-101738095D01*
X181452381Y-102023809D02*
X180452381Y-102023809D01*
X180595238Y-101928571D01*
X180690476Y-101833333D01*
X180738095Y-101738095D01*
X180452381Y-102642857D02*
X180452381Y-103261905D01*
X180833333Y-102928571D01*
X180833333Y-103071429D01*
X180880952Y-103166667D01*
X180928571Y-103214286D01*
X181023810Y-103261905D01*
X181261905Y-103261905D01*
X181357143Y-103214286D01*
X181404762Y-103166667D01*
X181452381Y-103071429D01*
X181452381Y-102785714D01*
X181404762Y-102690476D01*
X181357143Y-102642857D01*
M02*
