G04 #@! TF.FileFunction,Legend,Top*
%FSLAX46Y46*%
G04 Gerber Fmt 4.6, Leading zero omitted, Abs format (unit mm)*
G04 Created by KiCad (PCBNEW 4.0.5) date 08/02/17 20:53:55*
%MOMM*%
%LPD*%
G01*
G04 APERTURE LIST*
%ADD10C,0.100000*%
%ADD11C,0.200000*%
%ADD12C,0.150000*%
%ADD13C,0.120000*%
%ADD14C,0.203200*%
%ADD15C,0.101600*%
G04 APERTURE END LIST*
D10*
D11*
X121900000Y-106750000D02*
G75*
G03X121900000Y-106750000I-200000J0D01*
G01*
X156050000Y-106750000D02*
G75*
G03X156050000Y-106750000I-200000J0D01*
G01*
X184550000Y-106750000D02*
G75*
G03X184550000Y-106750000I-200000J0D01*
G01*
X188300000Y-102600000D02*
X188650000Y-104100000D01*
D12*
X98501100Y-119238600D02*
X198501100Y-119238600D01*
X198501100Y-119238600D02*
X198501100Y-90768600D01*
X198501100Y-90768600D02*
X98501100Y-90768600D01*
X98501100Y-90768600D02*
X98501100Y-119238600D01*
D13*
X110570000Y-106860000D02*
X111500000Y-106860000D01*
X113730000Y-106860000D02*
X112800000Y-106860000D01*
X113730000Y-106860000D02*
X113730000Y-103700000D01*
X110570000Y-106860000D02*
X110570000Y-105400000D01*
D12*
X122675000Y-107475000D02*
X122675000Y-107425000D01*
X118525000Y-107475000D02*
X118525000Y-107330000D01*
X118525000Y-102325000D02*
X118525000Y-102470000D01*
X122675000Y-102325000D02*
X122675000Y-102470000D01*
X122675000Y-107475000D02*
X118525000Y-107475000D01*
X122675000Y-102325000D02*
X118525000Y-102325000D01*
X122675000Y-107425000D02*
X124075000Y-107425000D01*
X156775000Y-107475000D02*
X156775000Y-107425000D01*
X152625000Y-107475000D02*
X152625000Y-107330000D01*
X152625000Y-102325000D02*
X152625000Y-102470000D01*
X156775000Y-102325000D02*
X156775000Y-102470000D01*
X156775000Y-107475000D02*
X152625000Y-107475000D01*
X156775000Y-102325000D02*
X152625000Y-102325000D01*
X156775000Y-107425000D02*
X158175000Y-107425000D01*
X185175000Y-107475000D02*
X185175000Y-107425000D01*
X181025000Y-107475000D02*
X181025000Y-107330000D01*
X181025000Y-102325000D02*
X181025000Y-102470000D01*
X185175000Y-102325000D02*
X185175000Y-102470000D01*
X185175000Y-107475000D02*
X181025000Y-107475000D01*
X185175000Y-102325000D02*
X181025000Y-102325000D01*
X185175000Y-107425000D02*
X186575000Y-107425000D01*
D10*
X127570000Y-104650000D02*
X125820000Y-104650000D01*
X125820000Y-108150000D02*
X125820000Y-104650000D01*
X127570000Y-104650000D02*
X127570000Y-108150000D01*
X125820000Y-108150000D02*
X127570000Y-108150000D01*
X149970000Y-103250000D02*
X148220000Y-103250000D01*
X148220000Y-106750000D02*
X148220000Y-103250000D01*
X149970000Y-103250000D02*
X149970000Y-106750000D01*
X148220000Y-106750000D02*
X149970000Y-106750000D01*
X160970000Y-104200000D02*
X159220000Y-104200000D01*
X159220000Y-107700000D02*
X159220000Y-104200000D01*
X160970000Y-104200000D02*
X160970000Y-107700000D01*
X159220000Y-107700000D02*
X160970000Y-107700000D01*
X179070000Y-102850000D02*
X177320000Y-102850000D01*
X177320000Y-106350000D02*
X177320000Y-102850000D01*
X179070000Y-102850000D02*
X179070000Y-106350000D01*
X177320000Y-106350000D02*
X179070000Y-106350000D01*
X189570000Y-104100000D02*
X187820000Y-104100000D01*
X187820000Y-107600000D02*
X187820000Y-104100000D01*
X189570000Y-104100000D02*
X189570000Y-107600000D01*
X187820000Y-107600000D02*
X189570000Y-107600000D01*
X110400000Y-101730000D02*
X110400000Y-103480000D01*
X113900000Y-103480000D02*
X110400000Y-103480000D01*
X110400000Y-101730000D02*
X113900000Y-101730000D01*
X113900000Y-103480000D02*
X113900000Y-101730000D01*
D14*
X184450000Y-117600000D02*
X184450000Y-109400000D01*
X195850000Y-109400000D02*
X195850000Y-117600000D01*
X185100000Y-117600000D02*
X185100000Y-118350000D01*
X184450000Y-117600000D02*
X185100000Y-117600000D01*
X195300000Y-117600000D02*
X195850000Y-117600000D01*
X195300000Y-118350000D02*
X195300000Y-117600000D01*
X195300000Y-109400000D02*
X195300000Y-108650000D01*
X195850000Y-109400000D02*
X195300000Y-109400000D01*
X185100000Y-109400000D02*
X184450000Y-109400000D01*
X185100000Y-108650000D02*
X185100000Y-109400000D01*
X187300000Y-118350000D02*
X185100000Y-118350000D01*
X195300000Y-118350000D02*
X192100000Y-118350000D01*
X185100000Y-108650000D02*
X187300000Y-108650000D01*
X192100000Y-108650000D02*
X195300000Y-108650000D01*
D15*
X195200000Y-116000000D02*
G75*
G03X195200000Y-116000000I-650000J0D01*
G01*
X195200000Y-111000000D02*
G75*
G03X195200000Y-111000000I-650000J0D01*
G01*
X186300000Y-116000000D02*
G75*
G03X186300000Y-116000000I-650000J0D01*
G01*
X186300000Y-111000000D02*
G75*
G03X186300000Y-111000000I-650000J0D01*
G01*
D14*
X192850000Y-113500000D02*
G75*
G03X192850000Y-113500000I-2900000J0D01*
G01*
X192300100Y-113500000D02*
G75*
G03X192300100Y-113500000I-2350100J0D01*
G01*
X162000000Y-117600000D02*
X162000000Y-109400000D01*
X173400000Y-109400000D02*
X173400000Y-117600000D01*
X162650000Y-117600000D02*
X162650000Y-118350000D01*
X162000000Y-117600000D02*
X162650000Y-117600000D01*
X172850000Y-117600000D02*
X173400000Y-117600000D01*
X172850000Y-118350000D02*
X172850000Y-117600000D01*
X172850000Y-109400000D02*
X172850000Y-108650000D01*
X173400000Y-109400000D02*
X172850000Y-109400000D01*
X162650000Y-109400000D02*
X162000000Y-109400000D01*
X162650000Y-108650000D02*
X162650000Y-109400000D01*
X164850000Y-118350000D02*
X162650000Y-118350000D01*
X172850000Y-118350000D02*
X169650000Y-118350000D01*
X162650000Y-108650000D02*
X164850000Y-108650000D01*
X169650000Y-108650000D02*
X172850000Y-108650000D01*
D15*
X172750000Y-116000000D02*
G75*
G03X172750000Y-116000000I-650000J0D01*
G01*
X172750000Y-111000000D02*
G75*
G03X172750000Y-111000000I-650000J0D01*
G01*
X163850000Y-116000000D02*
G75*
G03X163850000Y-116000000I-650000J0D01*
G01*
X163850000Y-111000000D02*
G75*
G03X163850000Y-111000000I-650000J0D01*
G01*
D14*
X170400000Y-113500000D02*
G75*
G03X170400000Y-113500000I-2900000J0D01*
G01*
X169850100Y-113500000D02*
G75*
G03X169850100Y-113500000I-2350100J0D01*
G01*
X135500000Y-117600000D02*
X135500000Y-109400000D01*
X146900000Y-109400000D02*
X146900000Y-117600000D01*
X136150000Y-117600000D02*
X136150000Y-118350000D01*
X135500000Y-117600000D02*
X136150000Y-117600000D01*
X146350000Y-117600000D02*
X146900000Y-117600000D01*
X146350000Y-118350000D02*
X146350000Y-117600000D01*
X146350000Y-109400000D02*
X146350000Y-108650000D01*
X146900000Y-109400000D02*
X146350000Y-109400000D01*
X136150000Y-109400000D02*
X135500000Y-109400000D01*
X136150000Y-108650000D02*
X136150000Y-109400000D01*
X138350000Y-118350000D02*
X136150000Y-118350000D01*
X146350000Y-118350000D02*
X143150000Y-118350000D01*
X136150000Y-108650000D02*
X138350000Y-108650000D01*
X143150000Y-108650000D02*
X146350000Y-108650000D01*
D15*
X146250000Y-116000000D02*
G75*
G03X146250000Y-116000000I-650000J0D01*
G01*
X146250000Y-111000000D02*
G75*
G03X146250000Y-111000000I-650000J0D01*
G01*
X137350000Y-116000000D02*
G75*
G03X137350000Y-116000000I-650000J0D01*
G01*
X137350000Y-111000000D02*
G75*
G03X137350000Y-111000000I-650000J0D01*
G01*
D14*
X143900000Y-113500000D02*
G75*
G03X143900000Y-113500000I-2900000J0D01*
G01*
X143350100Y-113500000D02*
G75*
G03X143350100Y-113500000I-2350100J0D01*
G01*
X109000000Y-117600000D02*
X109000000Y-109400000D01*
X120400000Y-109400000D02*
X120400000Y-117600000D01*
X109650000Y-117600000D02*
X109650000Y-118350000D01*
X109000000Y-117600000D02*
X109650000Y-117600000D01*
X119850000Y-117600000D02*
X120400000Y-117600000D01*
X119850000Y-118350000D02*
X119850000Y-117600000D01*
X119850000Y-109400000D02*
X119850000Y-108650000D01*
X120400000Y-109400000D02*
X119850000Y-109400000D01*
X109650000Y-109400000D02*
X109000000Y-109400000D01*
X109650000Y-108650000D02*
X109650000Y-109400000D01*
X111850000Y-118350000D02*
X109650000Y-118350000D01*
X119850000Y-118350000D02*
X116650000Y-118350000D01*
X109650000Y-108650000D02*
X111850000Y-108650000D01*
X116650000Y-108650000D02*
X119850000Y-108650000D01*
D15*
X119750000Y-116000000D02*
G75*
G03X119750000Y-116000000I-650000J0D01*
G01*
X119750000Y-111000000D02*
G75*
G03X119750000Y-111000000I-650000J0D01*
G01*
X110850000Y-116000000D02*
G75*
G03X110850000Y-116000000I-650000J0D01*
G01*
X110850000Y-111000000D02*
G75*
G03X110850000Y-111000000I-650000J0D01*
G01*
D14*
X117400000Y-113500000D02*
G75*
G03X117400000Y-113500000I-2900000J0D01*
G01*
X116850100Y-113500000D02*
G75*
G03X116850100Y-113500000I-2350100J0D01*
G01*
D10*
X114600000Y-105550000D02*
X116400000Y-105550000D01*
X114600000Y-105550000D02*
X114600000Y-102450000D01*
X116400000Y-102450000D02*
X114600000Y-102450000D01*
X116400000Y-102450000D02*
X116400000Y-105550000D01*
X188950000Y-101350000D02*
X188950000Y-103150000D01*
X188950000Y-101350000D02*
X192050000Y-101350000D01*
X192050000Y-103150000D02*
X192050000Y-101350000D01*
X192050000Y-103150000D02*
X188950000Y-103150000D01*
X181500000Y-100150000D02*
X181500000Y-101950000D01*
X181500000Y-100150000D02*
X184600000Y-100150000D01*
X184600000Y-101950000D02*
X184600000Y-100150000D01*
X184600000Y-101950000D02*
X181500000Y-101950000D01*
X189950000Y-105950000D02*
X189950000Y-107750000D01*
X189950000Y-105950000D02*
X193050000Y-105950000D01*
X193050000Y-107750000D02*
X193050000Y-105950000D01*
X193050000Y-107750000D02*
X189950000Y-107750000D01*
X189950000Y-103950000D02*
X189950000Y-105750000D01*
X189950000Y-103950000D02*
X193050000Y-103950000D01*
X193050000Y-105750000D02*
X193050000Y-103950000D01*
X193050000Y-105750000D02*
X189950000Y-105750000D01*
X196550000Y-104450000D02*
X196550000Y-102650000D01*
X196550000Y-104450000D02*
X193450000Y-104450000D01*
X193450000Y-102650000D02*
X193450000Y-104450000D01*
X193450000Y-102650000D02*
X196550000Y-102650000D01*
X177100000Y-103050000D02*
X175300000Y-103050000D01*
X177100000Y-103050000D02*
X177100000Y-106150000D01*
X175300000Y-106150000D02*
X177100000Y-106150000D01*
X175300000Y-106150000D02*
X175300000Y-103050000D01*
X161550000Y-106350000D02*
X161550000Y-108150000D01*
X161550000Y-106350000D02*
X164650000Y-106350000D01*
X164650000Y-108150000D02*
X164650000Y-106350000D01*
X164650000Y-108150000D02*
X161550000Y-108150000D01*
X161550000Y-110700000D02*
X161550000Y-108900000D01*
X161550000Y-110700000D02*
X158450000Y-110700000D01*
X158450000Y-108900000D02*
X158450000Y-110700000D01*
X158450000Y-108900000D02*
X161550000Y-108900000D01*
X179100000Y-99850000D02*
X180900000Y-99850000D01*
X179100000Y-99850000D02*
X179100000Y-96750000D01*
X180900000Y-96750000D02*
X179100000Y-96750000D01*
X180900000Y-96750000D02*
X180900000Y-99850000D01*
X161550000Y-104050000D02*
X161550000Y-105850000D01*
X161550000Y-104050000D02*
X164650000Y-104050000D01*
X164650000Y-105850000D02*
X164650000Y-104050000D01*
X164650000Y-105850000D02*
X161550000Y-105850000D01*
X147750000Y-107000000D02*
X147750000Y-105200000D01*
X147750000Y-107000000D02*
X144650000Y-107000000D01*
X144650000Y-105200000D02*
X144650000Y-107000000D01*
X144650000Y-105200000D02*
X147750000Y-105200000D01*
X150450000Y-108300000D02*
X150450000Y-110100000D01*
X150450000Y-108300000D02*
X153550000Y-108300000D01*
X153550000Y-110100000D02*
X153550000Y-108300000D01*
X153550000Y-110100000D02*
X150450000Y-110100000D01*
X147750000Y-104900000D02*
X147750000Y-103100000D01*
X147750000Y-104900000D02*
X144650000Y-104900000D01*
X144650000Y-103100000D02*
X144650000Y-104900000D01*
X144650000Y-103100000D02*
X147750000Y-103100000D01*
X128000000Y-108050000D02*
X129800000Y-108050000D01*
X128000000Y-108050000D02*
X128000000Y-104950000D01*
X129800000Y-104950000D02*
X128000000Y-104950000D01*
X129800000Y-104950000D02*
X129800000Y-108050000D01*
X126550000Y-110300000D02*
X126550000Y-108500000D01*
X126550000Y-110300000D02*
X123450000Y-110300000D01*
X123450000Y-108500000D02*
X123450000Y-110300000D01*
X123450000Y-108500000D02*
X126550000Y-108500000D01*
X183300000Y-99850000D02*
X185100000Y-99850000D01*
X183300000Y-99850000D02*
X183300000Y-96750000D01*
X185100000Y-96750000D02*
X183300000Y-96750000D01*
X185100000Y-96750000D02*
X185100000Y-99850000D01*
X126250000Y-102500000D02*
X126250000Y-104300000D01*
X126250000Y-102500000D02*
X129350000Y-102500000D01*
X129350000Y-104300000D02*
X129350000Y-102500000D01*
X129350000Y-104300000D02*
X126250000Y-104300000D01*
X181200000Y-99850000D02*
X183000000Y-99850000D01*
X181200000Y-99850000D02*
X181200000Y-96750000D01*
X183000000Y-96750000D02*
X181200000Y-96750000D01*
X183000000Y-96750000D02*
X183000000Y-99850000D01*
D12*
X110720360Y-96000000D02*
G75*
G03X110720360Y-96000000I-2220360J0D01*
G01*
D14*
X110900000Y-100900000D02*
X113700000Y-100900000D01*
X113700000Y-100900000D02*
X113700000Y-97900000D01*
X113700000Y-94402000D02*
X113700000Y-91100000D01*
X113700000Y-91100000D02*
X110398000Y-91100000D01*
X107100000Y-91100000D02*
X102782000Y-91100000D01*
X102800000Y-91100000D02*
X102800000Y-93640000D01*
X102800000Y-98106000D02*
X102800000Y-100900000D01*
X102800000Y-100900000D02*
X106610000Y-100900000D01*
D12*
X110250000Y-96000000D02*
G75*
G03X110250000Y-96000000I-1750000J0D01*
G01*
X137220360Y-96000000D02*
G75*
G03X137220360Y-96000000I-2220360J0D01*
G01*
D14*
X137400000Y-100900000D02*
X140200000Y-100900000D01*
X140200000Y-100900000D02*
X140200000Y-97900000D01*
X140200000Y-94402000D02*
X140200000Y-91100000D01*
X140200000Y-91100000D02*
X136898000Y-91100000D01*
X133600000Y-91100000D02*
X129282000Y-91100000D01*
X129300000Y-91100000D02*
X129300000Y-93640000D01*
X129300000Y-98106000D02*
X129300000Y-100900000D01*
X129300000Y-100900000D02*
X133110000Y-100900000D01*
D12*
X136750000Y-96000000D02*
G75*
G03X136750000Y-96000000I-1750000J0D01*
G01*
X163720360Y-96000000D02*
G75*
G03X163720360Y-96000000I-2220360J0D01*
G01*
D14*
X163900000Y-100900000D02*
X166700000Y-100900000D01*
X166700000Y-100900000D02*
X166700000Y-97900000D01*
X166700000Y-94402000D02*
X166700000Y-91100000D01*
X166700000Y-91100000D02*
X163398000Y-91100000D01*
X160100000Y-91100000D02*
X155782000Y-91100000D01*
X155800000Y-91100000D02*
X155800000Y-93640000D01*
X155800000Y-98106000D02*
X155800000Y-100900000D01*
X155800000Y-100900000D02*
X159610000Y-100900000D01*
D12*
X163250000Y-96000000D02*
G75*
G03X163250000Y-96000000I-1750000J0D01*
G01*
X194570360Y-96000000D02*
G75*
G03X194570360Y-96000000I-2220360J0D01*
G01*
D14*
X194750000Y-100900000D02*
X197550000Y-100900000D01*
X197550000Y-100900000D02*
X197550000Y-97900000D01*
X197550000Y-94402000D02*
X197550000Y-91100000D01*
X197550000Y-91100000D02*
X194248000Y-91100000D01*
X190950000Y-91100000D02*
X186632000Y-91100000D01*
X186650000Y-91100000D02*
X186650000Y-93640000D01*
X186650000Y-98106000D02*
X186650000Y-100900000D01*
X186650000Y-100900000D02*
X190460000Y-100900000D01*
D12*
X194100000Y-96000000D02*
G75*
G03X194100000Y-96000000I-1750000J0D01*
G01*
X122720360Y-96000000D02*
G75*
G03X122720360Y-96000000I-2220360J0D01*
G01*
D14*
X122900000Y-100900000D02*
X125700000Y-100900000D01*
X125700000Y-100900000D02*
X125700000Y-97900000D01*
X125700000Y-94402000D02*
X125700000Y-91100000D01*
X125700000Y-91100000D02*
X122398000Y-91100000D01*
X119100000Y-91100000D02*
X114782000Y-91100000D01*
X114800000Y-91100000D02*
X114800000Y-93640000D01*
X114800000Y-98106000D02*
X114800000Y-100900000D01*
X114800000Y-100900000D02*
X118610000Y-100900000D01*
D12*
X122250000Y-96000000D02*
G75*
G03X122250000Y-96000000I-1750000J0D01*
G01*
X149220360Y-96000000D02*
G75*
G03X149220360Y-96000000I-2220360J0D01*
G01*
D14*
X149400000Y-100900000D02*
X152200000Y-100900000D01*
X152200000Y-100900000D02*
X152200000Y-97900000D01*
X152200000Y-94402000D02*
X152200000Y-91100000D01*
X152200000Y-91100000D02*
X148898000Y-91100000D01*
X145600000Y-91100000D02*
X141282000Y-91100000D01*
X141300000Y-91100000D02*
X141300000Y-93640000D01*
X141300000Y-98106000D02*
X141300000Y-100900000D01*
X141300000Y-100900000D02*
X145110000Y-100900000D01*
D12*
X148750000Y-96000000D02*
G75*
G03X148750000Y-96000000I-1750000J0D01*
G01*
X175720360Y-96000000D02*
G75*
G03X175720360Y-96000000I-2220360J0D01*
G01*
D14*
X175900000Y-100900000D02*
X178700000Y-100900000D01*
X178700000Y-100900000D02*
X178700000Y-97900000D01*
X178700000Y-94402000D02*
X178700000Y-91100000D01*
X178700000Y-91100000D02*
X175398000Y-91100000D01*
X172100000Y-91100000D02*
X167782000Y-91100000D01*
X167800000Y-91100000D02*
X167800000Y-93640000D01*
X167800000Y-98106000D02*
X167800000Y-100900000D01*
X167800000Y-100900000D02*
X171610000Y-100900000D01*
D12*
X175250000Y-96000000D02*
G75*
G03X175250000Y-96000000I-1750000J0D01*
G01*
X109202381Y-106161905D02*
X110011905Y-106161905D01*
X110107143Y-106114286D01*
X110154762Y-106066667D01*
X110202381Y-105971429D01*
X110202381Y-105780952D01*
X110154762Y-105685714D01*
X110107143Y-105638095D01*
X110011905Y-105590476D01*
X109202381Y-105590476D01*
X109535714Y-104685714D02*
X110202381Y-104685714D01*
X109154762Y-104923810D02*
X109869048Y-105161905D01*
X109869048Y-104542857D01*
X120588095Y-107802381D02*
X120588095Y-108611905D01*
X120635714Y-108707143D01*
X120683333Y-108754762D01*
X120778571Y-108802381D01*
X120969048Y-108802381D01*
X121064286Y-108754762D01*
X121111905Y-108707143D01*
X121159524Y-108611905D01*
X121159524Y-107802381D01*
X122159524Y-108802381D02*
X121588095Y-108802381D01*
X121873809Y-108802381D02*
X121873809Y-107802381D01*
X121778571Y-107945238D01*
X121683333Y-108040476D01*
X121588095Y-108088095D01*
X154538095Y-107852381D02*
X154538095Y-108661905D01*
X154585714Y-108757143D01*
X154633333Y-108804762D01*
X154728571Y-108852381D01*
X154919048Y-108852381D01*
X155014286Y-108804762D01*
X155061905Y-108757143D01*
X155109524Y-108661905D01*
X155109524Y-107852381D01*
X155538095Y-107947619D02*
X155585714Y-107900000D01*
X155680952Y-107852381D01*
X155919048Y-107852381D01*
X156014286Y-107900000D01*
X156061905Y-107947619D01*
X156109524Y-108042857D01*
X156109524Y-108138095D01*
X156061905Y-108280952D01*
X155490476Y-108852381D01*
X156109524Y-108852381D01*
X182438095Y-107852381D02*
X182438095Y-108661905D01*
X182485714Y-108757143D01*
X182533333Y-108804762D01*
X182628571Y-108852381D01*
X182819048Y-108852381D01*
X182914286Y-108804762D01*
X182961905Y-108757143D01*
X183009524Y-108661905D01*
X183009524Y-107852381D01*
X183390476Y-107852381D02*
X184009524Y-107852381D01*
X183676190Y-108233333D01*
X183819048Y-108233333D01*
X183914286Y-108280952D01*
X183961905Y-108328571D01*
X184009524Y-108423810D01*
X184009524Y-108661905D01*
X183961905Y-108757143D01*
X183914286Y-108804762D01*
X183819048Y-108852381D01*
X183533333Y-108852381D01*
X183438095Y-108804762D01*
X183390476Y-108757143D01*
X125457143Y-106566666D02*
X125504762Y-106614285D01*
X125552381Y-106757142D01*
X125552381Y-106852380D01*
X125504762Y-106995238D01*
X125409524Y-107090476D01*
X125314286Y-107138095D01*
X125123810Y-107185714D01*
X124980952Y-107185714D01*
X124790476Y-107138095D01*
X124695238Y-107090476D01*
X124600000Y-106995238D01*
X124552381Y-106852380D01*
X124552381Y-106757142D01*
X124600000Y-106614285D01*
X124647619Y-106566666D01*
X125552381Y-105614285D02*
X125552381Y-106185714D01*
X125552381Y-105900000D02*
X124552381Y-105900000D01*
X124695238Y-105995238D01*
X124790476Y-106090476D01*
X124838095Y-106185714D01*
X149357143Y-108066666D02*
X149404762Y-108114285D01*
X149452381Y-108257142D01*
X149452381Y-108352380D01*
X149404762Y-108495238D01*
X149309524Y-108590476D01*
X149214286Y-108638095D01*
X149023810Y-108685714D01*
X148880952Y-108685714D01*
X148690476Y-108638095D01*
X148595238Y-108590476D01*
X148500000Y-108495238D01*
X148452381Y-108352380D01*
X148452381Y-108257142D01*
X148500000Y-108114285D01*
X148547619Y-108066666D01*
X148547619Y-107685714D02*
X148500000Y-107638095D01*
X148452381Y-107542857D01*
X148452381Y-107304761D01*
X148500000Y-107209523D01*
X148547619Y-107161904D01*
X148642857Y-107114285D01*
X148738095Y-107114285D01*
X148880952Y-107161904D01*
X149452381Y-107733333D01*
X149452381Y-107114285D01*
X160457143Y-103216666D02*
X160504762Y-103264285D01*
X160552381Y-103407142D01*
X160552381Y-103502380D01*
X160504762Y-103645238D01*
X160409524Y-103740476D01*
X160314286Y-103788095D01*
X160123810Y-103835714D01*
X159980952Y-103835714D01*
X159790476Y-103788095D01*
X159695238Y-103740476D01*
X159600000Y-103645238D01*
X159552381Y-103502380D01*
X159552381Y-103407142D01*
X159600000Y-103264285D01*
X159647619Y-103216666D01*
X159552381Y-102883333D02*
X159552381Y-102264285D01*
X159933333Y-102597619D01*
X159933333Y-102454761D01*
X159980952Y-102359523D01*
X160028571Y-102311904D01*
X160123810Y-102264285D01*
X160361905Y-102264285D01*
X160457143Y-102311904D01*
X160504762Y-102359523D01*
X160552381Y-102454761D01*
X160552381Y-102740476D01*
X160504762Y-102835714D01*
X160457143Y-102883333D01*
X177983334Y-102457143D02*
X177935715Y-102504762D01*
X177792858Y-102552381D01*
X177697620Y-102552381D01*
X177554762Y-102504762D01*
X177459524Y-102409524D01*
X177411905Y-102314286D01*
X177364286Y-102123810D01*
X177364286Y-101980952D01*
X177411905Y-101790476D01*
X177459524Y-101695238D01*
X177554762Y-101600000D01*
X177697620Y-101552381D01*
X177792858Y-101552381D01*
X177935715Y-101600000D01*
X177983334Y-101647619D01*
X178840477Y-101885714D02*
X178840477Y-102552381D01*
X178602381Y-101504762D02*
X178364286Y-102219048D01*
X178983334Y-102219048D01*
X187633334Y-102257143D02*
X187585715Y-102304762D01*
X187442858Y-102352381D01*
X187347620Y-102352381D01*
X187204762Y-102304762D01*
X187109524Y-102209524D01*
X187061905Y-102114286D01*
X187014286Y-101923810D01*
X187014286Y-101780952D01*
X187061905Y-101590476D01*
X187109524Y-101495238D01*
X187204762Y-101400000D01*
X187347620Y-101352381D01*
X187442858Y-101352381D01*
X187585715Y-101400000D01*
X187633334Y-101447619D01*
X188538096Y-101352381D02*
X188061905Y-101352381D01*
X188014286Y-101828571D01*
X188061905Y-101780952D01*
X188157143Y-101733333D01*
X188395239Y-101733333D01*
X188490477Y-101780952D01*
X188538096Y-101828571D01*
X188585715Y-101923810D01*
X188585715Y-102161905D01*
X188538096Y-102257143D01*
X188490477Y-102304762D01*
X188395239Y-102352381D01*
X188157143Y-102352381D01*
X188061905Y-102304762D01*
X188014286Y-102257143D01*
X108207143Y-102957143D02*
X108159524Y-103004762D01*
X108016667Y-103052381D01*
X107921429Y-103052381D01*
X107778571Y-103004762D01*
X107683333Y-102909524D01*
X107635714Y-102814286D01*
X107588095Y-102623810D01*
X107588095Y-102480952D01*
X107635714Y-102290476D01*
X107683333Y-102195238D01*
X107778571Y-102100000D01*
X107921429Y-102052381D01*
X108016667Y-102052381D01*
X108159524Y-102100000D01*
X108207143Y-102147619D01*
X109159524Y-103052381D02*
X108588095Y-103052381D01*
X108873809Y-103052381D02*
X108873809Y-102052381D01*
X108778571Y-102195238D01*
X108683333Y-102290476D01*
X108588095Y-102338095D01*
X110016667Y-102385714D02*
X110016667Y-103052381D01*
X109778571Y-102004762D02*
X109540476Y-102719048D01*
X110159524Y-102719048D01*
X114832143Y-102202381D02*
X114498809Y-101726190D01*
X114260714Y-102202381D02*
X114260714Y-101202381D01*
X114641667Y-101202381D01*
X114736905Y-101250000D01*
X114784524Y-101297619D01*
X114832143Y-101392857D01*
X114832143Y-101535714D01*
X114784524Y-101630952D01*
X114736905Y-101678571D01*
X114641667Y-101726190D01*
X114260714Y-101726190D01*
X115784524Y-102202381D02*
X115213095Y-102202381D01*
X115498809Y-102202381D02*
X115498809Y-101202381D01*
X115403571Y-101345238D01*
X115308333Y-101440476D01*
X115213095Y-101488095D01*
X116260714Y-102202381D02*
X116451190Y-102202381D01*
X116546429Y-102154762D01*
X116594048Y-102107143D01*
X116689286Y-101964286D01*
X116736905Y-101773810D01*
X116736905Y-101392857D01*
X116689286Y-101297619D01*
X116641667Y-101250000D01*
X116546429Y-101202381D01*
X116355952Y-101202381D01*
X116260714Y-101250000D01*
X116213095Y-101297619D01*
X116165476Y-101392857D01*
X116165476Y-101630952D01*
X116213095Y-101726190D01*
X116260714Y-101773810D01*
X116355952Y-101821429D01*
X116546429Y-101821429D01*
X116641667Y-101773810D01*
X116689286Y-101726190D01*
X116736905Y-101630952D01*
X192807143Y-102402381D02*
X192473809Y-101926190D01*
X192235714Y-102402381D02*
X192235714Y-101402381D01*
X192616667Y-101402381D01*
X192711905Y-101450000D01*
X192759524Y-101497619D01*
X192807143Y-101592857D01*
X192807143Y-101735714D01*
X192759524Y-101830952D01*
X192711905Y-101878571D01*
X192616667Y-101926190D01*
X192235714Y-101926190D01*
X193759524Y-102402381D02*
X193188095Y-102402381D01*
X193473809Y-102402381D02*
X193473809Y-101402381D01*
X193378571Y-101545238D01*
X193283333Y-101640476D01*
X193188095Y-101688095D01*
X194330952Y-101830952D02*
X194235714Y-101783333D01*
X194188095Y-101735714D01*
X194140476Y-101640476D01*
X194140476Y-101592857D01*
X194188095Y-101497619D01*
X194235714Y-101450000D01*
X194330952Y-101402381D01*
X194521429Y-101402381D01*
X194616667Y-101450000D01*
X194664286Y-101497619D01*
X194711905Y-101592857D01*
X194711905Y-101640476D01*
X194664286Y-101735714D01*
X194616667Y-101783333D01*
X194521429Y-101830952D01*
X194330952Y-101830952D01*
X194235714Y-101878571D01*
X194188095Y-101926190D01*
X194140476Y-102021429D01*
X194140476Y-102211905D01*
X194188095Y-102307143D01*
X194235714Y-102354762D01*
X194330952Y-102402381D01*
X194521429Y-102402381D01*
X194616667Y-102354762D01*
X194664286Y-102307143D01*
X194711905Y-102211905D01*
X194711905Y-102021429D01*
X194664286Y-101926190D01*
X194616667Y-101878571D01*
X194521429Y-101830952D01*
X179482143Y-101552381D02*
X179148809Y-101076190D01*
X178910714Y-101552381D02*
X178910714Y-100552381D01*
X179291667Y-100552381D01*
X179386905Y-100600000D01*
X179434524Y-100647619D01*
X179482143Y-100742857D01*
X179482143Y-100885714D01*
X179434524Y-100980952D01*
X179386905Y-101028571D01*
X179291667Y-101076190D01*
X178910714Y-101076190D01*
X180434524Y-101552381D02*
X179863095Y-101552381D01*
X180148809Y-101552381D02*
X180148809Y-100552381D01*
X180053571Y-100695238D01*
X179958333Y-100790476D01*
X179863095Y-100838095D01*
X180767857Y-100552381D02*
X181434524Y-100552381D01*
X181005952Y-101552381D01*
X193907143Y-107302381D02*
X193573809Y-106826190D01*
X193335714Y-107302381D02*
X193335714Y-106302381D01*
X193716667Y-106302381D01*
X193811905Y-106350000D01*
X193859524Y-106397619D01*
X193907143Y-106492857D01*
X193907143Y-106635714D01*
X193859524Y-106730952D01*
X193811905Y-106778571D01*
X193716667Y-106826190D01*
X193335714Y-106826190D01*
X194859524Y-107302381D02*
X194288095Y-107302381D01*
X194573809Y-107302381D02*
X194573809Y-106302381D01*
X194478571Y-106445238D01*
X194383333Y-106540476D01*
X194288095Y-106588095D01*
X195716667Y-106302381D02*
X195526190Y-106302381D01*
X195430952Y-106350000D01*
X195383333Y-106397619D01*
X195288095Y-106540476D01*
X195240476Y-106730952D01*
X195240476Y-107111905D01*
X195288095Y-107207143D01*
X195335714Y-107254762D01*
X195430952Y-107302381D01*
X195621429Y-107302381D01*
X195716667Y-107254762D01*
X195764286Y-107207143D01*
X195811905Y-107111905D01*
X195811905Y-106873810D01*
X195764286Y-106778571D01*
X195716667Y-106730952D01*
X195621429Y-106683333D01*
X195430952Y-106683333D01*
X195335714Y-106730952D01*
X195288095Y-106778571D01*
X195240476Y-106873810D01*
X193907143Y-105877381D02*
X193573809Y-105401190D01*
X193335714Y-105877381D02*
X193335714Y-104877381D01*
X193716667Y-104877381D01*
X193811905Y-104925000D01*
X193859524Y-104972619D01*
X193907143Y-105067857D01*
X193907143Y-105210714D01*
X193859524Y-105305952D01*
X193811905Y-105353571D01*
X193716667Y-105401190D01*
X193335714Y-105401190D01*
X194859524Y-105877381D02*
X194288095Y-105877381D01*
X194573809Y-105877381D02*
X194573809Y-104877381D01*
X194478571Y-105020238D01*
X194383333Y-105115476D01*
X194288095Y-105163095D01*
X195764286Y-104877381D02*
X195288095Y-104877381D01*
X195240476Y-105353571D01*
X195288095Y-105305952D01*
X195383333Y-105258333D01*
X195621429Y-105258333D01*
X195716667Y-105305952D01*
X195764286Y-105353571D01*
X195811905Y-105448810D01*
X195811905Y-105686905D01*
X195764286Y-105782143D01*
X195716667Y-105829762D01*
X195621429Y-105877381D01*
X195383333Y-105877381D01*
X195288095Y-105829762D01*
X195240476Y-105782143D01*
X197827381Y-104192857D02*
X197351190Y-104526191D01*
X197827381Y-104764286D02*
X196827381Y-104764286D01*
X196827381Y-104383333D01*
X196875000Y-104288095D01*
X196922619Y-104240476D01*
X197017857Y-104192857D01*
X197160714Y-104192857D01*
X197255952Y-104240476D01*
X197303571Y-104288095D01*
X197351190Y-104383333D01*
X197351190Y-104764286D01*
X197827381Y-103240476D02*
X197827381Y-103811905D01*
X197827381Y-103526191D02*
X196827381Y-103526191D01*
X196970238Y-103621429D01*
X197065476Y-103716667D01*
X197113095Y-103811905D01*
X197160714Y-102383333D02*
X197827381Y-102383333D01*
X196779762Y-102621429D02*
X197494048Y-102859524D01*
X197494048Y-102240476D01*
X175027381Y-105242857D02*
X174551190Y-105576191D01*
X175027381Y-105814286D02*
X174027381Y-105814286D01*
X174027381Y-105433333D01*
X174075000Y-105338095D01*
X174122619Y-105290476D01*
X174217857Y-105242857D01*
X174360714Y-105242857D01*
X174455952Y-105290476D01*
X174503571Y-105338095D01*
X174551190Y-105433333D01*
X174551190Y-105814286D01*
X175027381Y-104290476D02*
X175027381Y-104861905D01*
X175027381Y-104576191D02*
X174027381Y-104576191D01*
X174170238Y-104671429D01*
X174265476Y-104766667D01*
X174313095Y-104861905D01*
X174027381Y-103957143D02*
X174027381Y-103338095D01*
X174408333Y-103671429D01*
X174408333Y-103528571D01*
X174455952Y-103433333D01*
X174503571Y-103385714D01*
X174598810Y-103338095D01*
X174836905Y-103338095D01*
X174932143Y-103385714D01*
X174979762Y-103433333D01*
X175027381Y-103528571D01*
X175027381Y-103814286D01*
X174979762Y-103909524D01*
X174932143Y-103957143D01*
X165532143Y-107677381D02*
X165198809Y-107201190D01*
X164960714Y-107677381D02*
X164960714Y-106677381D01*
X165341667Y-106677381D01*
X165436905Y-106725000D01*
X165484524Y-106772619D01*
X165532143Y-106867857D01*
X165532143Y-107010714D01*
X165484524Y-107105952D01*
X165436905Y-107153571D01*
X165341667Y-107201190D01*
X164960714Y-107201190D01*
X166484524Y-107677381D02*
X165913095Y-107677381D01*
X166198809Y-107677381D02*
X166198809Y-106677381D01*
X166103571Y-106820238D01*
X166008333Y-106915476D01*
X165913095Y-106963095D01*
X166865476Y-106772619D02*
X166913095Y-106725000D01*
X167008333Y-106677381D01*
X167246429Y-106677381D01*
X167341667Y-106725000D01*
X167389286Y-106772619D01*
X167436905Y-106867857D01*
X167436905Y-106963095D01*
X167389286Y-107105952D01*
X166817857Y-107677381D01*
X167436905Y-107677381D01*
X159357143Y-112027381D02*
X159023809Y-111551190D01*
X158785714Y-112027381D02*
X158785714Y-111027381D01*
X159166667Y-111027381D01*
X159261905Y-111075000D01*
X159309524Y-111122619D01*
X159357143Y-111217857D01*
X159357143Y-111360714D01*
X159309524Y-111455952D01*
X159261905Y-111503571D01*
X159166667Y-111551190D01*
X158785714Y-111551190D01*
X160309524Y-112027381D02*
X159738095Y-112027381D01*
X160023809Y-112027381D02*
X160023809Y-111027381D01*
X159928571Y-111170238D01*
X159833333Y-111265476D01*
X159738095Y-111313095D01*
X161261905Y-112027381D02*
X160690476Y-112027381D01*
X160976190Y-112027381D02*
X160976190Y-111027381D01*
X160880952Y-111170238D01*
X160785714Y-111265476D01*
X160690476Y-111313095D01*
X180377381Y-94617857D02*
X179901190Y-94951191D01*
X180377381Y-95189286D02*
X179377381Y-95189286D01*
X179377381Y-94808333D01*
X179425000Y-94713095D01*
X179472619Y-94665476D01*
X179567857Y-94617857D01*
X179710714Y-94617857D01*
X179805952Y-94665476D01*
X179853571Y-94713095D01*
X179901190Y-94808333D01*
X179901190Y-95189286D01*
X180377381Y-93665476D02*
X180377381Y-94236905D01*
X180377381Y-93951191D02*
X179377381Y-93951191D01*
X179520238Y-94046429D01*
X179615476Y-94141667D01*
X179663095Y-94236905D01*
X179377381Y-93046429D02*
X179377381Y-92951190D01*
X179425000Y-92855952D01*
X179472619Y-92808333D01*
X179567857Y-92760714D01*
X179758333Y-92713095D01*
X179996429Y-92713095D01*
X180186905Y-92760714D01*
X180282143Y-92808333D01*
X180329762Y-92855952D01*
X180377381Y-92951190D01*
X180377381Y-93046429D01*
X180329762Y-93141667D01*
X180282143Y-93189286D01*
X180186905Y-93236905D01*
X179996429Y-93284524D01*
X179758333Y-93284524D01*
X179567857Y-93236905D01*
X179472619Y-93189286D01*
X179425000Y-93141667D01*
X179377381Y-93046429D01*
X165533334Y-105402381D02*
X165200000Y-104926190D01*
X164961905Y-105402381D02*
X164961905Y-104402381D01*
X165342858Y-104402381D01*
X165438096Y-104450000D01*
X165485715Y-104497619D01*
X165533334Y-104592857D01*
X165533334Y-104735714D01*
X165485715Y-104830952D01*
X165438096Y-104878571D01*
X165342858Y-104926190D01*
X164961905Y-104926190D01*
X166009524Y-105402381D02*
X166200000Y-105402381D01*
X166295239Y-105354762D01*
X166342858Y-105307143D01*
X166438096Y-105164286D01*
X166485715Y-104973810D01*
X166485715Y-104592857D01*
X166438096Y-104497619D01*
X166390477Y-104450000D01*
X166295239Y-104402381D01*
X166104762Y-104402381D01*
X166009524Y-104450000D01*
X165961905Y-104497619D01*
X165914286Y-104592857D01*
X165914286Y-104830952D01*
X165961905Y-104926190D01*
X166009524Y-104973810D01*
X166104762Y-105021429D01*
X166295239Y-105021429D01*
X166390477Y-104973810D01*
X166438096Y-104926190D01*
X166485715Y-104830952D01*
X146033334Y-108202381D02*
X145700000Y-107726190D01*
X145461905Y-108202381D02*
X145461905Y-107202381D01*
X145842858Y-107202381D01*
X145938096Y-107250000D01*
X145985715Y-107297619D01*
X146033334Y-107392857D01*
X146033334Y-107535714D01*
X145985715Y-107630952D01*
X145938096Y-107678571D01*
X145842858Y-107726190D01*
X145461905Y-107726190D01*
X146604762Y-107630952D02*
X146509524Y-107583333D01*
X146461905Y-107535714D01*
X146414286Y-107440476D01*
X146414286Y-107392857D01*
X146461905Y-107297619D01*
X146509524Y-107250000D01*
X146604762Y-107202381D01*
X146795239Y-107202381D01*
X146890477Y-107250000D01*
X146938096Y-107297619D01*
X146985715Y-107392857D01*
X146985715Y-107440476D01*
X146938096Y-107535714D01*
X146890477Y-107583333D01*
X146795239Y-107630952D01*
X146604762Y-107630952D01*
X146509524Y-107678571D01*
X146461905Y-107726190D01*
X146414286Y-107821429D01*
X146414286Y-108011905D01*
X146461905Y-108107143D01*
X146509524Y-108154762D01*
X146604762Y-108202381D01*
X146795239Y-108202381D01*
X146890477Y-108154762D01*
X146938096Y-108107143D01*
X146985715Y-108011905D01*
X146985715Y-107821429D01*
X146938096Y-107726190D01*
X146890477Y-107678571D01*
X146795239Y-107630952D01*
X152883334Y-111402381D02*
X152550000Y-110926190D01*
X152311905Y-111402381D02*
X152311905Y-110402381D01*
X152692858Y-110402381D01*
X152788096Y-110450000D01*
X152835715Y-110497619D01*
X152883334Y-110592857D01*
X152883334Y-110735714D01*
X152835715Y-110830952D01*
X152788096Y-110878571D01*
X152692858Y-110926190D01*
X152311905Y-110926190D01*
X153216667Y-110402381D02*
X153883334Y-110402381D01*
X153454762Y-111402381D01*
X146008334Y-102852381D02*
X145675000Y-102376190D01*
X145436905Y-102852381D02*
X145436905Y-101852381D01*
X145817858Y-101852381D01*
X145913096Y-101900000D01*
X145960715Y-101947619D01*
X146008334Y-102042857D01*
X146008334Y-102185714D01*
X145960715Y-102280952D01*
X145913096Y-102328571D01*
X145817858Y-102376190D01*
X145436905Y-102376190D01*
X146913096Y-101852381D02*
X146436905Y-101852381D01*
X146389286Y-102328571D01*
X146436905Y-102280952D01*
X146532143Y-102233333D01*
X146770239Y-102233333D01*
X146865477Y-102280952D01*
X146913096Y-102328571D01*
X146960715Y-102423810D01*
X146960715Y-102661905D01*
X146913096Y-102757143D01*
X146865477Y-102804762D01*
X146770239Y-102852381D01*
X146532143Y-102852381D01*
X146436905Y-102804762D01*
X146389286Y-102757143D01*
X131127381Y-106666666D02*
X130651190Y-107000000D01*
X131127381Y-107238095D02*
X130127381Y-107238095D01*
X130127381Y-106857142D01*
X130175000Y-106761904D01*
X130222619Y-106714285D01*
X130317857Y-106666666D01*
X130460714Y-106666666D01*
X130555952Y-106714285D01*
X130603571Y-106761904D01*
X130651190Y-106857142D01*
X130651190Y-107238095D01*
X130460714Y-105809523D02*
X131127381Y-105809523D01*
X130079762Y-106047619D02*
X130794048Y-106285714D01*
X130794048Y-105666666D01*
X127433334Y-109927381D02*
X127100000Y-109451190D01*
X126861905Y-109927381D02*
X126861905Y-108927381D01*
X127242858Y-108927381D01*
X127338096Y-108975000D01*
X127385715Y-109022619D01*
X127433334Y-109117857D01*
X127433334Y-109260714D01*
X127385715Y-109355952D01*
X127338096Y-109403571D01*
X127242858Y-109451190D01*
X126861905Y-109451190D01*
X127766667Y-108927381D02*
X128385715Y-108927381D01*
X128052381Y-109308333D01*
X128195239Y-109308333D01*
X128290477Y-109355952D01*
X128338096Y-109403571D01*
X128385715Y-109498810D01*
X128385715Y-109736905D01*
X128338096Y-109832143D01*
X128290477Y-109879762D01*
X128195239Y-109927381D01*
X127909524Y-109927381D01*
X127814286Y-109879762D01*
X127766667Y-109832143D01*
X184602381Y-94616666D02*
X184126190Y-94950000D01*
X184602381Y-95188095D02*
X183602381Y-95188095D01*
X183602381Y-94807142D01*
X183650000Y-94711904D01*
X183697619Y-94664285D01*
X183792857Y-94616666D01*
X183935714Y-94616666D01*
X184030952Y-94664285D01*
X184078571Y-94711904D01*
X184126190Y-94807142D01*
X184126190Y-95188095D01*
X183697619Y-94235714D02*
X183650000Y-94188095D01*
X183602381Y-94092857D01*
X183602381Y-93854761D01*
X183650000Y-93759523D01*
X183697619Y-93711904D01*
X183792857Y-93664285D01*
X183888095Y-93664285D01*
X184030952Y-93711904D01*
X184602381Y-94283333D01*
X184602381Y-93664285D01*
X127633334Y-102252381D02*
X127300000Y-101776190D01*
X127061905Y-102252381D02*
X127061905Y-101252381D01*
X127442858Y-101252381D01*
X127538096Y-101300000D01*
X127585715Y-101347619D01*
X127633334Y-101442857D01*
X127633334Y-101585714D01*
X127585715Y-101680952D01*
X127538096Y-101728571D01*
X127442858Y-101776190D01*
X127061905Y-101776190D01*
X128585715Y-102252381D02*
X128014286Y-102252381D01*
X128300000Y-102252381D02*
X128300000Y-101252381D01*
X128204762Y-101395238D01*
X128109524Y-101490476D01*
X128014286Y-101538095D01*
X182502381Y-94616666D02*
X182026190Y-94950000D01*
X182502381Y-95188095D02*
X181502381Y-95188095D01*
X181502381Y-94807142D01*
X181550000Y-94711904D01*
X181597619Y-94664285D01*
X181692857Y-94616666D01*
X181835714Y-94616666D01*
X181930952Y-94664285D01*
X181978571Y-94711904D01*
X182026190Y-94807142D01*
X182026190Y-95188095D01*
X181502381Y-93759523D02*
X181502381Y-93950000D01*
X181550000Y-94045238D01*
X181597619Y-94092857D01*
X181740476Y-94188095D01*
X181930952Y-94235714D01*
X182311905Y-94235714D01*
X182407143Y-94188095D01*
X182454762Y-94140476D01*
X182502381Y-94045238D01*
X182502381Y-93854761D01*
X182454762Y-93759523D01*
X182407143Y-93711904D01*
X182311905Y-93664285D01*
X182073810Y-93664285D01*
X181978571Y-93711904D01*
X181930952Y-93759523D01*
X181883333Y-93854761D01*
X181883333Y-94045238D01*
X181930952Y-94140476D01*
X181978571Y-94188095D01*
X182073810Y-94235714D01*
D15*
X106017548Y-96987738D02*
X104811048Y-96987738D01*
X106017548Y-96413214D02*
X104811048Y-96413214D01*
X106017548Y-95723786D01*
X104811048Y-95723786D01*
X106017548Y-94517286D02*
X106017548Y-95206714D01*
X106017548Y-94862000D02*
X104811048Y-94862000D01*
X104983405Y-94976905D01*
X105098310Y-95091810D01*
X105155762Y-95206714D01*
X132542548Y-97037738D02*
X131336048Y-97037738D01*
X132542548Y-96463214D02*
X131336048Y-96463214D01*
X132542548Y-95773786D01*
X131336048Y-95773786D01*
X131450952Y-95256714D02*
X131393500Y-95199262D01*
X131336048Y-95084357D01*
X131336048Y-94797095D01*
X131393500Y-94682191D01*
X131450952Y-94624738D01*
X131565857Y-94567286D01*
X131680762Y-94567286D01*
X131853119Y-94624738D01*
X132542548Y-95314167D01*
X132542548Y-94567286D01*
X158992548Y-96887738D02*
X157786048Y-96887738D01*
X158992548Y-96313214D02*
X157786048Y-96313214D01*
X158992548Y-95623786D01*
X157786048Y-95623786D01*
X157786048Y-95164167D02*
X157786048Y-94417286D01*
X158245667Y-94819453D01*
X158245667Y-94647095D01*
X158303119Y-94532191D01*
X158360571Y-94474738D01*
X158475476Y-94417286D01*
X158762738Y-94417286D01*
X158877643Y-94474738D01*
X158935095Y-94532191D01*
X158992548Y-94647095D01*
X158992548Y-94991810D01*
X158935095Y-95106714D01*
X158877643Y-95164167D01*
X189917548Y-97762738D02*
X188711048Y-97762738D01*
X189572833Y-97360571D01*
X188711048Y-96958405D01*
X189917548Y-96958405D01*
X189917548Y-96383881D02*
X188711048Y-96383881D01*
X188711048Y-95924262D02*
X189917548Y-95119929D01*
X188711048Y-95119929D02*
X189917548Y-95924262D01*
X189917548Y-94028333D02*
X189917548Y-94717761D01*
X189917548Y-94373047D02*
X188711048Y-94373047D01*
X188883405Y-94487952D01*
X188998310Y-94602857D01*
X189055762Y-94717761D01*
X116811048Y-97732929D02*
X116811048Y-97503119D01*
X116868500Y-97388214D01*
X116983405Y-97273310D01*
X117213214Y-97215857D01*
X117615381Y-97215857D01*
X117845190Y-97273310D01*
X117960095Y-97388214D01*
X118017548Y-97503119D01*
X118017548Y-97732929D01*
X117960095Y-97847833D01*
X117845190Y-97962738D01*
X117615381Y-98020190D01*
X117213214Y-98020190D01*
X116983405Y-97962738D01*
X116868500Y-97847833D01*
X116811048Y-97732929D01*
X116811048Y-96698786D02*
X117787738Y-96698786D01*
X117902643Y-96641334D01*
X117960095Y-96583881D01*
X118017548Y-96468977D01*
X118017548Y-96239167D01*
X117960095Y-96124262D01*
X117902643Y-96066810D01*
X117787738Y-96009358D01*
X116811048Y-96009358D01*
X116811048Y-95607191D02*
X116811048Y-94917763D01*
X118017548Y-95262477D02*
X116811048Y-95262477D01*
X118017548Y-93883620D02*
X118017548Y-94573048D01*
X118017548Y-94228334D02*
X116811048Y-94228334D01*
X116983405Y-94343239D01*
X117098310Y-94458144D01*
X117155762Y-94573048D01*
X143336048Y-97632929D02*
X143336048Y-97403119D01*
X143393500Y-97288214D01*
X143508405Y-97173310D01*
X143738214Y-97115857D01*
X144140381Y-97115857D01*
X144370190Y-97173310D01*
X144485095Y-97288214D01*
X144542548Y-97403119D01*
X144542548Y-97632929D01*
X144485095Y-97747833D01*
X144370190Y-97862738D01*
X144140381Y-97920190D01*
X143738214Y-97920190D01*
X143508405Y-97862738D01*
X143393500Y-97747833D01*
X143336048Y-97632929D01*
X143336048Y-96598786D02*
X144312738Y-96598786D01*
X144427643Y-96541334D01*
X144485095Y-96483881D01*
X144542548Y-96368977D01*
X144542548Y-96139167D01*
X144485095Y-96024262D01*
X144427643Y-95966810D01*
X144312738Y-95909358D01*
X143336048Y-95909358D01*
X143336048Y-95507191D02*
X143336048Y-94817763D01*
X144542548Y-95162477D02*
X143336048Y-95162477D01*
X143450952Y-94473048D02*
X143393500Y-94415596D01*
X143336048Y-94300691D01*
X143336048Y-94013429D01*
X143393500Y-93898525D01*
X143450952Y-93841072D01*
X143565857Y-93783620D01*
X143680762Y-93783620D01*
X143853119Y-93841072D01*
X144542548Y-94530501D01*
X144542548Y-93783620D01*
X169811048Y-97782929D02*
X169811048Y-97553119D01*
X169868500Y-97438214D01*
X169983405Y-97323310D01*
X170213214Y-97265857D01*
X170615381Y-97265857D01*
X170845190Y-97323310D01*
X170960095Y-97438214D01*
X171017548Y-97553119D01*
X171017548Y-97782929D01*
X170960095Y-97897833D01*
X170845190Y-98012738D01*
X170615381Y-98070190D01*
X170213214Y-98070190D01*
X169983405Y-98012738D01*
X169868500Y-97897833D01*
X169811048Y-97782929D01*
X169811048Y-96748786D02*
X170787738Y-96748786D01*
X170902643Y-96691334D01*
X170960095Y-96633881D01*
X171017548Y-96518977D01*
X171017548Y-96289167D01*
X170960095Y-96174262D01*
X170902643Y-96116810D01*
X170787738Y-96059358D01*
X169811048Y-96059358D01*
X169811048Y-95657191D02*
X169811048Y-94967763D01*
X171017548Y-95312477D02*
X169811048Y-95312477D01*
X169811048Y-94680501D02*
X169811048Y-93933620D01*
X170270667Y-94335787D01*
X170270667Y-94163429D01*
X170328119Y-94048525D01*
X170385571Y-93991072D01*
X170500476Y-93933620D01*
X170787738Y-93933620D01*
X170902643Y-93991072D01*
X170960095Y-94048525D01*
X171017548Y-94163429D01*
X171017548Y-94508144D01*
X170960095Y-94623048D01*
X170902643Y-94680501D01*
M02*
