G04 #@! TF.FileFunction,Copper,L2,Bot,Signal*
%FSLAX46Y46*%
G04 Gerber Fmt 4.6, Leading zero omitted, Abs format (unit mm)*
G04 Created by KiCad (PCBNEW 4.0.5) date 08/02/17 20:53:55*
%MOMM*%
%LPD*%
G01*
G04 APERTURE LIST*
%ADD10C,0.100000*%
%ADD11C,0.150000*%
%ADD12R,3.000000X1.600000*%
%ADD13R,0.900000X1.200000*%
%ADD14R,1.800000X1.800000*%
%ADD15C,1.800000*%
%ADD16R,1.250000X1.000000*%
%ADD17C,1.676400*%
%ADD18O,2.800000X2.000000*%
%ADD19R,1.727200X1.727200*%
%ADD20O,1.727200X1.727200*%
%ADD21O,3.600000X1.800000*%
%ADD22O,2.250000X1.500000*%
%ADD23O,1.800000X3.600000*%
%ADD24C,0.600000*%
%ADD25C,0.250000*%
%ADD26C,0.350000*%
G04 APERTURE END LIST*
D10*
D11*
X98501100Y-119238600D02*
X198501100Y-119238600D01*
X198501100Y-119238600D02*
X198501100Y-90768600D01*
X198501100Y-90768600D02*
X98501100Y-90768600D01*
X98501100Y-90768600D02*
X98501100Y-119238600D01*
D12*
X111800000Y-112200000D03*
X107400000Y-112200000D03*
X107800000Y-104200000D03*
X112200000Y-104200000D03*
D13*
X100950000Y-100300000D03*
X104250000Y-100300000D03*
X104150000Y-118300000D03*
X100850000Y-118300000D03*
D14*
X154000000Y-93100000D03*
D15*
X154000000Y-95640000D03*
D14*
X178300000Y-114940000D03*
D15*
X178300000Y-112400000D03*
D14*
X127500000Y-93100000D03*
D15*
X127500000Y-95640000D03*
D14*
X151800000Y-114940000D03*
D15*
X151800000Y-112400000D03*
D14*
X101000000Y-93100000D03*
D15*
X101000000Y-95640000D03*
D14*
X125300000Y-114940000D03*
D15*
X125300000Y-112400000D03*
D16*
X152000000Y-106800000D03*
X152000000Y-108800000D03*
X119600000Y-106800000D03*
X119600000Y-108800000D03*
X177100000Y-106800000D03*
X177100000Y-108800000D03*
X157300000Y-101000000D03*
X157300000Y-103000000D03*
X118300000Y-101000000D03*
X118300000Y-103000000D03*
X182500000Y-101000000D03*
X182500000Y-103000000D03*
D17*
X196950000Y-116000000D03*
X196950000Y-113500000D03*
X196950000Y-111000000D03*
D18*
X189950000Y-108900000D03*
X189950000Y-118100000D03*
D17*
X174500000Y-116000000D03*
X174500000Y-113500000D03*
X174500000Y-111000000D03*
D18*
X167500000Y-108900000D03*
X167500000Y-118100000D03*
D17*
X148000000Y-116000000D03*
X148000000Y-113500000D03*
X148000000Y-111000000D03*
D18*
X141000000Y-108900000D03*
X141000000Y-118100000D03*
D17*
X121500000Y-116000000D03*
X121500000Y-113500000D03*
X121500000Y-111000000D03*
D18*
X114500000Y-108900000D03*
X114500000Y-118100000D03*
D19*
X103400000Y-104500000D03*
D20*
X100860000Y-104500000D03*
X103400000Y-107040000D03*
X100860000Y-107040000D03*
X103400000Y-109580000D03*
X100860000Y-109580000D03*
X103400000Y-112120000D03*
X100860000Y-112120000D03*
X103400000Y-114660000D03*
X100860000Y-114660000D03*
D21*
X109100000Y-100400000D03*
D22*
X109100000Y-91800000D03*
D23*
X111800000Y-96000000D03*
X103700000Y-96000000D03*
D21*
X135600000Y-100400000D03*
D22*
X135600000Y-91800000D03*
D23*
X138300000Y-96000000D03*
X130200000Y-96000000D03*
D21*
X162100000Y-100400000D03*
D22*
X162100000Y-91800000D03*
D23*
X164800000Y-96000000D03*
X156700000Y-96000000D03*
D21*
X192950000Y-100400000D03*
D22*
X192950000Y-91800000D03*
D23*
X195650000Y-96000000D03*
X187550000Y-96000000D03*
D21*
X121100000Y-100400000D03*
D22*
X121100000Y-91800000D03*
D23*
X123800000Y-96000000D03*
X115700000Y-96000000D03*
D21*
X147600000Y-100400000D03*
D22*
X147600000Y-91800000D03*
D23*
X150300000Y-96000000D03*
X142200000Y-96000000D03*
D21*
X174100000Y-100400000D03*
D22*
X174100000Y-91800000D03*
D23*
X176800000Y-96000000D03*
X168700000Y-96000000D03*
D24*
X170400000Y-102000000D03*
X116400000Y-106800000D03*
X153600000Y-106800000D03*
X178300000Y-106800000D03*
X187500000Y-103000000D03*
X121700000Y-103000000D03*
X159000000Y-103000000D03*
X184200000Y-95800000D03*
X182100000Y-95800000D03*
D25*
X122900000Y-112540000D02*
X125300000Y-114940000D01*
X122360000Y-112000000D02*
X122900000Y-112540000D01*
X122900000Y-112540000D02*
X121500000Y-111140000D01*
X121500000Y-111140000D02*
X121500000Y-111000000D01*
X149160000Y-112300000D02*
X151800000Y-114940000D01*
X148860000Y-112000000D02*
X149160000Y-112300000D01*
X149160000Y-112300000D02*
X148000000Y-111140000D01*
X148000000Y-111140000D02*
X148000000Y-111000000D01*
X175460000Y-112100000D02*
X178300000Y-114940000D01*
X175460000Y-112100000D02*
X174500000Y-111140000D01*
X175360000Y-112000000D02*
X175460000Y-112100000D01*
X174500000Y-111140000D02*
X174500000Y-111000000D01*
X170400000Y-102000000D02*
X167050000Y-98650000D01*
X158950000Y-96000000D02*
X161600000Y-98650000D01*
X161600000Y-98650000D02*
X167050000Y-98650000D01*
X156700000Y-96000000D02*
X158950000Y-96000000D01*
D26*
X104150000Y-118300000D02*
X105700000Y-118300000D01*
X105700000Y-118300000D02*
X111800000Y-112200000D01*
X153600000Y-106800000D02*
X176200000Y-106800000D01*
X176200000Y-106800000D02*
X178300000Y-106800000D01*
X177100000Y-106800000D02*
X176200000Y-106800000D01*
X118800000Y-106800000D02*
X151000000Y-106800000D01*
X151000000Y-106800000D02*
X153600000Y-106800000D01*
X152000000Y-106800000D02*
X151000000Y-106800000D01*
X116400000Y-106800000D02*
X118800000Y-106800000D01*
X119600000Y-106800000D02*
X118800000Y-106800000D01*
X111800000Y-109200000D02*
X114200000Y-106800000D01*
X114200000Y-106800000D02*
X116400000Y-106800000D01*
X111800000Y-112200000D02*
X111800000Y-109200000D01*
X113400000Y-103000000D02*
X119000000Y-103000000D01*
X112200000Y-104200000D02*
X113400000Y-103000000D01*
X106900000Y-102000000D02*
X110000000Y-102000000D01*
X110000000Y-102000000D02*
X112200000Y-104200000D01*
X105200000Y-100300000D02*
X106900000Y-102000000D01*
X104250000Y-100300000D02*
X105200000Y-100300000D01*
X184000000Y-103000000D02*
X187500000Y-103000000D01*
X159000000Y-103000000D02*
X181500000Y-103000000D01*
X181500000Y-103000000D02*
X184000000Y-103000000D01*
X182500000Y-103000000D02*
X181500000Y-103000000D01*
X121700000Y-103000000D02*
X155900000Y-103000000D01*
X155900000Y-103000000D02*
X159000000Y-103000000D01*
X157300000Y-103000000D02*
X155900000Y-103000000D01*
X119000000Y-103000000D02*
X121700000Y-103000000D01*
X118300000Y-103000000D02*
X119000000Y-103000000D01*
D25*
X184200000Y-93700000D02*
X184200000Y-95800000D01*
X157650000Y-93000000D02*
X183500000Y-93000000D01*
X183500000Y-93000000D02*
X184200000Y-93700000D01*
X156050000Y-91400000D02*
X157650000Y-93000000D01*
X151650000Y-91400000D02*
X156050000Y-91400000D01*
X150050000Y-93000000D02*
X151650000Y-91400000D01*
X133050000Y-93000000D02*
X150050000Y-93000000D01*
X131700000Y-91650000D02*
X133050000Y-93000000D01*
X125650000Y-91650000D02*
X131700000Y-91650000D01*
X123800000Y-93500000D02*
X125650000Y-91650000D01*
X123800000Y-96000000D02*
X123800000Y-93500000D01*
X180450000Y-94150000D02*
X182100000Y-95800000D01*
X155900000Y-93900000D02*
X180200000Y-93900000D01*
X180200000Y-93900000D02*
X180450000Y-94150000D01*
X155350000Y-94450000D02*
X155900000Y-93900000D01*
X152200000Y-94450000D02*
X155350000Y-94450000D01*
X150650000Y-96000000D02*
X152200000Y-94450000D01*
X150300000Y-96000000D02*
X150650000Y-96000000D01*
D26*
X100860000Y-114660000D02*
X100860000Y-118290000D01*
X100860000Y-118290000D02*
X100850000Y-118300000D01*
X103400000Y-114660000D02*
X100860000Y-114660000D01*
X100860000Y-104500000D02*
X103400000Y-104500000D01*
X100950000Y-100300000D02*
X100950000Y-104410000D01*
X100950000Y-104410000D02*
X100860000Y-104500000D01*
D25*
X99001100Y-91268600D02*
X107663698Y-91268600D01*
X110536302Y-91268600D02*
X119663698Y-91268600D01*
X122536302Y-91268600D02*
X125253582Y-91268600D01*
X175536302Y-91268600D02*
X191513698Y-91268600D01*
X194386302Y-91268600D02*
X198001100Y-91268600D01*
X99001100Y-91467800D02*
X107585714Y-91467800D01*
X110614287Y-91467800D02*
X119585714Y-91467800D01*
X122614287Y-91467800D02*
X125054382Y-91467800D01*
X175614287Y-91467800D02*
X191435714Y-91467800D01*
X194464287Y-91467800D02*
X198001100Y-91467800D01*
X99001100Y-91667000D02*
X107546090Y-91667000D01*
X110653911Y-91667000D02*
X119546090Y-91667000D01*
X122653911Y-91667000D02*
X124855182Y-91667000D01*
X175653911Y-91667000D02*
X191396090Y-91667000D01*
X194503911Y-91667000D02*
X198001100Y-91667000D01*
X99001100Y-91866200D02*
X99833891Y-91866200D01*
X102164284Y-91866200D02*
X107532802Y-91866200D01*
X110667197Y-91866200D02*
X119532802Y-91866200D01*
X122667197Y-91866200D02*
X124655982Y-91866200D01*
X175667197Y-91866200D02*
X191382802Y-91866200D01*
X194517197Y-91866200D02*
X198001100Y-91866200D01*
X99001100Y-92065400D02*
X99693932Y-92065400D01*
X102308000Y-92065400D02*
X107572425Y-92065400D01*
X110627574Y-92065400D02*
X119572425Y-92065400D01*
X122627574Y-92065400D02*
X124456782Y-92065400D01*
X151762418Y-92065400D02*
X152693932Y-92065400D01*
X175627574Y-92065400D02*
X191422425Y-92065400D01*
X194477574Y-92065400D02*
X198001100Y-92065400D01*
X99001100Y-92264600D02*
X99666674Y-92264600D01*
X102333326Y-92264600D02*
X107619063Y-92264600D01*
X110580936Y-92264600D02*
X119619063Y-92264600D01*
X122580936Y-92264600D02*
X124257582Y-92264600D01*
X125813218Y-92264600D02*
X126166674Y-92264600D01*
X128833326Y-92264600D02*
X131536782Y-92264600D01*
X151563218Y-92264600D02*
X152666674Y-92264600D01*
X175580936Y-92264600D02*
X191469063Y-92264600D01*
X194430936Y-92264600D02*
X198001100Y-92264600D01*
X99001100Y-92463800D02*
X99666674Y-92463800D01*
X102333326Y-92463800D02*
X107752164Y-92463800D01*
X110447835Y-92463800D02*
X119752164Y-92463800D01*
X122447835Y-92463800D02*
X124058382Y-92463800D01*
X125614018Y-92463800D02*
X126166674Y-92463800D01*
X128833326Y-92463800D02*
X131735982Y-92463800D01*
X151364018Y-92463800D02*
X152666674Y-92463800D01*
X183569378Y-92463800D02*
X191602164Y-92463800D01*
X194297835Y-92463800D02*
X198001100Y-92463800D01*
X99001100Y-92663000D02*
X99666674Y-92663000D01*
X102333326Y-92663000D02*
X107911899Y-92663000D01*
X110288100Y-92663000D02*
X119911899Y-92663000D01*
X122288100Y-92663000D02*
X123859182Y-92663000D01*
X125414818Y-92663000D02*
X126166674Y-92663000D01*
X128833326Y-92663000D02*
X131935182Y-92663000D01*
X151164818Y-92663000D02*
X152666674Y-92663000D01*
X183940818Y-92663000D02*
X191761899Y-92663000D01*
X194138100Y-92663000D02*
X198001100Y-92663000D01*
X99001100Y-92862200D02*
X99666674Y-92862200D01*
X102333326Y-92862200D02*
X108210023Y-92862200D01*
X109989976Y-92862200D02*
X120210023Y-92862200D01*
X121989976Y-92862200D02*
X123659982Y-92862200D01*
X125215618Y-92862200D02*
X126166674Y-92862200D01*
X128833326Y-92862200D02*
X132134382Y-92862200D01*
X150965618Y-92862200D02*
X152666674Y-92862200D01*
X184140018Y-92862200D02*
X192060023Y-92862200D01*
X193839976Y-92862200D02*
X198001100Y-92862200D01*
X99001100Y-93061400D02*
X99666674Y-93061400D01*
X102333326Y-93061400D02*
X123460782Y-93061400D01*
X125016418Y-93061400D02*
X126166674Y-93061400D01*
X128833326Y-93061400D02*
X132333582Y-93061400D01*
X150766418Y-93061400D02*
X152666674Y-93061400D01*
X184339218Y-93061400D02*
X198001100Y-93061400D01*
X99001100Y-93260600D02*
X99666674Y-93260600D01*
X102333326Y-93260600D02*
X123311193Y-93260600D01*
X124817218Y-93260600D02*
X126166674Y-93260600D01*
X128833326Y-93260600D02*
X132532782Y-93260600D01*
X150567218Y-93260600D02*
X152666674Y-93260600D01*
X184538418Y-93260600D02*
X198001100Y-93260600D01*
X99001100Y-93459800D02*
X99666674Y-93459800D01*
X102333326Y-93459800D02*
X123257997Y-93459800D01*
X124618018Y-93459800D02*
X126166674Y-93459800D01*
X128833326Y-93459800D02*
X132767186Y-93459800D01*
X150332813Y-93459800D02*
X152666674Y-93459800D01*
X184688274Y-93459800D02*
X198001100Y-93459800D01*
X99001100Y-93659000D02*
X99666674Y-93659000D01*
X102333326Y-93659000D02*
X123250000Y-93659000D01*
X124418818Y-93659000D02*
X126166674Y-93659000D01*
X128833326Y-93659000D02*
X152666674Y-93659000D01*
X180736818Y-93659000D02*
X183381182Y-93659000D01*
X184741845Y-93659000D02*
X198001100Y-93659000D01*
X99001100Y-93858200D02*
X99666674Y-93858200D01*
X102333326Y-93858200D02*
X103154138Y-93858200D01*
X104245863Y-93858200D02*
X111254138Y-93858200D01*
X112345863Y-93858200D02*
X115154138Y-93858200D01*
X116245863Y-93858200D02*
X123250000Y-93858200D01*
X124350000Y-93858200D02*
X126166674Y-93858200D01*
X128833326Y-93858200D02*
X129654138Y-93858200D01*
X130745863Y-93858200D02*
X137754138Y-93858200D01*
X138845863Y-93858200D02*
X141654138Y-93858200D01*
X142745863Y-93858200D02*
X149754138Y-93858200D01*
X150845863Y-93858200D02*
X152666674Y-93858200D01*
X180936018Y-93858200D02*
X183580382Y-93858200D01*
X184750000Y-93858200D02*
X187004138Y-93858200D01*
X188095863Y-93858200D02*
X195104138Y-93858200D01*
X196195863Y-93858200D02*
X198001100Y-93858200D01*
X99001100Y-94057400D02*
X99677474Y-94057400D01*
X102321702Y-94057400D02*
X102856015Y-94057400D01*
X104543986Y-94057400D02*
X110956015Y-94057400D01*
X112643986Y-94057400D02*
X114856015Y-94057400D01*
X116543986Y-94057400D02*
X122956014Y-94057400D01*
X124643987Y-94057400D02*
X126177474Y-94057400D01*
X128821702Y-94057400D02*
X129356015Y-94057400D01*
X131043986Y-94057400D02*
X137456015Y-94057400D01*
X139143986Y-94057400D02*
X141356015Y-94057400D01*
X143043986Y-94057400D02*
X149456015Y-94057400D01*
X151143986Y-94057400D02*
X151816615Y-94057400D01*
X181135218Y-94057400D02*
X183650000Y-94057400D01*
X184750000Y-94057400D02*
X186706015Y-94057400D01*
X188393986Y-94057400D02*
X194806015Y-94057400D01*
X196493986Y-94057400D02*
X198001100Y-94057400D01*
X99001100Y-94256600D02*
X99760080Y-94256600D01*
X102239050Y-94256600D02*
X102671473Y-94256600D01*
X104728528Y-94256600D02*
X110771473Y-94256600D01*
X112828528Y-94256600D02*
X114671473Y-94256600D01*
X116728528Y-94256600D02*
X122771473Y-94256600D01*
X124828528Y-94256600D02*
X126260080Y-94256600D01*
X128739050Y-94256600D02*
X129171473Y-94256600D01*
X131228528Y-94256600D02*
X137271473Y-94256600D01*
X139328528Y-94256600D02*
X141171473Y-94256600D01*
X143228528Y-94256600D02*
X149271473Y-94256600D01*
X151328528Y-94256600D02*
X151615582Y-94256600D01*
X181334418Y-94256600D02*
X183650000Y-94256600D01*
X184750000Y-94256600D02*
X186521473Y-94256600D01*
X188578528Y-94256600D02*
X194621473Y-94256600D01*
X196678528Y-94256600D02*
X198001100Y-94256600D01*
X99001100Y-94455800D02*
X100396281Y-94455800D01*
X101603243Y-94455800D02*
X102538371Y-94455800D01*
X104861630Y-94455800D02*
X110638371Y-94455800D01*
X112961630Y-94455800D02*
X114538371Y-94455800D01*
X116861630Y-94455800D02*
X122638371Y-94455800D01*
X124961630Y-94455800D02*
X126896281Y-94455800D01*
X128103243Y-94455800D02*
X129038371Y-94455800D01*
X131361630Y-94455800D02*
X137138371Y-94455800D01*
X139461630Y-94455800D02*
X141038371Y-94455800D01*
X143361630Y-94455800D02*
X149138371Y-94455800D01*
X165961630Y-94455800D02*
X167538371Y-94455800D01*
X169861630Y-94455800D02*
X175638371Y-94455800D01*
X177961630Y-94455800D02*
X179977983Y-94455800D01*
X181533618Y-94455800D02*
X183650000Y-94455800D01*
X184750000Y-94455800D02*
X186388371Y-94455800D01*
X188711630Y-94455800D02*
X194488371Y-94455800D01*
X196811630Y-94455800D02*
X198001100Y-94455800D01*
X99001100Y-94655000D02*
X100111251Y-94655000D01*
X101888918Y-94655000D02*
X102454846Y-94655000D01*
X104945155Y-94655000D02*
X110554846Y-94655000D01*
X113045155Y-94655000D02*
X114454846Y-94655000D01*
X116945155Y-94655000D02*
X122554846Y-94655000D01*
X125045155Y-94655000D02*
X126611251Y-94655000D01*
X128388918Y-94655000D02*
X128954846Y-94655000D01*
X131445155Y-94655000D02*
X137054846Y-94655000D01*
X139545155Y-94655000D02*
X140954846Y-94655000D01*
X143445155Y-94655000D02*
X149054846Y-94655000D01*
X166045155Y-94655000D02*
X167454846Y-94655000D01*
X169945155Y-94655000D02*
X175554846Y-94655000D01*
X178045155Y-94655000D02*
X180177182Y-94655000D01*
X181732818Y-94655000D02*
X183650000Y-94655000D01*
X184750000Y-94655000D02*
X186304846Y-94655000D01*
X188795155Y-94655000D02*
X194404846Y-94655000D01*
X196895155Y-94655000D02*
X198001100Y-94655000D01*
X99001100Y-94854200D02*
X99911703Y-94854200D01*
X102087771Y-94854200D02*
X102415223Y-94854200D01*
X104984778Y-94854200D02*
X110515223Y-94854200D01*
X113084778Y-94854200D02*
X114415223Y-94854200D01*
X116984778Y-94854200D02*
X122515223Y-94854200D01*
X125084778Y-94854200D02*
X126411703Y-94854200D01*
X128587771Y-94854200D02*
X128915223Y-94854200D01*
X131484778Y-94854200D02*
X137015223Y-94854200D01*
X139584778Y-94854200D02*
X140915223Y-94854200D01*
X143484778Y-94854200D02*
X149015223Y-94854200D01*
X166084778Y-94854200D02*
X167415223Y-94854200D01*
X169984778Y-94854200D02*
X175515223Y-94854200D01*
X178084778Y-94854200D02*
X180376382Y-94854200D01*
X181932018Y-94854200D02*
X183650000Y-94854200D01*
X184750000Y-94854200D02*
X186265223Y-94854200D01*
X188834778Y-94854200D02*
X194365223Y-94854200D01*
X196934778Y-94854200D02*
X198001100Y-94854200D01*
X99001100Y-95053400D02*
X99808890Y-95053400D01*
X102191275Y-95053400D02*
X102375599Y-95053400D01*
X105024402Y-95053400D02*
X110475599Y-95053400D01*
X113124402Y-95053400D02*
X114375599Y-95053400D01*
X117024402Y-95053400D02*
X122475599Y-95053400D01*
X125124402Y-95053400D02*
X126308890Y-95053400D01*
X128691275Y-95053400D02*
X128875599Y-95053400D01*
X131524402Y-95053400D02*
X136975599Y-95053400D01*
X139624402Y-95053400D02*
X140875599Y-95053400D01*
X143524402Y-95053400D02*
X148975599Y-95053400D01*
X152374418Y-95053400D02*
X152808890Y-95053400D01*
X155191274Y-95053400D02*
X155375599Y-95053400D01*
X166124402Y-95053400D02*
X167375599Y-95053400D01*
X170024402Y-95053400D02*
X175475599Y-95053400D01*
X178124402Y-95053400D02*
X180575582Y-95053400D01*
X182131218Y-95053400D02*
X183650000Y-95053400D01*
X184750000Y-95053400D02*
X186225599Y-95053400D01*
X188874402Y-95053400D02*
X194325599Y-95053400D01*
X196974402Y-95053400D02*
X198001100Y-95053400D01*
X99001100Y-95252600D02*
X99726175Y-95252600D01*
X102273582Y-95252600D02*
X102375000Y-95252600D01*
X105025000Y-95252600D02*
X110475000Y-95252600D01*
X113125000Y-95252600D02*
X114375000Y-95252600D01*
X117025000Y-95252600D02*
X122475000Y-95252600D01*
X125125000Y-95252600D02*
X126226175Y-95252600D01*
X128773582Y-95252600D02*
X128875000Y-95252600D01*
X131525000Y-95252600D02*
X136975000Y-95252600D01*
X139625000Y-95252600D02*
X140875000Y-95252600D01*
X143525000Y-95252600D02*
X148975000Y-95252600D01*
X152175218Y-95252600D02*
X152726175Y-95252600D01*
X155273581Y-95252600D02*
X155375000Y-95252600D01*
X166125000Y-95252600D02*
X167375000Y-95252600D01*
X170025000Y-95252600D02*
X175475000Y-95252600D01*
X178125000Y-95252600D02*
X180774782Y-95252600D01*
X182577967Y-95252600D02*
X183650000Y-95252600D01*
X184750000Y-95252600D02*
X186225000Y-95252600D01*
X188875000Y-95252600D02*
X194325000Y-95252600D01*
X196975000Y-95252600D02*
X198001100Y-95252600D01*
X99001100Y-95451800D02*
X99675165Y-95451800D01*
X102325164Y-95451800D02*
X102375000Y-95451800D01*
X105025000Y-95451800D02*
X110475000Y-95451800D01*
X113125000Y-95451800D02*
X114375000Y-95451800D01*
X117025000Y-95451800D02*
X122475000Y-95451800D01*
X125125000Y-95451800D02*
X126175165Y-95451800D01*
X128825164Y-95451800D02*
X128875000Y-95451800D01*
X131525000Y-95451800D02*
X136975000Y-95451800D01*
X139625000Y-95451800D02*
X140875000Y-95451800D01*
X143525000Y-95451800D02*
X148975000Y-95451800D01*
X151976018Y-95451800D02*
X152675165Y-95451800D01*
X155325164Y-95451800D02*
X155375000Y-95451800D01*
X166125000Y-95451800D02*
X167375000Y-95451800D01*
X170025000Y-95451800D02*
X175475000Y-95451800D01*
X178125000Y-95451800D02*
X180973982Y-95451800D01*
X182740579Y-95451800D02*
X183559567Y-95451800D01*
X184840579Y-95451800D02*
X186225000Y-95451800D01*
X188875000Y-95451800D02*
X194325000Y-95451800D01*
X196975000Y-95451800D02*
X198001100Y-95451800D01*
X99001100Y-95651000D02*
X99674991Y-95651000D01*
X102324990Y-95651000D02*
X102375000Y-95651000D01*
X105025000Y-95651000D02*
X110475000Y-95651000D01*
X113125000Y-95651000D02*
X114375000Y-95651000D01*
X117025000Y-95651000D02*
X122475000Y-95651000D01*
X125125000Y-95651000D02*
X126174991Y-95651000D01*
X128824990Y-95651000D02*
X128875000Y-95651000D01*
X131525000Y-95651000D02*
X136975000Y-95651000D01*
X139625000Y-95651000D02*
X140875000Y-95651000D01*
X143525000Y-95651000D02*
X148975000Y-95651000D01*
X151776818Y-95651000D02*
X152674991Y-95651000D01*
X155324990Y-95651000D02*
X155375000Y-95651000D01*
X166125000Y-95651000D02*
X167375000Y-95651000D01*
X170025000Y-95651000D02*
X175475000Y-95651000D01*
X178125000Y-95651000D02*
X181173182Y-95651000D01*
X182822887Y-95651000D02*
X183476852Y-95651000D01*
X184922887Y-95651000D02*
X186225000Y-95651000D01*
X188875000Y-95651000D02*
X194325000Y-95651000D01*
X196975000Y-95651000D02*
X198001100Y-95651000D01*
X99001100Y-95850200D02*
X99674817Y-95850200D01*
X102324816Y-95850200D02*
X102375000Y-95850200D01*
X105025000Y-95850200D02*
X110475000Y-95850200D01*
X113125000Y-95850200D02*
X114375000Y-95850200D01*
X117025000Y-95850200D02*
X122475000Y-95850200D01*
X125125000Y-95850200D02*
X126174817Y-95850200D01*
X128824816Y-95850200D02*
X128875000Y-95850200D01*
X131525000Y-95850200D02*
X136975000Y-95850200D01*
X139625000Y-95850200D02*
X140875000Y-95850200D01*
X143525000Y-95850200D02*
X148975000Y-95850200D01*
X151625000Y-95850200D02*
X152674817Y-95850200D01*
X155324816Y-95850200D02*
X155375000Y-95850200D01*
X166125000Y-95850200D02*
X167375000Y-95850200D01*
X170025000Y-95850200D02*
X175475000Y-95850200D01*
X178125000Y-95850200D02*
X181372382Y-95850200D01*
X182824956Y-95850200D02*
X183474956Y-95850200D01*
X184924956Y-95850200D02*
X186225000Y-95850200D01*
X188875000Y-95850200D02*
X194325000Y-95850200D01*
X196975000Y-95850200D02*
X198001100Y-95850200D01*
X99001100Y-96049400D02*
X99735509Y-96049400D01*
X102264690Y-96049400D02*
X102375000Y-96049400D01*
X105025000Y-96049400D02*
X110475000Y-96049400D01*
X113125000Y-96049400D02*
X114375000Y-96049400D01*
X117025000Y-96049400D02*
X122475000Y-96049400D01*
X125125000Y-96049400D02*
X126235509Y-96049400D01*
X128764690Y-96049400D02*
X128875000Y-96049400D01*
X131525000Y-96049400D02*
X136975000Y-96049400D01*
X139625000Y-96049400D02*
X140875000Y-96049400D01*
X143525000Y-96049400D02*
X148975000Y-96049400D01*
X151625000Y-96049400D02*
X152735509Y-96049400D01*
X155264690Y-96049400D02*
X155375000Y-96049400D01*
X166125000Y-96049400D02*
X167375000Y-96049400D01*
X170025000Y-96049400D02*
X175475000Y-96049400D01*
X178125000Y-96049400D02*
X181418598Y-96049400D01*
X182781458Y-96049400D02*
X183518598Y-96049400D01*
X184881458Y-96049400D02*
X186225000Y-96049400D01*
X188875000Y-96049400D02*
X194325000Y-96049400D01*
X196975000Y-96049400D02*
X198001100Y-96049400D01*
X99001100Y-96248600D02*
X99817816Y-96248600D01*
X102181975Y-96248600D02*
X102375000Y-96248600D01*
X105025000Y-96248600D02*
X110475000Y-96248600D01*
X113125000Y-96248600D02*
X114375000Y-96248600D01*
X117025000Y-96248600D02*
X122475000Y-96248600D01*
X125125000Y-96248600D02*
X126317816Y-96248600D01*
X128681975Y-96248600D02*
X128875000Y-96248600D01*
X131525000Y-96248600D02*
X136975000Y-96248600D01*
X139625000Y-96248600D02*
X140875000Y-96248600D01*
X143525000Y-96248600D02*
X148975000Y-96248600D01*
X151625000Y-96248600D02*
X152817816Y-96248600D01*
X155181975Y-96248600D02*
X155375000Y-96248600D01*
X166125000Y-96248600D02*
X167375000Y-96248600D01*
X170025000Y-96248600D02*
X175475000Y-96248600D01*
X178125000Y-96248600D02*
X181523405Y-96248600D01*
X182676817Y-96248600D02*
X183623405Y-96248600D01*
X184776817Y-96248600D02*
X186225000Y-96248600D01*
X188875000Y-96248600D02*
X194325000Y-96248600D01*
X196975000Y-96248600D02*
X198001100Y-96248600D01*
X99001100Y-96447800D02*
X99934191Y-96447800D01*
X102066258Y-96447800D02*
X102375000Y-96447800D01*
X105025000Y-96447800D02*
X110475000Y-96447800D01*
X113125000Y-96447800D02*
X114375000Y-96447800D01*
X117025000Y-96447800D02*
X122475000Y-96447800D01*
X125125000Y-96447800D02*
X126434191Y-96447800D01*
X128566258Y-96447800D02*
X128875000Y-96447800D01*
X131525000Y-96447800D02*
X136975000Y-96447800D01*
X139625000Y-96447800D02*
X140875000Y-96447800D01*
X143525000Y-96447800D02*
X148975000Y-96447800D01*
X151625000Y-96447800D02*
X152934191Y-96447800D01*
X155066258Y-96447800D02*
X155375000Y-96447800D01*
X166125000Y-96447800D02*
X167375000Y-96447800D01*
X170025000Y-96447800D02*
X175475000Y-96447800D01*
X178125000Y-96447800D02*
X181769540Y-96447800D01*
X182430722Y-96447800D02*
X183869540Y-96447800D01*
X184530722Y-96447800D02*
X186225000Y-96447800D01*
X188875000Y-96447800D02*
X194325000Y-96447800D01*
X196975000Y-96447800D02*
X198001100Y-96447800D01*
X99001100Y-96647000D02*
X100133044Y-96647000D01*
X101866711Y-96647000D02*
X102375000Y-96647000D01*
X105025000Y-96647000D02*
X110475000Y-96647000D01*
X113125000Y-96647000D02*
X114375000Y-96647000D01*
X117025000Y-96647000D02*
X122475000Y-96647000D01*
X125125000Y-96647000D02*
X126633044Y-96647000D01*
X128366711Y-96647000D02*
X128875000Y-96647000D01*
X131525000Y-96647000D02*
X136975000Y-96647000D01*
X139625000Y-96647000D02*
X140875000Y-96647000D01*
X143525000Y-96647000D02*
X148975000Y-96647000D01*
X151625000Y-96647000D02*
X153133044Y-96647000D01*
X154866711Y-96647000D02*
X155375000Y-96647000D01*
X158025000Y-96647000D02*
X158819182Y-96647000D01*
X166125000Y-96647000D02*
X167375000Y-96647000D01*
X170025000Y-96647000D02*
X175475000Y-96647000D01*
X178125000Y-96647000D02*
X186225000Y-96647000D01*
X188875000Y-96647000D02*
X194325000Y-96647000D01*
X196975000Y-96647000D02*
X198001100Y-96647000D01*
X99001100Y-96846200D02*
X100449739Y-96846200D01*
X101550474Y-96846200D02*
X102375000Y-96846200D01*
X105025000Y-96846200D02*
X110475000Y-96846200D01*
X113125000Y-96846200D02*
X114375000Y-96846200D01*
X117025000Y-96846200D02*
X122475000Y-96846200D01*
X125125000Y-96846200D02*
X126949739Y-96846200D01*
X128050474Y-96846200D02*
X128875000Y-96846200D01*
X131525000Y-96846200D02*
X136975000Y-96846200D01*
X139625000Y-96846200D02*
X140875000Y-96846200D01*
X143525000Y-96846200D02*
X148975000Y-96846200D01*
X151625000Y-96846200D02*
X153449739Y-96846200D01*
X154550474Y-96846200D02*
X155375000Y-96846200D01*
X158025000Y-96846200D02*
X159018382Y-96846200D01*
X166125000Y-96846200D02*
X167375000Y-96846200D01*
X170025000Y-96846200D02*
X175475000Y-96846200D01*
X178125000Y-96846200D02*
X186225000Y-96846200D01*
X188875000Y-96846200D02*
X194325000Y-96846200D01*
X196975000Y-96846200D02*
X198001100Y-96846200D01*
X99001100Y-97045400D02*
X102395251Y-97045400D01*
X105004748Y-97045400D02*
X110495251Y-97045400D01*
X113104748Y-97045400D02*
X114395251Y-97045400D01*
X117004748Y-97045400D02*
X122495251Y-97045400D01*
X125104748Y-97045400D02*
X128895251Y-97045400D01*
X131504748Y-97045400D02*
X136995251Y-97045400D01*
X139604748Y-97045400D02*
X140895251Y-97045400D01*
X143504748Y-97045400D02*
X148995251Y-97045400D01*
X151604748Y-97045400D02*
X155395251Y-97045400D01*
X158004748Y-97045400D02*
X159217582Y-97045400D01*
X166104748Y-97045400D02*
X167395251Y-97045400D01*
X170004748Y-97045400D02*
X175495251Y-97045400D01*
X178104748Y-97045400D02*
X186245251Y-97045400D01*
X188854748Y-97045400D02*
X194345251Y-97045400D01*
X196954748Y-97045400D02*
X198001100Y-97045400D01*
X99001100Y-97244600D02*
X102434874Y-97244600D01*
X104965125Y-97244600D02*
X110534874Y-97244600D01*
X113065125Y-97244600D02*
X114434874Y-97244600D01*
X116965125Y-97244600D02*
X122534874Y-97244600D01*
X125065125Y-97244600D02*
X128934874Y-97244600D01*
X131465125Y-97244600D02*
X137034874Y-97244600D01*
X139565125Y-97244600D02*
X140934874Y-97244600D01*
X143465125Y-97244600D02*
X149034874Y-97244600D01*
X151565125Y-97244600D02*
X155434874Y-97244600D01*
X157965125Y-97244600D02*
X159416782Y-97244600D01*
X166065125Y-97244600D02*
X167434874Y-97244600D01*
X169965125Y-97244600D02*
X175534874Y-97244600D01*
X178065125Y-97244600D02*
X186284874Y-97244600D01*
X188815125Y-97244600D02*
X194384874Y-97244600D01*
X196915125Y-97244600D02*
X198001100Y-97244600D01*
X99001100Y-97443800D02*
X102474498Y-97443800D01*
X104925501Y-97443800D02*
X110574498Y-97443800D01*
X113025501Y-97443800D02*
X114474498Y-97443800D01*
X116925501Y-97443800D02*
X122574498Y-97443800D01*
X125025501Y-97443800D02*
X128974498Y-97443800D01*
X131425501Y-97443800D02*
X137074498Y-97443800D01*
X139525501Y-97443800D02*
X140974498Y-97443800D01*
X143425501Y-97443800D02*
X149074498Y-97443800D01*
X151525501Y-97443800D02*
X155474498Y-97443800D01*
X157925501Y-97443800D02*
X159615982Y-97443800D01*
X166025501Y-97443800D02*
X167474498Y-97443800D01*
X169925501Y-97443800D02*
X175574498Y-97443800D01*
X178025501Y-97443800D02*
X186324498Y-97443800D01*
X188775501Y-97443800D02*
X194424498Y-97443800D01*
X196875501Y-97443800D02*
X198001100Y-97443800D01*
X99001100Y-97643000D02*
X102604387Y-97643000D01*
X104795612Y-97643000D02*
X110704387Y-97643000D01*
X112895612Y-97643000D02*
X114604387Y-97643000D01*
X116795612Y-97643000D02*
X122704387Y-97643000D01*
X124895612Y-97643000D02*
X129104387Y-97643000D01*
X131295612Y-97643000D02*
X137204387Y-97643000D01*
X139395612Y-97643000D02*
X141104387Y-97643000D01*
X143295612Y-97643000D02*
X149204387Y-97643000D01*
X151395612Y-97643000D02*
X155604387Y-97643000D01*
X157795612Y-97643000D02*
X159815182Y-97643000D01*
X165895612Y-97643000D02*
X167604387Y-97643000D01*
X169795612Y-97643000D02*
X175704387Y-97643000D01*
X177895612Y-97643000D02*
X186454387Y-97643000D01*
X188645612Y-97643000D02*
X194554387Y-97643000D01*
X196745612Y-97643000D02*
X198001100Y-97643000D01*
X99001100Y-97842200D02*
X102737488Y-97842200D01*
X104662511Y-97842200D02*
X110837488Y-97842200D01*
X112762511Y-97842200D02*
X114737488Y-97842200D01*
X116662511Y-97842200D02*
X122837488Y-97842200D01*
X124762511Y-97842200D02*
X129237488Y-97842200D01*
X131162511Y-97842200D02*
X137337488Y-97842200D01*
X139262511Y-97842200D02*
X141237488Y-97842200D01*
X143162511Y-97842200D02*
X149337488Y-97842200D01*
X151262511Y-97842200D02*
X155737488Y-97842200D01*
X157662511Y-97842200D02*
X160014382Y-97842200D01*
X165762511Y-97842200D02*
X167737488Y-97842200D01*
X169662511Y-97842200D02*
X175837488Y-97842200D01*
X177762511Y-97842200D02*
X186587488Y-97842200D01*
X188512511Y-97842200D02*
X194687488Y-97842200D01*
X196612511Y-97842200D02*
X198001100Y-97842200D01*
X99001100Y-98041400D02*
X103003878Y-98041400D01*
X104396121Y-98041400D02*
X111103878Y-98041400D01*
X112496121Y-98041400D02*
X115003878Y-98041400D01*
X116396121Y-98041400D02*
X123103878Y-98041400D01*
X124496121Y-98041400D02*
X129503878Y-98041400D01*
X130896121Y-98041400D02*
X137603878Y-98041400D01*
X138996121Y-98041400D02*
X141503878Y-98041400D01*
X142896121Y-98041400D02*
X149603878Y-98041400D01*
X150996121Y-98041400D02*
X156003878Y-98041400D01*
X157396121Y-98041400D02*
X160213582Y-98041400D01*
X165496121Y-98041400D02*
X168003878Y-98041400D01*
X169396121Y-98041400D02*
X176103878Y-98041400D01*
X177496121Y-98041400D02*
X186853878Y-98041400D01*
X188246121Y-98041400D02*
X194953878Y-98041400D01*
X196346121Y-98041400D02*
X198001100Y-98041400D01*
X99001100Y-98240600D02*
X103559285Y-98240600D01*
X103840714Y-98240600D02*
X111659285Y-98240600D01*
X111940714Y-98240600D02*
X115559285Y-98240600D01*
X115840714Y-98240600D02*
X123659285Y-98240600D01*
X123940714Y-98240600D02*
X130059285Y-98240600D01*
X130340714Y-98240600D02*
X138159285Y-98240600D01*
X138440714Y-98240600D02*
X142059285Y-98240600D01*
X142340714Y-98240600D02*
X150159285Y-98240600D01*
X150440714Y-98240600D02*
X156559285Y-98240600D01*
X156840714Y-98240600D02*
X160412782Y-98240600D01*
X167408243Y-98240600D02*
X168559285Y-98240600D01*
X168840714Y-98240600D02*
X176659285Y-98240600D01*
X176940714Y-98240600D02*
X187409285Y-98240600D01*
X187690714Y-98240600D02*
X195509285Y-98240600D01*
X195790714Y-98240600D02*
X198001100Y-98240600D01*
X99001100Y-98439800D02*
X160611982Y-98439800D01*
X167617618Y-98439800D02*
X198001100Y-98439800D01*
X99001100Y-98639000D02*
X160811182Y-98639000D01*
X167816818Y-98639000D02*
X198001100Y-98639000D01*
X99001100Y-98838200D02*
X161010382Y-98838200D01*
X168016018Y-98838200D02*
X198001100Y-98838200D01*
X99001100Y-99037400D02*
X107886947Y-99037400D01*
X109095000Y-99037400D02*
X109105000Y-99037400D01*
X110313054Y-99037400D02*
X119886947Y-99037400D01*
X121095000Y-99037400D02*
X121105000Y-99037400D01*
X122313054Y-99037400D02*
X134386947Y-99037400D01*
X135595000Y-99037400D02*
X135605000Y-99037400D01*
X136813054Y-99037400D02*
X146386947Y-99037400D01*
X147595000Y-99037400D02*
X147605000Y-99037400D01*
X148813054Y-99037400D02*
X160886949Y-99037400D01*
X168215218Y-99037400D02*
X172886947Y-99037400D01*
X174095000Y-99037400D02*
X174105000Y-99037400D01*
X175313054Y-99037400D02*
X191736947Y-99037400D01*
X192945000Y-99037400D02*
X192955000Y-99037400D01*
X194163054Y-99037400D02*
X198001100Y-99037400D01*
X99001100Y-99236600D02*
X102318989Y-99236600D01*
X103905195Y-99236600D02*
X107425458Y-99236600D01*
X109095000Y-99236600D02*
X109105000Y-99236600D01*
X110774543Y-99236600D02*
X119425458Y-99236600D01*
X121095000Y-99236600D02*
X121105000Y-99236600D01*
X122774543Y-99236600D02*
X133925458Y-99236600D01*
X135595000Y-99236600D02*
X135605000Y-99236600D01*
X137274543Y-99236600D02*
X145925458Y-99236600D01*
X147595000Y-99236600D02*
X147605000Y-99236600D01*
X149274543Y-99236600D02*
X160425458Y-99236600D01*
X163774542Y-99236600D02*
X166858782Y-99236600D01*
X168414418Y-99236600D02*
X172425458Y-99236600D01*
X174095000Y-99236600D02*
X174105000Y-99236600D01*
X175774543Y-99236600D02*
X191275458Y-99236600D01*
X192945000Y-99236600D02*
X192955000Y-99236600D01*
X194624543Y-99236600D02*
X198001100Y-99236600D01*
X99001100Y-99435800D02*
X100166143Y-99435800D01*
X105035029Y-99435800D02*
X107162386Y-99435800D01*
X109095000Y-99435800D02*
X109105000Y-99435800D01*
X111037615Y-99435800D02*
X119162386Y-99435800D01*
X121095000Y-99435800D02*
X121105000Y-99435800D01*
X123037615Y-99435800D02*
X133662386Y-99435800D01*
X135595000Y-99435800D02*
X135605000Y-99435800D01*
X137537615Y-99435800D02*
X145662386Y-99435800D01*
X147595000Y-99435800D02*
X147605000Y-99435800D01*
X149537615Y-99435800D02*
X160162386Y-99435800D01*
X164037615Y-99435800D02*
X167057982Y-99435800D01*
X168613618Y-99435800D02*
X172162386Y-99435800D01*
X174095000Y-99435800D02*
X174105000Y-99435800D01*
X176037615Y-99435800D02*
X191012386Y-99435800D01*
X192945000Y-99435800D02*
X192955000Y-99435800D01*
X194887615Y-99435800D02*
X198001100Y-99435800D01*
X99001100Y-99635000D02*
X100079837Y-99635000D01*
X105121096Y-99635000D02*
X107030293Y-99635000D01*
X109095000Y-99635000D02*
X109105000Y-99635000D01*
X111169708Y-99635000D02*
X119030293Y-99635000D01*
X121095000Y-99635000D02*
X121105000Y-99635000D01*
X123169708Y-99635000D02*
X133530293Y-99635000D01*
X135595000Y-99635000D02*
X135605000Y-99635000D01*
X137669708Y-99635000D02*
X145530293Y-99635000D01*
X147595000Y-99635000D02*
X147605000Y-99635000D01*
X149669708Y-99635000D02*
X160030293Y-99635000D01*
X164169708Y-99635000D02*
X167257182Y-99635000D01*
X168812818Y-99635000D02*
X172030293Y-99635000D01*
X174095000Y-99635000D02*
X174105000Y-99635000D01*
X176169708Y-99635000D02*
X190880293Y-99635000D01*
X192945000Y-99635000D02*
X192955000Y-99635000D01*
X195019708Y-99635000D02*
X198001100Y-99635000D01*
X99001100Y-99834200D02*
X100066674Y-99834200D01*
X105562102Y-99834200D02*
X106898200Y-99834200D01*
X109095000Y-99834200D02*
X109105000Y-99834200D01*
X111301801Y-99834200D02*
X118898200Y-99834200D01*
X121095000Y-99834200D02*
X121105000Y-99834200D01*
X123301801Y-99834200D02*
X133398200Y-99834200D01*
X135595000Y-99834200D02*
X135605000Y-99834200D01*
X137801801Y-99834200D02*
X145398200Y-99834200D01*
X147595000Y-99834200D02*
X147605000Y-99834200D01*
X149801801Y-99834200D02*
X159898200Y-99834200D01*
X164301801Y-99834200D02*
X167456382Y-99834200D01*
X169012018Y-99834200D02*
X171898200Y-99834200D01*
X174095000Y-99834200D02*
X174105000Y-99834200D01*
X176301801Y-99834200D02*
X190748200Y-99834200D01*
X192945000Y-99834200D02*
X192955000Y-99834200D01*
X195151801Y-99834200D02*
X198001100Y-99834200D01*
X99001100Y-100033400D02*
X100066674Y-100033400D01*
X105781928Y-100033400D02*
X106832462Y-100033400D01*
X109095000Y-100033400D02*
X109105000Y-100033400D01*
X111367539Y-100033400D02*
X117429580Y-100033400D01*
X118222150Y-100033400D02*
X118377850Y-100033400D01*
X121095000Y-100033400D02*
X121105000Y-100033400D01*
X123367539Y-100033400D02*
X133332462Y-100033400D01*
X135595000Y-100033400D02*
X135605000Y-100033400D01*
X137867539Y-100033400D02*
X145332462Y-100033400D01*
X147595000Y-100033400D02*
X147605000Y-100033400D01*
X149867539Y-100033400D02*
X156429580Y-100033400D01*
X157222150Y-100033400D02*
X157377850Y-100033400D01*
X158170421Y-100033400D02*
X159832462Y-100033400D01*
X164367539Y-100033400D02*
X167655582Y-100033400D01*
X169211218Y-100033400D02*
X171832462Y-100033400D01*
X174095000Y-100033400D02*
X174105000Y-100033400D01*
X176367539Y-100033400D02*
X181629580Y-100033400D01*
X182422150Y-100033400D02*
X182577850Y-100033400D01*
X183370421Y-100033400D02*
X190682462Y-100033400D01*
X192945000Y-100033400D02*
X192955000Y-100033400D01*
X195217539Y-100033400D02*
X198001100Y-100033400D01*
X99001100Y-100232600D02*
X100066674Y-100232600D01*
X105981128Y-100232600D02*
X106823969Y-100232600D01*
X109095000Y-100232600D02*
X109105000Y-100232600D01*
X111376030Y-100232600D02*
X117217505Y-100232600D01*
X118295000Y-100232600D02*
X118305000Y-100232600D01*
X121095000Y-100232600D02*
X121105000Y-100232600D01*
X123376030Y-100232600D02*
X133323969Y-100232600D01*
X135595000Y-100232600D02*
X135605000Y-100232600D01*
X137876030Y-100232600D02*
X145323969Y-100232600D01*
X147595000Y-100232600D02*
X147605000Y-100232600D01*
X149876030Y-100232600D02*
X156217505Y-100232600D01*
X157295000Y-100232600D02*
X157305000Y-100232600D01*
X158382496Y-100232600D02*
X159823969Y-100232600D01*
X164376030Y-100232600D02*
X167854782Y-100232600D01*
X169410418Y-100232600D02*
X171823969Y-100232600D01*
X174095000Y-100232600D02*
X174105000Y-100232600D01*
X176376030Y-100232600D02*
X181417505Y-100232600D01*
X182495000Y-100232600D02*
X182505000Y-100232600D01*
X183582496Y-100232600D02*
X190673969Y-100232600D01*
X192945000Y-100232600D02*
X192955000Y-100232600D01*
X195226030Y-100232600D02*
X198001100Y-100232600D01*
X99001100Y-100431800D02*
X100066674Y-100431800D01*
X106180328Y-100431800D02*
X106892680Y-100431800D01*
X111307321Y-100431800D02*
X117150000Y-100431800D01*
X118295000Y-100431800D02*
X118305000Y-100431800D01*
X121095000Y-100431800D02*
X121105000Y-100431800D01*
X123307321Y-100431800D02*
X133392680Y-100431800D01*
X135595000Y-100431800D02*
X135605000Y-100431800D01*
X137807321Y-100431800D02*
X145392680Y-100431800D01*
X147595000Y-100431800D02*
X147605000Y-100431800D01*
X149807321Y-100431800D02*
X156150000Y-100431800D01*
X157295000Y-100431800D02*
X157305000Y-100431800D01*
X158450000Y-100431800D02*
X159892680Y-100431800D01*
X162095000Y-100431800D02*
X162105000Y-100431800D01*
X164307321Y-100431800D02*
X168053982Y-100431800D01*
X169609618Y-100431800D02*
X171892680Y-100431800D01*
X174095000Y-100431800D02*
X174105000Y-100431800D01*
X176307321Y-100431800D02*
X181350000Y-100431800D01*
X182495000Y-100431800D02*
X182505000Y-100431800D01*
X183650000Y-100431800D02*
X190742680Y-100431800D01*
X192945000Y-100431800D02*
X192955000Y-100431800D01*
X195157321Y-100431800D02*
X198001100Y-100431800D01*
X99001100Y-100631000D02*
X100066674Y-100631000D01*
X106379528Y-100631000D02*
X106794221Y-100631000D01*
X111405778Y-100631000D02*
X117150000Y-100631000D01*
X118295000Y-100631000D02*
X118305000Y-100631000D01*
X121095000Y-100631000D02*
X121105000Y-100631000D01*
X123405778Y-100631000D02*
X133294221Y-100631000D01*
X135595000Y-100631000D02*
X135605000Y-100631000D01*
X137905778Y-100631000D02*
X145294221Y-100631000D01*
X147595000Y-100631000D02*
X147605000Y-100631000D01*
X149905778Y-100631000D02*
X156150000Y-100631000D01*
X157295000Y-100631000D02*
X157305000Y-100631000D01*
X158450000Y-100631000D02*
X159794221Y-100631000D01*
X162095000Y-100631000D02*
X162105000Y-100631000D01*
X164405778Y-100631000D02*
X168253182Y-100631000D01*
X169808818Y-100631000D02*
X171794221Y-100631000D01*
X174095000Y-100631000D02*
X174105000Y-100631000D01*
X176405778Y-100631000D02*
X181350000Y-100631000D01*
X182495000Y-100631000D02*
X182505000Y-100631000D01*
X183650000Y-100631000D02*
X190644221Y-100631000D01*
X192945000Y-100631000D02*
X192955000Y-100631000D01*
X195255778Y-100631000D02*
X198001100Y-100631000D01*
X99001100Y-100830200D02*
X100066674Y-100830200D01*
X106578728Y-100830200D02*
X106850396Y-100830200D01*
X111349603Y-100830200D02*
X117150000Y-100830200D01*
X118295000Y-100830200D02*
X118305000Y-100830200D01*
X121095000Y-100830200D02*
X121105000Y-100830200D01*
X123349603Y-100830200D02*
X133350396Y-100830200D01*
X135595000Y-100830200D02*
X135605000Y-100830200D01*
X137849603Y-100830200D02*
X145350396Y-100830200D01*
X147595000Y-100830200D02*
X147605000Y-100830200D01*
X149849603Y-100830200D02*
X156150000Y-100830200D01*
X157295000Y-100830200D02*
X157305000Y-100830200D01*
X158450000Y-100830200D02*
X159850396Y-100830200D01*
X162095000Y-100830200D02*
X162105000Y-100830200D01*
X164349603Y-100830200D02*
X168452382Y-100830200D01*
X170008018Y-100830200D02*
X171850396Y-100830200D01*
X174095000Y-100830200D02*
X174105000Y-100830200D01*
X176349603Y-100830200D02*
X181350000Y-100830200D01*
X182495000Y-100830200D02*
X182505000Y-100830200D01*
X183650000Y-100830200D02*
X190700396Y-100830200D01*
X192945000Y-100830200D02*
X192955000Y-100830200D01*
X195199603Y-100830200D02*
X198001100Y-100830200D01*
X99001100Y-101029400D02*
X100091022Y-101029400D01*
X106777928Y-101029400D02*
X106940374Y-101029400D01*
X111259625Y-101029400D02*
X117256850Y-101029400D01*
X121095000Y-101029400D02*
X121105000Y-101029400D01*
X123259625Y-101029400D02*
X133440374Y-101029400D01*
X135595000Y-101029400D02*
X135605000Y-101029400D01*
X137759625Y-101029400D02*
X145440374Y-101029400D01*
X147595000Y-101029400D02*
X147605000Y-101029400D01*
X149759625Y-101029400D02*
X156256850Y-101029400D01*
X158343150Y-101029400D02*
X159940374Y-101029400D01*
X162095000Y-101029400D02*
X162105000Y-101029400D01*
X164259625Y-101029400D02*
X168651582Y-101029400D01*
X170207218Y-101029400D02*
X171940374Y-101029400D01*
X174095000Y-101029400D02*
X174105000Y-101029400D01*
X176259625Y-101029400D02*
X181456850Y-101029400D01*
X183543150Y-101029400D02*
X190790374Y-101029400D01*
X192945000Y-101029400D02*
X192955000Y-101029400D01*
X195109625Y-101029400D02*
X198001100Y-101029400D01*
X99001100Y-101228600D02*
X100228105Y-101228600D01*
X104974190Y-101228600D02*
X105280072Y-101228600D01*
X106977128Y-101228600D02*
X107072466Y-101228600D01*
X111127533Y-101228600D02*
X117150000Y-101228600D01*
X121095000Y-101228600D02*
X121105000Y-101228600D01*
X123127533Y-101228600D02*
X133572466Y-101228600D01*
X135595000Y-101228600D02*
X135605000Y-101228600D01*
X137627533Y-101228600D02*
X145572466Y-101228600D01*
X147595000Y-101228600D02*
X147605000Y-101228600D01*
X149627533Y-101228600D02*
X156150000Y-101228600D01*
X158450000Y-101228600D02*
X160072466Y-101228600D01*
X162095000Y-101228600D02*
X162105000Y-101228600D01*
X164127533Y-101228600D02*
X168850782Y-101228600D01*
X170406418Y-101228600D02*
X172072466Y-101228600D01*
X174095000Y-101228600D02*
X174105000Y-101228600D01*
X176127533Y-101228600D02*
X181350000Y-101228600D01*
X183650000Y-101228600D02*
X190922466Y-101228600D01*
X192945000Y-101228600D02*
X192955000Y-101228600D01*
X194977533Y-101228600D02*
X198001100Y-101228600D01*
X99001100Y-101427800D02*
X100350000Y-101427800D01*
X101550000Y-101427800D02*
X105479272Y-101427800D01*
X110975948Y-101427800D02*
X117150000Y-101427800D01*
X121095000Y-101427800D02*
X121105000Y-101427800D01*
X122975948Y-101427800D02*
X133724051Y-101427800D01*
X135595000Y-101427800D02*
X135605000Y-101427800D01*
X137475948Y-101427800D02*
X145724051Y-101427800D01*
X147595000Y-101427800D02*
X147605000Y-101427800D01*
X149475948Y-101427800D02*
X156150000Y-101427800D01*
X158450000Y-101427800D02*
X160224051Y-101427800D01*
X162095000Y-101427800D02*
X162105000Y-101427800D01*
X163975948Y-101427800D02*
X169049982Y-101427800D01*
X170853210Y-101427800D02*
X172224051Y-101427800D01*
X174095000Y-101427800D02*
X174105000Y-101427800D01*
X175975948Y-101427800D02*
X181350000Y-101427800D01*
X183650000Y-101427800D02*
X191074051Y-101427800D01*
X192945000Y-101427800D02*
X192955000Y-101427800D01*
X194825948Y-101427800D02*
X198001100Y-101427800D01*
X99001100Y-101627000D02*
X100350000Y-101627000D01*
X101550000Y-101627000D02*
X105678472Y-101627000D01*
X110680077Y-101627000D02*
X117159349Y-101627000D01*
X119440650Y-101627000D02*
X119519923Y-101627000D01*
X121095000Y-101627000D02*
X121105000Y-101627000D01*
X122680077Y-101627000D02*
X134019922Y-101627000D01*
X135595000Y-101627000D02*
X135605000Y-101627000D01*
X137180077Y-101627000D02*
X146019922Y-101627000D01*
X147595000Y-101627000D02*
X147605000Y-101627000D01*
X149180077Y-101627000D02*
X156159349Y-101627000D01*
X158440650Y-101627000D02*
X160519922Y-101627000D01*
X162095000Y-101627000D02*
X162105000Y-101627000D01*
X163680077Y-101627000D02*
X169249182Y-101627000D01*
X171030332Y-101627000D02*
X172519922Y-101627000D01*
X174095000Y-101627000D02*
X174105000Y-101627000D01*
X175680077Y-101627000D02*
X181359349Y-101627000D01*
X183640650Y-101627000D02*
X191369922Y-101627000D01*
X192945000Y-101627000D02*
X192955000Y-101627000D01*
X194530077Y-101627000D02*
X198001100Y-101627000D01*
X99001100Y-101826200D02*
X100350000Y-101826200D01*
X101550000Y-101826200D02*
X105877672Y-101826200D01*
X110674728Y-101826200D02*
X117258737Y-101826200D01*
X119341263Y-101826200D02*
X156258737Y-101826200D01*
X158341263Y-101826200D02*
X169448382Y-101826200D01*
X171112639Y-101826200D02*
X181458737Y-101826200D01*
X183541263Y-101826200D02*
X198001100Y-101826200D01*
X99001100Y-102025400D02*
X100350000Y-102025400D01*
X101550000Y-102025400D02*
X106076872Y-102025400D01*
X110873928Y-102025400D02*
X117275000Y-102025400D01*
X119325000Y-102025400D02*
X156275000Y-102025400D01*
X158325000Y-102025400D02*
X169647582Y-102025400D01*
X171124978Y-102025400D02*
X181475000Y-102025400D01*
X183525000Y-102025400D02*
X198001100Y-102025400D01*
X99001100Y-102224600D02*
X100350000Y-102224600D01*
X101550000Y-102224600D02*
X106276072Y-102224600D01*
X111073128Y-102224600D02*
X117275000Y-102224600D01*
X119325000Y-102224600D02*
X156275000Y-102224600D01*
X158325000Y-102224600D02*
X169708351Y-102224600D01*
X171091756Y-102224600D02*
X181475000Y-102224600D01*
X183525000Y-102224600D02*
X198001100Y-102224600D01*
X99001100Y-102423800D02*
X100350000Y-102423800D01*
X101550000Y-102423800D02*
X106475272Y-102423800D01*
X111272328Y-102423800D02*
X113280349Y-102423800D01*
X187949217Y-102423800D02*
X198001100Y-102423800D01*
X99001100Y-102623000D02*
X100350000Y-102623000D01*
X101550000Y-102623000D02*
X109774472Y-102623000D01*
X111471528Y-102623000D02*
X112928472Y-102623000D01*
X188128679Y-102623000D02*
X198001100Y-102623000D01*
X99001100Y-102822200D02*
X100350000Y-102822200D01*
X101550000Y-102822200D02*
X109973672Y-102822200D01*
X111670728Y-102822200D02*
X112729272Y-102822200D01*
X188210987Y-102822200D02*
X198001100Y-102822200D01*
X99001100Y-103021400D02*
X100350000Y-103021400D01*
X101550000Y-103021400D02*
X105936137Y-103021400D01*
X107795000Y-103021400D02*
X107805000Y-103021400D01*
X109663863Y-103021400D02*
X110172872Y-103021400D01*
X188224981Y-103021400D02*
X198001100Y-103021400D01*
X99001100Y-103220600D02*
X100350000Y-103220600D01*
X101550000Y-103220600D02*
X102443258Y-103220600D01*
X104350146Y-103220600D02*
X105806054Y-103220600D01*
X107795000Y-103220600D02*
X107805000Y-103220600D01*
X109793947Y-103220600D02*
X110308202Y-103220600D01*
X188193417Y-103220600D02*
X198001100Y-103220600D01*
X99001100Y-103419800D02*
X100164000Y-103419800D01*
X101556000Y-103419800D02*
X102170020Y-103419800D01*
X104629259Y-103419800D02*
X105775000Y-103419800D01*
X107795000Y-103419800D02*
X107805000Y-103419800D01*
X188105668Y-103419800D02*
X198001100Y-103419800D01*
X99001100Y-103619000D02*
X99911790Y-103619000D01*
X101808211Y-103619000D02*
X102106598Y-103619000D01*
X104693652Y-103619000D02*
X105775000Y-103619000D01*
X107795000Y-103619000D02*
X107805000Y-103619000D01*
X114133326Y-103619000D02*
X117264065Y-103619000D01*
X119334227Y-103619000D02*
X121300182Y-103619000D01*
X122100423Y-103619000D02*
X156264065Y-103619000D01*
X158334227Y-103619000D02*
X158600182Y-103619000D01*
X159400423Y-103619000D02*
X181464065Y-103619000D01*
X183534227Y-103619000D02*
X187100182Y-103619000D01*
X187900423Y-103619000D02*
X198001100Y-103619000D01*
X99001100Y-103818200D02*
X99778689Y-103818200D01*
X101941312Y-103818200D02*
X102103074Y-103818200D01*
X104696926Y-103818200D02*
X105775000Y-103818200D01*
X107795000Y-103818200D02*
X107805000Y-103818200D01*
X114133326Y-103818200D02*
X117387884Y-103818200D01*
X119215352Y-103818200D02*
X156387884Y-103818200D01*
X158215352Y-103818200D02*
X181587884Y-103818200D01*
X183415352Y-103818200D02*
X198001100Y-103818200D01*
X99001100Y-104017400D02*
X99662374Y-104017400D01*
X104696926Y-104017400D02*
X105775000Y-104017400D01*
X107795000Y-104017400D02*
X107805000Y-104017400D01*
X114133326Y-104017400D02*
X198001100Y-104017400D01*
X99001100Y-104216600D02*
X99622751Y-104216600D01*
X104696926Y-104216600D02*
X105894650Y-104216600D01*
X107795000Y-104216600D02*
X107805000Y-104216600D01*
X114133326Y-104216600D02*
X198001100Y-104216600D01*
X99001100Y-104415800D02*
X99583127Y-104415800D01*
X104696926Y-104415800D02*
X105775000Y-104415800D01*
X107795000Y-104415800D02*
X107805000Y-104415800D01*
X114133326Y-104415800D02*
X198001100Y-104415800D01*
X99001100Y-104615000D02*
X99589253Y-104615000D01*
X104696926Y-104615000D02*
X105775000Y-104615000D01*
X107795000Y-104615000D02*
X107805000Y-104615000D01*
X114133326Y-104615000D02*
X198001100Y-104615000D01*
X99001100Y-104814200D02*
X99628876Y-104814200D01*
X104696926Y-104814200D02*
X105775000Y-104814200D01*
X107795000Y-104814200D02*
X107805000Y-104814200D01*
X114133326Y-104814200D02*
X198001100Y-104814200D01*
X99001100Y-105013400D02*
X99668500Y-105013400D01*
X104696926Y-105013400D02*
X105775000Y-105013400D01*
X107795000Y-105013400D02*
X107805000Y-105013400D01*
X114130612Y-105013400D02*
X198001100Y-105013400D01*
X99001100Y-105212600D02*
X99799268Y-105212600D01*
X104696926Y-105212600D02*
X105819805Y-105212600D01*
X107795000Y-105212600D02*
X107805000Y-105212600D01*
X109780194Y-105212600D02*
X110331767Y-105212600D01*
X114069113Y-105212600D02*
X198001100Y-105212600D01*
X99001100Y-105411800D02*
X99932369Y-105411800D01*
X104687165Y-105411800D02*
X105969337Y-105411800D01*
X107776950Y-105411800D02*
X107823050Y-105411800D01*
X109630663Y-105411800D02*
X110593701Y-105411800D01*
X113814400Y-105411800D02*
X198001100Y-105411800D01*
X99001100Y-105611000D02*
X100210095Y-105611000D01*
X104608936Y-105611000D02*
X198001100Y-105611000D01*
X99001100Y-105810200D02*
X100274432Y-105810200D01*
X103985569Y-105810200D02*
X198001100Y-105810200D01*
X99001100Y-106009400D02*
X99958716Y-106009400D01*
X104301285Y-106009400D02*
X118659182Y-106009400D01*
X120543041Y-106009400D02*
X151059182Y-106009400D01*
X152943041Y-106009400D02*
X176159182Y-106009400D01*
X178043041Y-106009400D02*
X198001100Y-106009400D01*
X99001100Y-106208600D02*
X99773243Y-106208600D01*
X104486758Y-106208600D02*
X114156765Y-106208600D01*
X178734044Y-106208600D02*
X198001100Y-106208600D01*
X99001100Y-106407800D02*
X99642238Y-106407800D01*
X104617763Y-106407800D02*
X113743672Y-106407800D01*
X178922398Y-106407800D02*
X198001100Y-106407800D01*
X99001100Y-106607000D02*
X99567933Y-106607000D01*
X104692068Y-106607000D02*
X113544472Y-106607000D01*
X179004706Y-106607000D02*
X198001100Y-106607000D01*
X99001100Y-106806200D02*
X99493629Y-106806200D01*
X104766372Y-106806200D02*
X113345272Y-106806200D01*
X179024995Y-106806200D02*
X198001100Y-106806200D01*
X99001100Y-107005400D02*
X99587205Y-107005400D01*
X104672794Y-107005400D02*
X113146072Y-107005400D01*
X178999729Y-107005400D02*
X198001100Y-107005400D01*
X99001100Y-107204600D02*
X99519338Y-107204600D01*
X100855000Y-107204600D02*
X100865000Y-107204600D01*
X103395000Y-107204600D02*
X103405000Y-107204600D01*
X104740663Y-107204600D02*
X112946872Y-107204600D01*
X178917014Y-107204600D02*
X198001100Y-107204600D01*
X99001100Y-107403800D02*
X99542120Y-107403800D01*
X100855000Y-107403800D02*
X100865000Y-107403800D01*
X103395000Y-107403800D02*
X103405000Y-107403800D01*
X104717879Y-107403800D02*
X112747672Y-107403800D01*
X114444728Y-107403800D02*
X115978335Y-107403800D01*
X116821346Y-107403800D02*
X118561205Y-107403800D01*
X120637305Y-107403800D02*
X150961205Y-107403800D01*
X153037305Y-107403800D02*
X153178335Y-107403800D01*
X154021346Y-107403800D02*
X176061205Y-107403800D01*
X178721346Y-107403800D02*
X198001100Y-107403800D01*
X99001100Y-107603000D02*
X99616424Y-107603000D01*
X100855000Y-107603000D02*
X100865000Y-107603000D01*
X103395000Y-107603000D02*
X103405000Y-107603000D01*
X104643575Y-107603000D02*
X112548472Y-107603000D01*
X115510304Y-107603000D02*
X118575000Y-107603000D01*
X120625000Y-107603000D02*
X139989697Y-107603000D01*
X142010304Y-107603000D02*
X150975000Y-107603000D01*
X153025000Y-107603000D02*
X166489697Y-107603000D01*
X168510304Y-107603000D02*
X176075000Y-107603000D01*
X178125000Y-107603000D02*
X188939697Y-107603000D01*
X190960304Y-107603000D02*
X198001100Y-107603000D01*
X99001100Y-107802200D02*
X99708811Y-107802200D01*
X100855000Y-107802200D02*
X100865000Y-107802200D01*
X103395000Y-107802200D02*
X103405000Y-107802200D01*
X104551188Y-107802200D02*
X112349272Y-107802200D01*
X115808428Y-107802200D02*
X118575000Y-107802200D01*
X120625000Y-107802200D02*
X139691573Y-107802200D01*
X142308428Y-107802200D02*
X150975000Y-107802200D01*
X153025000Y-107802200D02*
X166191573Y-107802200D01*
X168808428Y-107802200D02*
X176075000Y-107802200D01*
X178125000Y-107802200D02*
X188641573Y-107802200D01*
X191258428Y-107802200D02*
X198001100Y-107802200D01*
X99001100Y-108001400D02*
X99894284Y-108001400D01*
X100855000Y-108001400D02*
X100865000Y-108001400D01*
X103395000Y-108001400D02*
X103405000Y-108001400D01*
X104365715Y-108001400D02*
X112150072Y-108001400D01*
X116016231Y-108001400D02*
X118531137Y-108001400D01*
X120668863Y-108001400D02*
X139483770Y-108001400D01*
X142516231Y-108001400D02*
X150931137Y-108001400D01*
X153068863Y-108001400D02*
X165983770Y-108001400D01*
X169016231Y-108001400D02*
X176031137Y-108001400D01*
X178168863Y-108001400D02*
X188433770Y-108001400D01*
X191466231Y-108001400D02*
X198001100Y-108001400D01*
X99001100Y-108200600D02*
X100122892Y-108200600D01*
X100855000Y-108200600D02*
X100865000Y-108200600D01*
X103395000Y-108200600D02*
X103405000Y-108200600D01*
X104137107Y-108200600D02*
X111950872Y-108200600D01*
X116149332Y-108200600D02*
X118450000Y-108200600D01*
X120750000Y-108200600D02*
X139350669Y-108200600D01*
X142649332Y-108200600D02*
X150850000Y-108200600D01*
X153150000Y-108200600D02*
X165850669Y-108200600D01*
X169149332Y-108200600D02*
X175950000Y-108200600D01*
X178250000Y-108200600D02*
X188300669Y-108200600D01*
X191599332Y-108200600D02*
X198001100Y-108200600D01*
X99001100Y-108399800D02*
X100165814Y-108399800D01*
X100855000Y-108399800D02*
X100865000Y-108399800D01*
X103395000Y-108399800D02*
X103405000Y-108399800D01*
X104094187Y-108399800D02*
X111751672Y-108399800D01*
X116261258Y-108399800D02*
X118450000Y-108399800D01*
X120750000Y-108399800D02*
X139238743Y-108399800D01*
X142761258Y-108399800D02*
X150850000Y-108399800D01*
X153150000Y-108399800D02*
X165738743Y-108399800D01*
X169261258Y-108399800D02*
X175950000Y-108399800D01*
X178250000Y-108399800D02*
X188188743Y-108399800D01*
X191711258Y-108399800D02*
X198001100Y-108399800D01*
X99001100Y-108599000D02*
X99912534Y-108599000D01*
X100855000Y-108599000D02*
X100865000Y-108599000D01*
X103395000Y-108599000D02*
X103405000Y-108599000D01*
X104347467Y-108599000D02*
X111552472Y-108599000D01*
X116300882Y-108599000D02*
X118450000Y-108599000D01*
X120750000Y-108599000D02*
X139199119Y-108599000D01*
X142800882Y-108599000D02*
X150850000Y-108599000D01*
X153150000Y-108599000D02*
X165699119Y-108599000D01*
X169300882Y-108599000D02*
X175950000Y-108599000D01*
X178250000Y-108599000D02*
X188149119Y-108599000D01*
X191750882Y-108599000D02*
X198001100Y-108599000D01*
X99001100Y-108798200D02*
X99727061Y-108798200D01*
X100855000Y-108798200D02*
X100865000Y-108798200D01*
X103395000Y-108798200D02*
X103405000Y-108798200D01*
X104532940Y-108798200D02*
X111360726Y-108798200D01*
X116340505Y-108798200D02*
X139159496Y-108798200D01*
X142840505Y-108798200D02*
X165659496Y-108798200D01*
X169340505Y-108798200D02*
X188109496Y-108798200D01*
X191790505Y-108798200D02*
X198001100Y-108798200D01*
X99001100Y-108997400D02*
X99623737Y-108997400D01*
X100855000Y-108997400D02*
X100865000Y-108997400D01*
X103395000Y-108997400D02*
X103405000Y-108997400D01*
X104636264Y-108997400D02*
X111240300Y-108997400D01*
X116341379Y-108997400D02*
X118450000Y-108997400D01*
X119595000Y-108997400D02*
X119605000Y-108997400D01*
X120750000Y-108997400D02*
X139158620Y-108997400D01*
X142841379Y-108997400D02*
X150850000Y-108997400D01*
X151995000Y-108997400D02*
X152005000Y-108997400D01*
X153150000Y-108997400D02*
X165658620Y-108997400D01*
X169341379Y-108997400D02*
X175950000Y-108997400D01*
X177095000Y-108997400D02*
X177105000Y-108997400D01*
X178250000Y-108997400D02*
X188108620Y-108997400D01*
X191791379Y-108997400D02*
X198001100Y-108997400D01*
X99001100Y-109196600D02*
X99549432Y-109196600D01*
X100855000Y-109196600D02*
X100865000Y-109196600D01*
X103395000Y-109196600D02*
X103405000Y-109196600D01*
X104710569Y-109196600D02*
X111200677Y-109196600D01*
X112651928Y-109196600D02*
X112698243Y-109196600D01*
X116301756Y-109196600D02*
X118450000Y-109196600D01*
X119595000Y-109196600D02*
X119605000Y-109196600D01*
X120750000Y-109196600D02*
X139198243Y-109196600D01*
X142801756Y-109196600D02*
X150850000Y-109196600D01*
X151995000Y-109196600D02*
X152005000Y-109196600D01*
X153150000Y-109196600D02*
X165698243Y-109196600D01*
X169301756Y-109196600D02*
X175950000Y-109196600D01*
X177095000Y-109196600D02*
X177105000Y-109196600D01*
X178250000Y-109196600D02*
X188148243Y-109196600D01*
X191751756Y-109196600D02*
X198001100Y-109196600D01*
X99001100Y-109395800D02*
X99509105Y-109395800D01*
X100855000Y-109395800D02*
X100865000Y-109395800D01*
X103395000Y-109395800D02*
X103405000Y-109395800D01*
X104750894Y-109395800D02*
X111200000Y-109395800D01*
X112452728Y-109395800D02*
X112737866Y-109395800D01*
X116262132Y-109395800D02*
X118450000Y-109395800D01*
X119595000Y-109395800D02*
X119605000Y-109395800D01*
X120750000Y-109395800D02*
X139237867Y-109395800D01*
X142762132Y-109395800D02*
X150850000Y-109395800D01*
X151995000Y-109395800D02*
X152005000Y-109395800D01*
X153150000Y-109395800D02*
X165737867Y-109395800D01*
X169262132Y-109395800D02*
X175950000Y-109395800D01*
X177095000Y-109395800D02*
X177105000Y-109395800D01*
X178250000Y-109395800D02*
X188187867Y-109395800D01*
X191712132Y-109395800D02*
X198001100Y-109395800D01*
X99001100Y-109595000D02*
X99597439Y-109595000D01*
X100855000Y-109595000D02*
X100865000Y-109595000D01*
X102122562Y-109595000D02*
X102137439Y-109595000D01*
X103395000Y-109595000D02*
X103405000Y-109595000D01*
X104662562Y-109595000D02*
X111200000Y-109595000D01*
X112400000Y-109595000D02*
X112847728Y-109595000D01*
X116152271Y-109595000D02*
X118528936Y-109595000D01*
X119595000Y-109595000D02*
X119605000Y-109595000D01*
X120671063Y-109595000D02*
X139347728Y-109595000D01*
X142652271Y-109595000D02*
X150928936Y-109595000D01*
X151995000Y-109595000D02*
X152005000Y-109595000D01*
X153071063Y-109595000D02*
X165847728Y-109595000D01*
X169152271Y-109595000D02*
X176028936Y-109595000D01*
X177095000Y-109595000D02*
X177105000Y-109595000D01*
X178171063Y-109595000D02*
X188297728Y-109595000D01*
X191602271Y-109595000D02*
X198001100Y-109595000D01*
X99001100Y-109794200D02*
X99493444Y-109794200D01*
X100855000Y-109794200D02*
X100865000Y-109794200D01*
X103395000Y-109794200D02*
X103405000Y-109794200D01*
X104766557Y-109794200D02*
X111200000Y-109794200D01*
X112400000Y-109794200D02*
X112980829Y-109794200D01*
X116019170Y-109794200D02*
X118796212Y-109794200D01*
X119494550Y-109794200D02*
X119705450Y-109794200D01*
X120403787Y-109794200D02*
X121110387Y-109794200D01*
X121890076Y-109794200D02*
X139480829Y-109794200D01*
X142519170Y-109794200D02*
X147610387Y-109794200D01*
X148390076Y-109794200D02*
X151196212Y-109794200D01*
X151894550Y-109794200D02*
X152105450Y-109794200D01*
X152803787Y-109794200D02*
X165980829Y-109794200D01*
X169019170Y-109794200D02*
X174110387Y-109794200D01*
X174890076Y-109794200D02*
X176296212Y-109794200D01*
X176994550Y-109794200D02*
X177205450Y-109794200D01*
X177903787Y-109794200D02*
X188430829Y-109794200D01*
X191469170Y-109794200D02*
X196560387Y-109794200D01*
X197340076Y-109794200D02*
X198001100Y-109794200D01*
X99001100Y-109993400D02*
X99560621Y-109993400D01*
X100855000Y-109993400D02*
X100865000Y-109993400D01*
X103395000Y-109993400D02*
X103405000Y-109993400D01*
X104699378Y-109993400D02*
X111200000Y-109993400D01*
X112400000Y-109993400D02*
X113184987Y-109993400D01*
X115815012Y-109993400D02*
X120720362Y-109993400D01*
X122280035Y-109993400D02*
X139684987Y-109993400D01*
X142315012Y-109993400D02*
X147220362Y-109993400D01*
X148780035Y-109993400D02*
X166184987Y-109993400D01*
X168815012Y-109993400D02*
X173720362Y-109993400D01*
X175280035Y-109993400D02*
X188634987Y-109993400D01*
X191265012Y-109993400D02*
X196170362Y-109993400D01*
X197730035Y-109993400D02*
X198001100Y-109993400D01*
X99001100Y-110192600D02*
X99634926Y-110192600D01*
X100855000Y-110192600D02*
X100865000Y-110192600D01*
X103395000Y-110192600D02*
X103405000Y-110192600D01*
X104625073Y-110192600D02*
X111200000Y-110192600D01*
X112400000Y-110192600D02*
X113483111Y-110192600D01*
X115516888Y-110192600D02*
X120520814Y-110192600D01*
X122478887Y-110192600D02*
X139983111Y-110192600D01*
X142016888Y-110192600D02*
X147020814Y-110192600D01*
X148978887Y-110192600D02*
X166483111Y-110192600D01*
X168516888Y-110192600D02*
X173520814Y-110192600D01*
X175478887Y-110192600D02*
X188933111Y-110192600D01*
X190966888Y-110192600D02*
X195970814Y-110192600D01*
X197928888Y-110192600D02*
X198001100Y-110192600D01*
X99001100Y-110391800D02*
X99754993Y-110391800D01*
X100855000Y-110391800D02*
X100865000Y-110391800D01*
X103395000Y-110391800D02*
X103405000Y-110391800D01*
X104505006Y-110391800D02*
X111200000Y-110391800D01*
X112400000Y-110391800D02*
X120384774Y-110391800D01*
X122615482Y-110391800D02*
X146884774Y-110391800D01*
X149115482Y-110391800D02*
X173384774Y-110391800D01*
X175615482Y-110391800D02*
X195834774Y-110391800D01*
X99001100Y-110591000D02*
X99940466Y-110591000D01*
X100855000Y-110591000D02*
X100865000Y-110591000D01*
X103395000Y-110591000D02*
X103405000Y-110591000D01*
X104319533Y-110591000D02*
X111200000Y-110591000D01*
X112400000Y-110591000D02*
X120302059Y-110591000D01*
X122697790Y-110591000D02*
X146802059Y-110591000D01*
X149197790Y-110591000D02*
X173302059Y-110591000D01*
X175697790Y-110591000D02*
X195752059Y-110591000D01*
X99001100Y-110790200D02*
X100231509Y-110790200D01*
X100855000Y-110790200D02*
X100865000Y-110790200D01*
X103395000Y-110790200D02*
X103405000Y-110790200D01*
X104028490Y-110790200D02*
X111200000Y-110790200D01*
X112400000Y-110790200D02*
X120236982Y-110790200D01*
X122763383Y-110790200D02*
X146736982Y-110790200D01*
X149263383Y-110790200D02*
X173236982Y-110790200D01*
X175763383Y-110790200D02*
X195686982Y-110790200D01*
X99001100Y-110989400D02*
X100057197Y-110989400D01*
X100855000Y-110989400D02*
X100865000Y-110989400D01*
X103395000Y-110989400D02*
X103405000Y-110989400D01*
X104202804Y-110989400D02*
X105568137Y-110989400D01*
X107378150Y-110989400D02*
X107421850Y-110989400D01*
X109231863Y-110989400D02*
X110179223Y-110989400D01*
X113412225Y-110989400D02*
X120236809Y-110989400D01*
X122763210Y-110989400D02*
X146736809Y-110989400D01*
X149263210Y-110989400D02*
X173236809Y-110989400D01*
X175763210Y-110989400D02*
X195686809Y-110989400D01*
X99001100Y-111188600D02*
X99866352Y-111188600D01*
X100855000Y-111188600D02*
X100865000Y-111188600D01*
X103395000Y-111188600D02*
X103405000Y-111188600D01*
X104393649Y-111188600D02*
X105419309Y-111188600D01*
X107395000Y-111188600D02*
X107405000Y-111188600D01*
X109380692Y-111188600D02*
X109930067Y-111188600D01*
X113669005Y-111188600D02*
X120236635Y-111188600D01*
X122763036Y-111188600D02*
X124762111Y-111188600D01*
X125837739Y-111188600D02*
X146736635Y-111188600D01*
X149263036Y-111188600D02*
X151262111Y-111188600D01*
X152337739Y-111188600D02*
X173236635Y-111188600D01*
X175763036Y-111188600D02*
X177762111Y-111188600D01*
X178837738Y-111188600D02*
X195686635Y-111188600D01*
X99001100Y-111387800D02*
X99680879Y-111387800D01*
X100855000Y-111387800D02*
X100865000Y-111387800D01*
X103395000Y-111387800D02*
X103405000Y-111387800D01*
X104579122Y-111387800D02*
X105375000Y-111387800D01*
X107395000Y-111387800D02*
X107405000Y-111387800D01*
X113731031Y-111387800D02*
X120293450Y-111387800D01*
X122706744Y-111387800D02*
X124438498Y-111387800D01*
X126161765Y-111387800D02*
X146793450Y-111387800D01*
X149206744Y-111387800D02*
X150938498Y-111387800D01*
X152661765Y-111387800D02*
X173293450Y-111387800D01*
X175706744Y-111387800D02*
X177438498Y-111387800D01*
X179161765Y-111387800D02*
X195743450Y-111387800D01*
X99001100Y-111587000D02*
X99605235Y-111587000D01*
X100855000Y-111587000D02*
X100865000Y-111587000D01*
X103395000Y-111587000D02*
X103405000Y-111587000D01*
X104654766Y-111587000D02*
X105375000Y-111587000D01*
X107395000Y-111587000D02*
X107405000Y-111587000D01*
X113733326Y-111587000D02*
X120375758Y-111587000D01*
X122724818Y-111587000D02*
X124238951Y-111587000D01*
X126360618Y-111587000D02*
X146875758Y-111587000D01*
X149224818Y-111587000D02*
X150738951Y-111587000D01*
X152860618Y-111587000D02*
X173375758Y-111587000D01*
X175724818Y-111587000D02*
X177238951Y-111587000D01*
X179360618Y-111587000D02*
X195825758Y-111587000D01*
X99001100Y-111786200D02*
X99530930Y-111786200D01*
X100855000Y-111786200D02*
X100865000Y-111786200D01*
X103395000Y-111786200D02*
X103405000Y-111786200D01*
X104729071Y-111786200D02*
X105375000Y-111786200D01*
X107395000Y-111786200D02*
X107405000Y-111786200D01*
X113733326Y-111786200D02*
X120499950Y-111786200D01*
X122924018Y-111786200D02*
X124120184Y-111786200D01*
X126480035Y-111786200D02*
X146999950Y-111786200D01*
X149424018Y-111786200D02*
X150620184Y-111786200D01*
X152980035Y-111786200D02*
X173499950Y-111786200D01*
X175924018Y-111786200D02*
X177120184Y-111786200D01*
X179480035Y-111786200D02*
X195949950Y-111786200D01*
X99001100Y-111985400D02*
X99534999Y-111985400D01*
X100855000Y-111985400D02*
X100865000Y-111985400D01*
X103395000Y-111985400D02*
X103405000Y-111985400D01*
X104725000Y-111985400D02*
X105375000Y-111985400D01*
X107395000Y-111985400D02*
X107405000Y-111985400D01*
X113733326Y-111985400D02*
X120698802Y-111985400D01*
X123123218Y-111985400D02*
X124037469Y-111985400D01*
X126562343Y-111985400D02*
X147198802Y-111985400D01*
X149623218Y-111985400D02*
X150537469Y-111985400D01*
X153062343Y-111985400D02*
X173698802Y-111985400D01*
X176123218Y-111985400D02*
X177037469Y-111985400D01*
X179562343Y-111985400D02*
X196148802Y-111985400D01*
X99001100Y-112184600D02*
X99571545Y-112184600D01*
X104688457Y-112184600D02*
X105495850Y-112184600D01*
X107395000Y-112184600D02*
X107405000Y-112184600D01*
X113733326Y-112184600D02*
X121058869Y-112184600D01*
X123322418Y-112184600D02*
X123975188Y-112184600D01*
X126625187Y-112184600D02*
X147558869Y-112184600D01*
X149822418Y-112184600D02*
X150475188Y-112184600D01*
X153125187Y-112184600D02*
X174058869Y-112184600D01*
X176322418Y-112184600D02*
X176975188Y-112184600D01*
X179625187Y-112184600D02*
X196508869Y-112184600D01*
X99001100Y-112383800D02*
X99504818Y-112383800D01*
X104755181Y-112383800D02*
X105375000Y-112383800D01*
X107395000Y-112383800D02*
X107405000Y-112383800D01*
X113733326Y-112383800D02*
X120893538Y-112383800D01*
X123521618Y-112383800D02*
X123975015Y-112383800D01*
X126625014Y-112383800D02*
X147393538Y-112383800D01*
X150021618Y-112383800D02*
X150475015Y-112383800D01*
X153125014Y-112383800D02*
X173893538Y-112383800D01*
X176521618Y-112383800D02*
X176975015Y-112383800D01*
X179625014Y-112383800D02*
X196343538Y-112383800D01*
X99001100Y-112583000D02*
X99579123Y-112583000D01*
X104680876Y-112583000D02*
X105375000Y-112583000D01*
X107395000Y-112583000D02*
X107405000Y-112583000D01*
X113733326Y-112583000D02*
X120630606Y-112583000D01*
X123720818Y-112583000D02*
X123974841Y-112583000D01*
X126624840Y-112583000D02*
X147130606Y-112583000D01*
X150220818Y-112583000D02*
X150474841Y-112583000D01*
X153124840Y-112583000D02*
X173630606Y-112583000D01*
X176720818Y-112583000D02*
X176974841Y-112583000D01*
X179624840Y-112583000D02*
X196080606Y-112583000D01*
X99001100Y-112782200D02*
X99653428Y-112782200D01*
X104606571Y-112782200D02*
X105375000Y-112782200D01*
X107395000Y-112782200D02*
X107405000Y-112782200D01*
X113733326Y-112782200D02*
X120431058Y-112782200D01*
X123920018Y-112782200D02*
X124024270Y-112782200D01*
X126575984Y-112782200D02*
X146931058Y-112782200D01*
X150420018Y-112782200D02*
X150524270Y-112782200D01*
X153075984Y-112782200D02*
X173431058Y-112782200D01*
X176920018Y-112782200D02*
X177024270Y-112782200D01*
X179575984Y-112782200D02*
X195881058Y-112782200D01*
X99001100Y-112981400D02*
X99801175Y-112981400D01*
X104458824Y-112981400D02*
X105375000Y-112981400D01*
X107395000Y-112981400D02*
X107405000Y-112981400D01*
X113733326Y-112981400D02*
X120347569Y-112981400D01*
X126493269Y-112981400D02*
X146847569Y-112981400D01*
X152993269Y-112981400D02*
X173347569Y-112981400D01*
X179493269Y-112981400D02*
X195797569Y-112981400D01*
X99001100Y-113180600D02*
X99986648Y-113180600D01*
X104273351Y-113180600D02*
X105406550Y-113180600D01*
X107395000Y-113180600D02*
X107405000Y-113180600D01*
X109393449Y-113180600D02*
X109911175Y-113180600D01*
X113690978Y-113180600D02*
X120264854Y-113180600D01*
X122734812Y-113180600D02*
X122762782Y-113180600D01*
X126393506Y-113180600D02*
X146764854Y-113180600D01*
X149234812Y-113180600D02*
X149262782Y-113180600D01*
X152893506Y-113180600D02*
X173264854Y-113180600D01*
X175734812Y-113180600D02*
X175762782Y-113180600D01*
X179393506Y-113180600D02*
X195714854Y-113180600D01*
X99001100Y-113379800D02*
X100340127Y-113379800D01*
X103919872Y-113379800D02*
X105537337Y-113379800D01*
X107395000Y-113379800D02*
X107405000Y-113379800D01*
X109262663Y-113379800D02*
X109771672Y-113379800D01*
X113494623Y-113379800D02*
X120236904Y-113379800D01*
X122763305Y-113379800D02*
X122961982Y-113379800D01*
X126193958Y-113379800D02*
X146736904Y-113379800D01*
X149263305Y-113379800D02*
X149461982Y-113379800D01*
X152693958Y-113379800D02*
X173236904Y-113379800D01*
X175763305Y-113379800D02*
X175961982Y-113379800D01*
X179193958Y-113379800D02*
X195686904Y-113379800D01*
X99001100Y-113579000D02*
X100165198Y-113579000D01*
X104094803Y-113579000D02*
X109572472Y-113579000D01*
X111269528Y-113579000D02*
X120236731Y-113579000D01*
X122763132Y-113579000D02*
X123161182Y-113579000D01*
X125916304Y-113579000D02*
X146736731Y-113579000D01*
X149263132Y-113579000D02*
X149661182Y-113579000D01*
X152416304Y-113579000D02*
X173236731Y-113579000D01*
X175763132Y-113579000D02*
X176161182Y-113579000D01*
X178916304Y-113579000D02*
X195686731Y-113579000D01*
X99001100Y-113778200D02*
X99912325Y-113778200D01*
X104347676Y-113778200D02*
X109373272Y-113778200D01*
X111070328Y-113778200D02*
X120248165Y-113778200D01*
X122752254Y-113778200D02*
X123360382Y-113778200D01*
X126536574Y-113778200D02*
X146748165Y-113778200D01*
X149252254Y-113778200D02*
X149860382Y-113778200D01*
X153036574Y-113778200D02*
X173248165Y-113778200D01*
X175752254Y-113778200D02*
X176360382Y-113778200D01*
X179536574Y-113778200D02*
X195698165Y-113778200D01*
X99001100Y-113977400D02*
X99779224Y-113977400D01*
X104480777Y-113977400D02*
X109174072Y-113977400D01*
X110871128Y-113977400D02*
X120330472Y-113977400D01*
X122669539Y-113977400D02*
X123559582Y-113977400D01*
X126621547Y-113977400D02*
X146830472Y-113977400D01*
X149169539Y-113977400D02*
X150059582Y-113977400D01*
X153121547Y-113977400D02*
X173330472Y-113977400D01*
X175669539Y-113977400D02*
X176559582Y-113977400D01*
X179621547Y-113977400D02*
X195780472Y-113977400D01*
X99001100Y-114176600D02*
X99662533Y-114176600D01*
X104597468Y-114176600D02*
X108974872Y-114176600D01*
X110671928Y-114176600D02*
X120412780Y-114176600D01*
X122586824Y-114176600D02*
X123758782Y-114176600D01*
X126633326Y-114176600D02*
X146912780Y-114176600D01*
X149086824Y-114176600D02*
X150258782Y-114176600D01*
X153133326Y-114176600D02*
X173412780Y-114176600D01*
X175586824Y-114176600D02*
X176758782Y-114176600D01*
X179633326Y-114176600D02*
X195862780Y-114176600D01*
X99001100Y-114375800D02*
X99622910Y-114375800D01*
X104637091Y-114375800D02*
X108775672Y-114375800D01*
X110472728Y-114375800D02*
X120589394Y-114375800D01*
X122410666Y-114375800D02*
X123957982Y-114375800D01*
X126633326Y-114375800D02*
X147089394Y-114375800D01*
X148910666Y-114375800D02*
X150457982Y-114375800D01*
X153133326Y-114375800D02*
X173589394Y-114375800D01*
X175410666Y-114375800D02*
X176957982Y-114375800D01*
X179633326Y-114375800D02*
X196039394Y-114375800D01*
X197860667Y-114375800D02*
X198001100Y-114375800D01*
X99001100Y-114575000D02*
X99583287Y-114575000D01*
X104676714Y-114575000D02*
X108576472Y-114575000D01*
X110273528Y-114575000D02*
X120794923Y-114575000D01*
X122206174Y-114575000D02*
X123966674Y-114575000D01*
X126633326Y-114575000D02*
X147294923Y-114575000D01*
X148706174Y-114575000D02*
X150466674Y-114575000D01*
X153133326Y-114575000D02*
X173794923Y-114575000D01*
X175206174Y-114575000D02*
X176966674Y-114575000D01*
X179633326Y-114575000D02*
X196244923Y-114575000D01*
X197656174Y-114575000D02*
X198001100Y-114575000D01*
X99001100Y-114774200D02*
X99589094Y-114774200D01*
X104670905Y-114774200D02*
X108377272Y-114774200D01*
X110074328Y-114774200D02*
X120885678Y-114774200D01*
X122097415Y-114774200D02*
X123966674Y-114774200D01*
X126633326Y-114774200D02*
X147385678Y-114774200D01*
X148597415Y-114774200D02*
X150466674Y-114774200D01*
X153133326Y-114774200D02*
X173885678Y-114774200D01*
X175097415Y-114774200D02*
X176966674Y-114774200D01*
X179633326Y-114774200D02*
X196335678Y-114774200D01*
X197547415Y-114774200D02*
X198001100Y-114774200D01*
X99001100Y-114973400D02*
X99628717Y-114973400D01*
X104631282Y-114973400D02*
X108178072Y-114973400D01*
X109875128Y-114973400D02*
X120655386Y-114973400D01*
X122344615Y-114973400D02*
X123966674Y-114973400D01*
X126633326Y-114973400D02*
X147155386Y-114973400D01*
X148844615Y-114973400D02*
X150466674Y-114973400D01*
X153133326Y-114973400D02*
X173655386Y-114973400D01*
X175344615Y-114973400D02*
X176966674Y-114973400D01*
X179633326Y-114973400D02*
X196105386Y-114973400D01*
X197794615Y-114973400D02*
X198001100Y-114973400D01*
X99001100Y-115172600D02*
X99668341Y-115172600D01*
X104591658Y-115172600D02*
X107978872Y-115172600D01*
X109675928Y-115172600D02*
X120418663Y-115172600D01*
X120665529Y-115172600D02*
X120679671Y-115172600D01*
X122320329Y-115172600D02*
X122334471Y-115172600D01*
X122581338Y-115172600D02*
X123966674Y-115172600D01*
X126633326Y-115172600D02*
X146918663Y-115172600D01*
X147165529Y-115172600D02*
X147179671Y-115172600D01*
X148820329Y-115172600D02*
X148834471Y-115172600D01*
X149081338Y-115172600D02*
X150466674Y-115172600D01*
X153133326Y-115172600D02*
X173418663Y-115172600D01*
X173665529Y-115172600D02*
X173679671Y-115172600D01*
X175320329Y-115172600D02*
X175334471Y-115172600D01*
X175581338Y-115172600D02*
X176966674Y-115172600D01*
X179633326Y-115172600D02*
X195868663Y-115172600D01*
X196115529Y-115172600D02*
X196129671Y-115172600D01*
X197770329Y-115172600D02*
X197784471Y-115172600D01*
X99001100Y-115371800D02*
X99798733Y-115371800D01*
X101921265Y-115371800D02*
X102338734Y-115371800D01*
X104461266Y-115371800D02*
X107779672Y-115371800D01*
X109476728Y-115371800D02*
X120288259Y-115371800D01*
X120864729Y-115371800D02*
X120878871Y-115371800D01*
X122121129Y-115371800D02*
X122135271Y-115371800D01*
X122720624Y-115371800D02*
X123966674Y-115371800D01*
X126633326Y-115371800D02*
X146788259Y-115371800D01*
X147364729Y-115371800D02*
X147378871Y-115371800D01*
X148621129Y-115371800D02*
X148635271Y-115371800D01*
X149220624Y-115371800D02*
X150466674Y-115371800D01*
X153133326Y-115371800D02*
X173288259Y-115371800D01*
X173864729Y-115371800D02*
X173878871Y-115371800D01*
X175121129Y-115371800D02*
X175135271Y-115371800D01*
X175720624Y-115371800D02*
X176966674Y-115371800D01*
X179633326Y-115371800D02*
X195738259Y-115371800D01*
X196314729Y-115371800D02*
X196328871Y-115371800D01*
X197571129Y-115371800D02*
X197585271Y-115371800D01*
X99001100Y-115571000D02*
X99931834Y-115571000D01*
X101788165Y-115571000D02*
X102471834Y-115571000D01*
X104328165Y-115571000D02*
X107580472Y-115571000D01*
X109277528Y-115571000D02*
X120197294Y-115571000D01*
X121063929Y-115571000D02*
X121078071Y-115571000D01*
X121921929Y-115571000D02*
X121936071Y-115571000D01*
X122794928Y-115571000D02*
X123966674Y-115571000D01*
X126633326Y-115571000D02*
X146697294Y-115571000D01*
X147563929Y-115571000D02*
X147578071Y-115571000D01*
X148421929Y-115571000D02*
X148436071Y-115571000D01*
X149294928Y-115571000D02*
X150466674Y-115571000D01*
X153133326Y-115571000D02*
X173197294Y-115571000D01*
X174063929Y-115571000D02*
X174078071Y-115571000D01*
X174921929Y-115571000D02*
X174936071Y-115571000D01*
X175794928Y-115571000D02*
X176966674Y-115571000D01*
X179633326Y-115571000D02*
X195647294Y-115571000D01*
X196513929Y-115571000D02*
X196528071Y-115571000D01*
X197371929Y-115571000D02*
X197386071Y-115571000D01*
X99001100Y-115770200D02*
X100208898Y-115770200D01*
X101511101Y-115770200D02*
X102748898Y-115770200D01*
X104051101Y-115770200D02*
X107381272Y-115770200D01*
X109078328Y-115770200D02*
X120144133Y-115770200D01*
X121263129Y-115770200D02*
X121277271Y-115770200D01*
X121722729Y-115770200D02*
X121736871Y-115770200D01*
X122869232Y-115770200D02*
X123966674Y-115770200D01*
X126633326Y-115770200D02*
X146644133Y-115770200D01*
X147763129Y-115770200D02*
X147777271Y-115770200D01*
X148222729Y-115770200D02*
X148236871Y-115770200D01*
X149369232Y-115770200D02*
X150466674Y-115770200D01*
X153133326Y-115770200D02*
X173144133Y-115770200D01*
X174263129Y-115770200D02*
X174277271Y-115770200D01*
X174722729Y-115770200D02*
X174736871Y-115770200D01*
X175869232Y-115770200D02*
X176966674Y-115770200D01*
X179633326Y-115770200D02*
X195594133Y-115770200D01*
X196713129Y-115770200D02*
X196727271Y-115770200D01*
X197172729Y-115770200D02*
X197186871Y-115770200D01*
X99001100Y-115969400D02*
X100260000Y-115969400D01*
X101460000Y-115969400D02*
X103377653Y-115969400D01*
X103422346Y-115969400D02*
X107182072Y-115969400D01*
X108879128Y-115969400D02*
X120137024Y-115969400D01*
X121462329Y-115969400D02*
X121476471Y-115969400D01*
X121523529Y-115969400D02*
X121537671Y-115969400D01*
X122865160Y-115969400D02*
X123991022Y-115969400D01*
X126607121Y-115969400D02*
X146637024Y-115969400D01*
X147962329Y-115969400D02*
X147976471Y-115969400D01*
X148023529Y-115969400D02*
X148037671Y-115969400D01*
X149365160Y-115969400D02*
X150491022Y-115969400D01*
X153107121Y-115969400D02*
X173137024Y-115969400D01*
X174462329Y-115969400D02*
X174476471Y-115969400D01*
X174523529Y-115969400D02*
X174537671Y-115969400D01*
X175865160Y-115969400D02*
X176991022Y-115969400D01*
X179607121Y-115969400D02*
X195587024Y-115969400D01*
X196912329Y-115969400D02*
X196926471Y-115969400D01*
X196973529Y-115969400D02*
X196987671Y-115969400D01*
X99001100Y-116168600D02*
X100260000Y-116168600D01*
X101460000Y-116168600D02*
X106982872Y-116168600D01*
X108679928Y-116168600D02*
X120129915Y-116168600D01*
X121324329Y-116168600D02*
X121338471Y-116168600D01*
X121661529Y-116168600D02*
X121675671Y-116168600D01*
X122858051Y-116168600D02*
X124128105Y-116168600D01*
X126474190Y-116168600D02*
X146629915Y-116168600D01*
X147824329Y-116168600D02*
X147838471Y-116168600D01*
X148161529Y-116168600D02*
X148175671Y-116168600D01*
X149358051Y-116168600D02*
X150628105Y-116168600D01*
X152974190Y-116168600D02*
X173129915Y-116168600D01*
X174324329Y-116168600D02*
X174338471Y-116168600D01*
X174661529Y-116168600D02*
X174675671Y-116168600D01*
X175858051Y-116168600D02*
X177128105Y-116168600D01*
X179474190Y-116168600D02*
X195579915Y-116168600D01*
X196774329Y-116168600D02*
X196788471Y-116168600D01*
X197111529Y-116168600D02*
X197125671Y-116168600D01*
X99001100Y-116367800D02*
X100260000Y-116367800D01*
X101460000Y-116367800D02*
X106783672Y-116367800D01*
X108480728Y-116367800D02*
X120182244Y-116367800D01*
X121125129Y-116367800D02*
X121139271Y-116367800D01*
X121860729Y-116367800D02*
X121874871Y-116367800D01*
X122830654Y-116367800D02*
X146682244Y-116367800D01*
X147625129Y-116367800D02*
X147639271Y-116367800D01*
X148360729Y-116367800D02*
X148374871Y-116367800D01*
X149330654Y-116367800D02*
X173182244Y-116367800D01*
X174125129Y-116367800D02*
X174139271Y-116367800D01*
X174860729Y-116367800D02*
X174874871Y-116367800D01*
X175830654Y-116367800D02*
X195632244Y-116367800D01*
X196575129Y-116367800D02*
X196589271Y-116367800D01*
X197310729Y-116367800D02*
X197324871Y-116367800D01*
X99001100Y-116567000D02*
X100260000Y-116567000D01*
X101460000Y-116567000D02*
X106584472Y-116567000D01*
X108281528Y-116567000D02*
X120256548Y-116567000D01*
X120925929Y-116567000D02*
X120940071Y-116567000D01*
X122059929Y-116567000D02*
X122074071Y-116567000D01*
X122739688Y-116567000D02*
X146756548Y-116567000D01*
X147425929Y-116567000D02*
X147440071Y-116567000D01*
X148559929Y-116567000D02*
X148574071Y-116567000D01*
X149239688Y-116567000D02*
X173256548Y-116567000D01*
X173925929Y-116567000D02*
X173940071Y-116567000D01*
X175059929Y-116567000D02*
X175074071Y-116567000D01*
X175739688Y-116567000D02*
X195706548Y-116567000D01*
X196375929Y-116567000D02*
X196390071Y-116567000D01*
X197509929Y-116567000D02*
X197524071Y-116567000D01*
X99001100Y-116766200D02*
X100260000Y-116766200D01*
X101460000Y-116766200D02*
X106385272Y-116766200D01*
X108082328Y-116766200D02*
X113605754Y-116766200D01*
X115394247Y-116766200D02*
X120341394Y-116766200D01*
X120726729Y-116766200D02*
X120740871Y-116766200D01*
X122259129Y-116766200D02*
X122273271Y-116766200D01*
X122648723Y-116766200D02*
X140105754Y-116766200D01*
X141894247Y-116766200D02*
X146841394Y-116766200D01*
X147226729Y-116766200D02*
X147240871Y-116766200D01*
X148759129Y-116766200D02*
X148773271Y-116766200D01*
X149148723Y-116766200D02*
X166605754Y-116766200D01*
X168394247Y-116766200D02*
X173341394Y-116766200D01*
X173726729Y-116766200D02*
X173740871Y-116766200D01*
X175259129Y-116766200D02*
X175273271Y-116766200D01*
X175648723Y-116766200D02*
X189055754Y-116766200D01*
X190844247Y-116766200D02*
X195791394Y-116766200D01*
X196176729Y-116766200D02*
X196190871Y-116766200D01*
X197709129Y-116766200D02*
X197723271Y-116766200D01*
X99001100Y-116965400D02*
X100260000Y-116965400D01*
X101460000Y-116965400D02*
X106186072Y-116965400D01*
X107883128Y-116965400D02*
X113246648Y-116965400D01*
X115753353Y-116965400D02*
X120636139Y-116965400D01*
X122363860Y-116965400D02*
X139746648Y-116965400D01*
X142253353Y-116965400D02*
X147136139Y-116965400D01*
X148863860Y-116965400D02*
X166246648Y-116965400D01*
X168753353Y-116965400D02*
X173636139Y-116965400D01*
X175363860Y-116965400D02*
X188696648Y-116965400D01*
X191203353Y-116965400D02*
X196086139Y-116965400D01*
X197813860Y-116965400D02*
X198001100Y-116965400D01*
X99001100Y-117164600D02*
X100260000Y-117164600D01*
X101460000Y-117164600D02*
X105986872Y-117164600D01*
X107683928Y-117164600D02*
X113008359Y-117164600D01*
X115991642Y-117164600D02*
X120768567Y-117164600D01*
X122257227Y-117164600D02*
X139508359Y-117164600D01*
X142491642Y-117164600D02*
X147268567Y-117164600D01*
X148757227Y-117164600D02*
X166008359Y-117164600D01*
X168991642Y-117164600D02*
X173768567Y-117164600D01*
X175257227Y-117164600D02*
X188458359Y-117164600D01*
X191441642Y-117164600D02*
X196218567Y-117164600D01*
X197707227Y-117164600D02*
X198001100Y-117164600D01*
X99001100Y-117363800D02*
X100137621Y-117363800D01*
X104860772Y-117363800D02*
X105787672Y-117363800D01*
X107484728Y-117363800D02*
X112875258Y-117363800D01*
X116124743Y-117363800D02*
X121492474Y-117363800D01*
X121744359Y-117363800D02*
X139375258Y-117363800D01*
X142624743Y-117363800D02*
X147992474Y-117363800D01*
X148244359Y-117363800D02*
X165875258Y-117363800D01*
X169124743Y-117363800D02*
X174492474Y-117363800D01*
X174744359Y-117363800D02*
X188325258Y-117363800D01*
X191574743Y-117363800D02*
X196942474Y-117363800D01*
X197194359Y-117363800D02*
X198001100Y-117363800D01*
X99001100Y-117563000D02*
X99994418Y-117563000D01*
X105007548Y-117563000D02*
X105588472Y-117563000D01*
X107285528Y-117563000D02*
X112746063Y-117563000D01*
X116253938Y-117563000D02*
X139246063Y-117563000D01*
X142753938Y-117563000D02*
X165746063Y-117563000D01*
X169253938Y-117563000D02*
X188196063Y-117563000D01*
X191703938Y-117563000D02*
X198001100Y-117563000D01*
X99001100Y-117762200D02*
X99966674Y-117762200D01*
X107086328Y-117762200D02*
X112706439Y-117762200D01*
X116293562Y-117762200D02*
X139206439Y-117762200D01*
X142793562Y-117762200D02*
X165706439Y-117762200D01*
X169293562Y-117762200D02*
X188156439Y-117762200D01*
X191743562Y-117762200D02*
X198001100Y-117762200D01*
X99001100Y-117961400D02*
X99966674Y-117961400D01*
X106887128Y-117961400D02*
X112666816Y-117961400D01*
X116333185Y-117961400D02*
X139166816Y-117961400D01*
X142833185Y-117961400D02*
X165666816Y-117961400D01*
X169333185Y-117961400D02*
X188116816Y-117961400D01*
X191783185Y-117961400D02*
X198001100Y-117961400D01*
X99001100Y-118160600D02*
X99966674Y-118160600D01*
X106687928Y-118160600D02*
X112651300Y-118160600D01*
X116348699Y-118160600D02*
X139151300Y-118160600D01*
X142848699Y-118160600D02*
X165651300Y-118160600D01*
X169348699Y-118160600D02*
X188101300Y-118160600D01*
X191798699Y-118160600D02*
X198001100Y-118160600D01*
X99001100Y-118359800D02*
X99966674Y-118359800D01*
X106488728Y-118359800D02*
X112690923Y-118359800D01*
X116309076Y-118359800D02*
X139190923Y-118359800D01*
X142809076Y-118359800D02*
X165690923Y-118359800D01*
X169309076Y-118359800D02*
X188140923Y-118359800D01*
X191759076Y-118359800D02*
X198001100Y-118359800D01*
X99001100Y-118559000D02*
X99966674Y-118559000D01*
X106289528Y-118559000D02*
X112730547Y-118559000D01*
X116269452Y-118559000D02*
X139230547Y-118559000D01*
X142769452Y-118559000D02*
X165730547Y-118559000D01*
X169269452Y-118559000D02*
X188180547Y-118559000D01*
X191719452Y-118559000D02*
X198001100Y-118559000D01*
X107609076Y-91350347D02*
X107519634Y-91800000D01*
X107609076Y-92249653D01*
X107863784Y-92630850D01*
X108244981Y-92885558D01*
X108694634Y-92975000D01*
X109505366Y-92975000D01*
X109955019Y-92885558D01*
X110336216Y-92630850D01*
X110590924Y-92249653D01*
X110680366Y-91800000D01*
X110590924Y-91350347D01*
X110536302Y-91268600D01*
X119663698Y-91268600D01*
X119609076Y-91350347D01*
X119519634Y-91800000D01*
X119609076Y-92249653D01*
X119863784Y-92630850D01*
X120244981Y-92885558D01*
X120694634Y-92975000D01*
X121505366Y-92975000D01*
X121955019Y-92885558D01*
X122336216Y-92630850D01*
X122590924Y-92249653D01*
X122680366Y-91800000D01*
X122590924Y-91350347D01*
X122536302Y-91268600D01*
X125253582Y-91268600D01*
X123411091Y-93111091D01*
X123291866Y-93289524D01*
X123250000Y-93500000D01*
X123250000Y-93860964D01*
X122863084Y-94119494D01*
X122575860Y-94549354D01*
X122475000Y-95056410D01*
X122475000Y-96943590D01*
X122575860Y-97450646D01*
X122863084Y-97880506D01*
X123292944Y-98167730D01*
X123800000Y-98268590D01*
X124307056Y-98167730D01*
X124736916Y-97880506D01*
X125024140Y-97450646D01*
X125125000Y-96943590D01*
X125125000Y-95056410D01*
X125024140Y-94549354D01*
X124736916Y-94119494D01*
X124350000Y-93860964D01*
X124350000Y-93727818D01*
X125877818Y-92200000D01*
X126166674Y-92200000D01*
X126166674Y-94000000D01*
X126196309Y-94157496D01*
X126289389Y-94302146D01*
X126431412Y-94399186D01*
X126600000Y-94433326D01*
X126950672Y-94433326D01*
X126750428Y-94516065D01*
X126377375Y-94888468D01*
X126175231Y-95375285D01*
X126174771Y-95902402D01*
X126376065Y-96389572D01*
X126748468Y-96762625D01*
X127235285Y-96964769D01*
X127762402Y-96965229D01*
X128249572Y-96763935D01*
X128622625Y-96391532D01*
X128824769Y-95904715D01*
X128825229Y-95377598D01*
X128692518Y-95056410D01*
X128875000Y-95056410D01*
X128875000Y-96943590D01*
X128975860Y-97450646D01*
X129263084Y-97880506D01*
X129692944Y-98167730D01*
X130200000Y-98268590D01*
X130707056Y-98167730D01*
X131136916Y-97880506D01*
X131424140Y-97450646D01*
X131525000Y-96943590D01*
X131525000Y-95056410D01*
X136975000Y-95056410D01*
X136975000Y-96943590D01*
X137075860Y-97450646D01*
X137363084Y-97880506D01*
X137792944Y-98167730D01*
X138300000Y-98268590D01*
X138807056Y-98167730D01*
X139236916Y-97880506D01*
X139524140Y-97450646D01*
X139625000Y-96943590D01*
X139625000Y-95056410D01*
X140875000Y-95056410D01*
X140875000Y-96943590D01*
X140975860Y-97450646D01*
X141263084Y-97880506D01*
X141692944Y-98167730D01*
X142200000Y-98268590D01*
X142707056Y-98167730D01*
X143136916Y-97880506D01*
X143424140Y-97450646D01*
X143525000Y-96943590D01*
X143525000Y-95056410D01*
X143424140Y-94549354D01*
X143136916Y-94119494D01*
X142707056Y-93832270D01*
X142200000Y-93731410D01*
X141692944Y-93832270D01*
X141263084Y-94119494D01*
X140975860Y-94549354D01*
X140875000Y-95056410D01*
X139625000Y-95056410D01*
X139524140Y-94549354D01*
X139236916Y-94119494D01*
X138807056Y-93832270D01*
X138300000Y-93731410D01*
X137792944Y-93832270D01*
X137363084Y-94119494D01*
X137075860Y-94549354D01*
X136975000Y-95056410D01*
X131525000Y-95056410D01*
X131424140Y-94549354D01*
X131136916Y-94119494D01*
X130707056Y-93832270D01*
X130200000Y-93731410D01*
X129692944Y-93832270D01*
X129263084Y-94119494D01*
X128975860Y-94549354D01*
X128875000Y-95056410D01*
X128692518Y-95056410D01*
X128623935Y-94890428D01*
X128251532Y-94517375D01*
X128049119Y-94433326D01*
X128400000Y-94433326D01*
X128557496Y-94403691D01*
X128702146Y-94310611D01*
X128799186Y-94168588D01*
X128833326Y-94000000D01*
X128833326Y-92200000D01*
X131472182Y-92200000D01*
X132661091Y-93388909D01*
X132839524Y-93508134D01*
X133050000Y-93550000D01*
X150050000Y-93550000D01*
X150260476Y-93508134D01*
X150438909Y-93388909D01*
X151877818Y-91950000D01*
X152756440Y-91950000D01*
X152700814Y-92031412D01*
X152666674Y-92200000D01*
X152666674Y-93900000D01*
X152200000Y-93900000D01*
X151989524Y-93941866D01*
X151811091Y-94061091D01*
X151443506Y-94428676D01*
X151236916Y-94119494D01*
X150807056Y-93832270D01*
X150300000Y-93731410D01*
X149792944Y-93832270D01*
X149363084Y-94119494D01*
X149075860Y-94549354D01*
X148975000Y-95056410D01*
X148975000Y-96943590D01*
X149075860Y-97450646D01*
X149363084Y-97880506D01*
X149792944Y-98167730D01*
X150300000Y-98268590D01*
X150807056Y-98167730D01*
X151236916Y-97880506D01*
X151524140Y-97450646D01*
X151625000Y-96943590D01*
X151625000Y-95802818D01*
X152427818Y-95000000D01*
X152831063Y-95000000D01*
X152675231Y-95375285D01*
X152674771Y-95902402D01*
X152876065Y-96389572D01*
X153248468Y-96762625D01*
X153735285Y-96964769D01*
X154262402Y-96965229D01*
X154749572Y-96763935D01*
X155122625Y-96391532D01*
X155324769Y-95904715D01*
X155325229Y-95377598D01*
X155169209Y-95000000D01*
X155350000Y-95000000D01*
X155387713Y-94992499D01*
X155375000Y-95056410D01*
X155375000Y-96943590D01*
X155475860Y-97450646D01*
X155763084Y-97880506D01*
X156192944Y-98167730D01*
X156700000Y-98268590D01*
X157207056Y-98167730D01*
X157636916Y-97880506D01*
X157924140Y-97450646D01*
X158025000Y-96943590D01*
X158025000Y-96550000D01*
X158722182Y-96550000D01*
X161155237Y-98983055D01*
X160650057Y-99085385D01*
X160188838Y-99395908D01*
X159881559Y-99859295D01*
X159793335Y-100172144D01*
X159906260Y-100395000D01*
X162095000Y-100395000D01*
X162095000Y-100375000D01*
X162105000Y-100375000D01*
X162105000Y-100395000D01*
X164293740Y-100395000D01*
X164406665Y-100172144D01*
X164318441Y-99859295D01*
X164011162Y-99395908D01*
X163720180Y-99200000D01*
X166822182Y-99200000D01*
X169674953Y-102052770D01*
X169674874Y-102143579D01*
X169780825Y-102400000D01*
X159425458Y-102400000D01*
X159411216Y-102385733D01*
X159144844Y-102275126D01*
X158856421Y-102274874D01*
X158589857Y-102385016D01*
X158574847Y-102400000D01*
X158339510Y-102400000D01*
X158328691Y-102342504D01*
X158325000Y-102336768D01*
X158325000Y-101842463D01*
X158370074Y-101797389D01*
X158450000Y-101604429D01*
X158450000Y-101136250D01*
X158318750Y-101005000D01*
X157305000Y-101005000D01*
X157305000Y-101025000D01*
X157295000Y-101025000D01*
X157295000Y-101005000D01*
X156281250Y-101005000D01*
X156150000Y-101136250D01*
X156150000Y-101604429D01*
X156229926Y-101797389D01*
X156275000Y-101842463D01*
X156275000Y-102335432D01*
X156261925Y-102400000D01*
X122125458Y-102400000D01*
X122111216Y-102385733D01*
X121844844Y-102275126D01*
X121556421Y-102274874D01*
X121289857Y-102385016D01*
X121274847Y-102400000D01*
X119339510Y-102400000D01*
X119328691Y-102342504D01*
X119325000Y-102336768D01*
X119325000Y-101842463D01*
X119370074Y-101797389D01*
X119450000Y-101604429D01*
X119450000Y-101579923D01*
X119650057Y-101714615D01*
X120195000Y-101825000D01*
X121095000Y-101825000D01*
X121095000Y-100405000D01*
X121105000Y-100405000D01*
X121105000Y-101825000D01*
X122005000Y-101825000D01*
X122549943Y-101714615D01*
X123011162Y-101404092D01*
X123318441Y-100940705D01*
X123406665Y-100627856D01*
X133293335Y-100627856D01*
X133381559Y-100940705D01*
X133688838Y-101404092D01*
X134150057Y-101714615D01*
X134695000Y-101825000D01*
X135595000Y-101825000D01*
X135595000Y-100405000D01*
X135605000Y-100405000D01*
X135605000Y-101825000D01*
X136505000Y-101825000D01*
X137049943Y-101714615D01*
X137511162Y-101404092D01*
X137818441Y-100940705D01*
X137906665Y-100627856D01*
X145293335Y-100627856D01*
X145381559Y-100940705D01*
X145688838Y-101404092D01*
X146150057Y-101714615D01*
X146695000Y-101825000D01*
X147595000Y-101825000D01*
X147595000Y-100405000D01*
X147605000Y-100405000D01*
X147605000Y-101825000D01*
X148505000Y-101825000D01*
X149049943Y-101714615D01*
X149511162Y-101404092D01*
X149818441Y-100940705D01*
X149906665Y-100627856D01*
X149793740Y-100405000D01*
X147605000Y-100405000D01*
X147595000Y-100405000D01*
X145406260Y-100405000D01*
X145293335Y-100627856D01*
X137906665Y-100627856D01*
X137793740Y-100405000D01*
X135605000Y-100405000D01*
X135595000Y-100405000D01*
X133406260Y-100405000D01*
X133293335Y-100627856D01*
X123406665Y-100627856D01*
X123293740Y-100405000D01*
X121105000Y-100405000D01*
X121095000Y-100405000D01*
X121075000Y-100405000D01*
X121075000Y-100395571D01*
X156150000Y-100395571D01*
X156150000Y-100863750D01*
X156281250Y-100995000D01*
X157295000Y-100995000D01*
X157295000Y-100106250D01*
X157305000Y-100106250D01*
X157305000Y-100995000D01*
X158318750Y-100995000D01*
X158450000Y-100863750D01*
X158450000Y-100627856D01*
X159793335Y-100627856D01*
X159881559Y-100940705D01*
X160188838Y-101404092D01*
X160650057Y-101714615D01*
X161195000Y-101825000D01*
X162095000Y-101825000D01*
X162095000Y-100405000D01*
X162105000Y-100405000D01*
X162105000Y-101825000D01*
X163005000Y-101825000D01*
X163549943Y-101714615D01*
X164011162Y-101404092D01*
X164318441Y-100940705D01*
X164406665Y-100627856D01*
X164293740Y-100405000D01*
X162105000Y-100405000D01*
X162095000Y-100405000D01*
X159906260Y-100405000D01*
X159793335Y-100627856D01*
X158450000Y-100627856D01*
X158450000Y-100395571D01*
X158370074Y-100202611D01*
X158222389Y-100054926D01*
X158029429Y-99975000D01*
X157436250Y-99975000D01*
X157305000Y-100106250D01*
X157295000Y-100106250D01*
X157163750Y-99975000D01*
X156570571Y-99975000D01*
X156377611Y-100054926D01*
X156229926Y-100202611D01*
X156150000Y-100395571D01*
X121075000Y-100395571D01*
X121075000Y-100395000D01*
X121095000Y-100395000D01*
X121095000Y-98975000D01*
X121105000Y-98975000D01*
X121105000Y-100395000D01*
X123293740Y-100395000D01*
X123406665Y-100172144D01*
X133293335Y-100172144D01*
X133406260Y-100395000D01*
X135595000Y-100395000D01*
X135595000Y-98975000D01*
X135605000Y-98975000D01*
X135605000Y-100395000D01*
X137793740Y-100395000D01*
X137906665Y-100172144D01*
X145293335Y-100172144D01*
X145406260Y-100395000D01*
X147595000Y-100395000D01*
X147595000Y-98975000D01*
X147605000Y-98975000D01*
X147605000Y-100395000D01*
X149793740Y-100395000D01*
X149906665Y-100172144D01*
X149818441Y-99859295D01*
X149511162Y-99395908D01*
X149049943Y-99085385D01*
X148505000Y-98975000D01*
X147605000Y-98975000D01*
X147595000Y-98975000D01*
X146695000Y-98975000D01*
X146150057Y-99085385D01*
X145688838Y-99395908D01*
X145381559Y-99859295D01*
X145293335Y-100172144D01*
X137906665Y-100172144D01*
X137818441Y-99859295D01*
X137511162Y-99395908D01*
X137049943Y-99085385D01*
X136505000Y-98975000D01*
X135605000Y-98975000D01*
X135595000Y-98975000D01*
X134695000Y-98975000D01*
X134150057Y-99085385D01*
X133688838Y-99395908D01*
X133381559Y-99859295D01*
X133293335Y-100172144D01*
X123406665Y-100172144D01*
X123318441Y-99859295D01*
X123011162Y-99395908D01*
X122549943Y-99085385D01*
X122005000Y-98975000D01*
X121105000Y-98975000D01*
X121095000Y-98975000D01*
X120195000Y-98975000D01*
X119650057Y-99085385D01*
X119188838Y-99395908D01*
X118881559Y-99859295D01*
X118848930Y-99975000D01*
X118436250Y-99975000D01*
X118305000Y-100106250D01*
X118305000Y-100995000D01*
X118325000Y-100995000D01*
X118325000Y-101005000D01*
X118305000Y-101005000D01*
X118305000Y-101025000D01*
X118295000Y-101025000D01*
X118295000Y-101005000D01*
X117281250Y-101005000D01*
X117150000Y-101136250D01*
X117150000Y-101604429D01*
X117229926Y-101797389D01*
X117275000Y-101842463D01*
X117275000Y-102335432D01*
X117261925Y-102400000D01*
X113400000Y-102400000D01*
X113170390Y-102445672D01*
X112975736Y-102575736D01*
X112584798Y-102966674D01*
X111815202Y-102966674D01*
X110557832Y-101709304D01*
X111011162Y-101404092D01*
X111318441Y-100940705D01*
X111406665Y-100627856D01*
X111293740Y-100405000D01*
X109105000Y-100405000D01*
X109105000Y-100425000D01*
X109095000Y-100425000D01*
X109095000Y-100405000D01*
X106906260Y-100405000D01*
X106793335Y-100627856D01*
X106881559Y-100940705D01*
X107186125Y-101400000D01*
X107148528Y-101400000D01*
X106144099Y-100395571D01*
X117150000Y-100395571D01*
X117150000Y-100863750D01*
X117281250Y-100995000D01*
X118295000Y-100995000D01*
X118295000Y-100106250D01*
X118163750Y-99975000D01*
X117570571Y-99975000D01*
X117377611Y-100054926D01*
X117229926Y-100202611D01*
X117150000Y-100395571D01*
X106144099Y-100395571D01*
X105920672Y-100172144D01*
X106793335Y-100172144D01*
X106906260Y-100395000D01*
X109095000Y-100395000D01*
X109095000Y-98975000D01*
X109105000Y-98975000D01*
X109105000Y-100395000D01*
X111293740Y-100395000D01*
X111406665Y-100172144D01*
X111318441Y-99859295D01*
X111011162Y-99395908D01*
X110549943Y-99085385D01*
X110005000Y-98975000D01*
X109105000Y-98975000D01*
X109095000Y-98975000D01*
X108195000Y-98975000D01*
X107650057Y-99085385D01*
X107188838Y-99395908D01*
X106881559Y-99859295D01*
X106793335Y-100172144D01*
X105920672Y-100172144D01*
X105624264Y-99875736D01*
X105429610Y-99745672D01*
X105200000Y-99700000D01*
X105133326Y-99700000D01*
X105103691Y-99542504D01*
X105010611Y-99397854D01*
X104868588Y-99300814D01*
X104700000Y-99266674D01*
X103918008Y-99266674D01*
X103914459Y-99249759D01*
X103885895Y-99209187D01*
X103843796Y-99182923D01*
X103794796Y-99175108D01*
X101433653Y-99273489D01*
X101400000Y-99266674D01*
X100500000Y-99266674D01*
X100342504Y-99296309D01*
X100197854Y-99389389D01*
X100100814Y-99531412D01*
X100066674Y-99700000D01*
X100066674Y-100900000D01*
X100096309Y-101057496D01*
X100189389Y-101202146D01*
X100331412Y-101299186D01*
X100350000Y-101302950D01*
X100350000Y-103295519D01*
X99948822Y-103563577D01*
X99669489Y-103981629D01*
X99571400Y-104474755D01*
X99571400Y-104525245D01*
X99669489Y-105018371D01*
X99948822Y-105436423D01*
X100366874Y-105715756D01*
X100446547Y-105731604D01*
X100047852Y-105913667D01*
X99678644Y-106310200D01*
X99489287Y-106817838D01*
X99602659Y-107035000D01*
X100855000Y-107035000D01*
X100855000Y-107015000D01*
X100865000Y-107015000D01*
X100865000Y-107035000D01*
X102117341Y-107035000D01*
X102130000Y-107010752D01*
X102142659Y-107035000D01*
X103395000Y-107035000D01*
X103395000Y-107015000D01*
X103405000Y-107015000D01*
X103405000Y-107035000D01*
X104657341Y-107035000D01*
X104770713Y-106817838D01*
X104581356Y-106310200D01*
X104212148Y-105913667D01*
X103956500Y-105796926D01*
X104263600Y-105796926D01*
X104421096Y-105767291D01*
X104565746Y-105674211D01*
X104662786Y-105532188D01*
X104696926Y-105363600D01*
X104696926Y-104336250D01*
X105775000Y-104336250D01*
X105775000Y-105104429D01*
X105854926Y-105297389D01*
X106002611Y-105445074D01*
X106195571Y-105525000D01*
X107663750Y-105525000D01*
X107795000Y-105393750D01*
X107795000Y-104205000D01*
X105906250Y-104205000D01*
X105775000Y-104336250D01*
X104696926Y-104336250D01*
X104696926Y-103636400D01*
X104667291Y-103478904D01*
X104574211Y-103334254D01*
X104517597Y-103295571D01*
X105775000Y-103295571D01*
X105775000Y-104063750D01*
X105906250Y-104195000D01*
X107795000Y-104195000D01*
X107795000Y-103006250D01*
X107663750Y-102875000D01*
X106195571Y-102875000D01*
X106002611Y-102954926D01*
X105854926Y-103102611D01*
X105775000Y-103295571D01*
X104517597Y-103295571D01*
X104432188Y-103237214D01*
X104263600Y-103203074D01*
X102536400Y-103203074D01*
X102378904Y-103232709D01*
X102234254Y-103325789D01*
X102137214Y-103467812D01*
X102103074Y-103636400D01*
X102103074Y-103900000D01*
X101995968Y-103900000D01*
X101771178Y-103563577D01*
X101550000Y-103415791D01*
X101550000Y-101425000D01*
X103800000Y-101425000D01*
X103845432Y-101416451D01*
X103887159Y-101389601D01*
X103915152Y-101348632D01*
X103918251Y-101333326D01*
X104700000Y-101333326D01*
X104857496Y-101303691D01*
X105002146Y-101210611D01*
X105099186Y-101068588D01*
X105102701Y-101051229D01*
X106475736Y-102424264D01*
X106670390Y-102554328D01*
X106900000Y-102600000D01*
X109751472Y-102600000D01*
X110334128Y-103182656D01*
X110300814Y-103231412D01*
X110291987Y-103275000D01*
X109816479Y-103275000D01*
X109745074Y-103102611D01*
X109597389Y-102954926D01*
X109404429Y-102875000D01*
X107936250Y-102875000D01*
X107805000Y-103006250D01*
X107805000Y-104195000D01*
X107825000Y-104195000D01*
X107825000Y-104205000D01*
X107805000Y-104205000D01*
X107805000Y-105393750D01*
X107936250Y-105525000D01*
X109404429Y-105525000D01*
X109597389Y-105445074D01*
X109745074Y-105297389D01*
X109816479Y-105125000D01*
X110290194Y-105125000D01*
X110296309Y-105157496D01*
X110389389Y-105302146D01*
X110531412Y-105399186D01*
X110700000Y-105433326D01*
X113700000Y-105433326D01*
X113857496Y-105403691D01*
X114002146Y-105310611D01*
X114099186Y-105168588D01*
X114133326Y-105000000D01*
X114133326Y-103600000D01*
X117260490Y-103600000D01*
X117271309Y-103657496D01*
X117364389Y-103802146D01*
X117506412Y-103899186D01*
X117675000Y-103933326D01*
X118925000Y-103933326D01*
X119082496Y-103903691D01*
X119227146Y-103810611D01*
X119324186Y-103668588D01*
X119338075Y-103600000D01*
X121274542Y-103600000D01*
X121288784Y-103614267D01*
X121555156Y-103724874D01*
X121843579Y-103725126D01*
X122110143Y-103614984D01*
X122125153Y-103600000D01*
X156260490Y-103600000D01*
X156271309Y-103657496D01*
X156364389Y-103802146D01*
X156506412Y-103899186D01*
X156675000Y-103933326D01*
X157925000Y-103933326D01*
X158082496Y-103903691D01*
X158227146Y-103810611D01*
X158324186Y-103668588D01*
X158338075Y-103600000D01*
X158574542Y-103600000D01*
X158588784Y-103614267D01*
X158855156Y-103724874D01*
X159143579Y-103725126D01*
X159410143Y-103614984D01*
X159425153Y-103600000D01*
X181460490Y-103600000D01*
X181471309Y-103657496D01*
X181564389Y-103802146D01*
X181706412Y-103899186D01*
X181875000Y-103933326D01*
X183125000Y-103933326D01*
X183282496Y-103903691D01*
X183427146Y-103810611D01*
X183524186Y-103668588D01*
X183538075Y-103600000D01*
X187074542Y-103600000D01*
X187088784Y-103614267D01*
X187355156Y-103724874D01*
X187643579Y-103725126D01*
X187910143Y-103614984D01*
X188114267Y-103411216D01*
X188224874Y-103144844D01*
X188225126Y-102856421D01*
X188114984Y-102589857D01*
X187911216Y-102385733D01*
X187644844Y-102275126D01*
X187356421Y-102274874D01*
X187089857Y-102385016D01*
X187074847Y-102400000D01*
X183539510Y-102400000D01*
X183528691Y-102342504D01*
X183525000Y-102336768D01*
X183525000Y-101842463D01*
X183570074Y-101797389D01*
X183650000Y-101604429D01*
X183650000Y-101136250D01*
X183518750Y-101005000D01*
X182505000Y-101005000D01*
X182505000Y-101025000D01*
X182495000Y-101025000D01*
X182495000Y-101005000D01*
X181481250Y-101005000D01*
X181350000Y-101136250D01*
X181350000Y-101604429D01*
X181429926Y-101797389D01*
X181475000Y-101842463D01*
X181475000Y-102335432D01*
X181461925Y-102400000D01*
X171018924Y-102400000D01*
X171124874Y-102144844D01*
X171125126Y-101856421D01*
X171014984Y-101589857D01*
X170811216Y-101385733D01*
X170544844Y-101275126D01*
X170452863Y-101275046D01*
X169805674Y-100627856D01*
X171793335Y-100627856D01*
X171881559Y-100940705D01*
X172188838Y-101404092D01*
X172650057Y-101714615D01*
X173195000Y-101825000D01*
X174095000Y-101825000D01*
X174095000Y-100405000D01*
X174105000Y-100405000D01*
X174105000Y-101825000D01*
X175005000Y-101825000D01*
X175549943Y-101714615D01*
X176011162Y-101404092D01*
X176318441Y-100940705D01*
X176406665Y-100627856D01*
X176293740Y-100405000D01*
X174105000Y-100405000D01*
X174095000Y-100405000D01*
X171906260Y-100405000D01*
X171793335Y-100627856D01*
X169805674Y-100627856D01*
X169573389Y-100395571D01*
X181350000Y-100395571D01*
X181350000Y-100863750D01*
X181481250Y-100995000D01*
X182495000Y-100995000D01*
X182495000Y-100106250D01*
X182505000Y-100106250D01*
X182505000Y-100995000D01*
X183518750Y-100995000D01*
X183650000Y-100863750D01*
X183650000Y-100627856D01*
X190643335Y-100627856D01*
X190731559Y-100940705D01*
X191038838Y-101404092D01*
X191500057Y-101714615D01*
X192045000Y-101825000D01*
X192945000Y-101825000D01*
X192945000Y-100405000D01*
X192955000Y-100405000D01*
X192955000Y-101825000D01*
X193855000Y-101825000D01*
X194399943Y-101714615D01*
X194861162Y-101404092D01*
X195168441Y-100940705D01*
X195256665Y-100627856D01*
X195143740Y-100405000D01*
X192955000Y-100405000D01*
X192945000Y-100405000D01*
X190756260Y-100405000D01*
X190643335Y-100627856D01*
X183650000Y-100627856D01*
X183650000Y-100395571D01*
X183570074Y-100202611D01*
X183539607Y-100172144D01*
X190643335Y-100172144D01*
X190756260Y-100395000D01*
X192945000Y-100395000D01*
X192945000Y-98975000D01*
X192955000Y-98975000D01*
X192955000Y-100395000D01*
X195143740Y-100395000D01*
X195256665Y-100172144D01*
X195168441Y-99859295D01*
X194861162Y-99395908D01*
X194399943Y-99085385D01*
X193855000Y-98975000D01*
X192955000Y-98975000D01*
X192945000Y-98975000D01*
X192045000Y-98975000D01*
X191500057Y-99085385D01*
X191038838Y-99395908D01*
X190731559Y-99859295D01*
X190643335Y-100172144D01*
X183539607Y-100172144D01*
X183422389Y-100054926D01*
X183229429Y-99975000D01*
X182636250Y-99975000D01*
X182505000Y-100106250D01*
X182495000Y-100106250D01*
X182363750Y-99975000D01*
X181770571Y-99975000D01*
X181577611Y-100054926D01*
X181429926Y-100202611D01*
X181350000Y-100395571D01*
X169573389Y-100395571D01*
X169349962Y-100172144D01*
X171793335Y-100172144D01*
X171906260Y-100395000D01*
X174095000Y-100395000D01*
X174095000Y-98975000D01*
X174105000Y-98975000D01*
X174105000Y-100395000D01*
X176293740Y-100395000D01*
X176406665Y-100172144D01*
X176318441Y-99859295D01*
X176011162Y-99395908D01*
X175549943Y-99085385D01*
X175005000Y-98975000D01*
X174105000Y-98975000D01*
X174095000Y-98975000D01*
X173195000Y-98975000D01*
X172650057Y-99085385D01*
X172188838Y-99395908D01*
X171881559Y-99859295D01*
X171793335Y-100172144D01*
X169349962Y-100172144D01*
X167438909Y-98261091D01*
X167260476Y-98141866D01*
X167050000Y-98100000D01*
X165408421Y-98100000D01*
X165736916Y-97880506D01*
X166024140Y-97450646D01*
X166125000Y-96943590D01*
X166125000Y-95056410D01*
X166024140Y-94549354D01*
X165957754Y-94450000D01*
X167542246Y-94450000D01*
X167475860Y-94549354D01*
X167375000Y-95056410D01*
X167375000Y-96943590D01*
X167475860Y-97450646D01*
X167763084Y-97880506D01*
X168192944Y-98167730D01*
X168700000Y-98268590D01*
X169207056Y-98167730D01*
X169636916Y-97880506D01*
X169924140Y-97450646D01*
X170025000Y-96943590D01*
X170025000Y-95056410D01*
X169924140Y-94549354D01*
X169857754Y-94450000D01*
X175642246Y-94450000D01*
X175575860Y-94549354D01*
X175475000Y-95056410D01*
X175475000Y-96943590D01*
X175575860Y-97450646D01*
X175863084Y-97880506D01*
X176292944Y-98167730D01*
X176800000Y-98268590D01*
X177307056Y-98167730D01*
X177736916Y-97880506D01*
X178024140Y-97450646D01*
X178125000Y-96943590D01*
X178125000Y-95056410D01*
X178024140Y-94549354D01*
X177957754Y-94450000D01*
X179972183Y-94450000D01*
X180061089Y-94538906D01*
X180061091Y-94538909D01*
X181374953Y-95852771D01*
X181374874Y-95943579D01*
X181485016Y-96210143D01*
X181688784Y-96414267D01*
X181955156Y-96524874D01*
X182243579Y-96525126D01*
X182510143Y-96414984D01*
X182714267Y-96211216D01*
X182824874Y-95944844D01*
X182825126Y-95656421D01*
X182714984Y-95389857D01*
X182511216Y-95185733D01*
X182244844Y-95075126D01*
X182152863Y-95075046D01*
X180838909Y-93761091D01*
X180838906Y-93761089D01*
X180627818Y-93550000D01*
X183272182Y-93550000D01*
X183650000Y-93927817D01*
X183650000Y-95324629D01*
X183585733Y-95388784D01*
X183475126Y-95655156D01*
X183474874Y-95943579D01*
X183585016Y-96210143D01*
X183788784Y-96414267D01*
X184055156Y-96524874D01*
X184343579Y-96525126D01*
X184610143Y-96414984D01*
X184814267Y-96211216D01*
X184924874Y-95944844D01*
X184925126Y-95656421D01*
X184814984Y-95389857D01*
X184750000Y-95324759D01*
X184750000Y-95056410D01*
X186225000Y-95056410D01*
X186225000Y-96943590D01*
X186325860Y-97450646D01*
X186613084Y-97880506D01*
X187042944Y-98167730D01*
X187550000Y-98268590D01*
X188057056Y-98167730D01*
X188486916Y-97880506D01*
X188774140Y-97450646D01*
X188875000Y-96943590D01*
X188875000Y-95056410D01*
X194325000Y-95056410D01*
X194325000Y-96943590D01*
X194425860Y-97450646D01*
X194713084Y-97880506D01*
X195142944Y-98167730D01*
X195650000Y-98268590D01*
X196157056Y-98167730D01*
X196586916Y-97880506D01*
X196874140Y-97450646D01*
X196975000Y-96943590D01*
X196975000Y-95056410D01*
X196874140Y-94549354D01*
X196586916Y-94119494D01*
X196157056Y-93832270D01*
X195650000Y-93731410D01*
X195142944Y-93832270D01*
X194713084Y-94119494D01*
X194425860Y-94549354D01*
X194325000Y-95056410D01*
X188875000Y-95056410D01*
X188774140Y-94549354D01*
X188486916Y-94119494D01*
X188057056Y-93832270D01*
X187550000Y-93731410D01*
X187042944Y-93832270D01*
X186613084Y-94119494D01*
X186325860Y-94549354D01*
X186225000Y-95056410D01*
X184750000Y-95056410D01*
X184750000Y-93700000D01*
X184708134Y-93489524D01*
X184588909Y-93311091D01*
X184588906Y-93311089D01*
X183888909Y-92611091D01*
X183710476Y-92491866D01*
X183500000Y-92450000D01*
X175457056Y-92450000D01*
X175590924Y-92249653D01*
X175680366Y-91800000D01*
X175590924Y-91350347D01*
X175536302Y-91268600D01*
X191513698Y-91268600D01*
X191459076Y-91350347D01*
X191369634Y-91800000D01*
X191459076Y-92249653D01*
X191713784Y-92630850D01*
X192094981Y-92885558D01*
X192544634Y-92975000D01*
X193355366Y-92975000D01*
X193805019Y-92885558D01*
X194186216Y-92630850D01*
X194440924Y-92249653D01*
X194530366Y-91800000D01*
X194440924Y-91350347D01*
X194386302Y-91268600D01*
X198001100Y-91268600D01*
X198001100Y-110264939D01*
X197666480Y-109929735D01*
X197202368Y-109737019D01*
X196699836Y-109736581D01*
X196235389Y-109928486D01*
X195879735Y-110283520D01*
X195687019Y-110747632D01*
X195686581Y-111250164D01*
X195878486Y-111714611D01*
X196233520Y-112070265D01*
X196666864Y-112250205D01*
X196235389Y-112428486D01*
X195879735Y-112783520D01*
X195687019Y-113247632D01*
X195686581Y-113750164D01*
X195878486Y-114214611D01*
X196233520Y-114570265D01*
X196540582Y-114697768D01*
X196219518Y-114817529D01*
X196137083Y-114872610D01*
X196063538Y-115106467D01*
X196950000Y-115992929D01*
X197836462Y-115106467D01*
X197762917Y-114872610D01*
X197370070Y-114693215D01*
X197664611Y-114571514D01*
X198001100Y-114235612D01*
X198001100Y-115163091D01*
X197843533Y-115113538D01*
X196957071Y-116000000D01*
X197843533Y-116886462D01*
X198001100Y-116836909D01*
X198001100Y-118738600D01*
X191639957Y-118738600D01*
X191702282Y-118645324D01*
X191810754Y-118100000D01*
X191702282Y-117554676D01*
X191393381Y-117092373D01*
X191095796Y-116893533D01*
X196063538Y-116893533D01*
X196137083Y-117127390D01*
X196630396Y-117352663D01*
X197172366Y-117372004D01*
X197680482Y-117182471D01*
X197762917Y-117127390D01*
X197836462Y-116893533D01*
X196950000Y-116007071D01*
X196063538Y-116893533D01*
X191095796Y-116893533D01*
X190931078Y-116783472D01*
X190385754Y-116675000D01*
X189514246Y-116675000D01*
X188968922Y-116783472D01*
X188506619Y-117092373D01*
X188197718Y-117554676D01*
X188089246Y-118100000D01*
X188197718Y-118645324D01*
X188260043Y-118738600D01*
X169189957Y-118738600D01*
X169252282Y-118645324D01*
X169360754Y-118100000D01*
X169252282Y-117554676D01*
X168943381Y-117092373D01*
X168645796Y-116893533D01*
X173613538Y-116893533D01*
X173687083Y-117127390D01*
X174180396Y-117352663D01*
X174722366Y-117372004D01*
X175230482Y-117182471D01*
X175312917Y-117127390D01*
X175386462Y-116893533D01*
X174500000Y-116007071D01*
X173613538Y-116893533D01*
X168645796Y-116893533D01*
X168481078Y-116783472D01*
X167935754Y-116675000D01*
X167064246Y-116675000D01*
X166518922Y-116783472D01*
X166056619Y-117092373D01*
X165747718Y-117554676D01*
X165639246Y-118100000D01*
X165747718Y-118645324D01*
X165810043Y-118738600D01*
X142689957Y-118738600D01*
X142752282Y-118645324D01*
X142860754Y-118100000D01*
X142752282Y-117554676D01*
X142443381Y-117092373D01*
X142145796Y-116893533D01*
X147113538Y-116893533D01*
X147187083Y-117127390D01*
X147680396Y-117352663D01*
X148222366Y-117372004D01*
X148730482Y-117182471D01*
X148812917Y-117127390D01*
X148886462Y-116893533D01*
X148000000Y-116007071D01*
X147113538Y-116893533D01*
X142145796Y-116893533D01*
X141981078Y-116783472D01*
X141435754Y-116675000D01*
X140564246Y-116675000D01*
X140018922Y-116783472D01*
X139556619Y-117092373D01*
X139247718Y-117554676D01*
X139139246Y-118100000D01*
X139247718Y-118645324D01*
X139310043Y-118738600D01*
X116189957Y-118738600D01*
X116252282Y-118645324D01*
X116360754Y-118100000D01*
X116252282Y-117554676D01*
X115943381Y-117092373D01*
X115645796Y-116893533D01*
X120613538Y-116893533D01*
X120687083Y-117127390D01*
X121180396Y-117352663D01*
X121722366Y-117372004D01*
X122230482Y-117182471D01*
X122312917Y-117127390D01*
X122386462Y-116893533D01*
X121500000Y-116007071D01*
X120613538Y-116893533D01*
X115645796Y-116893533D01*
X115481078Y-116783472D01*
X114935754Y-116675000D01*
X114064246Y-116675000D01*
X113518922Y-116783472D01*
X113056619Y-117092373D01*
X112747718Y-117554676D01*
X112639246Y-118100000D01*
X112747718Y-118645324D01*
X112810043Y-118738600D01*
X106102809Y-118738600D01*
X106124264Y-118724264D01*
X108626162Y-116222366D01*
X120127996Y-116222366D01*
X120317529Y-116730482D01*
X120372610Y-116812917D01*
X120606467Y-116886462D01*
X121492929Y-116000000D01*
X121507071Y-116000000D01*
X122393533Y-116886462D01*
X122627390Y-116812917D01*
X122852663Y-116319604D01*
X122872004Y-115777634D01*
X122682471Y-115269518D01*
X122627390Y-115187083D01*
X122393533Y-115113538D01*
X121507071Y-116000000D01*
X121492929Y-116000000D01*
X120606467Y-115113538D01*
X120372610Y-115187083D01*
X120147337Y-115680396D01*
X120127996Y-116222366D01*
X108626162Y-116222366D01*
X111415202Y-113433326D01*
X113300000Y-113433326D01*
X113457496Y-113403691D01*
X113602146Y-113310611D01*
X113699186Y-113168588D01*
X113733326Y-113000000D01*
X113733326Y-111400000D01*
X113705133Y-111250164D01*
X120236581Y-111250164D01*
X120428486Y-111714611D01*
X120783520Y-112070265D01*
X121216864Y-112250205D01*
X120785389Y-112428486D01*
X120429735Y-112783520D01*
X120237019Y-113247632D01*
X120236581Y-113750164D01*
X120428486Y-114214611D01*
X120783520Y-114570265D01*
X121090582Y-114697768D01*
X120769518Y-114817529D01*
X120687083Y-114872610D01*
X120613538Y-115106467D01*
X121500000Y-115992929D01*
X122386462Y-115106467D01*
X122312917Y-114872610D01*
X121920070Y-114693215D01*
X122214611Y-114571514D01*
X122570265Y-114216480D01*
X122762981Y-113752368D01*
X122763419Y-113249836D01*
X122715116Y-113132934D01*
X123966674Y-114384491D01*
X123966674Y-115840000D01*
X123996309Y-115997496D01*
X124089389Y-116142146D01*
X124231412Y-116239186D01*
X124400000Y-116273326D01*
X126200000Y-116273326D01*
X126357496Y-116243691D01*
X126390635Y-116222366D01*
X146627996Y-116222366D01*
X146817529Y-116730482D01*
X146872610Y-116812917D01*
X147106467Y-116886462D01*
X147992929Y-116000000D01*
X148007071Y-116000000D01*
X148893533Y-116886462D01*
X149127390Y-116812917D01*
X149352663Y-116319604D01*
X149372004Y-115777634D01*
X149182471Y-115269518D01*
X149127390Y-115187083D01*
X148893533Y-115113538D01*
X148007071Y-116000000D01*
X147992929Y-116000000D01*
X147106467Y-115113538D01*
X146872610Y-115187083D01*
X146647337Y-115680396D01*
X146627996Y-116222366D01*
X126390635Y-116222366D01*
X126502146Y-116150611D01*
X126599186Y-116008588D01*
X126633326Y-115840000D01*
X126633326Y-114040000D01*
X126603691Y-113882504D01*
X126510611Y-113737854D01*
X126368588Y-113640814D01*
X126200000Y-113606674D01*
X125849328Y-113606674D01*
X126049572Y-113523935D01*
X126422625Y-113151532D01*
X126624769Y-112664715D01*
X126625229Y-112137598D01*
X126423935Y-111650428D01*
X126051532Y-111277375D01*
X125986001Y-111250164D01*
X146736581Y-111250164D01*
X146928486Y-111714611D01*
X147283520Y-112070265D01*
X147716864Y-112250205D01*
X147285389Y-112428486D01*
X146929735Y-112783520D01*
X146737019Y-113247632D01*
X146736581Y-113750164D01*
X146928486Y-114214611D01*
X147283520Y-114570265D01*
X147590582Y-114697768D01*
X147269518Y-114817529D01*
X147187083Y-114872610D01*
X147113538Y-115106467D01*
X148000000Y-115992929D01*
X148886462Y-115106467D01*
X148812917Y-114872610D01*
X148420070Y-114693215D01*
X148714611Y-114571514D01*
X149070265Y-114216480D01*
X149262981Y-113752368D01*
X149263419Y-113249836D01*
X149215116Y-113132934D01*
X150466674Y-114384492D01*
X150466674Y-115840000D01*
X150496309Y-115997496D01*
X150589389Y-116142146D01*
X150731412Y-116239186D01*
X150900000Y-116273326D01*
X152700000Y-116273326D01*
X152857496Y-116243691D01*
X152890635Y-116222366D01*
X173127996Y-116222366D01*
X173317529Y-116730482D01*
X173372610Y-116812917D01*
X173606467Y-116886462D01*
X174492929Y-116000000D01*
X174507071Y-116000000D01*
X175393533Y-116886462D01*
X175627390Y-116812917D01*
X175852663Y-116319604D01*
X175872004Y-115777634D01*
X175682471Y-115269518D01*
X175627390Y-115187083D01*
X175393533Y-115113538D01*
X174507071Y-116000000D01*
X174492929Y-116000000D01*
X173606467Y-115113538D01*
X173372610Y-115187083D01*
X173147337Y-115680396D01*
X173127996Y-116222366D01*
X152890635Y-116222366D01*
X153002146Y-116150611D01*
X153099186Y-116008588D01*
X153133326Y-115840000D01*
X153133326Y-114040000D01*
X153103691Y-113882504D01*
X153010611Y-113737854D01*
X152868588Y-113640814D01*
X152700000Y-113606674D01*
X152349328Y-113606674D01*
X152549572Y-113523935D01*
X152922625Y-113151532D01*
X153124769Y-112664715D01*
X153125229Y-112137598D01*
X152923935Y-111650428D01*
X152551532Y-111277375D01*
X152486001Y-111250164D01*
X173236581Y-111250164D01*
X173428486Y-111714611D01*
X173783520Y-112070265D01*
X174216864Y-112250205D01*
X173785389Y-112428486D01*
X173429735Y-112783520D01*
X173237019Y-113247632D01*
X173236581Y-113750164D01*
X173428486Y-114214611D01*
X173783520Y-114570265D01*
X174090582Y-114697768D01*
X173769518Y-114817529D01*
X173687083Y-114872610D01*
X173613538Y-115106467D01*
X174500000Y-115992929D01*
X175386462Y-115106467D01*
X175312917Y-114872610D01*
X174920070Y-114693215D01*
X175214611Y-114571514D01*
X175570265Y-114216480D01*
X175762981Y-113752368D01*
X175763419Y-113249836D01*
X175715116Y-113132934D01*
X176966674Y-114384491D01*
X176966674Y-115840000D01*
X176996309Y-115997496D01*
X177089389Y-116142146D01*
X177231412Y-116239186D01*
X177400000Y-116273326D01*
X179200000Y-116273326D01*
X179357496Y-116243691D01*
X179390635Y-116222366D01*
X195577996Y-116222366D01*
X195767529Y-116730482D01*
X195822610Y-116812917D01*
X196056467Y-116886462D01*
X196942929Y-116000000D01*
X196056467Y-115113538D01*
X195822610Y-115187083D01*
X195597337Y-115680396D01*
X195577996Y-116222366D01*
X179390635Y-116222366D01*
X179502146Y-116150611D01*
X179599186Y-116008588D01*
X179633326Y-115840000D01*
X179633326Y-114040000D01*
X179603691Y-113882504D01*
X179510611Y-113737854D01*
X179368588Y-113640814D01*
X179200000Y-113606674D01*
X178849328Y-113606674D01*
X179049572Y-113523935D01*
X179422625Y-113151532D01*
X179624769Y-112664715D01*
X179625229Y-112137598D01*
X179423935Y-111650428D01*
X179051532Y-111277375D01*
X178564715Y-111075231D01*
X178037598Y-111074771D01*
X177550428Y-111276065D01*
X177177375Y-111648468D01*
X176975231Y-112135285D01*
X176974771Y-112662402D01*
X177097678Y-112959860D01*
X175653601Y-111515783D01*
X175762981Y-111252368D01*
X175763419Y-110749836D01*
X175571514Y-110285389D01*
X175216480Y-109929735D01*
X174752368Y-109737019D01*
X174249836Y-109736581D01*
X173785389Y-109928486D01*
X173429735Y-110283520D01*
X173237019Y-110747632D01*
X173236581Y-111250164D01*
X152486001Y-111250164D01*
X152064715Y-111075231D01*
X151537598Y-111074771D01*
X151050428Y-111276065D01*
X150677375Y-111648468D01*
X150475231Y-112135285D01*
X150474771Y-112662402D01*
X150597678Y-112959860D01*
X149153601Y-111515783D01*
X149262981Y-111252368D01*
X149263419Y-110749836D01*
X149071514Y-110285389D01*
X148716480Y-109929735D01*
X148252368Y-109737019D01*
X147749836Y-109736581D01*
X147285389Y-109928486D01*
X146929735Y-110283520D01*
X146737019Y-110747632D01*
X146736581Y-111250164D01*
X125986001Y-111250164D01*
X125564715Y-111075231D01*
X125037598Y-111074771D01*
X124550428Y-111276065D01*
X124177375Y-111648468D01*
X123975231Y-112135285D01*
X123974771Y-112662402D01*
X124097678Y-112959860D01*
X122653601Y-111515783D01*
X122762981Y-111252368D01*
X122763419Y-110749836D01*
X122571514Y-110285389D01*
X122216480Y-109929735D01*
X121752368Y-109737019D01*
X121249836Y-109736581D01*
X120785389Y-109928486D01*
X120429735Y-110283520D01*
X120237019Y-110747632D01*
X120236581Y-111250164D01*
X113705133Y-111250164D01*
X113703691Y-111242504D01*
X113610611Y-111097854D01*
X113468588Y-111000814D01*
X113300000Y-110966674D01*
X112400000Y-110966674D01*
X112400000Y-109448528D01*
X112690559Y-109157969D01*
X112747718Y-109445324D01*
X113056619Y-109907627D01*
X113518922Y-110216528D01*
X114064246Y-110325000D01*
X114935754Y-110325000D01*
X115481078Y-110216528D01*
X115943381Y-109907627D01*
X116252282Y-109445324D01*
X116353543Y-108936250D01*
X118450000Y-108936250D01*
X118450000Y-109404429D01*
X118529926Y-109597389D01*
X118677611Y-109745074D01*
X118870571Y-109825000D01*
X119463750Y-109825000D01*
X119595000Y-109693750D01*
X119595000Y-108805000D01*
X119605000Y-108805000D01*
X119605000Y-109693750D01*
X119736250Y-109825000D01*
X120329429Y-109825000D01*
X120522389Y-109745074D01*
X120670074Y-109597389D01*
X120750000Y-109404429D01*
X120750000Y-108936250D01*
X120713750Y-108900000D01*
X139139246Y-108900000D01*
X139247718Y-109445324D01*
X139556619Y-109907627D01*
X140018922Y-110216528D01*
X140564246Y-110325000D01*
X141435754Y-110325000D01*
X141981078Y-110216528D01*
X142443381Y-109907627D01*
X142752282Y-109445324D01*
X142853543Y-108936250D01*
X150850000Y-108936250D01*
X150850000Y-109404429D01*
X150929926Y-109597389D01*
X151077611Y-109745074D01*
X151270571Y-109825000D01*
X151863750Y-109825000D01*
X151995000Y-109693750D01*
X151995000Y-108805000D01*
X152005000Y-108805000D01*
X152005000Y-109693750D01*
X152136250Y-109825000D01*
X152729429Y-109825000D01*
X152922389Y-109745074D01*
X153070074Y-109597389D01*
X153150000Y-109404429D01*
X153150000Y-108936250D01*
X153113750Y-108900000D01*
X165639246Y-108900000D01*
X165747718Y-109445324D01*
X166056619Y-109907627D01*
X166518922Y-110216528D01*
X167064246Y-110325000D01*
X167935754Y-110325000D01*
X168481078Y-110216528D01*
X168943381Y-109907627D01*
X169252282Y-109445324D01*
X169353543Y-108936250D01*
X175950000Y-108936250D01*
X175950000Y-109404429D01*
X176029926Y-109597389D01*
X176177611Y-109745074D01*
X176370571Y-109825000D01*
X176963750Y-109825000D01*
X177095000Y-109693750D01*
X177095000Y-108805000D01*
X177105000Y-108805000D01*
X177105000Y-109693750D01*
X177236250Y-109825000D01*
X177829429Y-109825000D01*
X178022389Y-109745074D01*
X178170074Y-109597389D01*
X178250000Y-109404429D01*
X178250000Y-108936250D01*
X178213750Y-108900000D01*
X188089246Y-108900000D01*
X188197718Y-109445324D01*
X188506619Y-109907627D01*
X188968922Y-110216528D01*
X189514246Y-110325000D01*
X190385754Y-110325000D01*
X190931078Y-110216528D01*
X191393381Y-109907627D01*
X191702282Y-109445324D01*
X191810754Y-108900000D01*
X191702282Y-108354676D01*
X191393381Y-107892373D01*
X190931078Y-107583472D01*
X190385754Y-107475000D01*
X189514246Y-107475000D01*
X188968922Y-107583472D01*
X188506619Y-107892373D01*
X188197718Y-108354676D01*
X188089246Y-108900000D01*
X178213750Y-108900000D01*
X178118750Y-108805000D01*
X177105000Y-108805000D01*
X177095000Y-108805000D01*
X176081250Y-108805000D01*
X175950000Y-108936250D01*
X169353543Y-108936250D01*
X169360754Y-108900000D01*
X169252282Y-108354676D01*
X168943381Y-107892373D01*
X168481078Y-107583472D01*
X167935754Y-107475000D01*
X167064246Y-107475000D01*
X166518922Y-107583472D01*
X166056619Y-107892373D01*
X165747718Y-108354676D01*
X165639246Y-108900000D01*
X153113750Y-108900000D01*
X153018750Y-108805000D01*
X152005000Y-108805000D01*
X151995000Y-108805000D01*
X150981250Y-108805000D01*
X150850000Y-108936250D01*
X142853543Y-108936250D01*
X142860754Y-108900000D01*
X142752282Y-108354676D01*
X142443381Y-107892373D01*
X141981078Y-107583472D01*
X141435754Y-107475000D01*
X140564246Y-107475000D01*
X140018922Y-107583472D01*
X139556619Y-107892373D01*
X139247718Y-108354676D01*
X139139246Y-108900000D01*
X120713750Y-108900000D01*
X120618750Y-108805000D01*
X119605000Y-108805000D01*
X119595000Y-108805000D01*
X118581250Y-108805000D01*
X118450000Y-108936250D01*
X116353543Y-108936250D01*
X116360754Y-108900000D01*
X116252282Y-108354676D01*
X115943381Y-107892373D01*
X115481078Y-107583472D01*
X114935754Y-107475000D01*
X114373528Y-107475000D01*
X114448528Y-107400000D01*
X115974542Y-107400000D01*
X115988784Y-107414267D01*
X116255156Y-107524874D01*
X116543579Y-107525126D01*
X116810143Y-107414984D01*
X116825153Y-107400000D01*
X118560490Y-107400000D01*
X118571309Y-107457496D01*
X118575000Y-107463232D01*
X118575000Y-107957537D01*
X118529926Y-108002611D01*
X118450000Y-108195571D01*
X118450000Y-108663750D01*
X118581250Y-108795000D01*
X119595000Y-108795000D01*
X119595000Y-108775000D01*
X119605000Y-108775000D01*
X119605000Y-108795000D01*
X120618750Y-108795000D01*
X120750000Y-108663750D01*
X120750000Y-108195571D01*
X120670074Y-108002611D01*
X120625000Y-107957537D01*
X120625000Y-107464568D01*
X120638075Y-107400000D01*
X150960490Y-107400000D01*
X150971309Y-107457496D01*
X150975000Y-107463232D01*
X150975000Y-107957537D01*
X150929926Y-108002611D01*
X150850000Y-108195571D01*
X150850000Y-108663750D01*
X150981250Y-108795000D01*
X151995000Y-108795000D01*
X151995000Y-108775000D01*
X152005000Y-108775000D01*
X152005000Y-108795000D01*
X153018750Y-108795000D01*
X153150000Y-108663750D01*
X153150000Y-108195571D01*
X153070074Y-108002611D01*
X153025000Y-107957537D01*
X153025000Y-107464568D01*
X153038075Y-107400000D01*
X153174542Y-107400000D01*
X153188784Y-107414267D01*
X153455156Y-107524874D01*
X153743579Y-107525126D01*
X154010143Y-107414984D01*
X154025153Y-107400000D01*
X176060490Y-107400000D01*
X176071309Y-107457496D01*
X176075000Y-107463232D01*
X176075000Y-107957537D01*
X176029926Y-108002611D01*
X175950000Y-108195571D01*
X175950000Y-108663750D01*
X176081250Y-108795000D01*
X177095000Y-108795000D01*
X177095000Y-108775000D01*
X177105000Y-108775000D01*
X177105000Y-108795000D01*
X178118750Y-108795000D01*
X178250000Y-108663750D01*
X178250000Y-108195571D01*
X178170074Y-108002611D01*
X178125000Y-107957537D01*
X178125000Y-107512352D01*
X178155156Y-107524874D01*
X178443579Y-107525126D01*
X178710143Y-107414984D01*
X178914267Y-107211216D01*
X179024874Y-106944844D01*
X179025126Y-106656421D01*
X178914984Y-106389857D01*
X178711216Y-106185733D01*
X178444844Y-106075126D01*
X178156421Y-106074874D01*
X178100137Y-106098130D01*
X178035611Y-105997854D01*
X177893588Y-105900814D01*
X177725000Y-105866674D01*
X176475000Y-105866674D01*
X176317504Y-105896309D01*
X176172854Y-105989389D01*
X176075814Y-106131412D01*
X176061925Y-106200000D01*
X154025458Y-106200000D01*
X154011216Y-106185733D01*
X153744844Y-106075126D01*
X153456421Y-106074874D01*
X153189857Y-106185016D01*
X153174847Y-106200000D01*
X153039510Y-106200000D01*
X153028691Y-106142504D01*
X152935611Y-105997854D01*
X152793588Y-105900814D01*
X152625000Y-105866674D01*
X151375000Y-105866674D01*
X151217504Y-105896309D01*
X151072854Y-105989389D01*
X150975814Y-106131412D01*
X150961925Y-106200000D01*
X120639510Y-106200000D01*
X120628691Y-106142504D01*
X120535611Y-105997854D01*
X120393588Y-105900814D01*
X120225000Y-105866674D01*
X118975000Y-105866674D01*
X118817504Y-105896309D01*
X118672854Y-105989389D01*
X118575814Y-106131412D01*
X118561925Y-106200000D01*
X116825458Y-106200000D01*
X116811216Y-106185733D01*
X116544844Y-106075126D01*
X116256421Y-106074874D01*
X115989857Y-106185016D01*
X115974847Y-106200000D01*
X114200000Y-106200000D01*
X113970390Y-106245672D01*
X113775736Y-106375736D01*
X111375736Y-108775736D01*
X111245672Y-108970390D01*
X111200000Y-109200000D01*
X111200000Y-110966674D01*
X110300000Y-110966674D01*
X110142504Y-110996309D01*
X109997854Y-111089389D01*
X109900814Y-111231412D01*
X109891987Y-111275000D01*
X109416479Y-111275000D01*
X109345074Y-111102611D01*
X109197389Y-110954926D01*
X109004429Y-110875000D01*
X107536250Y-110875000D01*
X107405000Y-111006250D01*
X107405000Y-112195000D01*
X107425000Y-112195000D01*
X107425000Y-112205000D01*
X107405000Y-112205000D01*
X107405000Y-113393750D01*
X107536250Y-113525000D01*
X109004429Y-113525000D01*
X109197389Y-113445074D01*
X109345074Y-113297389D01*
X109416479Y-113125000D01*
X109890194Y-113125000D01*
X109896309Y-113157496D01*
X109934549Y-113216923D01*
X105451472Y-117700000D01*
X105033326Y-117700000D01*
X105003691Y-117542504D01*
X104910611Y-117397854D01*
X104768588Y-117300814D01*
X104600000Y-117266674D01*
X103818729Y-117266674D01*
X103816451Y-117254568D01*
X103789601Y-117212841D01*
X103748632Y-117184848D01*
X103700000Y-117175000D01*
X101460000Y-117175000D01*
X101460000Y-115804345D01*
X101771178Y-115596423D01*
X101995968Y-115260000D01*
X102264032Y-115260000D01*
X102488822Y-115596423D01*
X102906874Y-115875756D01*
X103400000Y-115973845D01*
X103893126Y-115875756D01*
X104311178Y-115596423D01*
X104590511Y-115178371D01*
X104688600Y-114685245D01*
X104688600Y-114634755D01*
X104590511Y-114141629D01*
X104311178Y-113723577D01*
X103893126Y-113444244D01*
X103813453Y-113428396D01*
X104212148Y-113246333D01*
X104581356Y-112849800D01*
X104770713Y-112342162D01*
X104767627Y-112336250D01*
X105375000Y-112336250D01*
X105375000Y-113104429D01*
X105454926Y-113297389D01*
X105602611Y-113445074D01*
X105795571Y-113525000D01*
X107263750Y-113525000D01*
X107395000Y-113393750D01*
X107395000Y-112205000D01*
X105506250Y-112205000D01*
X105375000Y-112336250D01*
X104767627Y-112336250D01*
X104657341Y-112125000D01*
X103405000Y-112125000D01*
X103405000Y-112145000D01*
X103395000Y-112145000D01*
X103395000Y-112125000D01*
X102142659Y-112125000D01*
X102130000Y-112149248D01*
X102117341Y-112125000D01*
X100865000Y-112125000D01*
X100865000Y-112145000D01*
X100855000Y-112145000D01*
X100855000Y-112125000D01*
X99602659Y-112125000D01*
X99489287Y-112342162D01*
X99678644Y-112849800D01*
X100047852Y-113246333D01*
X100446547Y-113428396D01*
X100366874Y-113444244D01*
X99948822Y-113723577D01*
X99669489Y-114141629D01*
X99571400Y-114634755D01*
X99571400Y-114685245D01*
X99669489Y-115178371D01*
X99948822Y-115596423D01*
X100260000Y-115804345D01*
X100260000Y-117293017D01*
X100242504Y-117296309D01*
X100097854Y-117389389D01*
X100000814Y-117531412D01*
X99966674Y-117700000D01*
X99966674Y-118738600D01*
X99001100Y-118738600D01*
X99001100Y-109802162D01*
X99489287Y-109802162D01*
X99678644Y-110309800D01*
X100047852Y-110706333D01*
X100362464Y-110850000D01*
X100047852Y-110993667D01*
X99678644Y-111390200D01*
X99489287Y-111897838D01*
X99602659Y-112115000D01*
X100855000Y-112115000D01*
X100855000Y-110862660D01*
X100830750Y-110850000D01*
X100855000Y-110837340D01*
X100855000Y-109585000D01*
X100865000Y-109585000D01*
X100865000Y-110837340D01*
X100889250Y-110850000D01*
X100865000Y-110862660D01*
X100865000Y-112115000D01*
X102117341Y-112115000D01*
X102130000Y-112090752D01*
X102142659Y-112115000D01*
X103395000Y-112115000D01*
X103395000Y-110862660D01*
X103370750Y-110850000D01*
X103395000Y-110837340D01*
X103395000Y-109585000D01*
X103405000Y-109585000D01*
X103405000Y-110837340D01*
X103429250Y-110850000D01*
X103405000Y-110862660D01*
X103405000Y-112115000D01*
X104657341Y-112115000D01*
X104770713Y-111897838D01*
X104581356Y-111390200D01*
X104493248Y-111295571D01*
X105375000Y-111295571D01*
X105375000Y-112063750D01*
X105506250Y-112195000D01*
X107395000Y-112195000D01*
X107395000Y-111006250D01*
X107263750Y-110875000D01*
X105795571Y-110875000D01*
X105602611Y-110954926D01*
X105454926Y-111102611D01*
X105375000Y-111295571D01*
X104493248Y-111295571D01*
X104212148Y-110993667D01*
X103897536Y-110850000D01*
X104212148Y-110706333D01*
X104581356Y-110309800D01*
X104770713Y-109802162D01*
X104657341Y-109585000D01*
X103405000Y-109585000D01*
X103395000Y-109585000D01*
X102142659Y-109585000D01*
X102130000Y-109609248D01*
X102117341Y-109585000D01*
X100865000Y-109585000D01*
X100855000Y-109585000D01*
X99602659Y-109585000D01*
X99489287Y-109802162D01*
X99001100Y-109802162D01*
X99001100Y-107262162D01*
X99489287Y-107262162D01*
X99678644Y-107769800D01*
X100047852Y-108166333D01*
X100362464Y-108310000D01*
X100047852Y-108453667D01*
X99678644Y-108850200D01*
X99489287Y-109357838D01*
X99602659Y-109575000D01*
X100855000Y-109575000D01*
X100855000Y-108322660D01*
X100830750Y-108310000D01*
X100855000Y-108297340D01*
X100855000Y-107045000D01*
X100865000Y-107045000D01*
X100865000Y-108297340D01*
X100889250Y-108310000D01*
X100865000Y-108322660D01*
X100865000Y-109575000D01*
X102117341Y-109575000D01*
X102130000Y-109550752D01*
X102142659Y-109575000D01*
X103395000Y-109575000D01*
X103395000Y-108322660D01*
X103370750Y-108310000D01*
X103395000Y-108297340D01*
X103395000Y-107045000D01*
X103405000Y-107045000D01*
X103405000Y-108297340D01*
X103429250Y-108310000D01*
X103405000Y-108322660D01*
X103405000Y-109575000D01*
X104657341Y-109575000D01*
X104770713Y-109357838D01*
X104581356Y-108850200D01*
X104212148Y-108453667D01*
X103897536Y-108310000D01*
X104212148Y-108166333D01*
X104581356Y-107769800D01*
X104770713Y-107262162D01*
X104657341Y-107045000D01*
X103405000Y-107045000D01*
X103395000Y-107045000D01*
X102142659Y-107045000D01*
X102130000Y-107069248D01*
X102117341Y-107045000D01*
X100865000Y-107045000D01*
X100855000Y-107045000D01*
X99602659Y-107045000D01*
X99489287Y-107262162D01*
X99001100Y-107262162D01*
X99001100Y-92200000D01*
X99666674Y-92200000D01*
X99666674Y-94000000D01*
X99696309Y-94157496D01*
X99789389Y-94302146D01*
X99931412Y-94399186D01*
X100100000Y-94433326D01*
X100450672Y-94433326D01*
X100250428Y-94516065D01*
X99877375Y-94888468D01*
X99675231Y-95375285D01*
X99674771Y-95902402D01*
X99876065Y-96389572D01*
X100248468Y-96762625D01*
X100735285Y-96964769D01*
X101262402Y-96965229D01*
X101749572Y-96763935D01*
X102122625Y-96391532D01*
X102324769Y-95904715D01*
X102325229Y-95377598D01*
X102192518Y-95056410D01*
X102375000Y-95056410D01*
X102375000Y-96943590D01*
X102475860Y-97450646D01*
X102763084Y-97880506D01*
X103192944Y-98167730D01*
X103700000Y-98268590D01*
X104207056Y-98167730D01*
X104636916Y-97880506D01*
X104924140Y-97450646D01*
X105025000Y-96943590D01*
X105025000Y-95056410D01*
X110475000Y-95056410D01*
X110475000Y-96943590D01*
X110575860Y-97450646D01*
X110863084Y-97880506D01*
X111292944Y-98167730D01*
X111800000Y-98268590D01*
X112307056Y-98167730D01*
X112736916Y-97880506D01*
X113024140Y-97450646D01*
X113125000Y-96943590D01*
X113125000Y-95056410D01*
X114375000Y-95056410D01*
X114375000Y-96943590D01*
X114475860Y-97450646D01*
X114763084Y-97880506D01*
X115192944Y-98167730D01*
X115700000Y-98268590D01*
X116207056Y-98167730D01*
X116636916Y-97880506D01*
X116924140Y-97450646D01*
X117025000Y-96943590D01*
X117025000Y-95056410D01*
X116924140Y-94549354D01*
X116636916Y-94119494D01*
X116207056Y-93832270D01*
X115700000Y-93731410D01*
X115192944Y-93832270D01*
X114763084Y-94119494D01*
X114475860Y-94549354D01*
X114375000Y-95056410D01*
X113125000Y-95056410D01*
X113024140Y-94549354D01*
X112736916Y-94119494D01*
X112307056Y-93832270D01*
X111800000Y-93731410D01*
X111292944Y-93832270D01*
X110863084Y-94119494D01*
X110575860Y-94549354D01*
X110475000Y-95056410D01*
X105025000Y-95056410D01*
X104924140Y-94549354D01*
X104636916Y-94119494D01*
X104207056Y-93832270D01*
X103700000Y-93731410D01*
X103192944Y-93832270D01*
X102763084Y-94119494D01*
X102475860Y-94549354D01*
X102375000Y-95056410D01*
X102192518Y-95056410D01*
X102123935Y-94890428D01*
X101751532Y-94517375D01*
X101549119Y-94433326D01*
X101900000Y-94433326D01*
X102057496Y-94403691D01*
X102202146Y-94310611D01*
X102299186Y-94168588D01*
X102333326Y-94000000D01*
X102333326Y-92200000D01*
X102303691Y-92042504D01*
X102210611Y-91897854D01*
X102068588Y-91800814D01*
X101900000Y-91766674D01*
X100100000Y-91766674D01*
X99942504Y-91796309D01*
X99797854Y-91889389D01*
X99700814Y-92031412D01*
X99666674Y-92200000D01*
X99001100Y-92200000D01*
X99001100Y-91268600D01*
X107663698Y-91268600D01*
X107609076Y-91350347D01*
M02*
