M48
INCH,TZ
T1C0.016
T2C0.028
T3C0.035
T4C0.039
T5C0.040
T6C0.043
T7C0.059
%
G90
G05
T1
X45827Y-42047
X47913Y-40551
X60472Y-42047
X62598Y-40551
X67087Y-40157
X70197Y-42047
X71693Y-37717
X72520Y-37717
X73819Y-40551
T4
X39764Y-36654
X39764Y-37654
X49331Y-44252
X49331Y-45252
X50197Y-36654
X50197Y-37654
X59764Y-44252
X59764Y-45252
X60630Y-36654
X60630Y-37654
X70197Y-44252
X70197Y-45252
T5
X39709Y-41142
X39709Y-42142
X39709Y-43142
X39709Y-44142
X39709Y-45142
X40709Y-41142
X40709Y-42142
X40709Y-43142
X40709Y-44142
X40709Y-45142
T6
X47835Y-43701
X47835Y-44685
X47835Y-45669
X58268Y-43701
X58268Y-44685
X58268Y-45669
X68701Y-43701
X68701Y-44685
X68701Y-45669
X77539Y-43701
X77539Y-44685
X77539Y-45669
T2
X40827Y-38150G85X40827Y-37441
G05
X44016Y-38150G85X44016Y-37441
G05
X45551Y-38150G85X45551Y-37441
G05
X48740Y-38150G85X48740Y-37441
G05
X51260Y-38150G85X51260Y-37441
G05
X54449Y-38150G85X54449Y-37441
G05
X55984Y-38150G85X55984Y-37441
G05
X59173Y-38150G85X59173Y-37441
G05
X61693Y-38150G85X61693Y-37441
G05
X64882Y-38150G85X64882Y-37441
G05
X66417Y-38150G85X66417Y-37441
G05
X69606Y-38150G85X69606Y-37441
G05
X73839Y-38150G85X73839Y-37441
G05
X77028Y-38150G85X77028Y-37441
G05
T3
X42874Y-36142G85X43031Y-36142
G05
X47598Y-36142G85X47756Y-36142
G05
X53307Y-36142G85X53465Y-36142
G05
X58031Y-36142G85X58189Y-36142
G05
X63740Y-36142G85X63898Y-36142
G05
X68465Y-36142G85X68622Y-36142
G05
X75886Y-36142G85X76043Y-36142
G05
T6
X42677Y-39528G85X43228Y-39528
G05
X47402Y-39528G85X47953Y-39528
G05
X53110Y-39528G85X53661Y-39528
G05
X57835Y-39528G85X58386Y-39528
G05
X63543Y-39528G85X64094Y-39528
G05
X68268Y-39528G85X68819Y-39528
G05
X75689Y-39528G85X76240Y-39528
G05
T7
X44941Y-42874G85X45217Y-42874
G05
X44941Y-46496G85X45217Y-46496
G05
X55374Y-42874G85X55650Y-42874
G05
X55374Y-46496G85X55650Y-46496
G05
X65807Y-42874G85X66083Y-42874
G05
X65807Y-46496G85X66083Y-46496
G05
X74646Y-42874G85X74921Y-42874
G05
X74646Y-46496G85X74921Y-46496
G05
T0
M30
