G04 #@! TF.FileFunction,Legend,Top*
%FSLAX46Y46*%
G04 Gerber Fmt 4.6, Leading zero omitted, Abs format (unit mm)*
G04 Created by KiCad (PCBNEW 4.0.5) date 07/18/17 15:03:40*
%MOMM*%
%LPD*%
G01*
G04 APERTURE LIST*
%ADD10C,0.100000*%
%ADD11C,0.250000*%
%ADD12C,0.300000*%
%ADD13C,0.150000*%
%ADD14C,0.200000*%
%ADD15C,2.300000*%
%ADD16C,0.350000*%
%ADD17C,0.010000*%
G04 APERTURE END LIST*
D10*
D11*
X184350000Y-107450000D02*
X184350000Y-109250000D01*
X184350000Y-109250000D02*
X186050000Y-110950000D01*
D12*
X92478571Y-107100000D02*
X90978571Y-107100000D01*
X92050000Y-106600000D01*
X90978571Y-106100000D01*
X92478571Y-106100000D01*
X89750000Y-106907143D02*
X89750000Y-106192857D01*
X90178571Y-107050000D02*
X88678571Y-106550000D01*
X90178571Y-106050000D01*
X86378571Y-107028571D02*
X86378571Y-106171428D01*
X87878571Y-106599999D02*
X86378571Y-106599999D01*
X92478571Y-104942857D02*
X91478571Y-104942857D01*
X90978571Y-104942857D02*
X91050000Y-105014286D01*
X91121429Y-104942857D01*
X91050000Y-104871429D01*
X90978571Y-104942857D01*
X91121429Y-104942857D01*
X92478571Y-104371428D02*
X91478571Y-103585714D01*
X91478571Y-104371428D02*
X92478571Y-103585714D01*
X92407143Y-102442857D02*
X92478571Y-102585714D01*
X92478571Y-102871428D01*
X92407143Y-103014285D01*
X92264286Y-103085714D01*
X91692857Y-103085714D01*
X91550000Y-103014285D01*
X91478571Y-102871428D01*
X91478571Y-102585714D01*
X91550000Y-102442857D01*
X91692857Y-102371428D01*
X91835714Y-102371428D01*
X91978571Y-103085714D01*
X92478571Y-101728571D02*
X91478571Y-101728571D01*
X91764286Y-101728571D02*
X91621429Y-101657143D01*
X91550000Y-101585714D01*
X91478571Y-101442857D01*
X91478571Y-101300000D01*
X89178571Y-105157143D02*
X89178571Y-104585714D01*
X88678571Y-104942857D02*
X89964286Y-104942857D01*
X90107143Y-104871429D01*
X90178571Y-104728571D01*
X90178571Y-104585714D01*
X89178571Y-104300000D02*
X89178571Y-103728571D01*
X88678571Y-104085714D02*
X89964286Y-104085714D01*
X90107143Y-104014286D01*
X90178571Y-103871428D01*
X90178571Y-103728571D01*
X90107143Y-102657143D02*
X90178571Y-102800000D01*
X90178571Y-103085714D01*
X90107143Y-103228571D01*
X89964286Y-103300000D01*
X89392857Y-103300000D01*
X89250000Y-103228571D01*
X89178571Y-103085714D01*
X89178571Y-102800000D01*
X89250000Y-102657143D01*
X89392857Y-102585714D01*
X89535714Y-102585714D01*
X89678571Y-103300000D01*
X89178571Y-101942857D02*
X90178571Y-101942857D01*
X89321429Y-101942857D02*
X89250000Y-101871429D01*
X89178571Y-101728571D01*
X89178571Y-101514286D01*
X89250000Y-101371429D01*
X89392857Y-101300000D01*
X90178571Y-101300000D01*
X89178571Y-99942857D02*
X90178571Y-99942857D01*
X89178571Y-100585714D02*
X89964286Y-100585714D01*
X90107143Y-100514286D01*
X90178571Y-100371428D01*
X90178571Y-100157143D01*
X90107143Y-100014286D01*
X90035714Y-99942857D01*
X89178571Y-99371428D02*
X90178571Y-99014285D01*
X89178571Y-98657143D01*
X90107143Y-97514286D02*
X90178571Y-97657143D01*
X90178571Y-97942857D01*
X90107143Y-98085714D01*
X89964286Y-98157143D01*
X89392857Y-98157143D01*
X89250000Y-98085714D01*
X89178571Y-97942857D01*
X89178571Y-97657143D01*
X89250000Y-97514286D01*
X89392857Y-97442857D01*
X89535714Y-97442857D01*
X89678571Y-98157143D01*
X90178571Y-96800000D02*
X89178571Y-96800000D01*
X89464286Y-96800000D02*
X89321429Y-96728572D01*
X89250000Y-96657143D01*
X89178571Y-96514286D01*
X89178571Y-96371429D01*
X89178571Y-96085715D02*
X89178571Y-95514286D01*
X88678571Y-95871429D02*
X89964286Y-95871429D01*
X90107143Y-95800001D01*
X90178571Y-95657143D01*
X90178571Y-95514286D01*
X90178571Y-95014286D02*
X89178571Y-95014286D01*
X88678571Y-95014286D02*
X88750000Y-95085715D01*
X88821429Y-95014286D01*
X88750000Y-94942858D01*
X88678571Y-95014286D01*
X88821429Y-95014286D01*
X89178571Y-94300000D02*
X90178571Y-94300000D01*
X89321429Y-94300000D02*
X89250000Y-94228572D01*
X89178571Y-94085714D01*
X89178571Y-93871429D01*
X89250000Y-93728572D01*
X89392857Y-93657143D01*
X90178571Y-93657143D01*
X89178571Y-92300000D02*
X90392857Y-92300000D01*
X90535714Y-92371429D01*
X90607143Y-92442857D01*
X90678571Y-92585714D01*
X90678571Y-92800000D01*
X90607143Y-92942857D01*
X90107143Y-92300000D02*
X90178571Y-92442857D01*
X90178571Y-92728571D01*
X90107143Y-92871429D01*
X90035714Y-92942857D01*
X89892857Y-93014286D01*
X89464286Y-93014286D01*
X89321429Y-92942857D01*
X89250000Y-92871429D01*
X89178571Y-92728571D01*
X89178571Y-92442857D01*
X89250000Y-92300000D01*
D13*
X85400000Y-107650000D02*
X85400000Y-105500000D01*
X93150000Y-107650000D02*
X85400000Y-107650000D01*
X93150000Y-105500000D02*
X93150000Y-107650000D01*
X85400000Y-105500000D02*
X93150000Y-105500000D01*
D12*
X87878571Y-104942857D02*
X86878571Y-104942857D01*
X87164286Y-104942857D02*
X87021429Y-104871429D01*
X86950000Y-104800000D01*
X86878571Y-104657143D01*
X86878571Y-104514286D01*
X87878571Y-104014286D02*
X86878571Y-104014286D01*
X86378571Y-104014286D02*
X86450000Y-104085715D01*
X86521429Y-104014286D01*
X86450000Y-103942858D01*
X86378571Y-104014286D01*
X86521429Y-104014286D01*
X86878571Y-103300000D02*
X88378571Y-103300000D01*
X86950000Y-103300000D02*
X86878571Y-103157143D01*
X86878571Y-102871429D01*
X86950000Y-102728572D01*
X87021429Y-102657143D01*
X87164286Y-102585714D01*
X87592857Y-102585714D01*
X87735714Y-102657143D01*
X87807143Y-102728572D01*
X87878571Y-102871429D01*
X87878571Y-103157143D01*
X87807143Y-103300000D01*
X87878571Y-101728571D02*
X87807143Y-101871429D01*
X87664286Y-101942857D01*
X86378571Y-101942857D01*
X87807143Y-100585715D02*
X87878571Y-100728572D01*
X87878571Y-101014286D01*
X87807143Y-101157143D01*
X87664286Y-101228572D01*
X87092857Y-101228572D01*
X86950000Y-101157143D01*
X86878571Y-101014286D01*
X86878571Y-100728572D01*
X86950000Y-100585715D01*
X87092857Y-100514286D01*
X87235714Y-100514286D01*
X87378571Y-101228572D01*
D11*
X186050000Y-110950000D02*
X185000000Y-110950000D01*
X186050000Y-110950000D02*
X186050000Y-109900000D01*
D14*
X185828571Y-98107143D02*
X185828571Y-97821429D01*
X185900000Y-97678571D01*
X186042857Y-97535714D01*
X186328571Y-97464286D01*
X186828571Y-97464286D01*
X187114286Y-97535714D01*
X187257143Y-97678571D01*
X187328571Y-97821429D01*
X187328571Y-98107143D01*
X187257143Y-98250000D01*
X187114286Y-98392857D01*
X186828571Y-98464286D01*
X186328571Y-98464286D01*
X186042857Y-98392857D01*
X185900000Y-98250000D01*
X185828571Y-98107143D01*
X185828571Y-96821428D02*
X187042857Y-96821428D01*
X187185714Y-96750000D01*
X187257143Y-96678571D01*
X187328571Y-96535714D01*
X187328571Y-96250000D01*
X187257143Y-96107142D01*
X187185714Y-96035714D01*
X187042857Y-95964285D01*
X185828571Y-95964285D01*
X185828571Y-95464285D02*
X185828571Y-94607142D01*
X187328571Y-95035713D02*
X185828571Y-95035713D01*
X185828571Y-93107142D02*
X185828571Y-92178571D01*
X186400000Y-92678571D01*
X186400000Y-92464285D01*
X186471429Y-92321428D01*
X186542857Y-92249999D01*
X186685714Y-92178571D01*
X187042857Y-92178571D01*
X187185714Y-92249999D01*
X187257143Y-92321428D01*
X187328571Y-92464285D01*
X187328571Y-92892857D01*
X187257143Y-93035714D01*
X187185714Y-93107142D01*
X183578571Y-98107143D02*
X183578571Y-97821429D01*
X183650000Y-97678571D01*
X183792857Y-97535714D01*
X184078571Y-97464286D01*
X184578571Y-97464286D01*
X184864286Y-97535714D01*
X185007143Y-97678571D01*
X185078571Y-97821429D01*
X185078571Y-98107143D01*
X185007143Y-98250000D01*
X184864286Y-98392857D01*
X184578571Y-98464286D01*
X184078571Y-98464286D01*
X183792857Y-98392857D01*
X183650000Y-98250000D01*
X183578571Y-98107143D01*
X183578571Y-96821428D02*
X184792857Y-96821428D01*
X184935714Y-96750000D01*
X185007143Y-96678571D01*
X185078571Y-96535714D01*
X185078571Y-96250000D01*
X185007143Y-96107142D01*
X184935714Y-96035714D01*
X184792857Y-95964285D01*
X183578571Y-95964285D01*
X183578571Y-95464285D02*
X183578571Y-94607142D01*
X185078571Y-95035713D02*
X183578571Y-95035713D01*
X183721429Y-93035714D02*
X183650000Y-92964285D01*
X183578571Y-92821428D01*
X183578571Y-92464285D01*
X183650000Y-92321428D01*
X183721429Y-92249999D01*
X183864286Y-92178571D01*
X184007143Y-92178571D01*
X184221429Y-92249999D01*
X185078571Y-93107142D01*
X185078571Y-92178571D01*
X181328571Y-98107143D02*
X181328571Y-97821429D01*
X181400000Y-97678571D01*
X181542857Y-97535714D01*
X181828571Y-97464286D01*
X182328571Y-97464286D01*
X182614286Y-97535714D01*
X182757143Y-97678571D01*
X182828571Y-97821429D01*
X182828571Y-98107143D01*
X182757143Y-98250000D01*
X182614286Y-98392857D01*
X182328571Y-98464286D01*
X181828571Y-98464286D01*
X181542857Y-98392857D01*
X181400000Y-98250000D01*
X181328571Y-98107143D01*
X181328571Y-96821428D02*
X182542857Y-96821428D01*
X182685714Y-96750000D01*
X182757143Y-96678571D01*
X182828571Y-96535714D01*
X182828571Y-96250000D01*
X182757143Y-96107142D01*
X182685714Y-96035714D01*
X182542857Y-95964285D01*
X181328571Y-95964285D01*
X181328571Y-95464285D02*
X181328571Y-94607142D01*
X182828571Y-95035713D02*
X181328571Y-95035713D01*
X182828571Y-92178571D02*
X182828571Y-93035714D01*
X182828571Y-92607142D02*
X181328571Y-92607142D01*
X181542857Y-92749999D01*
X181685714Y-92892857D01*
X181757143Y-93035714D01*
D11*
X182100000Y-99200000D02*
X182100000Y-102000000D01*
X186600000Y-99200000D02*
X186600000Y-102000000D01*
X184350000Y-99200000D02*
X184350000Y-102000000D01*
D13*
X184350000Y-103050000D02*
X184350000Y-104550000D01*
X185100000Y-103800000D02*
X183600000Y-103800000D01*
D11*
X184350000Y-107450000D02*
X180050000Y-102000000D01*
X188600000Y-102000000D02*
X184350000Y-107450000D01*
X188600000Y-102000000D02*
X180050000Y-102000000D01*
D15*
X177868352Y-96000000D02*
G75*
G03X177868352Y-96000000I-4368352J0D01*
G01*
X151368352Y-96000000D02*
G75*
G03X151368352Y-96000000I-4368352J0D01*
G01*
X124868352Y-96000000D02*
G75*
G03X124868352Y-96000000I-4368352J0D01*
G01*
D16*
X191751682Y-100387228D02*
X192663709Y-101763424D01*
X191751682Y-100387228D02*
X190522208Y-101489092D01*
X190200000Y-112500000D02*
X191737482Y-100498077D01*
X171422146Y-102003442D02*
X172076055Y-103519394D01*
X171422146Y-102003442D02*
X170016980Y-102870171D01*
X167750000Y-113650000D02*
X171388540Y-102110025D01*
X165732640Y-108914160D02*
X164327474Y-108047431D01*
X165732640Y-108914160D02*
X166386549Y-107398207D01*
X161850000Y-96600000D02*
X165714070Y-108855263D01*
X144922146Y-102053442D02*
X145576055Y-103569394D01*
X144922146Y-102053442D02*
X143516980Y-102920171D01*
X141250000Y-113700000D02*
X144888540Y-102160025D01*
X139232640Y-108964160D02*
X137827474Y-108097431D01*
X139232640Y-108964160D02*
X139886549Y-107448207D01*
X135350000Y-96650000D02*
X139214070Y-108905263D01*
D17*
G36*
X199612769Y-104329352D02*
X199615851Y-104243590D01*
X199620657Y-104173094D01*
X199628284Y-104112818D01*
X199639828Y-104057717D01*
X199656385Y-104002746D01*
X199679051Y-103942859D01*
X199708922Y-103873012D01*
X199714767Y-103859847D01*
X199738337Y-103808019D01*
X199757945Y-103769224D01*
X199777459Y-103737825D01*
X199800746Y-103708183D01*
X199831672Y-103674658D01*
X199865004Y-103640758D01*
X199932945Y-103576979D01*
X199994912Y-103528083D01*
X200031480Y-103504831D01*
X200102600Y-103464840D01*
X202010140Y-103462170D01*
X202247724Y-103461816D01*
X202465750Y-103461443D01*
X202664979Y-103461044D01*
X202846173Y-103460613D01*
X203010092Y-103460145D01*
X203157498Y-103459631D01*
X203289154Y-103459067D01*
X203405819Y-103458446D01*
X203508256Y-103457762D01*
X203597227Y-103457007D01*
X203673491Y-103456177D01*
X203737812Y-103455264D01*
X203790951Y-103454263D01*
X203833668Y-103453166D01*
X203866726Y-103451968D01*
X203890886Y-103450662D01*
X203906909Y-103449243D01*
X203915557Y-103447703D01*
X203917680Y-103446332D01*
X203911909Y-103428441D01*
X203902604Y-103413442D01*
X203889991Y-103390722D01*
X203878139Y-103359874D01*
X203876264Y-103353584D01*
X203857995Y-103310701D01*
X203827114Y-103261385D01*
X203787595Y-103210936D01*
X203743416Y-103164654D01*
X203717629Y-103142133D01*
X203682307Y-103113433D01*
X203647693Y-103084871D01*
X203622680Y-103063818D01*
X203611163Y-103054724D01*
X203598273Y-103046819D01*
X203582421Y-103039939D01*
X203562019Y-103033922D01*
X203535478Y-103028606D01*
X203501209Y-103023827D01*
X203457624Y-103019424D01*
X203403133Y-103015233D01*
X203336148Y-103011093D01*
X203255080Y-103006841D01*
X203158341Y-103002313D01*
X203044341Y-102997349D01*
X202923245Y-102992273D01*
X202833727Y-102988587D01*
X202753587Y-102985400D01*
X202680774Y-102982704D01*
X202613235Y-102980491D01*
X202548919Y-102978755D01*
X202485774Y-102977488D01*
X202421750Y-102976682D01*
X202354794Y-102976330D01*
X202282855Y-102976424D01*
X202203882Y-102976958D01*
X202115822Y-102977923D01*
X202016624Y-102979313D01*
X201904237Y-102981120D01*
X201776609Y-102983336D01*
X201631688Y-102985954D01*
X201556393Y-102987333D01*
X201402284Y-102990134D01*
X201267113Y-102992515D01*
X201149503Y-102994477D01*
X201048075Y-102996019D01*
X200961453Y-102997142D01*
X200888258Y-102997845D01*
X200827113Y-102998128D01*
X200776641Y-102997992D01*
X200735464Y-102997436D01*
X200702204Y-102996460D01*
X200675483Y-102995064D01*
X200653925Y-102993249D01*
X200636151Y-102991013D01*
X200620784Y-102988358D01*
X200615575Y-102987299D01*
X200575896Y-102977758D01*
X200541958Y-102967473D01*
X200520555Y-102958527D01*
X200519387Y-102957801D01*
X200504788Y-102942915D01*
X200483032Y-102914451D01*
X200456802Y-102876611D01*
X200428778Y-102833596D01*
X200401643Y-102789609D01*
X200378077Y-102748852D01*
X200360762Y-102715525D01*
X200353436Y-102697760D01*
X200333039Y-102616684D01*
X200318725Y-102525196D01*
X200310820Y-102429358D01*
X200309651Y-102335229D01*
X200315545Y-102248870D01*
X200325937Y-102187851D01*
X200359187Y-102079214D01*
X200404690Y-101981895D01*
X200461152Y-101897725D01*
X200527279Y-101828531D01*
X200601779Y-101776146D01*
X200625646Y-101763944D01*
X200681720Y-101737640D01*
X201310242Y-101728642D01*
X201459884Y-101726900D01*
X201627424Y-101725679D01*
X201810447Y-101724975D01*
X202006539Y-101724789D01*
X202213282Y-101725117D01*
X202428263Y-101725957D01*
X202649067Y-101727309D01*
X202873278Y-101729169D01*
X202951082Y-101729929D01*
X203963400Y-101740215D01*
X204090400Y-101772367D01*
X204167189Y-101794647D01*
X204241126Y-101821354D01*
X204307987Y-101850626D01*
X204363549Y-101880600D01*
X204403588Y-101909413D01*
X204405915Y-101911539D01*
X204426266Y-101927889D01*
X204441504Y-101935659D01*
X204442598Y-101935760D01*
X204457895Y-101942578D01*
X204484159Y-101961169D01*
X204518186Y-101988738D01*
X204556778Y-102022491D01*
X204596731Y-102059634D01*
X204634846Y-102097371D01*
X204666204Y-102130965D01*
X204708301Y-102178954D01*
X204739336Y-102215847D01*
X204762137Y-102245380D01*
X204779533Y-102271290D01*
X204794353Y-102297310D01*
X204799182Y-102306600D01*
X204819047Y-102338804D01*
X204842180Y-102367524D01*
X204847336Y-102372640D01*
X204867952Y-102396744D01*
X204890017Y-102429919D01*
X204900492Y-102448840D01*
X204921614Y-102487542D01*
X204945374Y-102526932D01*
X204955168Y-102541824D01*
X204977291Y-102578477D01*
X205002766Y-102627339D01*
X205028284Y-102681420D01*
X205050538Y-102733730D01*
X205065457Y-102774830D01*
X205076235Y-102804095D01*
X205092661Y-102843256D01*
X205111263Y-102884048D01*
X205112063Y-102885720D01*
X205132321Y-102932972D01*
X205152471Y-102988033D01*
X205167902Y-103038120D01*
X205181146Y-103084502D01*
X205195702Y-103130757D01*
X205208612Y-103167532D01*
X205209649Y-103170200D01*
X205224844Y-103213030D01*
X205239848Y-103262412D01*
X205253139Y-103312468D01*
X205263198Y-103357319D01*
X205268505Y-103391087D01*
X205268959Y-103399595D01*
X205271150Y-103426682D01*
X205275127Y-103443690D01*
X205277293Y-103445855D01*
X205282674Y-103447818D01*
X205292209Y-103449589D01*
X205306834Y-103451179D01*
X205327486Y-103452596D01*
X205355104Y-103453850D01*
X205390624Y-103454951D01*
X205434984Y-103455909D01*
X205489121Y-103456733D01*
X205553972Y-103457434D01*
X205630476Y-103458020D01*
X205719569Y-103458501D01*
X205822188Y-103458888D01*
X205939271Y-103459189D01*
X206071756Y-103459415D01*
X206220579Y-103459576D01*
X206386678Y-103459680D01*
X206570991Y-103459738D01*
X206774455Y-103459760D01*
X208374377Y-103459760D01*
X208398422Y-103434166D01*
X208446937Y-103393463D01*
X208508199Y-103358539D01*
X208574699Y-103333595D01*
X208581457Y-103331783D01*
X208599683Y-103327484D01*
X208618773Y-103324126D01*
X208640953Y-103321689D01*
X208668446Y-103320154D01*
X208703479Y-103319502D01*
X208748277Y-103319713D01*
X208805065Y-103320768D01*
X208876067Y-103322648D01*
X208963509Y-103325333D01*
X209039796Y-103327817D01*
X209129006Y-103330547D01*
X209213381Y-103332720D01*
X209290399Y-103334301D01*
X209357539Y-103335256D01*
X209412279Y-103335550D01*
X209452099Y-103335149D01*
X209474477Y-103334018D01*
X209476033Y-103333806D01*
X209535230Y-103319243D01*
X209576939Y-103296089D01*
X209602918Y-103262269D01*
X209614926Y-103215712D01*
X209615719Y-103169100D01*
X209612360Y-103104118D01*
X209645631Y-103104139D01*
X209671272Y-103107931D01*
X209685419Y-103122502D01*
X209688972Y-103130647D01*
X209697029Y-103161780D01*
X209704115Y-103206981D01*
X209709715Y-103260002D01*
X209713317Y-103314598D01*
X209714406Y-103364520D01*
X209712468Y-103403521D01*
X209711827Y-103408434D01*
X209707955Y-103441687D01*
X209709627Y-103462342D01*
X209718218Y-103477688D01*
X209726595Y-103486713D01*
X209749520Y-103509637D01*
X209749520Y-105346780D01*
X209727863Y-105374313D01*
X209706206Y-105401845D01*
X209710761Y-106152923D01*
X209715317Y-106904000D01*
X209676435Y-106904000D01*
X209656075Y-106903381D01*
X209618545Y-106901633D01*
X209566952Y-106898927D01*
X209504403Y-106895431D01*
X209434006Y-106891313D01*
X209360796Y-106886863D01*
X209270069Y-106882183D01*
X209161716Y-106878179D01*
X209038418Y-106874849D01*
X208902857Y-106872193D01*
X208757715Y-106870211D01*
X208605675Y-106868901D01*
X208449419Y-106868264D01*
X208425349Y-106868269D01*
X208425349Y-106455621D01*
X208606506Y-106454941D01*
X208792513Y-106453521D01*
X208930245Y-106452008D01*
X209548610Y-106444337D01*
X209542263Y-106112829D01*
X209540437Y-106022052D01*
X209538394Y-105928381D01*
X209536242Y-105836256D01*
X209534090Y-105750118D01*
X209532045Y-105674410D01*
X209530216Y-105613571D01*
X209529843Y-105602316D01*
X209527441Y-105543436D01*
X209524549Y-105491232D01*
X209521425Y-105449257D01*
X209518326Y-105421064D01*
X209515934Y-105410633D01*
X209511194Y-105408870D01*
X209498730Y-105407311D01*
X209477715Y-105405953D01*
X209447322Y-105404792D01*
X209406725Y-105403827D01*
X209355097Y-105403053D01*
X209291612Y-105402470D01*
X209215442Y-105402073D01*
X209125762Y-105401860D01*
X209021745Y-105401828D01*
X208902564Y-105401975D01*
X208767393Y-105402297D01*
X208615404Y-105402792D01*
X208445773Y-105403457D01*
X208257671Y-105404290D01*
X208050273Y-105405288D01*
X207998129Y-105405548D01*
X206488160Y-105413142D01*
X206488160Y-105542994D01*
X206486689Y-105608134D01*
X206482721Y-105680932D01*
X206476920Y-105751039D01*
X206472104Y-105793123D01*
X206461664Y-105863844D01*
X206448010Y-105945211D01*
X206432100Y-106032374D01*
X206414893Y-106120482D01*
X206397346Y-106204682D01*
X206380417Y-106280123D01*
X206365064Y-106341954D01*
X206360355Y-106359075D01*
X206349647Y-106398959D01*
X206342266Y-106430944D01*
X206339214Y-106450431D01*
X206339655Y-106454083D01*
X206350729Y-106454962D01*
X206379096Y-106454831D01*
X206421763Y-106453820D01*
X206475735Y-106452060D01*
X206538017Y-106449681D01*
X206605617Y-106446815D01*
X206675539Y-106443592D01*
X206744789Y-106440144D01*
X206810373Y-106436601D01*
X206869297Y-106433093D01*
X206918567Y-106429752D01*
X206945360Y-106427614D01*
X206991445Y-106424317D01*
X207038935Y-106422625D01*
X207091286Y-106422612D01*
X207151953Y-106424352D01*
X207224393Y-106427919D01*
X207312060Y-106433388D01*
X207356840Y-106436450D01*
X207437352Y-106441080D01*
X207536458Y-106445107D01*
X207652439Y-106448512D01*
X207783578Y-106451279D01*
X207928156Y-106453390D01*
X208084456Y-106454829D01*
X208250760Y-106455578D01*
X208425349Y-106455621D01*
X208425349Y-106868269D01*
X208291627Y-106868299D01*
X208134983Y-106869005D01*
X207982169Y-106870382D01*
X207835866Y-106872430D01*
X207698757Y-106875147D01*
X207573523Y-106878533D01*
X207462847Y-106882588D01*
X207370345Y-106887255D01*
X207279498Y-106892561D01*
X207204292Y-106896465D01*
X207140098Y-106898990D01*
X207082286Y-106900158D01*
X207026228Y-106899990D01*
X206967293Y-106898508D01*
X206900853Y-106895735D01*
X206822279Y-106891691D01*
X206791225Y-106889989D01*
X206704389Y-106885388D01*
X206611727Y-106880831D01*
X206518933Y-106876571D01*
X206431700Y-106872867D01*
X206355723Y-106869972D01*
X206318740Y-106868756D01*
X206123921Y-106862880D01*
X206116620Y-106885885D01*
X206107067Y-106900994D01*
X206085698Y-106927083D01*
X206055290Y-106960992D01*
X206018618Y-106999559D01*
X206001559Y-107016845D01*
X205936808Y-107078737D01*
X205877980Y-107128076D01*
X205819732Y-107169220D01*
X205797987Y-107182797D01*
X205732261Y-107221883D01*
X205680625Y-107250790D01*
X205640375Y-107270780D01*
X205608809Y-107283113D01*
X205583223Y-107289051D01*
X205568054Y-107290080D01*
X205538838Y-107292975D01*
X205499474Y-107300516D01*
X205463577Y-107309670D01*
X205450842Y-107313081D01*
X205436712Y-107316112D01*
X205419850Y-107318805D01*
X205398920Y-107321202D01*
X205372584Y-107323345D01*
X205339508Y-107325277D01*
X205298353Y-107327040D01*
X205247783Y-107328676D01*
X205186463Y-107330228D01*
X205113054Y-107331738D01*
X205026222Y-107333249D01*
X204924628Y-107334803D01*
X204806938Y-107336442D01*
X204671813Y-107338208D01*
X204517918Y-107340145D01*
X204491720Y-107340470D01*
X204307577Y-107342648D01*
X204140596Y-107344371D01*
X203987624Y-107345631D01*
X203845509Y-107346422D01*
X203711096Y-107346735D01*
X203625846Y-107346622D01*
X203625846Y-107194311D01*
X203755050Y-107194271D01*
X203890204Y-107193748D01*
X204034441Y-107192747D01*
X204190895Y-107191278D01*
X204362701Y-107189348D01*
X204471400Y-107188010D01*
X204631020Y-107185951D01*
X204771590Y-107184029D01*
X204894377Y-107182210D01*
X205000648Y-107180456D01*
X205091672Y-107178733D01*
X205168717Y-107177004D01*
X205233051Y-107175233D01*
X205285941Y-107173383D01*
X205328657Y-107171420D01*
X205362466Y-107169307D01*
X205388635Y-107167008D01*
X205408434Y-107164488D01*
X205423129Y-107161709D01*
X205426440Y-107160896D01*
X205469963Y-107150754D01*
X205515094Y-107142002D01*
X205538200Y-107138419D01*
X205585432Y-107125832D01*
X205641778Y-107100685D01*
X205702962Y-107065703D01*
X205764707Y-107023611D01*
X205822737Y-106977133D01*
X205872775Y-106928992D01*
X205880773Y-106920169D01*
X205933857Y-106860138D01*
X205522668Y-106866053D01*
X205414924Y-106867982D01*
X205297855Y-106870741D01*
X205176665Y-106874165D01*
X205056562Y-106878086D01*
X204942750Y-106882339D01*
X204840437Y-106886756D01*
X204778895Y-106889834D01*
X204698752Y-106893963D01*
X204625214Y-106897417D01*
X204560706Y-106900106D01*
X204507654Y-106901944D01*
X204468483Y-106902843D01*
X204445620Y-106902714D01*
X204440664Y-106902052D01*
X204439367Y-106890274D01*
X204440129Y-106862586D01*
X204442742Y-106823272D01*
X204446459Y-106781959D01*
X204452045Y-106705258D01*
X204452220Y-106633246D01*
X204446969Y-106554345D01*
X204446180Y-106545993D01*
X204441902Y-106498837D01*
X204438874Y-106459797D01*
X204437370Y-106432877D01*
X204437664Y-106422084D01*
X204437690Y-106422061D01*
X204449157Y-106421644D01*
X204480741Y-106422411D01*
X204532273Y-106424353D01*
X204603585Y-106427464D01*
X204694508Y-106431735D01*
X204804873Y-106437160D01*
X204934513Y-106443731D01*
X204986331Y-106446399D01*
X205067771Y-106449990D01*
X205160183Y-106453057D01*
X205254922Y-106455374D01*
X205343339Y-106456717D01*
X205390753Y-106456960D01*
X205590848Y-106456960D01*
X205597544Y-106241962D01*
X205599139Y-106177416D01*
X205600509Y-106095216D01*
X205601655Y-105998025D01*
X205602576Y-105888509D01*
X205603273Y-105769330D01*
X205603745Y-105643153D01*
X205603993Y-105512643D01*
X205604017Y-105380464D01*
X205603817Y-105249279D01*
X205603392Y-105121754D01*
X205602743Y-105000552D01*
X205601871Y-104888337D01*
X205600775Y-104787774D01*
X205599455Y-104701527D01*
X205597911Y-104632261D01*
X205597494Y-104618031D01*
X205590748Y-104401424D01*
X205244434Y-104408444D01*
X205148853Y-104410688D01*
X205047752Y-104413603D01*
X204946037Y-104417010D01*
X204848614Y-104420732D01*
X204760390Y-104424589D01*
X204686270Y-104428402D01*
X204669520Y-104429388D01*
X204603645Y-104433261D01*
X204544917Y-104436447D01*
X204496248Y-104438810D01*
X204460550Y-104440215D01*
X204440738Y-104440525D01*
X204437690Y-104440219D01*
X204437358Y-104429515D01*
X204438831Y-104402634D01*
X204441836Y-104363611D01*
X204446096Y-104316481D01*
X204446180Y-104315608D01*
X204451952Y-104235438D01*
X204452297Y-104163268D01*
X204447229Y-104087518D01*
X204446459Y-104079642D01*
X204442355Y-104033605D01*
X204439889Y-103995407D01*
X204439275Y-103969321D01*
X204440461Y-103959752D01*
X204451589Y-103958934D01*
X204480476Y-103959229D01*
X204524598Y-103960545D01*
X204581428Y-103962788D01*
X204648443Y-103965866D01*
X204723117Y-103969683D01*
X204753292Y-103971326D01*
X204836822Y-103975198D01*
X204937312Y-103978591D01*
X205052361Y-103981502D01*
X205179567Y-103983932D01*
X205316532Y-103985877D01*
X205460854Y-103987336D01*
X205610132Y-103988308D01*
X205761967Y-103988790D01*
X205913958Y-103988782D01*
X206063704Y-103988281D01*
X206208805Y-103987285D01*
X206346859Y-103985793D01*
X206475468Y-103983804D01*
X206592230Y-103981315D01*
X206694744Y-103978325D01*
X206780611Y-103974832D01*
X206818360Y-103972788D01*
X206889164Y-103968600D01*
X206955381Y-103964856D01*
X207013592Y-103961735D01*
X207060379Y-103959416D01*
X207092324Y-103958080D01*
X207102840Y-103957826D01*
X207143480Y-103957600D01*
X207143480Y-104445668D01*
X207072360Y-104439991D01*
X206984392Y-104433348D01*
X206898388Y-104427704D01*
X206811173Y-104422936D01*
X206719569Y-104418922D01*
X206620400Y-104415538D01*
X206510490Y-104412662D01*
X206386662Y-104410171D01*
X206245740Y-104407941D01*
X206243430Y-104407909D01*
X205790421Y-104401489D01*
X205783690Y-104541831D01*
X205782390Y-104580251D01*
X205781234Y-104636856D01*
X205780222Y-104709511D01*
X205779355Y-104796082D01*
X205778632Y-104894434D01*
X205778054Y-105002433D01*
X205777620Y-105117943D01*
X205777330Y-105238832D01*
X205777185Y-105362963D01*
X205777185Y-105488202D01*
X205777330Y-105612416D01*
X205777619Y-105733469D01*
X205778052Y-105849226D01*
X205778631Y-105957553D01*
X205779354Y-106056316D01*
X205780222Y-106143380D01*
X205781235Y-106216610D01*
X205782393Y-106273872D01*
X205783657Y-106312180D01*
X205790280Y-106456961D01*
X205976399Y-106456960D01*
X206162518Y-106456960D01*
X206176883Y-106429020D01*
X206188245Y-106401817D01*
X206202751Y-106359677D01*
X206218978Y-106307463D01*
X206235501Y-106250038D01*
X206250893Y-106192266D01*
X206263731Y-106139008D01*
X206268762Y-106115509D01*
X206287813Y-106009406D01*
X206304591Y-105892853D01*
X206318422Y-105772267D01*
X206328629Y-105654065D01*
X206334540Y-105544665D01*
X206335759Y-105478599D01*
X206335857Y-105415983D01*
X206336428Y-105370394D01*
X206337894Y-105338540D01*
X206340674Y-105317128D01*
X206345187Y-105302866D01*
X206351855Y-105292462D01*
X206360698Y-105283019D01*
X206385636Y-105258080D01*
X206846695Y-105258080D01*
X206922589Y-105258013D01*
X207016655Y-105257817D01*
X207126741Y-105257502D01*
X207250700Y-105257078D01*
X207386382Y-105256552D01*
X207531638Y-105255935D01*
X207684320Y-105255237D01*
X207842277Y-105254466D01*
X208003362Y-105253631D01*
X208165425Y-105252743D01*
X208326316Y-105251810D01*
X208407268Y-105251319D01*
X209506783Y-105244558D01*
X209499696Y-105163314D01*
X209496606Y-105123037D01*
X209496303Y-105099341D01*
X209499213Y-105088623D01*
X209505762Y-105087280D01*
X209508583Y-105088199D01*
X209529182Y-105094194D01*
X209557972Y-105100588D01*
X209560838Y-105101135D01*
X209597120Y-105107942D01*
X209597120Y-104648615D01*
X209551627Y-104683340D01*
X209492238Y-104716507D01*
X209424343Y-104734289D01*
X209352111Y-104737182D01*
X209340624Y-104735358D01*
X209340624Y-104414800D01*
X209383589Y-104413908D01*
X209414205Y-104409931D01*
X209440412Y-104400924D01*
X209470150Y-104384942D01*
X209475584Y-104381716D01*
X209522618Y-104346733D01*
X209558547Y-104302160D01*
X209564035Y-104293265D01*
X209597120Y-104237899D01*
X209597120Y-103894074D01*
X209596389Y-103892628D01*
X209596389Y-103698520D01*
X209596754Y-103655340D01*
X209595801Y-103628143D01*
X209590170Y-103615635D01*
X209576627Y-103612240D01*
X209571720Y-103612160D01*
X209551656Y-103616763D01*
X209548386Y-103631062D01*
X209561905Y-103655798D01*
X209571405Y-103668040D01*
X209596389Y-103698520D01*
X209596389Y-103892628D01*
X209565685Y-103831857D01*
X209538388Y-103783236D01*
X209506776Y-103735362D01*
X209474449Y-103693080D01*
X209445006Y-103661233D01*
X209429536Y-103648692D01*
X209414524Y-103642238D01*
X209389794Y-103637157D01*
X209352660Y-103633155D01*
X209300436Y-103629938D01*
X209234632Y-103627348D01*
X209172993Y-103625125D01*
X209114106Y-103622650D01*
X209062858Y-103620153D01*
X209024133Y-103617865D01*
X209009061Y-103616699D01*
X208954402Y-103611673D01*
X208961151Y-103644937D01*
X208964873Y-103665466D01*
X208971092Y-103702189D01*
X208979169Y-103751224D01*
X208988463Y-103808689D01*
X208997618Y-103866160D01*
X209012058Y-103954731D01*
X209024899Y-104026459D01*
X209036953Y-104084677D01*
X209049031Y-104132720D01*
X209061945Y-104173920D01*
X209076506Y-104211612D01*
X209088014Y-104237482D01*
X209125778Y-104306315D01*
X209167557Y-104356673D01*
X209215902Y-104390345D01*
X209273364Y-104409123D01*
X209340624Y-104414800D01*
X209340624Y-104735358D01*
X209279712Y-104725683D01*
X209211316Y-104700288D01*
X209151094Y-104661491D01*
X209120710Y-104632091D01*
X209093912Y-104599851D01*
X209070364Y-104566846D01*
X209049502Y-104531141D01*
X209030762Y-104490798D01*
X209013580Y-104443883D01*
X208997392Y-104388457D01*
X208981633Y-104322586D01*
X208965740Y-104244331D01*
X208949149Y-104151757D01*
X208931295Y-104042927D01*
X208911615Y-103915905D01*
X208911094Y-103912473D01*
X208895541Y-103824728D01*
X208877864Y-103751193D01*
X208858619Y-103693793D01*
X208838367Y-103654456D01*
X208834863Y-103649702D01*
X208805430Y-103627752D01*
X208763057Y-103616570D01*
X208711570Y-103615438D01*
X208654791Y-103623641D01*
X208596544Y-103640459D01*
X208540653Y-103665175D01*
X208490941Y-103697073D01*
X208466123Y-103718904D01*
X208420397Y-103774368D01*
X208387709Y-103837270D01*
X208367038Y-103910635D01*
X208357367Y-103997490D01*
X208356332Y-104044852D01*
X208364447Y-104162531D01*
X208388181Y-104269258D01*
X208427193Y-104364055D01*
X208481138Y-104445943D01*
X208507192Y-104475249D01*
X208533135Y-104504395D01*
X208552171Y-104530264D01*
X208560660Y-104547824D01*
X208560800Y-104549320D01*
X208558916Y-104558472D01*
X208550604Y-104563763D01*
X208531873Y-104565943D01*
X208498732Y-104565761D01*
X208476980Y-104565071D01*
X208393160Y-104562120D01*
X208336085Y-104448211D01*
X208293983Y-104355235D01*
X208262976Y-104264400D01*
X208241033Y-104168500D01*
X208226125Y-104060329D01*
X208225734Y-104056510D01*
X208220450Y-103953049D01*
X208224782Y-103849493D01*
X208238199Y-103752485D01*
X208255565Y-103682621D01*
X208265889Y-103649392D01*
X208273295Y-103625003D01*
X208276188Y-103614708D01*
X208276188Y-103614700D01*
X208266228Y-103614412D01*
X208237052Y-103614132D01*
X208189765Y-103613863D01*
X208125474Y-103613608D01*
X208045281Y-103613367D01*
X207950293Y-103613142D01*
X207841613Y-103612936D01*
X207720347Y-103612750D01*
X207587600Y-103612587D01*
X207444476Y-103612447D01*
X207292081Y-103612332D01*
X207131518Y-103612246D01*
X206963893Y-103612188D01*
X206790311Y-103612162D01*
X206736618Y-103612160D01*
X205196916Y-103612160D01*
X205174440Y-103589300D01*
X205158105Y-103563119D01*
X205142504Y-103519838D01*
X205133603Y-103485160D01*
X205123655Y-103442456D01*
X205114079Y-103403589D01*
X205106696Y-103375906D01*
X205105740Y-103372679D01*
X205098935Y-103345160D01*
X205096239Y-103324460D01*
X205093190Y-103305989D01*
X205085299Y-103275764D01*
X205077055Y-103248981D01*
X205065712Y-103213750D01*
X205050784Y-103166466D01*
X205034593Y-103114519D01*
X205025133Y-103083840D01*
X205009229Y-103035250D01*
X204992520Y-102989517D01*
X204977375Y-102952890D01*
X204969263Y-102936520D01*
X204952429Y-102902390D01*
X204935485Y-102861022D01*
X204928134Y-102840000D01*
X204913671Y-102800457D01*
X204894265Y-102754143D01*
X204877491Y-102718080D01*
X204860899Y-102684136D01*
X204847918Y-102656870D01*
X204841182Y-102641825D01*
X204841002Y-102641345D01*
X204829815Y-102619092D01*
X204809844Y-102586768D01*
X204784996Y-102550167D01*
X204759182Y-102515082D01*
X204739460Y-102490847D01*
X204714359Y-102459277D01*
X204692314Y-102426783D01*
X204684650Y-102413280D01*
X204670027Y-102386691D01*
X204652369Y-102359707D01*
X204628713Y-102328308D01*
X204596097Y-102288473D01*
X204570050Y-102257745D01*
X204528359Y-102209675D01*
X204494546Y-102173134D01*
X204463801Y-102143781D01*
X204431313Y-102117275D01*
X204392268Y-102089275D01*
X204356759Y-102065330D01*
X204290050Y-102021499D01*
X204235591Y-101987661D01*
X204189077Y-101962020D01*
X204146206Y-101942783D01*
X204102672Y-101928157D01*
X204054173Y-101916349D01*
X203996404Y-101905564D01*
X203958320Y-101899290D01*
X203942583Y-101896981D01*
X203924822Y-101894885D01*
X203904033Y-101892989D01*
X203879211Y-101891284D01*
X203849352Y-101889759D01*
X203813452Y-101888401D01*
X203770507Y-101887201D01*
X203719513Y-101886147D01*
X203659466Y-101885228D01*
X203589362Y-101884433D01*
X203508196Y-101883752D01*
X203414964Y-101883173D01*
X203308663Y-101882685D01*
X203188288Y-101882277D01*
X203052835Y-101881938D01*
X202901301Y-101881657D01*
X202732680Y-101881424D01*
X202545969Y-101881226D01*
X202340163Y-101881054D01*
X202292080Y-101881018D01*
X200732520Y-101879880D01*
X200690304Y-101902455D01*
X200656584Y-101925390D01*
X200617696Y-101959072D01*
X200579693Y-101997529D01*
X200548624Y-102034790D01*
X200534798Y-102055932D01*
X200511290Y-102101044D01*
X200494204Y-102140589D01*
X200482351Y-102179670D01*
X200474540Y-102223389D01*
X200469582Y-102276850D01*
X200466290Y-102345156D01*
X200466085Y-102350790D01*
X200464295Y-102433978D01*
X200465624Y-102498861D01*
X200470132Y-102547223D01*
X200473231Y-102564150D01*
X200490142Y-102622895D01*
X200513916Y-102681820D01*
X200542269Y-102736977D01*
X200572918Y-102784420D01*
X200603578Y-102820200D01*
X200631964Y-102840371D01*
X200633405Y-102840946D01*
X200647761Y-102842851D01*
X200679530Y-102844188D01*
X200729045Y-102844952D01*
X200796639Y-102845142D01*
X200882644Y-102844755D01*
X200987393Y-102843791D01*
X201111220Y-102842245D01*
X201254456Y-102840118D01*
X201417435Y-102837405D01*
X201545077Y-102835127D01*
X201700646Y-102832300D01*
X201837911Y-102829868D01*
X201958884Y-102827838D01*
X202065577Y-102826216D01*
X202160003Y-102825008D01*
X202244173Y-102824222D01*
X202320101Y-102823863D01*
X202389796Y-102823939D01*
X202455273Y-102824455D01*
X202518544Y-102825419D01*
X202581619Y-102826837D01*
X202646513Y-102828715D01*
X202715236Y-102831060D01*
X202789801Y-102833878D01*
X202872220Y-102837177D01*
X202932310Y-102839638D01*
X203067566Y-102845299D01*
X203184102Y-102850446D01*
X203283507Y-102855225D01*
X203367370Y-102859785D01*
X203437282Y-102864273D01*
X203494830Y-102868836D01*
X203541605Y-102873623D01*
X203579196Y-102878780D01*
X203609191Y-102884456D01*
X203633180Y-102890798D01*
X203652753Y-102897953D01*
X203669498Y-102906069D01*
X203673840Y-102908501D01*
X203719344Y-102939579D01*
X203770109Y-102982372D01*
X203823022Y-103033388D01*
X203874973Y-103089135D01*
X203922850Y-103146122D01*
X203963543Y-103200854D01*
X203993939Y-103249840D01*
X204009738Y-103285542D01*
X204023566Y-103319795D01*
X204041958Y-103354562D01*
X204044275Y-103358266D01*
X204057443Y-103386764D01*
X204070499Y-103427922D01*
X204081553Y-103474160D01*
X204088714Y-103517895D01*
X204090400Y-103543287D01*
X204084343Y-103562221D01*
X204070978Y-103583095D01*
X204051557Y-103607080D01*
X202091574Y-103612160D01*
X200131592Y-103617240D01*
X200090669Y-103644323D01*
X200065207Y-103663574D01*
X200031184Y-103692523D01*
X199994209Y-103726304D01*
X199976493Y-103743363D01*
X199946532Y-103773574D01*
X199923561Y-103799640D01*
X199904590Y-103826241D01*
X199886624Y-103858057D01*
X199866673Y-103899766D01*
X199844403Y-103949960D01*
X199818053Y-104012887D01*
X199797893Y-104068663D01*
X199783138Y-104121730D01*
X199772998Y-104176532D01*
X199766686Y-104237510D01*
X199763417Y-104309108D01*
X199762400Y-104395769D01*
X199762395Y-104412676D01*
X199763022Y-104484692D01*
X199765003Y-104541070D01*
X199768716Y-104586471D01*
X199774538Y-104625552D01*
X199782553Y-104661817D01*
X199803083Y-104731330D01*
X199828724Y-104799787D01*
X199857244Y-104862215D01*
X199886414Y-104913643D01*
X199909159Y-104944016D01*
X199929485Y-104968339D01*
X199942522Y-104987447D01*
X199945120Y-104994177D01*
X199952861Y-105010455D01*
X199973960Y-105035726D01*
X200005231Y-105067189D01*
X200043486Y-105102040D01*
X200085539Y-105137477D01*
X200128203Y-105170695D01*
X200168292Y-105198893D01*
X200198687Y-105217209D01*
X200204681Y-105218605D01*
X200217652Y-105219880D01*
X200238257Y-105221035D01*
X200267149Y-105222071D01*
X200304984Y-105222989D01*
X200352417Y-105223792D01*
X200410103Y-105224479D01*
X200478698Y-105225054D01*
X200558855Y-105225516D01*
X200651231Y-105225867D01*
X200756479Y-105226110D01*
X200875257Y-105226244D01*
X201008217Y-105226272D01*
X201156016Y-105226194D01*
X201319309Y-105226013D01*
X201498750Y-105225728D01*
X201694994Y-105225343D01*
X201908698Y-105224858D01*
X202140515Y-105224274D01*
X202391101Y-105223594D01*
X202661111Y-105222817D01*
X202765388Y-105222508D01*
X205307993Y-105214910D01*
X205334196Y-105241114D01*
X205351843Y-105264125D01*
X205360278Y-105285671D01*
X205360400Y-105287760D01*
X205359302Y-105317384D01*
X205356260Y-105361888D01*
X205351648Y-105417650D01*
X205345839Y-105481051D01*
X205339210Y-105548470D01*
X205332133Y-105616288D01*
X205324984Y-105680885D01*
X205318138Y-105738640D01*
X205311968Y-105785933D01*
X205306850Y-105819145D01*
X205304080Y-105832120D01*
X205292975Y-105871492D01*
X205282396Y-105910771D01*
X205279107Y-105923560D01*
X205252781Y-105989524D01*
X205210511Y-106043499D01*
X205153256Y-106084781D01*
X205081971Y-106112662D01*
X205004800Y-106125874D01*
X204987198Y-106126895D01*
X204950707Y-106128608D01*
X204896745Y-106130957D01*
X204826728Y-106133890D01*
X204742074Y-106137353D01*
X204644201Y-106141291D01*
X204534525Y-106145651D01*
X204414464Y-106150379D01*
X204285436Y-106155422D01*
X204148857Y-106160724D01*
X204006146Y-106166233D01*
X203858718Y-106171894D01*
X203707993Y-106177654D01*
X203555386Y-106183458D01*
X203402316Y-106189254D01*
X203250199Y-106194986D01*
X203100454Y-106200602D01*
X202954497Y-106206047D01*
X202813745Y-106211267D01*
X202679617Y-106216209D01*
X202553529Y-106220819D01*
X202436899Y-106225042D01*
X202331144Y-106228825D01*
X202237681Y-106232114D01*
X202157928Y-106234856D01*
X202093302Y-106236996D01*
X202045220Y-106238480D01*
X202033000Y-106238823D01*
X201960269Y-106242122D01*
X201903089Y-106247966D01*
X201856788Y-106256920D01*
X201836642Y-106262619D01*
X201787671Y-106281503D01*
X201732947Y-106308055D01*
X201679291Y-106338496D01*
X201633523Y-106369048D01*
X201610414Y-106387934D01*
X201586644Y-106415768D01*
X201558688Y-106457354D01*
X201529525Y-106507434D01*
X201502136Y-106560747D01*
X201479501Y-106612032D01*
X201471835Y-106632543D01*
X201460640Y-106666605D01*
X201454332Y-106693898D01*
X201452361Y-106721324D01*
X201454172Y-106755785D01*
X201458567Y-106798401D01*
X201470338Y-106871207D01*
X201487373Y-106927920D01*
X201509145Y-106967157D01*
X201529582Y-106985014D01*
X201548271Y-107000954D01*
X201566691Y-107025216D01*
X201567648Y-107026818D01*
X201584666Y-107046985D01*
X201613909Y-107068184D01*
X201658461Y-107092523D01*
X201677400Y-107101771D01*
X201718153Y-107120626D01*
X201751533Y-107133760D01*
X201783782Y-107142751D01*
X201821142Y-107149180D01*
X201869856Y-107154627D01*
X201895840Y-107157060D01*
X201926683Y-107159137D01*
X201975931Y-107161503D01*
X202041672Y-107164102D01*
X202121994Y-107166876D01*
X202214984Y-107169769D01*
X202318731Y-107172723D01*
X202431323Y-107175683D01*
X202550847Y-107178590D01*
X202675391Y-107181388D01*
X202800080Y-107183963D01*
X202959393Y-107186986D01*
X203105854Y-107189480D01*
X203242596Y-107191452D01*
X203372753Y-107192909D01*
X203499458Y-107193860D01*
X203625846Y-107194311D01*
X203625846Y-107346622D01*
X203581233Y-107346562D01*
X203452766Y-107345897D01*
X203322543Y-107344731D01*
X203187411Y-107343057D01*
X203044217Y-107340868D01*
X202889807Y-107338154D01*
X202795000Y-107336359D01*
X202641698Y-107333381D01*
X202507217Y-107330713D01*
X202390059Y-107328294D01*
X202288728Y-107326061D01*
X202201727Y-107323952D01*
X202127560Y-107321905D01*
X202064730Y-107319856D01*
X202011740Y-107317743D01*
X201967094Y-107315503D01*
X201929296Y-107313075D01*
X201896848Y-107310395D01*
X201868254Y-107307401D01*
X201842018Y-107304031D01*
X201816643Y-107300222D01*
X201790632Y-107295911D01*
X201779000Y-107293908D01*
X201715608Y-107279100D01*
X201651167Y-107257349D01*
X201590038Y-107230747D01*
X201536581Y-107201385D01*
X201495160Y-107171354D01*
X201472821Y-107147087D01*
X201449214Y-107117576D01*
X201422515Y-107091763D01*
X201418111Y-107088333D01*
X201383175Y-107051635D01*
X201353221Y-106999140D01*
X201329257Y-106934977D01*
X201312292Y-106863277D01*
X201303336Y-106788170D01*
X201303396Y-106713785D01*
X201311646Y-106652509D01*
X201327372Y-106590819D01*
X201348742Y-106532360D01*
X201378159Y-106471796D01*
X201418025Y-106403797D01*
X201437434Y-106373324D01*
X201484182Y-106308211D01*
X201533633Y-106255109D01*
X201589784Y-106211082D01*
X201656634Y-106173193D01*
X201738181Y-106138508D01*
X201775904Y-106124841D01*
X201821654Y-106109409D01*
X201858470Y-106098927D01*
X201892793Y-106092332D01*
X201931065Y-106088565D01*
X201979729Y-106086564D01*
X202012680Y-106085843D01*
X202058395Y-106084780D01*
X202120786Y-106083016D01*
X202198451Y-106080608D01*
X202289987Y-106077609D01*
X202393994Y-106074073D01*
X202509069Y-106070054D01*
X202633812Y-106065608D01*
X202766820Y-106060787D01*
X202906693Y-106055648D01*
X203052029Y-106050243D01*
X203201426Y-106044627D01*
X203353482Y-106038854D01*
X203506797Y-106032979D01*
X203659969Y-106027056D01*
X203811595Y-106021139D01*
X203960276Y-106015282D01*
X204104608Y-106009541D01*
X204243191Y-106003968D01*
X204374624Y-105998619D01*
X204497503Y-105993548D01*
X204610429Y-105988809D01*
X204712000Y-105984455D01*
X204800813Y-105980543D01*
X204875468Y-105977125D01*
X204934563Y-105974256D01*
X204976696Y-105971991D01*
X205000467Y-105970384D01*
X205004437Y-105969950D01*
X205051734Y-105960485D01*
X205085055Y-105946611D01*
X205108603Y-105924383D01*
X205126584Y-105889856D01*
X205142939Y-105839993D01*
X205151501Y-105802946D01*
X205160778Y-105750509D01*
X205170168Y-105687573D01*
X205179070Y-105619025D01*
X205186883Y-105549755D01*
X205193004Y-105484650D01*
X205196832Y-105428599D01*
X205197840Y-105393859D01*
X205197840Y-105367412D01*
X202716260Y-105374852D01*
X202448255Y-105375644D01*
X202199824Y-105376354D01*
X201970219Y-105376979D01*
X201758693Y-105377517D01*
X201564499Y-105377965D01*
X201386892Y-105378321D01*
X201225123Y-105378582D01*
X201078446Y-105378747D01*
X200946114Y-105378814D01*
X200827380Y-105378779D01*
X200721498Y-105378640D01*
X200627720Y-105378396D01*
X200545300Y-105378044D01*
X200473491Y-105377582D01*
X200411546Y-105377007D01*
X200358719Y-105376318D01*
X200314261Y-105375511D01*
X200277427Y-105374585D01*
X200247470Y-105373537D01*
X200223643Y-105372365D01*
X200205199Y-105371067D01*
X200191391Y-105369640D01*
X200181472Y-105368082D01*
X200177043Y-105367075D01*
X200135094Y-105350905D01*
X200084607Y-105323621D01*
X200029667Y-105288293D01*
X199974360Y-105247995D01*
X199922773Y-105205799D01*
X199878992Y-105164777D01*
X199847103Y-105128001D01*
X199836146Y-105110760D01*
X199820491Y-105086218D01*
X199796897Y-105055074D01*
X199778541Y-105033301D01*
X199755082Y-105003630D01*
X199733584Y-104968616D01*
X199712426Y-104924831D01*
X199689987Y-104868846D01*
X199664645Y-104797236D01*
X199659134Y-104780882D01*
X199640721Y-104719459D01*
X199627128Y-104657734D01*
X199617947Y-104591736D01*
X199612770Y-104517491D01*
X199611189Y-104431028D01*
X199612769Y-104329352D01*
X199612769Y-104329352D01*
G37*
X199612769Y-104329352D02*
X199615851Y-104243590D01*
X199620657Y-104173094D01*
X199628284Y-104112818D01*
X199639828Y-104057717D01*
X199656385Y-104002746D01*
X199679051Y-103942859D01*
X199708922Y-103873012D01*
X199714767Y-103859847D01*
X199738337Y-103808019D01*
X199757945Y-103769224D01*
X199777459Y-103737825D01*
X199800746Y-103708183D01*
X199831672Y-103674658D01*
X199865004Y-103640758D01*
X199932945Y-103576979D01*
X199994912Y-103528083D01*
X200031480Y-103504831D01*
X200102600Y-103464840D01*
X202010140Y-103462170D01*
X202247724Y-103461816D01*
X202465750Y-103461443D01*
X202664979Y-103461044D01*
X202846173Y-103460613D01*
X203010092Y-103460145D01*
X203157498Y-103459631D01*
X203289154Y-103459067D01*
X203405819Y-103458446D01*
X203508256Y-103457762D01*
X203597227Y-103457007D01*
X203673491Y-103456177D01*
X203737812Y-103455264D01*
X203790951Y-103454263D01*
X203833668Y-103453166D01*
X203866726Y-103451968D01*
X203890886Y-103450662D01*
X203906909Y-103449243D01*
X203915557Y-103447703D01*
X203917680Y-103446332D01*
X203911909Y-103428441D01*
X203902604Y-103413442D01*
X203889991Y-103390722D01*
X203878139Y-103359874D01*
X203876264Y-103353584D01*
X203857995Y-103310701D01*
X203827114Y-103261385D01*
X203787595Y-103210936D01*
X203743416Y-103164654D01*
X203717629Y-103142133D01*
X203682307Y-103113433D01*
X203647693Y-103084871D01*
X203622680Y-103063818D01*
X203611163Y-103054724D01*
X203598273Y-103046819D01*
X203582421Y-103039939D01*
X203562019Y-103033922D01*
X203535478Y-103028606D01*
X203501209Y-103023827D01*
X203457624Y-103019424D01*
X203403133Y-103015233D01*
X203336148Y-103011093D01*
X203255080Y-103006841D01*
X203158341Y-103002313D01*
X203044341Y-102997349D01*
X202923245Y-102992273D01*
X202833727Y-102988587D01*
X202753587Y-102985400D01*
X202680774Y-102982704D01*
X202613235Y-102980491D01*
X202548919Y-102978755D01*
X202485774Y-102977488D01*
X202421750Y-102976682D01*
X202354794Y-102976330D01*
X202282855Y-102976424D01*
X202203882Y-102976958D01*
X202115822Y-102977923D01*
X202016624Y-102979313D01*
X201904237Y-102981120D01*
X201776609Y-102983336D01*
X201631688Y-102985954D01*
X201556393Y-102987333D01*
X201402284Y-102990134D01*
X201267113Y-102992515D01*
X201149503Y-102994477D01*
X201048075Y-102996019D01*
X200961453Y-102997142D01*
X200888258Y-102997845D01*
X200827113Y-102998128D01*
X200776641Y-102997992D01*
X200735464Y-102997436D01*
X200702204Y-102996460D01*
X200675483Y-102995064D01*
X200653925Y-102993249D01*
X200636151Y-102991013D01*
X200620784Y-102988358D01*
X200615575Y-102987299D01*
X200575896Y-102977758D01*
X200541958Y-102967473D01*
X200520555Y-102958527D01*
X200519387Y-102957801D01*
X200504788Y-102942915D01*
X200483032Y-102914451D01*
X200456802Y-102876611D01*
X200428778Y-102833596D01*
X200401643Y-102789609D01*
X200378077Y-102748852D01*
X200360762Y-102715525D01*
X200353436Y-102697760D01*
X200333039Y-102616684D01*
X200318725Y-102525196D01*
X200310820Y-102429358D01*
X200309651Y-102335229D01*
X200315545Y-102248870D01*
X200325937Y-102187851D01*
X200359187Y-102079214D01*
X200404690Y-101981895D01*
X200461152Y-101897725D01*
X200527279Y-101828531D01*
X200601779Y-101776146D01*
X200625646Y-101763944D01*
X200681720Y-101737640D01*
X201310242Y-101728642D01*
X201459884Y-101726900D01*
X201627424Y-101725679D01*
X201810447Y-101724975D01*
X202006539Y-101724789D01*
X202213282Y-101725117D01*
X202428263Y-101725957D01*
X202649067Y-101727309D01*
X202873278Y-101729169D01*
X202951082Y-101729929D01*
X203963400Y-101740215D01*
X204090400Y-101772367D01*
X204167189Y-101794647D01*
X204241126Y-101821354D01*
X204307987Y-101850626D01*
X204363549Y-101880600D01*
X204403588Y-101909413D01*
X204405915Y-101911539D01*
X204426266Y-101927889D01*
X204441504Y-101935659D01*
X204442598Y-101935760D01*
X204457895Y-101942578D01*
X204484159Y-101961169D01*
X204518186Y-101988738D01*
X204556778Y-102022491D01*
X204596731Y-102059634D01*
X204634846Y-102097371D01*
X204666204Y-102130965D01*
X204708301Y-102178954D01*
X204739336Y-102215847D01*
X204762137Y-102245380D01*
X204779533Y-102271290D01*
X204794353Y-102297310D01*
X204799182Y-102306600D01*
X204819047Y-102338804D01*
X204842180Y-102367524D01*
X204847336Y-102372640D01*
X204867952Y-102396744D01*
X204890017Y-102429919D01*
X204900492Y-102448840D01*
X204921614Y-102487542D01*
X204945374Y-102526932D01*
X204955168Y-102541824D01*
X204977291Y-102578477D01*
X205002766Y-102627339D01*
X205028284Y-102681420D01*
X205050538Y-102733730D01*
X205065457Y-102774830D01*
X205076235Y-102804095D01*
X205092661Y-102843256D01*
X205111263Y-102884048D01*
X205112063Y-102885720D01*
X205132321Y-102932972D01*
X205152471Y-102988033D01*
X205167902Y-103038120D01*
X205181146Y-103084502D01*
X205195702Y-103130757D01*
X205208612Y-103167532D01*
X205209649Y-103170200D01*
X205224844Y-103213030D01*
X205239848Y-103262412D01*
X205253139Y-103312468D01*
X205263198Y-103357319D01*
X205268505Y-103391087D01*
X205268959Y-103399595D01*
X205271150Y-103426682D01*
X205275127Y-103443690D01*
X205277293Y-103445855D01*
X205282674Y-103447818D01*
X205292209Y-103449589D01*
X205306834Y-103451179D01*
X205327486Y-103452596D01*
X205355104Y-103453850D01*
X205390624Y-103454951D01*
X205434984Y-103455909D01*
X205489121Y-103456733D01*
X205553972Y-103457434D01*
X205630476Y-103458020D01*
X205719569Y-103458501D01*
X205822188Y-103458888D01*
X205939271Y-103459189D01*
X206071756Y-103459415D01*
X206220579Y-103459576D01*
X206386678Y-103459680D01*
X206570991Y-103459738D01*
X206774455Y-103459760D01*
X208374377Y-103459760D01*
X208398422Y-103434166D01*
X208446937Y-103393463D01*
X208508199Y-103358539D01*
X208574699Y-103333595D01*
X208581457Y-103331783D01*
X208599683Y-103327484D01*
X208618773Y-103324126D01*
X208640953Y-103321689D01*
X208668446Y-103320154D01*
X208703479Y-103319502D01*
X208748277Y-103319713D01*
X208805065Y-103320768D01*
X208876067Y-103322648D01*
X208963509Y-103325333D01*
X209039796Y-103327817D01*
X209129006Y-103330547D01*
X209213381Y-103332720D01*
X209290399Y-103334301D01*
X209357539Y-103335256D01*
X209412279Y-103335550D01*
X209452099Y-103335149D01*
X209474477Y-103334018D01*
X209476033Y-103333806D01*
X209535230Y-103319243D01*
X209576939Y-103296089D01*
X209602918Y-103262269D01*
X209614926Y-103215712D01*
X209615719Y-103169100D01*
X209612360Y-103104118D01*
X209645631Y-103104139D01*
X209671272Y-103107931D01*
X209685419Y-103122502D01*
X209688972Y-103130647D01*
X209697029Y-103161780D01*
X209704115Y-103206981D01*
X209709715Y-103260002D01*
X209713317Y-103314598D01*
X209714406Y-103364520D01*
X209712468Y-103403521D01*
X209711827Y-103408434D01*
X209707955Y-103441687D01*
X209709627Y-103462342D01*
X209718218Y-103477688D01*
X209726595Y-103486713D01*
X209749520Y-103509637D01*
X209749520Y-105346780D01*
X209727863Y-105374313D01*
X209706206Y-105401845D01*
X209710761Y-106152923D01*
X209715317Y-106904000D01*
X209676435Y-106904000D01*
X209656075Y-106903381D01*
X209618545Y-106901633D01*
X209566952Y-106898927D01*
X209504403Y-106895431D01*
X209434006Y-106891313D01*
X209360796Y-106886863D01*
X209270069Y-106882183D01*
X209161716Y-106878179D01*
X209038418Y-106874849D01*
X208902857Y-106872193D01*
X208757715Y-106870211D01*
X208605675Y-106868901D01*
X208449419Y-106868264D01*
X208425349Y-106868269D01*
X208425349Y-106455621D01*
X208606506Y-106454941D01*
X208792513Y-106453521D01*
X208930245Y-106452008D01*
X209548610Y-106444337D01*
X209542263Y-106112829D01*
X209540437Y-106022052D01*
X209538394Y-105928381D01*
X209536242Y-105836256D01*
X209534090Y-105750118D01*
X209532045Y-105674410D01*
X209530216Y-105613571D01*
X209529843Y-105602316D01*
X209527441Y-105543436D01*
X209524549Y-105491232D01*
X209521425Y-105449257D01*
X209518326Y-105421064D01*
X209515934Y-105410633D01*
X209511194Y-105408870D01*
X209498730Y-105407311D01*
X209477715Y-105405953D01*
X209447322Y-105404792D01*
X209406725Y-105403827D01*
X209355097Y-105403053D01*
X209291612Y-105402470D01*
X209215442Y-105402073D01*
X209125762Y-105401860D01*
X209021745Y-105401828D01*
X208902564Y-105401975D01*
X208767393Y-105402297D01*
X208615404Y-105402792D01*
X208445773Y-105403457D01*
X208257671Y-105404290D01*
X208050273Y-105405288D01*
X207998129Y-105405548D01*
X206488160Y-105413142D01*
X206488160Y-105542994D01*
X206486689Y-105608134D01*
X206482721Y-105680932D01*
X206476920Y-105751039D01*
X206472104Y-105793123D01*
X206461664Y-105863844D01*
X206448010Y-105945211D01*
X206432100Y-106032374D01*
X206414893Y-106120482D01*
X206397346Y-106204682D01*
X206380417Y-106280123D01*
X206365064Y-106341954D01*
X206360355Y-106359075D01*
X206349647Y-106398959D01*
X206342266Y-106430944D01*
X206339214Y-106450431D01*
X206339655Y-106454083D01*
X206350729Y-106454962D01*
X206379096Y-106454831D01*
X206421763Y-106453820D01*
X206475735Y-106452060D01*
X206538017Y-106449681D01*
X206605617Y-106446815D01*
X206675539Y-106443592D01*
X206744789Y-106440144D01*
X206810373Y-106436601D01*
X206869297Y-106433093D01*
X206918567Y-106429752D01*
X206945360Y-106427614D01*
X206991445Y-106424317D01*
X207038935Y-106422625D01*
X207091286Y-106422612D01*
X207151953Y-106424352D01*
X207224393Y-106427919D01*
X207312060Y-106433388D01*
X207356840Y-106436450D01*
X207437352Y-106441080D01*
X207536458Y-106445107D01*
X207652439Y-106448512D01*
X207783578Y-106451279D01*
X207928156Y-106453390D01*
X208084456Y-106454829D01*
X208250760Y-106455578D01*
X208425349Y-106455621D01*
X208425349Y-106868269D01*
X208291627Y-106868299D01*
X208134983Y-106869005D01*
X207982169Y-106870382D01*
X207835866Y-106872430D01*
X207698757Y-106875147D01*
X207573523Y-106878533D01*
X207462847Y-106882588D01*
X207370345Y-106887255D01*
X207279498Y-106892561D01*
X207204292Y-106896465D01*
X207140098Y-106898990D01*
X207082286Y-106900158D01*
X207026228Y-106899990D01*
X206967293Y-106898508D01*
X206900853Y-106895735D01*
X206822279Y-106891691D01*
X206791225Y-106889989D01*
X206704389Y-106885388D01*
X206611727Y-106880831D01*
X206518933Y-106876571D01*
X206431700Y-106872867D01*
X206355723Y-106869972D01*
X206318740Y-106868756D01*
X206123921Y-106862880D01*
X206116620Y-106885885D01*
X206107067Y-106900994D01*
X206085698Y-106927083D01*
X206055290Y-106960992D01*
X206018618Y-106999559D01*
X206001559Y-107016845D01*
X205936808Y-107078737D01*
X205877980Y-107128076D01*
X205819732Y-107169220D01*
X205797987Y-107182797D01*
X205732261Y-107221883D01*
X205680625Y-107250790D01*
X205640375Y-107270780D01*
X205608809Y-107283113D01*
X205583223Y-107289051D01*
X205568054Y-107290080D01*
X205538838Y-107292975D01*
X205499474Y-107300516D01*
X205463577Y-107309670D01*
X205450842Y-107313081D01*
X205436712Y-107316112D01*
X205419850Y-107318805D01*
X205398920Y-107321202D01*
X205372584Y-107323345D01*
X205339508Y-107325277D01*
X205298353Y-107327040D01*
X205247783Y-107328676D01*
X205186463Y-107330228D01*
X205113054Y-107331738D01*
X205026222Y-107333249D01*
X204924628Y-107334803D01*
X204806938Y-107336442D01*
X204671813Y-107338208D01*
X204517918Y-107340145D01*
X204491720Y-107340470D01*
X204307577Y-107342648D01*
X204140596Y-107344371D01*
X203987624Y-107345631D01*
X203845509Y-107346422D01*
X203711096Y-107346735D01*
X203625846Y-107346622D01*
X203625846Y-107194311D01*
X203755050Y-107194271D01*
X203890204Y-107193748D01*
X204034441Y-107192747D01*
X204190895Y-107191278D01*
X204362701Y-107189348D01*
X204471400Y-107188010D01*
X204631020Y-107185951D01*
X204771590Y-107184029D01*
X204894377Y-107182210D01*
X205000648Y-107180456D01*
X205091672Y-107178733D01*
X205168717Y-107177004D01*
X205233051Y-107175233D01*
X205285941Y-107173383D01*
X205328657Y-107171420D01*
X205362466Y-107169307D01*
X205388635Y-107167008D01*
X205408434Y-107164488D01*
X205423129Y-107161709D01*
X205426440Y-107160896D01*
X205469963Y-107150754D01*
X205515094Y-107142002D01*
X205538200Y-107138419D01*
X205585432Y-107125832D01*
X205641778Y-107100685D01*
X205702962Y-107065703D01*
X205764707Y-107023611D01*
X205822737Y-106977133D01*
X205872775Y-106928992D01*
X205880773Y-106920169D01*
X205933857Y-106860138D01*
X205522668Y-106866053D01*
X205414924Y-106867982D01*
X205297855Y-106870741D01*
X205176665Y-106874165D01*
X205056562Y-106878086D01*
X204942750Y-106882339D01*
X204840437Y-106886756D01*
X204778895Y-106889834D01*
X204698752Y-106893963D01*
X204625214Y-106897417D01*
X204560706Y-106900106D01*
X204507654Y-106901944D01*
X204468483Y-106902843D01*
X204445620Y-106902714D01*
X204440664Y-106902052D01*
X204439367Y-106890274D01*
X204440129Y-106862586D01*
X204442742Y-106823272D01*
X204446459Y-106781959D01*
X204452045Y-106705258D01*
X204452220Y-106633246D01*
X204446969Y-106554345D01*
X204446180Y-106545993D01*
X204441902Y-106498837D01*
X204438874Y-106459797D01*
X204437370Y-106432877D01*
X204437664Y-106422084D01*
X204437690Y-106422061D01*
X204449157Y-106421644D01*
X204480741Y-106422411D01*
X204532273Y-106424353D01*
X204603585Y-106427464D01*
X204694508Y-106431735D01*
X204804873Y-106437160D01*
X204934513Y-106443731D01*
X204986331Y-106446399D01*
X205067771Y-106449990D01*
X205160183Y-106453057D01*
X205254922Y-106455374D01*
X205343339Y-106456717D01*
X205390753Y-106456960D01*
X205590848Y-106456960D01*
X205597544Y-106241962D01*
X205599139Y-106177416D01*
X205600509Y-106095216D01*
X205601655Y-105998025D01*
X205602576Y-105888509D01*
X205603273Y-105769330D01*
X205603745Y-105643153D01*
X205603993Y-105512643D01*
X205604017Y-105380464D01*
X205603817Y-105249279D01*
X205603392Y-105121754D01*
X205602743Y-105000552D01*
X205601871Y-104888337D01*
X205600775Y-104787774D01*
X205599455Y-104701527D01*
X205597911Y-104632261D01*
X205597494Y-104618031D01*
X205590748Y-104401424D01*
X205244434Y-104408444D01*
X205148853Y-104410688D01*
X205047752Y-104413603D01*
X204946037Y-104417010D01*
X204848614Y-104420732D01*
X204760390Y-104424589D01*
X204686270Y-104428402D01*
X204669520Y-104429388D01*
X204603645Y-104433261D01*
X204544917Y-104436447D01*
X204496248Y-104438810D01*
X204460550Y-104440215D01*
X204440738Y-104440525D01*
X204437690Y-104440219D01*
X204437358Y-104429515D01*
X204438831Y-104402634D01*
X204441836Y-104363611D01*
X204446096Y-104316481D01*
X204446180Y-104315608D01*
X204451952Y-104235438D01*
X204452297Y-104163268D01*
X204447229Y-104087518D01*
X204446459Y-104079642D01*
X204442355Y-104033605D01*
X204439889Y-103995407D01*
X204439275Y-103969321D01*
X204440461Y-103959752D01*
X204451589Y-103958934D01*
X204480476Y-103959229D01*
X204524598Y-103960545D01*
X204581428Y-103962788D01*
X204648443Y-103965866D01*
X204723117Y-103969683D01*
X204753292Y-103971326D01*
X204836822Y-103975198D01*
X204937312Y-103978591D01*
X205052361Y-103981502D01*
X205179567Y-103983932D01*
X205316532Y-103985877D01*
X205460854Y-103987336D01*
X205610132Y-103988308D01*
X205761967Y-103988790D01*
X205913958Y-103988782D01*
X206063704Y-103988281D01*
X206208805Y-103987285D01*
X206346859Y-103985793D01*
X206475468Y-103983804D01*
X206592230Y-103981315D01*
X206694744Y-103978325D01*
X206780611Y-103974832D01*
X206818360Y-103972788D01*
X206889164Y-103968600D01*
X206955381Y-103964856D01*
X207013592Y-103961735D01*
X207060379Y-103959416D01*
X207092324Y-103958080D01*
X207102840Y-103957826D01*
X207143480Y-103957600D01*
X207143480Y-104445668D01*
X207072360Y-104439991D01*
X206984392Y-104433348D01*
X206898388Y-104427704D01*
X206811173Y-104422936D01*
X206719569Y-104418922D01*
X206620400Y-104415538D01*
X206510490Y-104412662D01*
X206386662Y-104410171D01*
X206245740Y-104407941D01*
X206243430Y-104407909D01*
X205790421Y-104401489D01*
X205783690Y-104541831D01*
X205782390Y-104580251D01*
X205781234Y-104636856D01*
X205780222Y-104709511D01*
X205779355Y-104796082D01*
X205778632Y-104894434D01*
X205778054Y-105002433D01*
X205777620Y-105117943D01*
X205777330Y-105238832D01*
X205777185Y-105362963D01*
X205777185Y-105488202D01*
X205777330Y-105612416D01*
X205777619Y-105733469D01*
X205778052Y-105849226D01*
X205778631Y-105957553D01*
X205779354Y-106056316D01*
X205780222Y-106143380D01*
X205781235Y-106216610D01*
X205782393Y-106273872D01*
X205783657Y-106312180D01*
X205790280Y-106456961D01*
X205976399Y-106456960D01*
X206162518Y-106456960D01*
X206176883Y-106429020D01*
X206188245Y-106401817D01*
X206202751Y-106359677D01*
X206218978Y-106307463D01*
X206235501Y-106250038D01*
X206250893Y-106192266D01*
X206263731Y-106139008D01*
X206268762Y-106115509D01*
X206287813Y-106009406D01*
X206304591Y-105892853D01*
X206318422Y-105772267D01*
X206328629Y-105654065D01*
X206334540Y-105544665D01*
X206335759Y-105478599D01*
X206335857Y-105415983D01*
X206336428Y-105370394D01*
X206337894Y-105338540D01*
X206340674Y-105317128D01*
X206345187Y-105302866D01*
X206351855Y-105292462D01*
X206360698Y-105283019D01*
X206385636Y-105258080D01*
X206846695Y-105258080D01*
X206922589Y-105258013D01*
X207016655Y-105257817D01*
X207126741Y-105257502D01*
X207250700Y-105257078D01*
X207386382Y-105256552D01*
X207531638Y-105255935D01*
X207684320Y-105255237D01*
X207842277Y-105254466D01*
X208003362Y-105253631D01*
X208165425Y-105252743D01*
X208326316Y-105251810D01*
X208407268Y-105251319D01*
X209506783Y-105244558D01*
X209499696Y-105163314D01*
X209496606Y-105123037D01*
X209496303Y-105099341D01*
X209499213Y-105088623D01*
X209505762Y-105087280D01*
X209508583Y-105088199D01*
X209529182Y-105094194D01*
X209557972Y-105100588D01*
X209560838Y-105101135D01*
X209597120Y-105107942D01*
X209597120Y-104648615D01*
X209551627Y-104683340D01*
X209492238Y-104716507D01*
X209424343Y-104734289D01*
X209352111Y-104737182D01*
X209340624Y-104735358D01*
X209340624Y-104414800D01*
X209383589Y-104413908D01*
X209414205Y-104409931D01*
X209440412Y-104400924D01*
X209470150Y-104384942D01*
X209475584Y-104381716D01*
X209522618Y-104346733D01*
X209558547Y-104302160D01*
X209564035Y-104293265D01*
X209597120Y-104237899D01*
X209597120Y-103894074D01*
X209596389Y-103892628D01*
X209596389Y-103698520D01*
X209596754Y-103655340D01*
X209595801Y-103628143D01*
X209590170Y-103615635D01*
X209576627Y-103612240D01*
X209571720Y-103612160D01*
X209551656Y-103616763D01*
X209548386Y-103631062D01*
X209561905Y-103655798D01*
X209571405Y-103668040D01*
X209596389Y-103698520D01*
X209596389Y-103892628D01*
X209565685Y-103831857D01*
X209538388Y-103783236D01*
X209506776Y-103735362D01*
X209474449Y-103693080D01*
X209445006Y-103661233D01*
X209429536Y-103648692D01*
X209414524Y-103642238D01*
X209389794Y-103637157D01*
X209352660Y-103633155D01*
X209300436Y-103629938D01*
X209234632Y-103627348D01*
X209172993Y-103625125D01*
X209114106Y-103622650D01*
X209062858Y-103620153D01*
X209024133Y-103617865D01*
X209009061Y-103616699D01*
X208954402Y-103611673D01*
X208961151Y-103644937D01*
X208964873Y-103665466D01*
X208971092Y-103702189D01*
X208979169Y-103751224D01*
X208988463Y-103808689D01*
X208997618Y-103866160D01*
X209012058Y-103954731D01*
X209024899Y-104026459D01*
X209036953Y-104084677D01*
X209049031Y-104132720D01*
X209061945Y-104173920D01*
X209076506Y-104211612D01*
X209088014Y-104237482D01*
X209125778Y-104306315D01*
X209167557Y-104356673D01*
X209215902Y-104390345D01*
X209273364Y-104409123D01*
X209340624Y-104414800D01*
X209340624Y-104735358D01*
X209279712Y-104725683D01*
X209211316Y-104700288D01*
X209151094Y-104661491D01*
X209120710Y-104632091D01*
X209093912Y-104599851D01*
X209070364Y-104566846D01*
X209049502Y-104531141D01*
X209030762Y-104490798D01*
X209013580Y-104443883D01*
X208997392Y-104388457D01*
X208981633Y-104322586D01*
X208965740Y-104244331D01*
X208949149Y-104151757D01*
X208931295Y-104042927D01*
X208911615Y-103915905D01*
X208911094Y-103912473D01*
X208895541Y-103824728D01*
X208877864Y-103751193D01*
X208858619Y-103693793D01*
X208838367Y-103654456D01*
X208834863Y-103649702D01*
X208805430Y-103627752D01*
X208763057Y-103616570D01*
X208711570Y-103615438D01*
X208654791Y-103623641D01*
X208596544Y-103640459D01*
X208540653Y-103665175D01*
X208490941Y-103697073D01*
X208466123Y-103718904D01*
X208420397Y-103774368D01*
X208387709Y-103837270D01*
X208367038Y-103910635D01*
X208357367Y-103997490D01*
X208356332Y-104044852D01*
X208364447Y-104162531D01*
X208388181Y-104269258D01*
X208427193Y-104364055D01*
X208481138Y-104445943D01*
X208507192Y-104475249D01*
X208533135Y-104504395D01*
X208552171Y-104530264D01*
X208560660Y-104547824D01*
X208560800Y-104549320D01*
X208558916Y-104558472D01*
X208550604Y-104563763D01*
X208531873Y-104565943D01*
X208498732Y-104565761D01*
X208476980Y-104565071D01*
X208393160Y-104562120D01*
X208336085Y-104448211D01*
X208293983Y-104355235D01*
X208262976Y-104264400D01*
X208241033Y-104168500D01*
X208226125Y-104060329D01*
X208225734Y-104056510D01*
X208220450Y-103953049D01*
X208224782Y-103849493D01*
X208238199Y-103752485D01*
X208255565Y-103682621D01*
X208265889Y-103649392D01*
X208273295Y-103625003D01*
X208276188Y-103614708D01*
X208276188Y-103614700D01*
X208266228Y-103614412D01*
X208237052Y-103614132D01*
X208189765Y-103613863D01*
X208125474Y-103613608D01*
X208045281Y-103613367D01*
X207950293Y-103613142D01*
X207841613Y-103612936D01*
X207720347Y-103612750D01*
X207587600Y-103612587D01*
X207444476Y-103612447D01*
X207292081Y-103612332D01*
X207131518Y-103612246D01*
X206963893Y-103612188D01*
X206790311Y-103612162D01*
X206736618Y-103612160D01*
X205196916Y-103612160D01*
X205174440Y-103589300D01*
X205158105Y-103563119D01*
X205142504Y-103519838D01*
X205133603Y-103485160D01*
X205123655Y-103442456D01*
X205114079Y-103403589D01*
X205106696Y-103375906D01*
X205105740Y-103372679D01*
X205098935Y-103345160D01*
X205096239Y-103324460D01*
X205093190Y-103305989D01*
X205085299Y-103275764D01*
X205077055Y-103248981D01*
X205065712Y-103213750D01*
X205050784Y-103166466D01*
X205034593Y-103114519D01*
X205025133Y-103083840D01*
X205009229Y-103035250D01*
X204992520Y-102989517D01*
X204977375Y-102952890D01*
X204969263Y-102936520D01*
X204952429Y-102902390D01*
X204935485Y-102861022D01*
X204928134Y-102840000D01*
X204913671Y-102800457D01*
X204894265Y-102754143D01*
X204877491Y-102718080D01*
X204860899Y-102684136D01*
X204847918Y-102656870D01*
X204841182Y-102641825D01*
X204841002Y-102641345D01*
X204829815Y-102619092D01*
X204809844Y-102586768D01*
X204784996Y-102550167D01*
X204759182Y-102515082D01*
X204739460Y-102490847D01*
X204714359Y-102459277D01*
X204692314Y-102426783D01*
X204684650Y-102413280D01*
X204670027Y-102386691D01*
X204652369Y-102359707D01*
X204628713Y-102328308D01*
X204596097Y-102288473D01*
X204570050Y-102257745D01*
X204528359Y-102209675D01*
X204494546Y-102173134D01*
X204463801Y-102143781D01*
X204431313Y-102117275D01*
X204392268Y-102089275D01*
X204356759Y-102065330D01*
X204290050Y-102021499D01*
X204235591Y-101987661D01*
X204189077Y-101962020D01*
X204146206Y-101942783D01*
X204102672Y-101928157D01*
X204054173Y-101916349D01*
X203996404Y-101905564D01*
X203958320Y-101899290D01*
X203942583Y-101896981D01*
X203924822Y-101894885D01*
X203904033Y-101892989D01*
X203879211Y-101891284D01*
X203849352Y-101889759D01*
X203813452Y-101888401D01*
X203770507Y-101887201D01*
X203719513Y-101886147D01*
X203659466Y-101885228D01*
X203589362Y-101884433D01*
X203508196Y-101883752D01*
X203414964Y-101883173D01*
X203308663Y-101882685D01*
X203188288Y-101882277D01*
X203052835Y-101881938D01*
X202901301Y-101881657D01*
X202732680Y-101881424D01*
X202545969Y-101881226D01*
X202340163Y-101881054D01*
X202292080Y-101881018D01*
X200732520Y-101879880D01*
X200690304Y-101902455D01*
X200656584Y-101925390D01*
X200617696Y-101959072D01*
X200579693Y-101997529D01*
X200548624Y-102034790D01*
X200534798Y-102055932D01*
X200511290Y-102101044D01*
X200494204Y-102140589D01*
X200482351Y-102179670D01*
X200474540Y-102223389D01*
X200469582Y-102276850D01*
X200466290Y-102345156D01*
X200466085Y-102350790D01*
X200464295Y-102433978D01*
X200465624Y-102498861D01*
X200470132Y-102547223D01*
X200473231Y-102564150D01*
X200490142Y-102622895D01*
X200513916Y-102681820D01*
X200542269Y-102736977D01*
X200572918Y-102784420D01*
X200603578Y-102820200D01*
X200631964Y-102840371D01*
X200633405Y-102840946D01*
X200647761Y-102842851D01*
X200679530Y-102844188D01*
X200729045Y-102844952D01*
X200796639Y-102845142D01*
X200882644Y-102844755D01*
X200987393Y-102843791D01*
X201111220Y-102842245D01*
X201254456Y-102840118D01*
X201417435Y-102837405D01*
X201545077Y-102835127D01*
X201700646Y-102832300D01*
X201837911Y-102829868D01*
X201958884Y-102827838D01*
X202065577Y-102826216D01*
X202160003Y-102825008D01*
X202244173Y-102824222D01*
X202320101Y-102823863D01*
X202389796Y-102823939D01*
X202455273Y-102824455D01*
X202518544Y-102825419D01*
X202581619Y-102826837D01*
X202646513Y-102828715D01*
X202715236Y-102831060D01*
X202789801Y-102833878D01*
X202872220Y-102837177D01*
X202932310Y-102839638D01*
X203067566Y-102845299D01*
X203184102Y-102850446D01*
X203283507Y-102855225D01*
X203367370Y-102859785D01*
X203437282Y-102864273D01*
X203494830Y-102868836D01*
X203541605Y-102873623D01*
X203579196Y-102878780D01*
X203609191Y-102884456D01*
X203633180Y-102890798D01*
X203652753Y-102897953D01*
X203669498Y-102906069D01*
X203673840Y-102908501D01*
X203719344Y-102939579D01*
X203770109Y-102982372D01*
X203823022Y-103033388D01*
X203874973Y-103089135D01*
X203922850Y-103146122D01*
X203963543Y-103200854D01*
X203993939Y-103249840D01*
X204009738Y-103285542D01*
X204023566Y-103319795D01*
X204041958Y-103354562D01*
X204044275Y-103358266D01*
X204057443Y-103386764D01*
X204070499Y-103427922D01*
X204081553Y-103474160D01*
X204088714Y-103517895D01*
X204090400Y-103543287D01*
X204084343Y-103562221D01*
X204070978Y-103583095D01*
X204051557Y-103607080D01*
X202091574Y-103612160D01*
X200131592Y-103617240D01*
X200090669Y-103644323D01*
X200065207Y-103663574D01*
X200031184Y-103692523D01*
X199994209Y-103726304D01*
X199976493Y-103743363D01*
X199946532Y-103773574D01*
X199923561Y-103799640D01*
X199904590Y-103826241D01*
X199886624Y-103858057D01*
X199866673Y-103899766D01*
X199844403Y-103949960D01*
X199818053Y-104012887D01*
X199797893Y-104068663D01*
X199783138Y-104121730D01*
X199772998Y-104176532D01*
X199766686Y-104237510D01*
X199763417Y-104309108D01*
X199762400Y-104395769D01*
X199762395Y-104412676D01*
X199763022Y-104484692D01*
X199765003Y-104541070D01*
X199768716Y-104586471D01*
X199774538Y-104625552D01*
X199782553Y-104661817D01*
X199803083Y-104731330D01*
X199828724Y-104799787D01*
X199857244Y-104862215D01*
X199886414Y-104913643D01*
X199909159Y-104944016D01*
X199929485Y-104968339D01*
X199942522Y-104987447D01*
X199945120Y-104994177D01*
X199952861Y-105010455D01*
X199973960Y-105035726D01*
X200005231Y-105067189D01*
X200043486Y-105102040D01*
X200085539Y-105137477D01*
X200128203Y-105170695D01*
X200168292Y-105198893D01*
X200198687Y-105217209D01*
X200204681Y-105218605D01*
X200217652Y-105219880D01*
X200238257Y-105221035D01*
X200267149Y-105222071D01*
X200304984Y-105222989D01*
X200352417Y-105223792D01*
X200410103Y-105224479D01*
X200478698Y-105225054D01*
X200558855Y-105225516D01*
X200651231Y-105225867D01*
X200756479Y-105226110D01*
X200875257Y-105226244D01*
X201008217Y-105226272D01*
X201156016Y-105226194D01*
X201319309Y-105226013D01*
X201498750Y-105225728D01*
X201694994Y-105225343D01*
X201908698Y-105224858D01*
X202140515Y-105224274D01*
X202391101Y-105223594D01*
X202661111Y-105222817D01*
X202765388Y-105222508D01*
X205307993Y-105214910D01*
X205334196Y-105241114D01*
X205351843Y-105264125D01*
X205360278Y-105285671D01*
X205360400Y-105287760D01*
X205359302Y-105317384D01*
X205356260Y-105361888D01*
X205351648Y-105417650D01*
X205345839Y-105481051D01*
X205339210Y-105548470D01*
X205332133Y-105616288D01*
X205324984Y-105680885D01*
X205318138Y-105738640D01*
X205311968Y-105785933D01*
X205306850Y-105819145D01*
X205304080Y-105832120D01*
X205292975Y-105871492D01*
X205282396Y-105910771D01*
X205279107Y-105923560D01*
X205252781Y-105989524D01*
X205210511Y-106043499D01*
X205153256Y-106084781D01*
X205081971Y-106112662D01*
X205004800Y-106125874D01*
X204987198Y-106126895D01*
X204950707Y-106128608D01*
X204896745Y-106130957D01*
X204826728Y-106133890D01*
X204742074Y-106137353D01*
X204644201Y-106141291D01*
X204534525Y-106145651D01*
X204414464Y-106150379D01*
X204285436Y-106155422D01*
X204148857Y-106160724D01*
X204006146Y-106166233D01*
X203858718Y-106171894D01*
X203707993Y-106177654D01*
X203555386Y-106183458D01*
X203402316Y-106189254D01*
X203250199Y-106194986D01*
X203100454Y-106200602D01*
X202954497Y-106206047D01*
X202813745Y-106211267D01*
X202679617Y-106216209D01*
X202553529Y-106220819D01*
X202436899Y-106225042D01*
X202331144Y-106228825D01*
X202237681Y-106232114D01*
X202157928Y-106234856D01*
X202093302Y-106236996D01*
X202045220Y-106238480D01*
X202033000Y-106238823D01*
X201960269Y-106242122D01*
X201903089Y-106247966D01*
X201856788Y-106256920D01*
X201836642Y-106262619D01*
X201787671Y-106281503D01*
X201732947Y-106308055D01*
X201679291Y-106338496D01*
X201633523Y-106369048D01*
X201610414Y-106387934D01*
X201586644Y-106415768D01*
X201558688Y-106457354D01*
X201529525Y-106507434D01*
X201502136Y-106560747D01*
X201479501Y-106612032D01*
X201471835Y-106632543D01*
X201460640Y-106666605D01*
X201454332Y-106693898D01*
X201452361Y-106721324D01*
X201454172Y-106755785D01*
X201458567Y-106798401D01*
X201470338Y-106871207D01*
X201487373Y-106927920D01*
X201509145Y-106967157D01*
X201529582Y-106985014D01*
X201548271Y-107000954D01*
X201566691Y-107025216D01*
X201567648Y-107026818D01*
X201584666Y-107046985D01*
X201613909Y-107068184D01*
X201658461Y-107092523D01*
X201677400Y-107101771D01*
X201718153Y-107120626D01*
X201751533Y-107133760D01*
X201783782Y-107142751D01*
X201821142Y-107149180D01*
X201869856Y-107154627D01*
X201895840Y-107157060D01*
X201926683Y-107159137D01*
X201975931Y-107161503D01*
X202041672Y-107164102D01*
X202121994Y-107166876D01*
X202214984Y-107169769D01*
X202318731Y-107172723D01*
X202431323Y-107175683D01*
X202550847Y-107178590D01*
X202675391Y-107181388D01*
X202800080Y-107183963D01*
X202959393Y-107186986D01*
X203105854Y-107189480D01*
X203242596Y-107191452D01*
X203372753Y-107192909D01*
X203499458Y-107193860D01*
X203625846Y-107194311D01*
X203625846Y-107346622D01*
X203581233Y-107346562D01*
X203452766Y-107345897D01*
X203322543Y-107344731D01*
X203187411Y-107343057D01*
X203044217Y-107340868D01*
X202889807Y-107338154D01*
X202795000Y-107336359D01*
X202641698Y-107333381D01*
X202507217Y-107330713D01*
X202390059Y-107328294D01*
X202288728Y-107326061D01*
X202201727Y-107323952D01*
X202127560Y-107321905D01*
X202064730Y-107319856D01*
X202011740Y-107317743D01*
X201967094Y-107315503D01*
X201929296Y-107313075D01*
X201896848Y-107310395D01*
X201868254Y-107307401D01*
X201842018Y-107304031D01*
X201816643Y-107300222D01*
X201790632Y-107295911D01*
X201779000Y-107293908D01*
X201715608Y-107279100D01*
X201651167Y-107257349D01*
X201590038Y-107230747D01*
X201536581Y-107201385D01*
X201495160Y-107171354D01*
X201472821Y-107147087D01*
X201449214Y-107117576D01*
X201422515Y-107091763D01*
X201418111Y-107088333D01*
X201383175Y-107051635D01*
X201353221Y-106999140D01*
X201329257Y-106934977D01*
X201312292Y-106863277D01*
X201303336Y-106788170D01*
X201303396Y-106713785D01*
X201311646Y-106652509D01*
X201327372Y-106590819D01*
X201348742Y-106532360D01*
X201378159Y-106471796D01*
X201418025Y-106403797D01*
X201437434Y-106373324D01*
X201484182Y-106308211D01*
X201533633Y-106255109D01*
X201589784Y-106211082D01*
X201656634Y-106173193D01*
X201738181Y-106138508D01*
X201775904Y-106124841D01*
X201821654Y-106109409D01*
X201858470Y-106098927D01*
X201892793Y-106092332D01*
X201931065Y-106088565D01*
X201979729Y-106086564D01*
X202012680Y-106085843D01*
X202058395Y-106084780D01*
X202120786Y-106083016D01*
X202198451Y-106080608D01*
X202289987Y-106077609D01*
X202393994Y-106074073D01*
X202509069Y-106070054D01*
X202633812Y-106065608D01*
X202766820Y-106060787D01*
X202906693Y-106055648D01*
X203052029Y-106050243D01*
X203201426Y-106044627D01*
X203353482Y-106038854D01*
X203506797Y-106032979D01*
X203659969Y-106027056D01*
X203811595Y-106021139D01*
X203960276Y-106015282D01*
X204104608Y-106009541D01*
X204243191Y-106003968D01*
X204374624Y-105998619D01*
X204497503Y-105993548D01*
X204610429Y-105988809D01*
X204712000Y-105984455D01*
X204800813Y-105980543D01*
X204875468Y-105977125D01*
X204934563Y-105974256D01*
X204976696Y-105971991D01*
X205000467Y-105970384D01*
X205004437Y-105969950D01*
X205051734Y-105960485D01*
X205085055Y-105946611D01*
X205108603Y-105924383D01*
X205126584Y-105889856D01*
X205142939Y-105839993D01*
X205151501Y-105802946D01*
X205160778Y-105750509D01*
X205170168Y-105687573D01*
X205179070Y-105619025D01*
X205186883Y-105549755D01*
X205193004Y-105484650D01*
X205196832Y-105428599D01*
X205197840Y-105393859D01*
X205197840Y-105367412D01*
X202716260Y-105374852D01*
X202448255Y-105375644D01*
X202199824Y-105376354D01*
X201970219Y-105376979D01*
X201758693Y-105377517D01*
X201564499Y-105377965D01*
X201386892Y-105378321D01*
X201225123Y-105378582D01*
X201078446Y-105378747D01*
X200946114Y-105378814D01*
X200827380Y-105378779D01*
X200721498Y-105378640D01*
X200627720Y-105378396D01*
X200545300Y-105378044D01*
X200473491Y-105377582D01*
X200411546Y-105377007D01*
X200358719Y-105376318D01*
X200314261Y-105375511D01*
X200277427Y-105374585D01*
X200247470Y-105373537D01*
X200223643Y-105372365D01*
X200205199Y-105371067D01*
X200191391Y-105369640D01*
X200181472Y-105368082D01*
X200177043Y-105367075D01*
X200135094Y-105350905D01*
X200084607Y-105323621D01*
X200029667Y-105288293D01*
X199974360Y-105247995D01*
X199922773Y-105205799D01*
X199878992Y-105164777D01*
X199847103Y-105128001D01*
X199836146Y-105110760D01*
X199820491Y-105086218D01*
X199796897Y-105055074D01*
X199778541Y-105033301D01*
X199755082Y-105003630D01*
X199733584Y-104968616D01*
X199712426Y-104924831D01*
X199689987Y-104868846D01*
X199664645Y-104797236D01*
X199659134Y-104780882D01*
X199640721Y-104719459D01*
X199627128Y-104657734D01*
X199617947Y-104591736D01*
X199612770Y-104517491D01*
X199611189Y-104431028D01*
X199612769Y-104329352D01*
G36*
X207453360Y-102386722D02*
X207481260Y-102388850D01*
X207529083Y-102391398D01*
X207596881Y-102394366D01*
X207684706Y-102397758D01*
X207792610Y-102401575D01*
X207920646Y-102405818D01*
X208068865Y-102410491D01*
X208237321Y-102415594D01*
X208334130Y-102418453D01*
X208539261Y-102424465D01*
X208445828Y-102329973D01*
X208371481Y-102245799D01*
X208314265Y-102159559D01*
X208271221Y-102066127D01*
X208244668Y-101981480D01*
X208232375Y-101916466D01*
X208224900Y-101838321D01*
X208222317Y-101753673D01*
X208224697Y-101669151D01*
X208232114Y-101591380D01*
X208239882Y-101546609D01*
X208275509Y-101425155D01*
X208326502Y-101316581D01*
X208391915Y-101221647D01*
X208470804Y-101141115D01*
X208562224Y-101075746D01*
X208665228Y-101026302D01*
X208778873Y-100993544D01*
X208902212Y-100978234D01*
X208946880Y-100977138D01*
X209074092Y-100986080D01*
X209192394Y-101013122D01*
X209302530Y-101058594D01*
X209405248Y-101122821D01*
X209501293Y-101206130D01*
X209524898Y-101230565D01*
X209590580Y-101313425D01*
X209647616Y-101410582D01*
X209693318Y-101516908D01*
X209718765Y-101600480D01*
X209730568Y-101662043D01*
X209739233Y-101736207D01*
X209744420Y-101816046D01*
X209745790Y-101894637D01*
X209743002Y-101965054D01*
X209738611Y-102004386D01*
X209722431Y-102077822D01*
X209697136Y-102154505D01*
X209665051Y-102229415D01*
X209628497Y-102297533D01*
X209589800Y-102353838D01*
X209563464Y-102382800D01*
X209545694Y-102401041D01*
X209536626Y-102413266D01*
X209536335Y-102414385D01*
X209541777Y-102424468D01*
X209556880Y-102448098D01*
X209579612Y-102482205D01*
X209607944Y-102523716D01*
X209622520Y-102544771D01*
X209657618Y-102596146D01*
X209682100Y-102634541D01*
X209697664Y-102663142D01*
X209706007Y-102685131D01*
X209708827Y-102703695D01*
X209708880Y-102706735D01*
X209708880Y-102744499D01*
X209625060Y-102734217D01*
X209600933Y-102732543D01*
X209558243Y-102731018D01*
X209498748Y-102729644D01*
X209424203Y-102728419D01*
X209336367Y-102727344D01*
X209236995Y-102726420D01*
X209127845Y-102725646D01*
X209038320Y-102725170D01*
X209038320Y-102428325D01*
X209105104Y-102427869D01*
X209156296Y-102426382D01*
X209196613Y-102423419D01*
X209230775Y-102418533D01*
X209263499Y-102411280D01*
X209287099Y-102404838D01*
X209384960Y-102368839D01*
X209466430Y-102321369D01*
X209532415Y-102261622D01*
X209583817Y-102188794D01*
X209619003Y-102109559D01*
X209646506Y-102002152D01*
X209655720Y-101893161D01*
X209646349Y-101786747D01*
X209643152Y-101770459D01*
X209613882Y-101680309D01*
X209566520Y-101596579D01*
X209502828Y-101521381D01*
X209424571Y-101456824D01*
X209340403Y-101408251D01*
X209267125Y-101375918D01*
X209201361Y-101353524D01*
X209134440Y-101338725D01*
X209057688Y-101329176D01*
X209043351Y-101327932D01*
X208914819Y-101324743D01*
X208797682Y-101337129D01*
X208692505Y-101364774D01*
X208599852Y-101407367D01*
X208520290Y-101464591D01*
X208454384Y-101536135D01*
X208402698Y-101621683D01*
X208371631Y-101701070D01*
X208363162Y-101743156D01*
X208358419Y-101798665D01*
X208357377Y-101861047D01*
X208360015Y-101923753D01*
X208366309Y-101980236D01*
X208372721Y-102011960D01*
X208407060Y-102111243D01*
X208455221Y-102195966D01*
X208518049Y-102267206D01*
X208596388Y-102326037D01*
X208637000Y-102348788D01*
X208696922Y-102377139D01*
X208753492Y-102398204D01*
X208811434Y-102412918D01*
X208875471Y-102422219D01*
X208950324Y-102427041D01*
X209038320Y-102428325D01*
X209038320Y-102725170D01*
X209010673Y-102725023D01*
X208887236Y-102724551D01*
X208759291Y-102724229D01*
X208628595Y-102724059D01*
X208496905Y-102724041D01*
X208365977Y-102724173D01*
X208237569Y-102724458D01*
X208113437Y-102724894D01*
X207995338Y-102725483D01*
X207885028Y-102726223D01*
X207784265Y-102727116D01*
X207694806Y-102728161D01*
X207618407Y-102729360D01*
X207556825Y-102730711D01*
X207511817Y-102732215D01*
X207485140Y-102733872D01*
X207483840Y-102734012D01*
X207397480Y-102743869D01*
X207397480Y-102380751D01*
X207453360Y-102386722D01*
X207453360Y-102386722D01*
G37*
X207453360Y-102386722D02*
X207481260Y-102388850D01*
X207529083Y-102391398D01*
X207596881Y-102394366D01*
X207684706Y-102397758D01*
X207792610Y-102401575D01*
X207920646Y-102405818D01*
X208068865Y-102410491D01*
X208237321Y-102415594D01*
X208334130Y-102418453D01*
X208539261Y-102424465D01*
X208445828Y-102329973D01*
X208371481Y-102245799D01*
X208314265Y-102159559D01*
X208271221Y-102066127D01*
X208244668Y-101981480D01*
X208232375Y-101916466D01*
X208224900Y-101838321D01*
X208222317Y-101753673D01*
X208224697Y-101669151D01*
X208232114Y-101591380D01*
X208239882Y-101546609D01*
X208275509Y-101425155D01*
X208326502Y-101316581D01*
X208391915Y-101221647D01*
X208470804Y-101141115D01*
X208562224Y-101075746D01*
X208665228Y-101026302D01*
X208778873Y-100993544D01*
X208902212Y-100978234D01*
X208946880Y-100977138D01*
X209074092Y-100986080D01*
X209192394Y-101013122D01*
X209302530Y-101058594D01*
X209405248Y-101122821D01*
X209501293Y-101206130D01*
X209524898Y-101230565D01*
X209590580Y-101313425D01*
X209647616Y-101410582D01*
X209693318Y-101516908D01*
X209718765Y-101600480D01*
X209730568Y-101662043D01*
X209739233Y-101736207D01*
X209744420Y-101816046D01*
X209745790Y-101894637D01*
X209743002Y-101965054D01*
X209738611Y-102004386D01*
X209722431Y-102077822D01*
X209697136Y-102154505D01*
X209665051Y-102229415D01*
X209628497Y-102297533D01*
X209589800Y-102353838D01*
X209563464Y-102382800D01*
X209545694Y-102401041D01*
X209536626Y-102413266D01*
X209536335Y-102414385D01*
X209541777Y-102424468D01*
X209556880Y-102448098D01*
X209579612Y-102482205D01*
X209607944Y-102523716D01*
X209622520Y-102544771D01*
X209657618Y-102596146D01*
X209682100Y-102634541D01*
X209697664Y-102663142D01*
X209706007Y-102685131D01*
X209708827Y-102703695D01*
X209708880Y-102706735D01*
X209708880Y-102744499D01*
X209625060Y-102734217D01*
X209600933Y-102732543D01*
X209558243Y-102731018D01*
X209498748Y-102729644D01*
X209424203Y-102728419D01*
X209336367Y-102727344D01*
X209236995Y-102726420D01*
X209127845Y-102725646D01*
X209038320Y-102725170D01*
X209038320Y-102428325D01*
X209105104Y-102427869D01*
X209156296Y-102426382D01*
X209196613Y-102423419D01*
X209230775Y-102418533D01*
X209263499Y-102411280D01*
X209287099Y-102404838D01*
X209384960Y-102368839D01*
X209466430Y-102321369D01*
X209532415Y-102261622D01*
X209583817Y-102188794D01*
X209619003Y-102109559D01*
X209646506Y-102002152D01*
X209655720Y-101893161D01*
X209646349Y-101786747D01*
X209643152Y-101770459D01*
X209613882Y-101680309D01*
X209566520Y-101596579D01*
X209502828Y-101521381D01*
X209424571Y-101456824D01*
X209340403Y-101408251D01*
X209267125Y-101375918D01*
X209201361Y-101353524D01*
X209134440Y-101338725D01*
X209057688Y-101329176D01*
X209043351Y-101327932D01*
X208914819Y-101324743D01*
X208797682Y-101337129D01*
X208692505Y-101364774D01*
X208599852Y-101407367D01*
X208520290Y-101464591D01*
X208454384Y-101536135D01*
X208402698Y-101621683D01*
X208371631Y-101701070D01*
X208363162Y-101743156D01*
X208358419Y-101798665D01*
X208357377Y-101861047D01*
X208360015Y-101923753D01*
X208366309Y-101980236D01*
X208372721Y-102011960D01*
X208407060Y-102111243D01*
X208455221Y-102195966D01*
X208518049Y-102267206D01*
X208596388Y-102326037D01*
X208637000Y-102348788D01*
X208696922Y-102377139D01*
X208753492Y-102398204D01*
X208811434Y-102412918D01*
X208875471Y-102422219D01*
X208950324Y-102427041D01*
X209038320Y-102428325D01*
X209038320Y-102725170D01*
X209010673Y-102725023D01*
X208887236Y-102724551D01*
X208759291Y-102724229D01*
X208628595Y-102724059D01*
X208496905Y-102724041D01*
X208365977Y-102724173D01*
X208237569Y-102724458D01*
X208113437Y-102724894D01*
X207995338Y-102725483D01*
X207885028Y-102726223D01*
X207784265Y-102727116D01*
X207694806Y-102728161D01*
X207618407Y-102729360D01*
X207556825Y-102730711D01*
X207511817Y-102732215D01*
X207485140Y-102733872D01*
X207483840Y-102734012D01*
X207397480Y-102743869D01*
X207397480Y-102380751D01*
X207453360Y-102386722D01*
G36*
X208221334Y-99927320D02*
X208224276Y-99895102D01*
X208230137Y-99855995D01*
X208239561Y-99807968D01*
X208251436Y-99755334D01*
X208264651Y-99702407D01*
X208278091Y-99653499D01*
X208290645Y-99612924D01*
X208301201Y-99584995D01*
X208306753Y-99575335D01*
X208318791Y-99575612D01*
X208343793Y-99583891D01*
X208376867Y-99598473D01*
X208384952Y-99602465D01*
X208424682Y-99620921D01*
X208462804Y-99636036D01*
X208491473Y-99644719D01*
X208492898Y-99645002D01*
X208517912Y-99651842D01*
X208528433Y-99663127D01*
X208530320Y-99679740D01*
X208522871Y-99705918D01*
X208506170Y-99718462D01*
X208459868Y-99749145D01*
X208416277Y-99796275D01*
X208378957Y-99855998D01*
X208378629Y-99856643D01*
X208349123Y-99936660D01*
X208337433Y-100023246D01*
X208343815Y-100112749D01*
X208356952Y-100168084D01*
X208372637Y-100212985D01*
X208390851Y-100246914D01*
X208417022Y-100279008D01*
X208432011Y-100294457D01*
X208486896Y-100339038D01*
X208543450Y-100363833D01*
X208603477Y-100369376D01*
X208654971Y-100360373D01*
X208701521Y-100337280D01*
X208745016Y-100295540D01*
X208784245Y-100236741D01*
X208818000Y-100162471D01*
X208828543Y-100132360D01*
X208836625Y-100104456D01*
X208847796Y-100061632D01*
X208860824Y-100008821D01*
X208874474Y-99950959D01*
X208880606Y-99924080D01*
X208910092Y-99809895D01*
X208943074Y-99714380D01*
X208980218Y-99636084D01*
X209022190Y-99573554D01*
X209059413Y-99534154D01*
X209122028Y-99491031D01*
X209193010Y-99465810D01*
X209270340Y-99458932D01*
X209351374Y-99470675D01*
X209433333Y-99501947D01*
X209508893Y-99551280D01*
X209576649Y-99617037D01*
X209635193Y-99697581D01*
X209683119Y-99791277D01*
X209719019Y-99896486D01*
X209719756Y-99899270D01*
X209729396Y-99948446D01*
X209737134Y-100012234D01*
X209742718Y-100084996D01*
X209745897Y-100161091D01*
X209746421Y-100234878D01*
X209744039Y-100300719D01*
X209739614Y-100345720D01*
X209724304Y-100432244D01*
X209703930Y-100517070D01*
X209680666Y-100591259D01*
X209678692Y-100596605D01*
X209657431Y-100653431D01*
X209589175Y-100624320D01*
X209546884Y-100608301D01*
X209503966Y-100595259D01*
X209472660Y-100588536D01*
X209440954Y-100580929D01*
X209425756Y-100568149D01*
X209427178Y-100548692D01*
X209445334Y-100521056D01*
X209480337Y-100483739D01*
X209480561Y-100483519D01*
X209528247Y-100427018D01*
X209571467Y-100357817D01*
X209606090Y-100283531D01*
X209627988Y-100211778D01*
X209628036Y-100211549D01*
X209635572Y-100150225D01*
X209635979Y-100080150D01*
X209629807Y-100009131D01*
X209617604Y-99944969D01*
X209606872Y-99911077D01*
X209571004Y-99841638D01*
X209524508Y-99787913D01*
X209468782Y-99750987D01*
X209405226Y-99731944D01*
X209372462Y-99729475D01*
X209324613Y-99732780D01*
X209283114Y-99744554D01*
X209246847Y-99766384D01*
X209214692Y-99799862D01*
X209185533Y-99846576D01*
X209158250Y-99908117D01*
X209131725Y-99986075D01*
X209104840Y-100082038D01*
X209093785Y-100125617D01*
X209067907Y-100225132D01*
X209043508Y-100307316D01*
X209019298Y-100374970D01*
X208993991Y-100430892D01*
X208966296Y-100477883D01*
X208934926Y-100518744D01*
X208898592Y-100556273D01*
X208893375Y-100561110D01*
X208836123Y-100600311D01*
X208767890Y-100624866D01*
X208692204Y-100634353D01*
X208612594Y-100628350D01*
X208532587Y-100606438D01*
X208528080Y-100604698D01*
X208473383Y-100575689D01*
X208417228Y-100532955D01*
X208365507Y-100481714D01*
X208324117Y-100427182D01*
X208320064Y-100420565D01*
X208280975Y-100339499D01*
X208250650Y-100244668D01*
X208229997Y-100141046D01*
X208219923Y-100033605D01*
X208221334Y-99927320D01*
X208221334Y-99927320D01*
G37*
X208221334Y-99927320D02*
X208224276Y-99895102D01*
X208230137Y-99855995D01*
X208239561Y-99807968D01*
X208251436Y-99755334D01*
X208264651Y-99702407D01*
X208278091Y-99653499D01*
X208290645Y-99612924D01*
X208301201Y-99584995D01*
X208306753Y-99575335D01*
X208318791Y-99575612D01*
X208343793Y-99583891D01*
X208376867Y-99598473D01*
X208384952Y-99602465D01*
X208424682Y-99620921D01*
X208462804Y-99636036D01*
X208491473Y-99644719D01*
X208492898Y-99645002D01*
X208517912Y-99651842D01*
X208528433Y-99663127D01*
X208530320Y-99679740D01*
X208522871Y-99705918D01*
X208506170Y-99718462D01*
X208459868Y-99749145D01*
X208416277Y-99796275D01*
X208378957Y-99855998D01*
X208378629Y-99856643D01*
X208349123Y-99936660D01*
X208337433Y-100023246D01*
X208343815Y-100112749D01*
X208356952Y-100168084D01*
X208372637Y-100212985D01*
X208390851Y-100246914D01*
X208417022Y-100279008D01*
X208432011Y-100294457D01*
X208486896Y-100339038D01*
X208543450Y-100363833D01*
X208603477Y-100369376D01*
X208654971Y-100360373D01*
X208701521Y-100337280D01*
X208745016Y-100295540D01*
X208784245Y-100236741D01*
X208818000Y-100162471D01*
X208828543Y-100132360D01*
X208836625Y-100104456D01*
X208847796Y-100061632D01*
X208860824Y-100008821D01*
X208874474Y-99950959D01*
X208880606Y-99924080D01*
X208910092Y-99809895D01*
X208943074Y-99714380D01*
X208980218Y-99636084D01*
X209022190Y-99573554D01*
X209059413Y-99534154D01*
X209122028Y-99491031D01*
X209193010Y-99465810D01*
X209270340Y-99458932D01*
X209351374Y-99470675D01*
X209433333Y-99501947D01*
X209508893Y-99551280D01*
X209576649Y-99617037D01*
X209635193Y-99697581D01*
X209683119Y-99791277D01*
X209719019Y-99896486D01*
X209719756Y-99899270D01*
X209729396Y-99948446D01*
X209737134Y-100012234D01*
X209742718Y-100084996D01*
X209745897Y-100161091D01*
X209746421Y-100234878D01*
X209744039Y-100300719D01*
X209739614Y-100345720D01*
X209724304Y-100432244D01*
X209703930Y-100517070D01*
X209680666Y-100591259D01*
X209678692Y-100596605D01*
X209657431Y-100653431D01*
X209589175Y-100624320D01*
X209546884Y-100608301D01*
X209503966Y-100595259D01*
X209472660Y-100588536D01*
X209440954Y-100580929D01*
X209425756Y-100568149D01*
X209427178Y-100548692D01*
X209445334Y-100521056D01*
X209480337Y-100483739D01*
X209480561Y-100483519D01*
X209528247Y-100427018D01*
X209571467Y-100357817D01*
X209606090Y-100283531D01*
X209627988Y-100211778D01*
X209628036Y-100211549D01*
X209635572Y-100150225D01*
X209635979Y-100080150D01*
X209629807Y-100009131D01*
X209617604Y-99944969D01*
X209606872Y-99911077D01*
X209571004Y-99841638D01*
X209524508Y-99787913D01*
X209468782Y-99750987D01*
X209405226Y-99731944D01*
X209372462Y-99729475D01*
X209324613Y-99732780D01*
X209283114Y-99744554D01*
X209246847Y-99766384D01*
X209214692Y-99799862D01*
X209185533Y-99846576D01*
X209158250Y-99908117D01*
X209131725Y-99986075D01*
X209104840Y-100082038D01*
X209093785Y-100125617D01*
X209067907Y-100225132D01*
X209043508Y-100307316D01*
X209019298Y-100374970D01*
X208993991Y-100430892D01*
X208966296Y-100477883D01*
X208934926Y-100518744D01*
X208898592Y-100556273D01*
X208893375Y-100561110D01*
X208836123Y-100600311D01*
X208767890Y-100624866D01*
X208692204Y-100634353D01*
X208612594Y-100628350D01*
X208532587Y-100606438D01*
X208528080Y-100604698D01*
X208473383Y-100575689D01*
X208417228Y-100532955D01*
X208365507Y-100481714D01*
X208324117Y-100427182D01*
X208320064Y-100420565D01*
X208280975Y-100339499D01*
X208250650Y-100244668D01*
X208229997Y-100141046D01*
X208219923Y-100033605D01*
X208221334Y-99927320D01*
G36*
X205661668Y-102379780D02*
X205675544Y-102315356D01*
X205710356Y-102211206D01*
X205758042Y-102121714D01*
X205818117Y-102047533D01*
X205890095Y-101989314D01*
X205938351Y-101962525D01*
X206005560Y-101930680D01*
X206464701Y-101934206D01*
X206579386Y-101935024D01*
X206675571Y-101935464D01*
X206755074Y-101935379D01*
X206819713Y-101934619D01*
X206871307Y-101933036D01*
X206911673Y-101930480D01*
X206942629Y-101926803D01*
X206965995Y-101921856D01*
X206983588Y-101915490D01*
X206997227Y-101907557D01*
X207008729Y-101897906D01*
X207017525Y-101888945D01*
X207030387Y-101872637D01*
X207037770Y-101853901D01*
X207041118Y-101826697D01*
X207041880Y-101787202D01*
X207041880Y-101711364D01*
X207077258Y-101714342D01*
X207097665Y-101717300D01*
X207109868Y-101725218D01*
X207118076Y-101743204D01*
X207125758Y-101773200D01*
X207132113Y-101815180D01*
X207135615Y-101872306D01*
X207135982Y-101939571D01*
X207135729Y-101951000D01*
X207133722Y-102006571D01*
X207130560Y-102046642D01*
X207125494Y-102076030D01*
X207117776Y-102099552D01*
X207110182Y-102115512D01*
X207074061Y-102164623D01*
X207025202Y-102203663D01*
X206992765Y-102219600D01*
X206964061Y-102230513D01*
X206993753Y-102268557D01*
X207036794Y-102330659D01*
X207078217Y-102402774D01*
X207113255Y-102476055D01*
X207132006Y-102525040D01*
X207152506Y-102602671D01*
X207167179Y-102690632D01*
X207175169Y-102780856D01*
X207175620Y-102865271D01*
X207172376Y-102906040D01*
X207151897Y-103018655D01*
X207119088Y-103115165D01*
X207073900Y-103195658D01*
X207016283Y-103260220D01*
X206946189Y-103308935D01*
X206938752Y-103312807D01*
X206868542Y-103337489D01*
X206793560Y-103344791D01*
X206756428Y-103340240D01*
X206756428Y-103022366D01*
X206809075Y-103019882D01*
X206855578Y-103011023D01*
X206855882Y-103010932D01*
X206912773Y-102983734D01*
X206961055Y-102940427D01*
X206999780Y-102883726D01*
X207027996Y-102816343D01*
X207044753Y-102740993D01*
X207049102Y-102660388D01*
X207040091Y-102577242D01*
X207026666Y-102523270D01*
X206999246Y-102453425D01*
X206961023Y-102382088D01*
X206916916Y-102317846D01*
X206892749Y-102289520D01*
X206848840Y-102242651D01*
X206706600Y-102236515D01*
X206644129Y-102233804D01*
X206578769Y-102230938D01*
X206518213Y-102228259D01*
X206470154Y-102226103D01*
X206469587Y-102226077D01*
X206425351Y-102224401D01*
X206397948Y-102224584D01*
X206383938Y-102227114D01*
X206379879Y-102232483D01*
X206381284Y-102238633D01*
X206384877Y-102253474D01*
X206391132Y-102285049D01*
X206399439Y-102330040D01*
X206409187Y-102385128D01*
X206419767Y-102446992D01*
X206421755Y-102458846D01*
X206433251Y-102525807D01*
X206444913Y-102590564D01*
X206455905Y-102648693D01*
X206465388Y-102695774D01*
X206472527Y-102727385D01*
X206472745Y-102728240D01*
X206501414Y-102814724D01*
X206539155Y-102889027D01*
X206584453Y-102948960D01*
X206635791Y-102992332D01*
X206666755Y-103008628D01*
X206706151Y-103018581D01*
X206756428Y-103022366D01*
X206756428Y-103340240D01*
X206718066Y-103335538D01*
X206646318Y-103310551D01*
X206582574Y-103270656D01*
X206547458Y-103237128D01*
X206508783Y-103187268D01*
X206475372Y-103130374D01*
X206446427Y-103064102D01*
X206421152Y-102986113D01*
X206398751Y-102894064D01*
X206378426Y-102785614D01*
X206365605Y-102702840D01*
X206349853Y-102596633D01*
X206335846Y-102508667D01*
X206323120Y-102436983D01*
X206311214Y-102379622D01*
X206299664Y-102334626D01*
X206288009Y-102300035D01*
X206275784Y-102273891D01*
X206262528Y-102254234D01*
X206258558Y-102249614D01*
X206232555Y-102234205D01*
X206192373Y-102226149D01*
X206142649Y-102225139D01*
X206088023Y-102230864D01*
X206033135Y-102243017D01*
X205982625Y-102261288D01*
X205966915Y-102269030D01*
X205929981Y-102293057D01*
X205893927Y-102323055D01*
X205881929Y-102335232D01*
X205836997Y-102399427D01*
X205805158Y-102475714D01*
X205786177Y-102560846D01*
X205779822Y-102651575D01*
X205785859Y-102744652D01*
X205804054Y-102836831D01*
X205834173Y-102924864D01*
X205875983Y-103005502D01*
X205929250Y-103075498D01*
X205935666Y-103082271D01*
X205969685Y-103119265D01*
X205987574Y-103145067D01*
X205988710Y-103161618D01*
X205972468Y-103170859D01*
X205938226Y-103174727D01*
X205905787Y-103175280D01*
X205821254Y-103175280D01*
X205769082Y-103070323D01*
X205712242Y-102935658D01*
X205672749Y-102796593D01*
X205650935Y-102655806D01*
X205647130Y-102515976D01*
X205661668Y-102379780D01*
X205661668Y-102379780D01*
G37*
X205661668Y-102379780D02*
X205675544Y-102315356D01*
X205710356Y-102211206D01*
X205758042Y-102121714D01*
X205818117Y-102047533D01*
X205890095Y-101989314D01*
X205938351Y-101962525D01*
X206005560Y-101930680D01*
X206464701Y-101934206D01*
X206579386Y-101935024D01*
X206675571Y-101935464D01*
X206755074Y-101935379D01*
X206819713Y-101934619D01*
X206871307Y-101933036D01*
X206911673Y-101930480D01*
X206942629Y-101926803D01*
X206965995Y-101921856D01*
X206983588Y-101915490D01*
X206997227Y-101907557D01*
X207008729Y-101897906D01*
X207017525Y-101888945D01*
X207030387Y-101872637D01*
X207037770Y-101853901D01*
X207041118Y-101826697D01*
X207041880Y-101787202D01*
X207041880Y-101711364D01*
X207077258Y-101714342D01*
X207097665Y-101717300D01*
X207109868Y-101725218D01*
X207118076Y-101743204D01*
X207125758Y-101773200D01*
X207132113Y-101815180D01*
X207135615Y-101872306D01*
X207135982Y-101939571D01*
X207135729Y-101951000D01*
X207133722Y-102006571D01*
X207130560Y-102046642D01*
X207125494Y-102076030D01*
X207117776Y-102099552D01*
X207110182Y-102115512D01*
X207074061Y-102164623D01*
X207025202Y-102203663D01*
X206992765Y-102219600D01*
X206964061Y-102230513D01*
X206993753Y-102268557D01*
X207036794Y-102330659D01*
X207078217Y-102402774D01*
X207113255Y-102476055D01*
X207132006Y-102525040D01*
X207152506Y-102602671D01*
X207167179Y-102690632D01*
X207175169Y-102780856D01*
X207175620Y-102865271D01*
X207172376Y-102906040D01*
X207151897Y-103018655D01*
X207119088Y-103115165D01*
X207073900Y-103195658D01*
X207016283Y-103260220D01*
X206946189Y-103308935D01*
X206938752Y-103312807D01*
X206868542Y-103337489D01*
X206793560Y-103344791D01*
X206756428Y-103340240D01*
X206756428Y-103022366D01*
X206809075Y-103019882D01*
X206855578Y-103011023D01*
X206855882Y-103010932D01*
X206912773Y-102983734D01*
X206961055Y-102940427D01*
X206999780Y-102883726D01*
X207027996Y-102816343D01*
X207044753Y-102740993D01*
X207049102Y-102660388D01*
X207040091Y-102577242D01*
X207026666Y-102523270D01*
X206999246Y-102453425D01*
X206961023Y-102382088D01*
X206916916Y-102317846D01*
X206892749Y-102289520D01*
X206848840Y-102242651D01*
X206706600Y-102236515D01*
X206644129Y-102233804D01*
X206578769Y-102230938D01*
X206518213Y-102228259D01*
X206470154Y-102226103D01*
X206469587Y-102226077D01*
X206425351Y-102224401D01*
X206397948Y-102224584D01*
X206383938Y-102227114D01*
X206379879Y-102232483D01*
X206381284Y-102238633D01*
X206384877Y-102253474D01*
X206391132Y-102285049D01*
X206399439Y-102330040D01*
X206409187Y-102385128D01*
X206419767Y-102446992D01*
X206421755Y-102458846D01*
X206433251Y-102525807D01*
X206444913Y-102590564D01*
X206455905Y-102648693D01*
X206465388Y-102695774D01*
X206472527Y-102727385D01*
X206472745Y-102728240D01*
X206501414Y-102814724D01*
X206539155Y-102889027D01*
X206584453Y-102948960D01*
X206635791Y-102992332D01*
X206666755Y-103008628D01*
X206706151Y-103018581D01*
X206756428Y-103022366D01*
X206756428Y-103340240D01*
X206718066Y-103335538D01*
X206646318Y-103310551D01*
X206582574Y-103270656D01*
X206547458Y-103237128D01*
X206508783Y-103187268D01*
X206475372Y-103130374D01*
X206446427Y-103064102D01*
X206421152Y-102986113D01*
X206398751Y-102894064D01*
X206378426Y-102785614D01*
X206365605Y-102702840D01*
X206349853Y-102596633D01*
X206335846Y-102508667D01*
X206323120Y-102436983D01*
X206311214Y-102379622D01*
X206299664Y-102334626D01*
X206288009Y-102300035D01*
X206275784Y-102273891D01*
X206262528Y-102254234D01*
X206258558Y-102249614D01*
X206232555Y-102234205D01*
X206192373Y-102226149D01*
X206142649Y-102225139D01*
X206088023Y-102230864D01*
X206033135Y-102243017D01*
X205982625Y-102261288D01*
X205966915Y-102269030D01*
X205929981Y-102293057D01*
X205893927Y-102323055D01*
X205881929Y-102335232D01*
X205836997Y-102399427D01*
X205805158Y-102475714D01*
X205786177Y-102560846D01*
X205779822Y-102651575D01*
X205785859Y-102744652D01*
X205804054Y-102836831D01*
X205834173Y-102924864D01*
X205875983Y-103005502D01*
X205929250Y-103075498D01*
X205935666Y-103082271D01*
X205969685Y-103119265D01*
X205987574Y-103145067D01*
X205988710Y-103161618D01*
X205972468Y-103170859D01*
X205938226Y-103174727D01*
X205905787Y-103175280D01*
X205821254Y-103175280D01*
X205769082Y-103070323D01*
X205712242Y-102935658D01*
X205672749Y-102796593D01*
X205650935Y-102655806D01*
X205647130Y-102515976D01*
X205661668Y-102379780D01*
G36*
X205648259Y-97354522D02*
X205654245Y-97267097D01*
X205665557Y-97188083D01*
X205671505Y-97160560D01*
X205703774Y-97062429D01*
X205749604Y-96974052D01*
X205807184Y-96897912D01*
X205874703Y-96836496D01*
X205934440Y-96799742D01*
X205995400Y-96769400D01*
X206464407Y-96772841D01*
X206575519Y-96773597D01*
X206668154Y-96774056D01*
X206744152Y-96774171D01*
X206805353Y-96773893D01*
X206853598Y-96773171D01*
X206890728Y-96771958D01*
X206918583Y-96770204D01*
X206939004Y-96767860D01*
X206953832Y-96764878D01*
X206964906Y-96761209D01*
X206968943Y-96759422D01*
X207003813Y-96739981D01*
X207025635Y-96718354D01*
X207037269Y-96689300D01*
X207041571Y-96647579D01*
X207041880Y-96625674D01*
X207041880Y-96550084D01*
X207077423Y-96553062D01*
X207098725Y-96556268D01*
X207111042Y-96564903D01*
X207119132Y-96584375D01*
X207124707Y-96606840D01*
X207130667Y-96644643D01*
X207134726Y-96694501D01*
X207136818Y-96750485D01*
X207136877Y-96806667D01*
X207134836Y-96857119D01*
X207130630Y-96895912D01*
X207128077Y-96907756D01*
X207102189Y-96967121D01*
X207060802Y-97013465D01*
X207019275Y-97040149D01*
X206966212Y-97067057D01*
X206988008Y-97094767D01*
X207021838Y-97142892D01*
X207057290Y-97201834D01*
X207090574Y-97264545D01*
X207117900Y-97323979D01*
X207132696Y-97363709D01*
X207146466Y-97416421D01*
X207158943Y-97480599D01*
X207169056Y-97548835D01*
X207175738Y-97613720D01*
X207177917Y-97667845D01*
X207177751Y-97675780D01*
X207175687Y-97707273D01*
X207171703Y-97748359D01*
X207168103Y-97778733D01*
X207146748Y-97880518D01*
X207111095Y-97970224D01*
X207061958Y-98046643D01*
X207000151Y-98108564D01*
X206926489Y-98154778D01*
X206909800Y-98162286D01*
X206860583Y-98175192D01*
X206800764Y-98179077D01*
X206790960Y-98178302D01*
X206790960Y-97859661D01*
X206855255Y-97846411D01*
X206912992Y-97819583D01*
X206959107Y-97780235D01*
X206959884Y-97779318D01*
X207007199Y-97707680D01*
X207037189Y-97626803D01*
X207049608Y-97538462D01*
X207044207Y-97444431D01*
X207020739Y-97346485D01*
X207020478Y-97345692D01*
X206995820Y-97284014D01*
X206963518Y-97222111D01*
X206927206Y-97166018D01*
X206890519Y-97121771D01*
X206879196Y-97111015D01*
X206864945Y-97099346D01*
X206850140Y-97090173D01*
X206832109Y-97083098D01*
X206808177Y-97077720D01*
X206775672Y-97073639D01*
X206731922Y-97070455D01*
X206674254Y-97067768D01*
X206599996Y-97065179D01*
X206565660Y-97064100D01*
X206498922Y-97062134D01*
X206449913Y-97061082D01*
X206416058Y-97061115D01*
X206394780Y-97062404D01*
X206383502Y-97065119D01*
X206379648Y-97069432D01*
X206380642Y-97075513D01*
X206380954Y-97076343D01*
X206384726Y-97091582D01*
X206391164Y-97123542D01*
X206399650Y-97168892D01*
X206409562Y-97224303D01*
X206420282Y-97286443D01*
X206422472Y-97299405D01*
X206436743Y-97383353D01*
X206448594Y-97450318D01*
X206458773Y-97503390D01*
X206468027Y-97545660D01*
X206477107Y-97580215D01*
X206486760Y-97610146D01*
X206497735Y-97638541D01*
X206510781Y-97668490D01*
X206513207Y-97673845D01*
X206548150Y-97739920D01*
X206586092Y-97788941D01*
X206629958Y-97824178D01*
X206662964Y-97841208D01*
X206725174Y-97858279D01*
X206790960Y-97859661D01*
X206790960Y-98178302D01*
X206737866Y-98174102D01*
X206679414Y-98160429D01*
X206670232Y-98157165D01*
X206604228Y-98121445D01*
X206544996Y-98066927D01*
X206492907Y-97994099D01*
X206448333Y-97903448D01*
X206422747Y-97832635D01*
X206412113Y-97792960D01*
X206399883Y-97736742D01*
X206386751Y-97667630D01*
X206373411Y-97589271D01*
X206360875Y-97507515D01*
X206345178Y-97401322D01*
X206331217Y-97313542D01*
X206318179Y-97242430D01*
X206305251Y-97186240D01*
X206291621Y-97143227D01*
X206276475Y-97111643D01*
X206259001Y-97089745D01*
X206238384Y-97075786D01*
X206213812Y-97068019D01*
X206184473Y-97064700D01*
X206154353Y-97064072D01*
X206064009Y-97072431D01*
X205984991Y-97097192D01*
X205917906Y-97138001D01*
X205863364Y-97194501D01*
X205826985Y-97255303D01*
X205797076Y-97340173D01*
X205782015Y-97433358D01*
X205781157Y-97530916D01*
X205793856Y-97628904D01*
X205819465Y-97723380D01*
X205857337Y-97810400D01*
X205906828Y-97886023D01*
X205935635Y-97918235D01*
X205962910Y-97948192D01*
X205982297Y-97974732D01*
X205990279Y-97992987D01*
X205990320Y-97993871D01*
X205988961Y-98004106D01*
X205982186Y-98010091D01*
X205965944Y-98012695D01*
X205936186Y-98012788D01*
X205906500Y-98011871D01*
X205822680Y-98008920D01*
X205764408Y-97892080D01*
X205720173Y-97794147D01*
X205688039Y-97699723D01*
X205665450Y-97600252D01*
X205653848Y-97522230D01*
X205647995Y-97442264D01*
X205648259Y-97354522D01*
X205648259Y-97354522D01*
G37*
X205648259Y-97354522D02*
X205654245Y-97267097D01*
X205665557Y-97188083D01*
X205671505Y-97160560D01*
X205703774Y-97062429D01*
X205749604Y-96974052D01*
X205807184Y-96897912D01*
X205874703Y-96836496D01*
X205934440Y-96799742D01*
X205995400Y-96769400D01*
X206464407Y-96772841D01*
X206575519Y-96773597D01*
X206668154Y-96774056D01*
X206744152Y-96774171D01*
X206805353Y-96773893D01*
X206853598Y-96773171D01*
X206890728Y-96771958D01*
X206918583Y-96770204D01*
X206939004Y-96767860D01*
X206953832Y-96764878D01*
X206964906Y-96761209D01*
X206968943Y-96759422D01*
X207003813Y-96739981D01*
X207025635Y-96718354D01*
X207037269Y-96689300D01*
X207041571Y-96647579D01*
X207041880Y-96625674D01*
X207041880Y-96550084D01*
X207077423Y-96553062D01*
X207098725Y-96556268D01*
X207111042Y-96564903D01*
X207119132Y-96584375D01*
X207124707Y-96606840D01*
X207130667Y-96644643D01*
X207134726Y-96694501D01*
X207136818Y-96750485D01*
X207136877Y-96806667D01*
X207134836Y-96857119D01*
X207130630Y-96895912D01*
X207128077Y-96907756D01*
X207102189Y-96967121D01*
X207060802Y-97013465D01*
X207019275Y-97040149D01*
X206966212Y-97067057D01*
X206988008Y-97094767D01*
X207021838Y-97142892D01*
X207057290Y-97201834D01*
X207090574Y-97264545D01*
X207117900Y-97323979D01*
X207132696Y-97363709D01*
X207146466Y-97416421D01*
X207158943Y-97480599D01*
X207169056Y-97548835D01*
X207175738Y-97613720D01*
X207177917Y-97667845D01*
X207177751Y-97675780D01*
X207175687Y-97707273D01*
X207171703Y-97748359D01*
X207168103Y-97778733D01*
X207146748Y-97880518D01*
X207111095Y-97970224D01*
X207061958Y-98046643D01*
X207000151Y-98108564D01*
X206926489Y-98154778D01*
X206909800Y-98162286D01*
X206860583Y-98175192D01*
X206800764Y-98179077D01*
X206790960Y-98178302D01*
X206790960Y-97859661D01*
X206855255Y-97846411D01*
X206912992Y-97819583D01*
X206959107Y-97780235D01*
X206959884Y-97779318D01*
X207007199Y-97707680D01*
X207037189Y-97626803D01*
X207049608Y-97538462D01*
X207044207Y-97444431D01*
X207020739Y-97346485D01*
X207020478Y-97345692D01*
X206995820Y-97284014D01*
X206963518Y-97222111D01*
X206927206Y-97166018D01*
X206890519Y-97121771D01*
X206879196Y-97111015D01*
X206864945Y-97099346D01*
X206850140Y-97090173D01*
X206832109Y-97083098D01*
X206808177Y-97077720D01*
X206775672Y-97073639D01*
X206731922Y-97070455D01*
X206674254Y-97067768D01*
X206599996Y-97065179D01*
X206565660Y-97064100D01*
X206498922Y-97062134D01*
X206449913Y-97061082D01*
X206416058Y-97061115D01*
X206394780Y-97062404D01*
X206383502Y-97065119D01*
X206379648Y-97069432D01*
X206380642Y-97075513D01*
X206380954Y-97076343D01*
X206384726Y-97091582D01*
X206391164Y-97123542D01*
X206399650Y-97168892D01*
X206409562Y-97224303D01*
X206420282Y-97286443D01*
X206422472Y-97299405D01*
X206436743Y-97383353D01*
X206448594Y-97450318D01*
X206458773Y-97503390D01*
X206468027Y-97545660D01*
X206477107Y-97580215D01*
X206486760Y-97610146D01*
X206497735Y-97638541D01*
X206510781Y-97668490D01*
X206513207Y-97673845D01*
X206548150Y-97739920D01*
X206586092Y-97788941D01*
X206629958Y-97824178D01*
X206662964Y-97841208D01*
X206725174Y-97858279D01*
X206790960Y-97859661D01*
X206790960Y-98178302D01*
X206737866Y-98174102D01*
X206679414Y-98160429D01*
X206670232Y-98157165D01*
X206604228Y-98121445D01*
X206544996Y-98066927D01*
X206492907Y-97994099D01*
X206448333Y-97903448D01*
X206422747Y-97832635D01*
X206412113Y-97792960D01*
X206399883Y-97736742D01*
X206386751Y-97667630D01*
X206373411Y-97589271D01*
X206360875Y-97507515D01*
X206345178Y-97401322D01*
X206331217Y-97313542D01*
X206318179Y-97242430D01*
X206305251Y-97186240D01*
X206291621Y-97143227D01*
X206276475Y-97111643D01*
X206259001Y-97089745D01*
X206238384Y-97075786D01*
X206213812Y-97068019D01*
X206184473Y-97064700D01*
X206154353Y-97064072D01*
X206064009Y-97072431D01*
X205984991Y-97097192D01*
X205917906Y-97138001D01*
X205863364Y-97194501D01*
X205826985Y-97255303D01*
X205797076Y-97340173D01*
X205782015Y-97433358D01*
X205781157Y-97530916D01*
X205793856Y-97628904D01*
X205819465Y-97723380D01*
X205857337Y-97810400D01*
X205906828Y-97886023D01*
X205935635Y-97918235D01*
X205962910Y-97948192D01*
X205982297Y-97974732D01*
X205990279Y-97992987D01*
X205990320Y-97993871D01*
X205988961Y-98004106D01*
X205982186Y-98010091D01*
X205965944Y-98012695D01*
X205936186Y-98012788D01*
X205906500Y-98011871D01*
X205822680Y-98008920D01*
X205764408Y-97892080D01*
X205720173Y-97794147D01*
X205688039Y-97699723D01*
X205665450Y-97600252D01*
X205653848Y-97522230D01*
X205647995Y-97442264D01*
X205648259Y-97354522D01*
G36*
X205661342Y-93979322D02*
X205675506Y-93913036D01*
X205710029Y-93810479D01*
X205757922Y-93721307D01*
X205818321Y-93646670D01*
X205890367Y-93587720D01*
X205939520Y-93560025D01*
X206005560Y-93528360D01*
X206950440Y-93535292D01*
X206985851Y-93511201D01*
X207017871Y-93484331D01*
X207036645Y-93453663D01*
X207044539Y-93413645D01*
X207044688Y-93372938D01*
X207041880Y-93308956D01*
X207077440Y-93311978D01*
X207097219Y-93314673D01*
X207109163Y-93321780D01*
X207116975Y-93338189D01*
X207124356Y-93368791D01*
X207125877Y-93375960D01*
X207131591Y-93416605D01*
X207135097Y-93470590D01*
X207136019Y-93531021D01*
X207135626Y-93553760D01*
X207133462Y-93609059D01*
X207129925Y-93648921D01*
X207124254Y-93678221D01*
X207115687Y-93701834D01*
X207111037Y-93711240D01*
X207075819Y-93762818D01*
X207031436Y-93798761D01*
X207003978Y-93812351D01*
X206966354Y-93828071D01*
X207010744Y-93891576D01*
X207053511Y-93958620D01*
X207092378Y-94030517D01*
X207123869Y-94100352D01*
X207142318Y-94153200D01*
X207159156Y-94229240D01*
X207170564Y-94316429D01*
X207175850Y-94406159D01*
X207174322Y-94489819D01*
X207171728Y-94518960D01*
X207152747Y-94621095D01*
X207121255Y-94711089D01*
X207078490Y-94787895D01*
X207025690Y-94850466D01*
X206964093Y-94897751D01*
X206894937Y-94928704D01*
X206819460Y-94942276D01*
X206758130Y-94938579D01*
X206758130Y-94620337D01*
X206830872Y-94613881D01*
X206891129Y-94593138D01*
X206941957Y-94556917D01*
X206955409Y-94543303D01*
X207003782Y-94476174D01*
X207035285Y-94398891D01*
X207049657Y-94313007D01*
X207046636Y-94220079D01*
X207026271Y-94122720D01*
X206997238Y-94047666D01*
X206955248Y-93971403D01*
X206905182Y-93902453D01*
X206890623Y-93885881D01*
X206848840Y-93840487D01*
X206706600Y-93834273D01*
X206644130Y-93831531D01*
X206578771Y-93828642D01*
X206518215Y-93825945D01*
X206470156Y-93823783D01*
X206469587Y-93823757D01*
X206425281Y-93822101D01*
X206397830Y-93822335D01*
X206383819Y-93824921D01*
X206379832Y-93830325D01*
X206381078Y-93835778D01*
X206384586Y-93850385D01*
X206390779Y-93881790D01*
X206399063Y-93926740D01*
X206408841Y-93981979D01*
X206419517Y-94044253D01*
X206422345Y-94061071D01*
X206440390Y-94165018D01*
X206456982Y-94251224D01*
X206472916Y-94322143D01*
X206488984Y-94380230D01*
X206505980Y-94427940D01*
X206524695Y-94467728D01*
X206545924Y-94502048D01*
X206570460Y-94533354D01*
X206577500Y-94541326D01*
X206627301Y-94584965D01*
X206683416Y-94610705D01*
X206749646Y-94620210D01*
X206758130Y-94620337D01*
X206758130Y-94938579D01*
X206738899Y-94937419D01*
X206691057Y-94925966D01*
X206646325Y-94910347D01*
X206612476Y-94892167D01*
X206580284Y-94865918D01*
X206563959Y-94850085D01*
X206522721Y-94803239D01*
X206487193Y-94749912D01*
X206456547Y-94687812D01*
X206429953Y-94614648D01*
X206406583Y-94528126D01*
X206385607Y-94425956D01*
X206366197Y-94305846D01*
X206365576Y-94301571D01*
X206349498Y-94193358D01*
X206335099Y-94103501D01*
X206321914Y-94030149D01*
X206309482Y-93971452D01*
X206297341Y-93925559D01*
X206285027Y-93890618D01*
X206272078Y-93864780D01*
X206258031Y-93846194D01*
X206249829Y-93838523D01*
X206227054Y-93829395D01*
X206189943Y-93824727D01*
X206143967Y-93824443D01*
X206094598Y-93828470D01*
X206047308Y-93836732D01*
X206029094Y-93841533D01*
X205958389Y-93872883D01*
X205896330Y-93920975D01*
X205845436Y-93983179D01*
X205808226Y-94056864D01*
X205800128Y-94080747D01*
X205789992Y-94130367D01*
X205784308Y-94193222D01*
X205783066Y-94262723D01*
X205786258Y-94332282D01*
X205793872Y-94395308D01*
X205800631Y-94427520D01*
X205825612Y-94503143D01*
X205859618Y-94575642D01*
X205899519Y-94639224D01*
X205940826Y-94686840D01*
X205966242Y-94713458D01*
X205984099Y-94737594D01*
X205990320Y-94753048D01*
X205988592Y-94762800D01*
X205980749Y-94768729D01*
X205962798Y-94771769D01*
X205930748Y-94772856D01*
X205905305Y-94772960D01*
X205820290Y-94772960D01*
X205768697Y-94668820D01*
X205712259Y-94534589D01*
X205672960Y-94395726D01*
X205651144Y-94255029D01*
X205647157Y-94115295D01*
X205661342Y-93979322D01*
X205661342Y-93979322D01*
G37*
X205661342Y-93979322D02*
X205675506Y-93913036D01*
X205710029Y-93810479D01*
X205757922Y-93721307D01*
X205818321Y-93646670D01*
X205890367Y-93587720D01*
X205939520Y-93560025D01*
X206005560Y-93528360D01*
X206950440Y-93535292D01*
X206985851Y-93511201D01*
X207017871Y-93484331D01*
X207036645Y-93453663D01*
X207044539Y-93413645D01*
X207044688Y-93372938D01*
X207041880Y-93308956D01*
X207077440Y-93311978D01*
X207097219Y-93314673D01*
X207109163Y-93321780D01*
X207116975Y-93338189D01*
X207124356Y-93368791D01*
X207125877Y-93375960D01*
X207131591Y-93416605D01*
X207135097Y-93470590D01*
X207136019Y-93531021D01*
X207135626Y-93553760D01*
X207133462Y-93609059D01*
X207129925Y-93648921D01*
X207124254Y-93678221D01*
X207115687Y-93701834D01*
X207111037Y-93711240D01*
X207075819Y-93762818D01*
X207031436Y-93798761D01*
X207003978Y-93812351D01*
X206966354Y-93828071D01*
X207010744Y-93891576D01*
X207053511Y-93958620D01*
X207092378Y-94030517D01*
X207123869Y-94100352D01*
X207142318Y-94153200D01*
X207159156Y-94229240D01*
X207170564Y-94316429D01*
X207175850Y-94406159D01*
X207174322Y-94489819D01*
X207171728Y-94518960D01*
X207152747Y-94621095D01*
X207121255Y-94711089D01*
X207078490Y-94787895D01*
X207025690Y-94850466D01*
X206964093Y-94897751D01*
X206894937Y-94928704D01*
X206819460Y-94942276D01*
X206758130Y-94938579D01*
X206758130Y-94620337D01*
X206830872Y-94613881D01*
X206891129Y-94593138D01*
X206941957Y-94556917D01*
X206955409Y-94543303D01*
X207003782Y-94476174D01*
X207035285Y-94398891D01*
X207049657Y-94313007D01*
X207046636Y-94220079D01*
X207026271Y-94122720D01*
X206997238Y-94047666D01*
X206955248Y-93971403D01*
X206905182Y-93902453D01*
X206890623Y-93885881D01*
X206848840Y-93840487D01*
X206706600Y-93834273D01*
X206644130Y-93831531D01*
X206578771Y-93828642D01*
X206518215Y-93825945D01*
X206470156Y-93823783D01*
X206469587Y-93823757D01*
X206425281Y-93822101D01*
X206397830Y-93822335D01*
X206383819Y-93824921D01*
X206379832Y-93830325D01*
X206381078Y-93835778D01*
X206384586Y-93850385D01*
X206390779Y-93881790D01*
X206399063Y-93926740D01*
X206408841Y-93981979D01*
X206419517Y-94044253D01*
X206422345Y-94061071D01*
X206440390Y-94165018D01*
X206456982Y-94251224D01*
X206472916Y-94322143D01*
X206488984Y-94380230D01*
X206505980Y-94427940D01*
X206524695Y-94467728D01*
X206545924Y-94502048D01*
X206570460Y-94533354D01*
X206577500Y-94541326D01*
X206627301Y-94584965D01*
X206683416Y-94610705D01*
X206749646Y-94620210D01*
X206758130Y-94620337D01*
X206758130Y-94938579D01*
X206738899Y-94937419D01*
X206691057Y-94925966D01*
X206646325Y-94910347D01*
X206612476Y-94892167D01*
X206580284Y-94865918D01*
X206563959Y-94850085D01*
X206522721Y-94803239D01*
X206487193Y-94749912D01*
X206456547Y-94687812D01*
X206429953Y-94614648D01*
X206406583Y-94528126D01*
X206385607Y-94425956D01*
X206366197Y-94305846D01*
X206365576Y-94301571D01*
X206349498Y-94193358D01*
X206335099Y-94103501D01*
X206321914Y-94030149D01*
X206309482Y-93971452D01*
X206297341Y-93925559D01*
X206285027Y-93890618D01*
X206272078Y-93864780D01*
X206258031Y-93846194D01*
X206249829Y-93838523D01*
X206227054Y-93829395D01*
X206189943Y-93824727D01*
X206143967Y-93824443D01*
X206094598Y-93828470D01*
X206047308Y-93836732D01*
X206029094Y-93841533D01*
X205958389Y-93872883D01*
X205896330Y-93920975D01*
X205845436Y-93983179D01*
X205808226Y-94056864D01*
X205800128Y-94080747D01*
X205789992Y-94130367D01*
X205784308Y-94193222D01*
X205783066Y-94262723D01*
X205786258Y-94332282D01*
X205793872Y-94395308D01*
X205800631Y-94427520D01*
X205825612Y-94503143D01*
X205859618Y-94575642D01*
X205899519Y-94639224D01*
X205940826Y-94686840D01*
X205966242Y-94713458D01*
X205984099Y-94737594D01*
X205990320Y-94753048D01*
X205988592Y-94762800D01*
X205980749Y-94768729D01*
X205962798Y-94771769D01*
X205930748Y-94772856D01*
X205905305Y-94772960D01*
X205820290Y-94772960D01*
X205768697Y-94668820D01*
X205712259Y-94534589D01*
X205672960Y-94395726D01*
X205651144Y-94255029D01*
X205647157Y-94115295D01*
X205661342Y-93979322D01*
G36*
X205656111Y-100289816D02*
X205667633Y-100218054D01*
X205673724Y-100193778D01*
X205703308Y-100109723D01*
X205741493Y-100031955D01*
X205786102Y-99963583D01*
X205834957Y-99907717D01*
X205885883Y-99867466D01*
X205911533Y-99854128D01*
X205951324Y-99837229D01*
X205889738Y-99785148D01*
X205844007Y-99744842D01*
X205809619Y-99709492D01*
X205781206Y-99672498D01*
X205753397Y-99627260D01*
X205736765Y-99597124D01*
X205703337Y-99528490D01*
X205679288Y-99461826D01*
X205663431Y-99391782D01*
X205654579Y-99313011D01*
X205651547Y-99220164D01*
X205651522Y-99212880D01*
X205652573Y-99134585D01*
X205656269Y-99072347D01*
X205662933Y-99022039D01*
X205668590Y-98995461D01*
X205702178Y-98893922D01*
X205748865Y-98807378D01*
X205808371Y-98736209D01*
X205880412Y-98680792D01*
X205918572Y-98660272D01*
X205985240Y-98628680D01*
X206203680Y-98629315D01*
X206270908Y-98629606D01*
X206353595Y-98630114D01*
X206446882Y-98630803D01*
X206545908Y-98631631D01*
X206645815Y-98632562D01*
X206741742Y-98633555D01*
X206762480Y-98633786D01*
X206844446Y-98634503D01*
X206920526Y-98634773D01*
X206988179Y-98634617D01*
X207044864Y-98634058D01*
X207088042Y-98633117D01*
X207115171Y-98631814D01*
X207123160Y-98630733D01*
X207130546Y-98628977D01*
X207135884Y-98631302D01*
X207139506Y-98640429D01*
X207141744Y-98659078D01*
X207142931Y-98689969D01*
X207143399Y-98735824D01*
X207143480Y-98797096D01*
X207143480Y-98970349D01*
X207113000Y-98964767D01*
X207087114Y-98961584D01*
X207043423Y-98958029D01*
X206984435Y-98954221D01*
X206912659Y-98950282D01*
X206830603Y-98946333D01*
X206740775Y-98942493D01*
X206645686Y-98938884D01*
X206547842Y-98935625D01*
X206449752Y-98932838D01*
X206447083Y-98932769D01*
X206343351Y-98930651D01*
X206257400Y-98930271D01*
X206186749Y-98931865D01*
X206128915Y-98935665D01*
X206081416Y-98941908D01*
X206041770Y-98950828D01*
X206007493Y-98962660D01*
X205976872Y-98977224D01*
X205919405Y-99019369D01*
X205873272Y-99076910D01*
X205839182Y-99147923D01*
X205817844Y-99230483D01*
X205809964Y-99322668D01*
X205815403Y-99415893D01*
X205826415Y-99481705D01*
X205843160Y-99537849D01*
X205862097Y-99581660D01*
X205902749Y-99654846D01*
X205946810Y-99710084D01*
X205997456Y-99749741D01*
X206057863Y-99776186D01*
X206131207Y-99791790D01*
X206146330Y-99793664D01*
X206186280Y-99796850D01*
X206243276Y-99799552D01*
X206314046Y-99801749D01*
X206395324Y-99803421D01*
X206483837Y-99804546D01*
X206576318Y-99805103D01*
X206669497Y-99805070D01*
X206760104Y-99804428D01*
X206844869Y-99803154D01*
X206920524Y-99801227D01*
X206975840Y-99799030D01*
X207143480Y-99790820D01*
X207143480Y-99964243D01*
X207143149Y-100030040D01*
X207142051Y-100077672D01*
X207140023Y-100109283D01*
X207136907Y-100127019D01*
X207132540Y-100133025D01*
X207130844Y-100132817D01*
X207115098Y-100130176D01*
X207081747Y-100126993D01*
X207033495Y-100123418D01*
X206973046Y-100119599D01*
X206903105Y-100115687D01*
X206826374Y-100111832D01*
X206745558Y-100108184D01*
X206663359Y-100104892D01*
X206582483Y-100102106D01*
X206569440Y-100101705D01*
X206492786Y-100100216D01*
X206410311Y-100100014D01*
X206328870Y-100101022D01*
X206255320Y-100103166D01*
X206206272Y-100105682D01*
X206146029Y-100109895D01*
X206101720Y-100113887D01*
X206068990Y-100118535D01*
X206043482Y-100124718D01*
X206020840Y-100133312D01*
X205996709Y-100145196D01*
X205988493Y-100149552D01*
X205935798Y-100185057D01*
X205892855Y-100231400D01*
X205856787Y-100292163D01*
X205836786Y-100338210D01*
X205825480Y-100371540D01*
X205818483Y-100405559D01*
X205814893Y-100446734D01*
X205813809Y-100501532D01*
X205813807Y-100503200D01*
X205821072Y-100610295D01*
X205843226Y-100703569D01*
X205880335Y-100783099D01*
X205932463Y-100848965D01*
X205999678Y-100901242D01*
X206082043Y-100940010D01*
X206179626Y-100965345D01*
X206207422Y-100969732D01*
X206249897Y-100973710D01*
X206309342Y-100976536D01*
X206382445Y-100978266D01*
X206465890Y-100978955D01*
X206556365Y-100978660D01*
X206650556Y-100977437D01*
X206745149Y-100975342D01*
X206836831Y-100972431D01*
X206922287Y-100968760D01*
X206998206Y-100964387D01*
X207061272Y-100959366D01*
X207102840Y-100954553D01*
X207143480Y-100948695D01*
X207143480Y-101297311D01*
X207107920Y-101292092D01*
X207089227Y-101290422D01*
X207052979Y-101288146D01*
X207001928Y-101285400D01*
X206938823Y-101282321D01*
X206866417Y-101279047D01*
X206787461Y-101275713D01*
X206744659Y-101274000D01*
X206631267Y-101269938D01*
X206531427Y-101267355D01*
X206439000Y-101266252D01*
X206347845Y-101266629D01*
X206251823Y-101268488D01*
X206144793Y-101271830D01*
X206084259Y-101274095D01*
X206002204Y-101277413D01*
X205925120Y-101280756D01*
X205855762Y-101283989D01*
X205796886Y-101286973D01*
X205751249Y-101289572D01*
X205721606Y-101291650D01*
X205712973Y-101292540D01*
X205688205Y-101295192D01*
X205678649Y-101291395D01*
X205679465Y-101277995D01*
X205680992Y-101271696D01*
X205685061Y-101243545D01*
X205687689Y-101201274D01*
X205688844Y-101151037D01*
X205688495Y-101098984D01*
X205686611Y-101051270D01*
X205683159Y-101014044D01*
X205682337Y-101008745D01*
X205678457Y-100979419D01*
X205680214Y-100966057D01*
X205687450Y-100964788D01*
X205702577Y-100967019D01*
X205733232Y-100969797D01*
X205774644Y-100972733D01*
X205812520Y-100974946D01*
X205924280Y-100980887D01*
X205872907Y-100932544D01*
X205796618Y-100851342D01*
X205737825Y-100766456D01*
X205693727Y-100673255D01*
X205668487Y-100594640D01*
X205656439Y-100529870D01*
X205650422Y-100452776D01*
X205650343Y-100370407D01*
X205656111Y-100289816D01*
X205656111Y-100289816D01*
G37*
X205656111Y-100289816D02*
X205667633Y-100218054D01*
X205673724Y-100193778D01*
X205703308Y-100109723D01*
X205741493Y-100031955D01*
X205786102Y-99963583D01*
X205834957Y-99907717D01*
X205885883Y-99867466D01*
X205911533Y-99854128D01*
X205951324Y-99837229D01*
X205889738Y-99785148D01*
X205844007Y-99744842D01*
X205809619Y-99709492D01*
X205781206Y-99672498D01*
X205753397Y-99627260D01*
X205736765Y-99597124D01*
X205703337Y-99528490D01*
X205679288Y-99461826D01*
X205663431Y-99391782D01*
X205654579Y-99313011D01*
X205651547Y-99220164D01*
X205651522Y-99212880D01*
X205652573Y-99134585D01*
X205656269Y-99072347D01*
X205662933Y-99022039D01*
X205668590Y-98995461D01*
X205702178Y-98893922D01*
X205748865Y-98807378D01*
X205808371Y-98736209D01*
X205880412Y-98680792D01*
X205918572Y-98660272D01*
X205985240Y-98628680D01*
X206203680Y-98629315D01*
X206270908Y-98629606D01*
X206353595Y-98630114D01*
X206446882Y-98630803D01*
X206545908Y-98631631D01*
X206645815Y-98632562D01*
X206741742Y-98633555D01*
X206762480Y-98633786D01*
X206844446Y-98634503D01*
X206920526Y-98634773D01*
X206988179Y-98634617D01*
X207044864Y-98634058D01*
X207088042Y-98633117D01*
X207115171Y-98631814D01*
X207123160Y-98630733D01*
X207130546Y-98628977D01*
X207135884Y-98631302D01*
X207139506Y-98640429D01*
X207141744Y-98659078D01*
X207142931Y-98689969D01*
X207143399Y-98735824D01*
X207143480Y-98797096D01*
X207143480Y-98970349D01*
X207113000Y-98964767D01*
X207087114Y-98961584D01*
X207043423Y-98958029D01*
X206984435Y-98954221D01*
X206912659Y-98950282D01*
X206830603Y-98946333D01*
X206740775Y-98942493D01*
X206645686Y-98938884D01*
X206547842Y-98935625D01*
X206449752Y-98932838D01*
X206447083Y-98932769D01*
X206343351Y-98930651D01*
X206257400Y-98930271D01*
X206186749Y-98931865D01*
X206128915Y-98935665D01*
X206081416Y-98941908D01*
X206041770Y-98950828D01*
X206007493Y-98962660D01*
X205976872Y-98977224D01*
X205919405Y-99019369D01*
X205873272Y-99076910D01*
X205839182Y-99147923D01*
X205817844Y-99230483D01*
X205809964Y-99322668D01*
X205815403Y-99415893D01*
X205826415Y-99481705D01*
X205843160Y-99537849D01*
X205862097Y-99581660D01*
X205902749Y-99654846D01*
X205946810Y-99710084D01*
X205997456Y-99749741D01*
X206057863Y-99776186D01*
X206131207Y-99791790D01*
X206146330Y-99793664D01*
X206186280Y-99796850D01*
X206243276Y-99799552D01*
X206314046Y-99801749D01*
X206395324Y-99803421D01*
X206483837Y-99804546D01*
X206576318Y-99805103D01*
X206669497Y-99805070D01*
X206760104Y-99804428D01*
X206844869Y-99803154D01*
X206920524Y-99801227D01*
X206975840Y-99799030D01*
X207143480Y-99790820D01*
X207143480Y-99964243D01*
X207143149Y-100030040D01*
X207142051Y-100077672D01*
X207140023Y-100109283D01*
X207136907Y-100127019D01*
X207132540Y-100133025D01*
X207130844Y-100132817D01*
X207115098Y-100130176D01*
X207081747Y-100126993D01*
X207033495Y-100123418D01*
X206973046Y-100119599D01*
X206903105Y-100115687D01*
X206826374Y-100111832D01*
X206745558Y-100108184D01*
X206663359Y-100104892D01*
X206582483Y-100102106D01*
X206569440Y-100101705D01*
X206492786Y-100100216D01*
X206410311Y-100100014D01*
X206328870Y-100101022D01*
X206255320Y-100103166D01*
X206206272Y-100105682D01*
X206146029Y-100109895D01*
X206101720Y-100113887D01*
X206068990Y-100118535D01*
X206043482Y-100124718D01*
X206020840Y-100133312D01*
X205996709Y-100145196D01*
X205988493Y-100149552D01*
X205935798Y-100185057D01*
X205892855Y-100231400D01*
X205856787Y-100292163D01*
X205836786Y-100338210D01*
X205825480Y-100371540D01*
X205818483Y-100405559D01*
X205814893Y-100446734D01*
X205813809Y-100501532D01*
X205813807Y-100503200D01*
X205821072Y-100610295D01*
X205843226Y-100703569D01*
X205880335Y-100783099D01*
X205932463Y-100848965D01*
X205999678Y-100901242D01*
X206082043Y-100940010D01*
X206179626Y-100965345D01*
X206207422Y-100969732D01*
X206249897Y-100973710D01*
X206309342Y-100976536D01*
X206382445Y-100978266D01*
X206465890Y-100978955D01*
X206556365Y-100978660D01*
X206650556Y-100977437D01*
X206745149Y-100975342D01*
X206836831Y-100972431D01*
X206922287Y-100968760D01*
X206998206Y-100964387D01*
X207061272Y-100959366D01*
X207102840Y-100954553D01*
X207143480Y-100948695D01*
X207143480Y-101297311D01*
X207107920Y-101292092D01*
X207089227Y-101290422D01*
X207052979Y-101288146D01*
X207001928Y-101285400D01*
X206938823Y-101282321D01*
X206866417Y-101279047D01*
X206787461Y-101275713D01*
X206744659Y-101274000D01*
X206631267Y-101269938D01*
X206531427Y-101267355D01*
X206439000Y-101266252D01*
X206347845Y-101266629D01*
X206251823Y-101268488D01*
X206144793Y-101271830D01*
X206084259Y-101274095D01*
X206002204Y-101277413D01*
X205925120Y-101280756D01*
X205855762Y-101283989D01*
X205796886Y-101286973D01*
X205751249Y-101289572D01*
X205721606Y-101291650D01*
X205712973Y-101292540D01*
X205688205Y-101295192D01*
X205678649Y-101291395D01*
X205679465Y-101277995D01*
X205680992Y-101271696D01*
X205685061Y-101243545D01*
X205687689Y-101201274D01*
X205688844Y-101151037D01*
X205688495Y-101098984D01*
X205686611Y-101051270D01*
X205683159Y-101014044D01*
X205682337Y-101008745D01*
X205678457Y-100979419D01*
X205680214Y-100966057D01*
X205687450Y-100964788D01*
X205702577Y-100967019D01*
X205733232Y-100969797D01*
X205774644Y-100972733D01*
X205812520Y-100974946D01*
X205924280Y-100980887D01*
X205872907Y-100932544D01*
X205796618Y-100851342D01*
X205737825Y-100766456D01*
X205693727Y-100673255D01*
X205668487Y-100594640D01*
X205656439Y-100529870D01*
X205650422Y-100452776D01*
X205650343Y-100370407D01*
X205656111Y-100289816D01*
G36*
X205655466Y-95207692D02*
X205663642Y-95183646D01*
X205672955Y-95175328D01*
X205688342Y-95178504D01*
X205689149Y-95178809D01*
X205708908Y-95183256D01*
X205743368Y-95188104D01*
X205786938Y-95192641D01*
X205816624Y-95195026D01*
X205868560Y-95199471D01*
X205902603Y-95205117D01*
X205921177Y-95213556D01*
X205926705Y-95226377D01*
X205921610Y-95245170D01*
X205914756Y-95259410D01*
X205900197Y-95300511D01*
X205890526Y-95354383D01*
X205886588Y-95413882D01*
X205889229Y-95471865D01*
X205889419Y-95473510D01*
X205908223Y-95551890D01*
X205944020Y-95624813D01*
X205994107Y-95688355D01*
X206055788Y-95738589D01*
X206081980Y-95753512D01*
X206110055Y-95767046D01*
X206137374Y-95778196D01*
X206166201Y-95787188D01*
X206198802Y-95794247D01*
X206237442Y-95799597D01*
X206284386Y-95803466D01*
X206341900Y-95806078D01*
X206412248Y-95807659D01*
X206497697Y-95808435D01*
X206600511Y-95808630D01*
X206635480Y-95808609D01*
X206724050Y-95808323D01*
X206808845Y-95807678D01*
X206887075Y-95806720D01*
X206955947Y-95805500D01*
X207012672Y-95804065D01*
X207054459Y-95802465D01*
X207077440Y-95800874D01*
X207143480Y-95793512D01*
X207143480Y-96114515D01*
X207082520Y-96106769D01*
X207058655Y-96105084D01*
X207016766Y-96103609D01*
X206959148Y-96102344D01*
X206888094Y-96101289D01*
X206805899Y-96100442D01*
X206714859Y-96099805D01*
X206617266Y-96099376D01*
X206515416Y-96099155D01*
X206411604Y-96099142D01*
X206308124Y-96099337D01*
X206207270Y-96099739D01*
X206111337Y-96100348D01*
X206022620Y-96101164D01*
X205943413Y-96102187D01*
X205876010Y-96103415D01*
X205822707Y-96104850D01*
X205785797Y-96106490D01*
X205779303Y-96106939D01*
X205674966Y-96115038D01*
X205682574Y-96071379D01*
X205687439Y-96027600D01*
X205689727Y-95972514D01*
X205689424Y-95914630D01*
X205686518Y-95862455D01*
X205682945Y-95833984D01*
X205675709Y-95792648D01*
X205728874Y-95800223D01*
X205763792Y-95803705D01*
X205810703Y-95806411D01*
X205861286Y-95807905D01*
X205878560Y-95808062D01*
X205975080Y-95808326D01*
X205939520Y-95781562D01*
X205917702Y-95763287D01*
X205886357Y-95734681D01*
X205850080Y-95700021D01*
X205821314Y-95671532D01*
X205753793Y-95593151D01*
X205701639Y-95510527D01*
X205665675Y-95425969D01*
X205646730Y-95341788D01*
X205645628Y-95260295D01*
X205655466Y-95207692D01*
X205655466Y-95207692D01*
G37*
X205655466Y-95207692D02*
X205663642Y-95183646D01*
X205672955Y-95175328D01*
X205688342Y-95178504D01*
X205689149Y-95178809D01*
X205708908Y-95183256D01*
X205743368Y-95188104D01*
X205786938Y-95192641D01*
X205816624Y-95195026D01*
X205868560Y-95199471D01*
X205902603Y-95205117D01*
X205921177Y-95213556D01*
X205926705Y-95226377D01*
X205921610Y-95245170D01*
X205914756Y-95259410D01*
X205900197Y-95300511D01*
X205890526Y-95354383D01*
X205886588Y-95413882D01*
X205889229Y-95471865D01*
X205889419Y-95473510D01*
X205908223Y-95551890D01*
X205944020Y-95624813D01*
X205994107Y-95688355D01*
X206055788Y-95738589D01*
X206081980Y-95753512D01*
X206110055Y-95767046D01*
X206137374Y-95778196D01*
X206166201Y-95787188D01*
X206198802Y-95794247D01*
X206237442Y-95799597D01*
X206284386Y-95803466D01*
X206341900Y-95806078D01*
X206412248Y-95807659D01*
X206497697Y-95808435D01*
X206600511Y-95808630D01*
X206635480Y-95808609D01*
X206724050Y-95808323D01*
X206808845Y-95807678D01*
X206887075Y-95806720D01*
X206955947Y-95805500D01*
X207012672Y-95804065D01*
X207054459Y-95802465D01*
X207077440Y-95800874D01*
X207143480Y-95793512D01*
X207143480Y-96114515D01*
X207082520Y-96106769D01*
X207058655Y-96105084D01*
X207016766Y-96103609D01*
X206959148Y-96102344D01*
X206888094Y-96101289D01*
X206805899Y-96100442D01*
X206714859Y-96099805D01*
X206617266Y-96099376D01*
X206515416Y-96099155D01*
X206411604Y-96099142D01*
X206308124Y-96099337D01*
X206207270Y-96099739D01*
X206111337Y-96100348D01*
X206022620Y-96101164D01*
X205943413Y-96102187D01*
X205876010Y-96103415D01*
X205822707Y-96104850D01*
X205785797Y-96106490D01*
X205779303Y-96106939D01*
X205674966Y-96115038D01*
X205682574Y-96071379D01*
X205687439Y-96027600D01*
X205689727Y-95972514D01*
X205689424Y-95914630D01*
X205686518Y-95862455D01*
X205682945Y-95833984D01*
X205675709Y-95792648D01*
X205728874Y-95800223D01*
X205763792Y-95803705D01*
X205810703Y-95806411D01*
X205861286Y-95807905D01*
X205878560Y-95808062D01*
X205975080Y-95808326D01*
X205939520Y-95781562D01*
X205917702Y-95763287D01*
X205886357Y-95734681D01*
X205850080Y-95700021D01*
X205821314Y-95671532D01*
X205753793Y-95593151D01*
X205701639Y-95510527D01*
X205665675Y-95425969D01*
X205646730Y-95341788D01*
X205645628Y-95260295D01*
X205655466Y-95207692D01*
D16*
X112732640Y-108964160D02*
X111327474Y-108097431D01*
X112732640Y-108964160D02*
X113386549Y-107448207D01*
X108850000Y-96650000D02*
X112714070Y-108905263D01*
X118422146Y-102053442D02*
X119076055Y-103569394D01*
X118422146Y-102053442D02*
X117016980Y-102920171D01*
X114750000Y-113700000D02*
X118388540Y-102160025D01*
M02*
