G04 #@! TF.FileFunction,Legend,Top*
%FSLAX46Y46*%
G04 Gerber Fmt 4.6, Leading zero omitted, Abs format (unit mm)*
G04 Created by KiCad (PCBNEW 4.0.5) date 07/18/17 15:12:47*
%MOMM*%
%LPD*%
G01*
G04 APERTURE LIST*
%ADD10C,0.100000*%
%ADD11C,0.250000*%
%ADD12C,0.300000*%
%ADD13C,0.150000*%
%ADD14C,0.200000*%
%ADD15C,2.300000*%
%ADD16C,0.350000*%
%ADD17C,0.010000*%
G04 APERTURE END LIST*
D10*
D11*
X100098900Y-17686400D02*
X100098900Y-19486400D01*
X100098900Y-19486400D02*
X101798900Y-21186400D01*
D12*
X69478900Y-34634971D02*
X69478900Y-33134971D01*
X69978900Y-34206400D01*
X70478900Y-33134971D01*
X70478900Y-34634971D01*
X69671757Y-31906400D02*
X70386043Y-31906400D01*
X69528900Y-32334971D02*
X70028900Y-30834971D01*
X70528900Y-32334971D01*
X69550329Y-28534971D02*
X70407472Y-28534971D01*
X69978901Y-30034971D02*
X69978901Y-28534971D01*
X71636043Y-34634971D02*
X71636043Y-33634971D01*
X71636043Y-33134971D02*
X71564614Y-33206400D01*
X71636043Y-33277829D01*
X71707471Y-33206400D01*
X71636043Y-33134971D01*
X71636043Y-33277829D01*
X72207472Y-34634971D02*
X72993186Y-33634971D01*
X72207472Y-33634971D02*
X72993186Y-34634971D01*
X74136043Y-34563543D02*
X73993186Y-34634971D01*
X73707472Y-34634971D01*
X73564615Y-34563543D01*
X73493186Y-34420686D01*
X73493186Y-33849257D01*
X73564615Y-33706400D01*
X73707472Y-33634971D01*
X73993186Y-33634971D01*
X74136043Y-33706400D01*
X74207472Y-33849257D01*
X74207472Y-33992114D01*
X73493186Y-34134971D01*
X74850329Y-34634971D02*
X74850329Y-33634971D01*
X74850329Y-33920686D02*
X74921757Y-33777829D01*
X74993186Y-33706400D01*
X75136043Y-33634971D01*
X75278900Y-33634971D01*
X71421757Y-31334971D02*
X71993186Y-31334971D01*
X71636043Y-30834971D02*
X71636043Y-32120686D01*
X71707471Y-32263543D01*
X71850329Y-32334971D01*
X71993186Y-32334971D01*
X72278900Y-31334971D02*
X72850329Y-31334971D01*
X72493186Y-30834971D02*
X72493186Y-32120686D01*
X72564614Y-32263543D01*
X72707472Y-32334971D01*
X72850329Y-32334971D01*
X73921757Y-32263543D02*
X73778900Y-32334971D01*
X73493186Y-32334971D01*
X73350329Y-32263543D01*
X73278900Y-32120686D01*
X73278900Y-31549257D01*
X73350329Y-31406400D01*
X73493186Y-31334971D01*
X73778900Y-31334971D01*
X73921757Y-31406400D01*
X73993186Y-31549257D01*
X73993186Y-31692114D01*
X73278900Y-31834971D01*
X74636043Y-31334971D02*
X74636043Y-32334971D01*
X74636043Y-31477829D02*
X74707471Y-31406400D01*
X74850329Y-31334971D01*
X75064614Y-31334971D01*
X75207471Y-31406400D01*
X75278900Y-31549257D01*
X75278900Y-32334971D01*
X76636043Y-31334971D02*
X76636043Y-32334971D01*
X75993186Y-31334971D02*
X75993186Y-32120686D01*
X76064614Y-32263543D01*
X76207472Y-32334971D01*
X76421757Y-32334971D01*
X76564614Y-32263543D01*
X76636043Y-32192114D01*
X77207472Y-31334971D02*
X77564615Y-32334971D01*
X77921757Y-31334971D01*
X79064614Y-32263543D02*
X78921757Y-32334971D01*
X78636043Y-32334971D01*
X78493186Y-32263543D01*
X78421757Y-32120686D01*
X78421757Y-31549257D01*
X78493186Y-31406400D01*
X78636043Y-31334971D01*
X78921757Y-31334971D01*
X79064614Y-31406400D01*
X79136043Y-31549257D01*
X79136043Y-31692114D01*
X78421757Y-31834971D01*
X79778900Y-32334971D02*
X79778900Y-31334971D01*
X79778900Y-31620686D02*
X79850328Y-31477829D01*
X79921757Y-31406400D01*
X80064614Y-31334971D01*
X80207471Y-31334971D01*
X80493185Y-31334971D02*
X81064614Y-31334971D01*
X80707471Y-30834971D02*
X80707471Y-32120686D01*
X80778899Y-32263543D01*
X80921757Y-32334971D01*
X81064614Y-32334971D01*
X81564614Y-32334971D02*
X81564614Y-31334971D01*
X81564614Y-30834971D02*
X81493185Y-30906400D01*
X81564614Y-30977829D01*
X81636042Y-30906400D01*
X81564614Y-30834971D01*
X81564614Y-30977829D01*
X82278900Y-31334971D02*
X82278900Y-32334971D01*
X82278900Y-31477829D02*
X82350328Y-31406400D01*
X82493186Y-31334971D01*
X82707471Y-31334971D01*
X82850328Y-31406400D01*
X82921757Y-31549257D01*
X82921757Y-32334971D01*
X84278900Y-31334971D02*
X84278900Y-32549257D01*
X84207471Y-32692114D01*
X84136043Y-32763543D01*
X83993186Y-32834971D01*
X83778900Y-32834971D01*
X83636043Y-32763543D01*
X84278900Y-32263543D02*
X84136043Y-32334971D01*
X83850329Y-32334971D01*
X83707471Y-32263543D01*
X83636043Y-32192114D01*
X83564614Y-32049257D01*
X83564614Y-31620686D01*
X83636043Y-31477829D01*
X83707471Y-31406400D01*
X83850329Y-31334971D01*
X84136043Y-31334971D01*
X84278900Y-31406400D01*
D13*
X68928900Y-27556400D02*
X71078900Y-27556400D01*
X68928900Y-35306400D02*
X68928900Y-27556400D01*
X71078900Y-35306400D02*
X68928900Y-35306400D01*
X71078900Y-27556400D02*
X71078900Y-35306400D01*
D12*
X71636043Y-30034971D02*
X71636043Y-29034971D01*
X71636043Y-29320686D02*
X71707471Y-29177829D01*
X71778900Y-29106400D01*
X71921757Y-29034971D01*
X72064614Y-29034971D01*
X72564614Y-30034971D02*
X72564614Y-29034971D01*
X72564614Y-28534971D02*
X72493185Y-28606400D01*
X72564614Y-28677829D01*
X72636042Y-28606400D01*
X72564614Y-28534971D01*
X72564614Y-28677829D01*
X73278900Y-29034971D02*
X73278900Y-30534971D01*
X73278900Y-29106400D02*
X73421757Y-29034971D01*
X73707471Y-29034971D01*
X73850328Y-29106400D01*
X73921757Y-29177829D01*
X73993186Y-29320686D01*
X73993186Y-29749257D01*
X73921757Y-29892114D01*
X73850328Y-29963543D01*
X73707471Y-30034971D01*
X73421757Y-30034971D01*
X73278900Y-29963543D01*
X74850329Y-30034971D02*
X74707471Y-29963543D01*
X74636043Y-29820686D01*
X74636043Y-28534971D01*
X75993185Y-29963543D02*
X75850328Y-30034971D01*
X75564614Y-30034971D01*
X75421757Y-29963543D01*
X75350328Y-29820686D01*
X75350328Y-29249257D01*
X75421757Y-29106400D01*
X75564614Y-29034971D01*
X75850328Y-29034971D01*
X75993185Y-29106400D01*
X76064614Y-29249257D01*
X76064614Y-29392114D01*
X75350328Y-29534971D01*
D11*
X101798900Y-21186400D02*
X100748900Y-21186400D01*
X101798900Y-21186400D02*
X101798900Y-20136400D01*
D14*
X101577471Y-8343543D02*
X101577471Y-8057829D01*
X101648900Y-7914971D01*
X101791757Y-7772114D01*
X102077471Y-7700686D01*
X102577471Y-7700686D01*
X102863186Y-7772114D01*
X103006043Y-7914971D01*
X103077471Y-8057829D01*
X103077471Y-8343543D01*
X103006043Y-8486400D01*
X102863186Y-8629257D01*
X102577471Y-8700686D01*
X102077471Y-8700686D01*
X101791757Y-8629257D01*
X101648900Y-8486400D01*
X101577471Y-8343543D01*
X101577471Y-7057828D02*
X102791757Y-7057828D01*
X102934614Y-6986400D01*
X103006043Y-6914971D01*
X103077471Y-6772114D01*
X103077471Y-6486400D01*
X103006043Y-6343542D01*
X102934614Y-6272114D01*
X102791757Y-6200685D01*
X101577471Y-6200685D01*
X101577471Y-5700685D02*
X101577471Y-4843542D01*
X103077471Y-5272113D02*
X101577471Y-5272113D01*
X101577471Y-3343542D02*
X101577471Y-2414971D01*
X102148900Y-2914971D01*
X102148900Y-2700685D01*
X102220329Y-2557828D01*
X102291757Y-2486399D01*
X102434614Y-2414971D01*
X102791757Y-2414971D01*
X102934614Y-2486399D01*
X103006043Y-2557828D01*
X103077471Y-2700685D01*
X103077471Y-3129257D01*
X103006043Y-3272114D01*
X102934614Y-3343542D01*
X99327471Y-8343543D02*
X99327471Y-8057829D01*
X99398900Y-7914971D01*
X99541757Y-7772114D01*
X99827471Y-7700686D01*
X100327471Y-7700686D01*
X100613186Y-7772114D01*
X100756043Y-7914971D01*
X100827471Y-8057829D01*
X100827471Y-8343543D01*
X100756043Y-8486400D01*
X100613186Y-8629257D01*
X100327471Y-8700686D01*
X99827471Y-8700686D01*
X99541757Y-8629257D01*
X99398900Y-8486400D01*
X99327471Y-8343543D01*
X99327471Y-7057828D02*
X100541757Y-7057828D01*
X100684614Y-6986400D01*
X100756043Y-6914971D01*
X100827471Y-6772114D01*
X100827471Y-6486400D01*
X100756043Y-6343542D01*
X100684614Y-6272114D01*
X100541757Y-6200685D01*
X99327471Y-6200685D01*
X99327471Y-5700685D02*
X99327471Y-4843542D01*
X100827471Y-5272113D02*
X99327471Y-5272113D01*
X99470329Y-3272114D02*
X99398900Y-3200685D01*
X99327471Y-3057828D01*
X99327471Y-2700685D01*
X99398900Y-2557828D01*
X99470329Y-2486399D01*
X99613186Y-2414971D01*
X99756043Y-2414971D01*
X99970329Y-2486399D01*
X100827471Y-3343542D01*
X100827471Y-2414971D01*
X97077471Y-8343543D02*
X97077471Y-8057829D01*
X97148900Y-7914971D01*
X97291757Y-7772114D01*
X97577471Y-7700686D01*
X98077471Y-7700686D01*
X98363186Y-7772114D01*
X98506043Y-7914971D01*
X98577471Y-8057829D01*
X98577471Y-8343543D01*
X98506043Y-8486400D01*
X98363186Y-8629257D01*
X98077471Y-8700686D01*
X97577471Y-8700686D01*
X97291757Y-8629257D01*
X97148900Y-8486400D01*
X97077471Y-8343543D01*
X97077471Y-7057828D02*
X98291757Y-7057828D01*
X98434614Y-6986400D01*
X98506043Y-6914971D01*
X98577471Y-6772114D01*
X98577471Y-6486400D01*
X98506043Y-6343542D01*
X98434614Y-6272114D01*
X98291757Y-6200685D01*
X97077471Y-6200685D01*
X97077471Y-5700685D02*
X97077471Y-4843542D01*
X98577471Y-5272113D02*
X97077471Y-5272113D01*
X98577471Y-2414971D02*
X98577471Y-3272114D01*
X98577471Y-2843542D02*
X97077471Y-2843542D01*
X97291757Y-2986399D01*
X97434614Y-3129257D01*
X97506043Y-3272114D01*
D11*
X97848900Y-9436400D02*
X97848900Y-12236400D01*
X102348900Y-9436400D02*
X102348900Y-12236400D01*
X100098900Y-9436400D02*
X100098900Y-12236400D01*
D13*
X100098900Y-13286400D02*
X100098900Y-14786400D01*
X100848900Y-14036400D02*
X99348900Y-14036400D01*
D11*
X100098900Y-17686400D02*
X95798900Y-12236400D01*
X104348900Y-12236400D02*
X100098900Y-17686400D01*
X104348900Y-12236400D02*
X95798900Y-12236400D01*
D15*
X93617252Y-6236400D02*
G75*
G03X93617252Y-6236400I-4368352J0D01*
G01*
X67117252Y-6236400D02*
G75*
G03X67117252Y-6236400I-4368352J0D01*
G01*
X40617252Y-6236400D02*
G75*
G03X40617252Y-6236400I-4368352J0D01*
G01*
D16*
X107500582Y-10623628D02*
X108412609Y-11999824D01*
X107500582Y-10623628D02*
X106271108Y-11725492D01*
X105948900Y-22736400D02*
X107486382Y-10734477D01*
X87171046Y-12239842D02*
X87824955Y-13755794D01*
X87171046Y-12239842D02*
X85765880Y-13106571D01*
X83498900Y-23886400D02*
X87137440Y-12346425D01*
X81481540Y-19150560D02*
X80076374Y-18283831D01*
X81481540Y-19150560D02*
X82135449Y-17634607D01*
X77598900Y-6836400D02*
X81462970Y-19091663D01*
X60671046Y-12289842D02*
X61324955Y-13805794D01*
X60671046Y-12289842D02*
X59265880Y-13156571D01*
X56998900Y-23936400D02*
X60637440Y-12396425D01*
X54981540Y-19200560D02*
X53576374Y-18333831D01*
X54981540Y-19200560D02*
X55635449Y-17684607D01*
X51098900Y-6886400D02*
X54962970Y-19141663D01*
D17*
G36*
X46109548Y-25379169D02*
X46195310Y-25382251D01*
X46265806Y-25387057D01*
X46326082Y-25394684D01*
X46381183Y-25406228D01*
X46436154Y-25422785D01*
X46496041Y-25445451D01*
X46565888Y-25475322D01*
X46579053Y-25481167D01*
X46630881Y-25504737D01*
X46669676Y-25524345D01*
X46701075Y-25543859D01*
X46730717Y-25567146D01*
X46764242Y-25598072D01*
X46798142Y-25631404D01*
X46861921Y-25699345D01*
X46910817Y-25761312D01*
X46934069Y-25797880D01*
X46974060Y-25869000D01*
X46976730Y-27776540D01*
X46977084Y-28014124D01*
X46977457Y-28232150D01*
X46977856Y-28431379D01*
X46978287Y-28612573D01*
X46978755Y-28776492D01*
X46979269Y-28923898D01*
X46979833Y-29055554D01*
X46980454Y-29172219D01*
X46981138Y-29274656D01*
X46981893Y-29363627D01*
X46982723Y-29439891D01*
X46983636Y-29504212D01*
X46984637Y-29557351D01*
X46985734Y-29600068D01*
X46986932Y-29633126D01*
X46988238Y-29657286D01*
X46989657Y-29673309D01*
X46991197Y-29681957D01*
X46992568Y-29684080D01*
X47010459Y-29678309D01*
X47025458Y-29669004D01*
X47048178Y-29656391D01*
X47079026Y-29644539D01*
X47085316Y-29642664D01*
X47128199Y-29624395D01*
X47177515Y-29593514D01*
X47227964Y-29553995D01*
X47274246Y-29509816D01*
X47296767Y-29484029D01*
X47325467Y-29448707D01*
X47354029Y-29414093D01*
X47375082Y-29389080D01*
X47384176Y-29377563D01*
X47392081Y-29364673D01*
X47398961Y-29348821D01*
X47404978Y-29328419D01*
X47410294Y-29301878D01*
X47415073Y-29267609D01*
X47419476Y-29224024D01*
X47423667Y-29169533D01*
X47427807Y-29102548D01*
X47432059Y-29021480D01*
X47436587Y-28924741D01*
X47441551Y-28810741D01*
X47446627Y-28689645D01*
X47450313Y-28600127D01*
X47453500Y-28519987D01*
X47456196Y-28447174D01*
X47458409Y-28379635D01*
X47460145Y-28315319D01*
X47461412Y-28252174D01*
X47462218Y-28188150D01*
X47462570Y-28121194D01*
X47462476Y-28049255D01*
X47461942Y-27970282D01*
X47460977Y-27882222D01*
X47459587Y-27783024D01*
X47457780Y-27670637D01*
X47455564Y-27543009D01*
X47452946Y-27398088D01*
X47451567Y-27322793D01*
X47448766Y-27168684D01*
X47446385Y-27033513D01*
X47444423Y-26915903D01*
X47442881Y-26814475D01*
X47441758Y-26727853D01*
X47441055Y-26654658D01*
X47440772Y-26593513D01*
X47440908Y-26543041D01*
X47441464Y-26501864D01*
X47442440Y-26468604D01*
X47443836Y-26441883D01*
X47445651Y-26420325D01*
X47447887Y-26402551D01*
X47450542Y-26387184D01*
X47451601Y-26381975D01*
X47461142Y-26342296D01*
X47471427Y-26308358D01*
X47480373Y-26286955D01*
X47481099Y-26285787D01*
X47495985Y-26271188D01*
X47524449Y-26249432D01*
X47562289Y-26223202D01*
X47605304Y-26195178D01*
X47649291Y-26168043D01*
X47690048Y-26144477D01*
X47723375Y-26127162D01*
X47741140Y-26119836D01*
X47822216Y-26099439D01*
X47913704Y-26085125D01*
X48009542Y-26077220D01*
X48103671Y-26076051D01*
X48190030Y-26081945D01*
X48251049Y-26092337D01*
X48359686Y-26125587D01*
X48457005Y-26171090D01*
X48541175Y-26227552D01*
X48610369Y-26293679D01*
X48662754Y-26368179D01*
X48674956Y-26392046D01*
X48701260Y-26448120D01*
X48710258Y-27076642D01*
X48712000Y-27226284D01*
X48713221Y-27393824D01*
X48713925Y-27576847D01*
X48714111Y-27772939D01*
X48713783Y-27979682D01*
X48712943Y-28194663D01*
X48711591Y-28415467D01*
X48709731Y-28639678D01*
X48708971Y-28717482D01*
X48698685Y-29729800D01*
X48666533Y-29856800D01*
X48644253Y-29933589D01*
X48617546Y-30007526D01*
X48588274Y-30074387D01*
X48558300Y-30129949D01*
X48529487Y-30169988D01*
X48527361Y-30172315D01*
X48511011Y-30192666D01*
X48503241Y-30207904D01*
X48503140Y-30208998D01*
X48496322Y-30224295D01*
X48477731Y-30250559D01*
X48450162Y-30284586D01*
X48416409Y-30323178D01*
X48379266Y-30363131D01*
X48341529Y-30401246D01*
X48307935Y-30432604D01*
X48259946Y-30474701D01*
X48223053Y-30505736D01*
X48193520Y-30528537D01*
X48167610Y-30545933D01*
X48141590Y-30560753D01*
X48132300Y-30565582D01*
X48100096Y-30585447D01*
X48071376Y-30608580D01*
X48066260Y-30613736D01*
X48042156Y-30634352D01*
X48008981Y-30656417D01*
X47990060Y-30666892D01*
X47951358Y-30688014D01*
X47911968Y-30711774D01*
X47897076Y-30721568D01*
X47860423Y-30743691D01*
X47811561Y-30769166D01*
X47757480Y-30794684D01*
X47705170Y-30816938D01*
X47664070Y-30831857D01*
X47634805Y-30842635D01*
X47595644Y-30859061D01*
X47554852Y-30877663D01*
X47553180Y-30878463D01*
X47505928Y-30898721D01*
X47450867Y-30918871D01*
X47400780Y-30934302D01*
X47354398Y-30947546D01*
X47308143Y-30962102D01*
X47271368Y-30975012D01*
X47268700Y-30976049D01*
X47225870Y-30991244D01*
X47176488Y-31006248D01*
X47126432Y-31019539D01*
X47081581Y-31029598D01*
X47047813Y-31034905D01*
X47039305Y-31035359D01*
X47012218Y-31037550D01*
X46995210Y-31041527D01*
X46993045Y-31043693D01*
X46991082Y-31049074D01*
X46989311Y-31058609D01*
X46987721Y-31073234D01*
X46986304Y-31093886D01*
X46985050Y-31121504D01*
X46983949Y-31157024D01*
X46982991Y-31201384D01*
X46982167Y-31255521D01*
X46981466Y-31320372D01*
X46980880Y-31396876D01*
X46980399Y-31485969D01*
X46980012Y-31588588D01*
X46979711Y-31705671D01*
X46979485Y-31838156D01*
X46979324Y-31986979D01*
X46979220Y-32153078D01*
X46979162Y-32337391D01*
X46979140Y-32540855D01*
X46979140Y-34140777D01*
X47004734Y-34164822D01*
X47045437Y-34213337D01*
X47080361Y-34274599D01*
X47105305Y-34341099D01*
X47107117Y-34347857D01*
X47111416Y-34366083D01*
X47114774Y-34385173D01*
X47117211Y-34407353D01*
X47118746Y-34434846D01*
X47119398Y-34469879D01*
X47119187Y-34514677D01*
X47118132Y-34571465D01*
X47116252Y-34642467D01*
X47113567Y-34729909D01*
X47111083Y-34806196D01*
X47108353Y-34895406D01*
X47106180Y-34979781D01*
X47104599Y-35056799D01*
X47103644Y-35123939D01*
X47103350Y-35178679D01*
X47103751Y-35218499D01*
X47104882Y-35240877D01*
X47105094Y-35242433D01*
X47119657Y-35301630D01*
X47142811Y-35343339D01*
X47176631Y-35369318D01*
X47223188Y-35381326D01*
X47269800Y-35382119D01*
X47334782Y-35378760D01*
X47334761Y-35412031D01*
X47330969Y-35437672D01*
X47316398Y-35451819D01*
X47308253Y-35455372D01*
X47277120Y-35463429D01*
X47231919Y-35470515D01*
X47178898Y-35476115D01*
X47124302Y-35479717D01*
X47074380Y-35480806D01*
X47035379Y-35478868D01*
X47030466Y-35478227D01*
X46997213Y-35474355D01*
X46976558Y-35476027D01*
X46961212Y-35484618D01*
X46952187Y-35492995D01*
X46929263Y-35515920D01*
X45092120Y-35515920D01*
X45064587Y-35494263D01*
X45037055Y-35472606D01*
X44285977Y-35477161D01*
X43534900Y-35481717D01*
X43534900Y-35442835D01*
X43535519Y-35422475D01*
X43537267Y-35384945D01*
X43539973Y-35333352D01*
X43543469Y-35270803D01*
X43547587Y-35200406D01*
X43552037Y-35127196D01*
X43556717Y-35036469D01*
X43560721Y-34928116D01*
X43564051Y-34804818D01*
X43566707Y-34669257D01*
X43568689Y-34524115D01*
X43569999Y-34372075D01*
X43570636Y-34215819D01*
X43570631Y-34191749D01*
X43983279Y-34191749D01*
X43983959Y-34372906D01*
X43985379Y-34558913D01*
X43986892Y-34696645D01*
X43994563Y-35315010D01*
X44326071Y-35308663D01*
X44416848Y-35306837D01*
X44510519Y-35304794D01*
X44602644Y-35302642D01*
X44688782Y-35300490D01*
X44764490Y-35298445D01*
X44825329Y-35296616D01*
X44836584Y-35296243D01*
X44895464Y-35293841D01*
X44947668Y-35290949D01*
X44989643Y-35287825D01*
X45017836Y-35284726D01*
X45028267Y-35282334D01*
X45030030Y-35277594D01*
X45031589Y-35265130D01*
X45032947Y-35244115D01*
X45034108Y-35213722D01*
X45035073Y-35173125D01*
X45035847Y-35121497D01*
X45036430Y-35058012D01*
X45036827Y-34981842D01*
X45037040Y-34892162D01*
X45037072Y-34788145D01*
X45036925Y-34668964D01*
X45036603Y-34533793D01*
X45036108Y-34381804D01*
X45035443Y-34212173D01*
X45034610Y-34024071D01*
X45033612Y-33816673D01*
X45033352Y-33764529D01*
X45025758Y-32254560D01*
X44895906Y-32254560D01*
X44830766Y-32253089D01*
X44757968Y-32249121D01*
X44687861Y-32243320D01*
X44645777Y-32238504D01*
X44575056Y-32228064D01*
X44493689Y-32214410D01*
X44406526Y-32198500D01*
X44318418Y-32181293D01*
X44234218Y-32163746D01*
X44158777Y-32146817D01*
X44096946Y-32131464D01*
X44079825Y-32126755D01*
X44039941Y-32116047D01*
X44007956Y-32108666D01*
X43988469Y-32105614D01*
X43984817Y-32106055D01*
X43983938Y-32117129D01*
X43984069Y-32145496D01*
X43985080Y-32188163D01*
X43986840Y-32242135D01*
X43989219Y-32304417D01*
X43992085Y-32372017D01*
X43995308Y-32441939D01*
X43998756Y-32511189D01*
X44002299Y-32576773D01*
X44005807Y-32635697D01*
X44009148Y-32684967D01*
X44011286Y-32711760D01*
X44014583Y-32757845D01*
X44016275Y-32805335D01*
X44016288Y-32857686D01*
X44014548Y-32918353D01*
X44010981Y-32990793D01*
X44005512Y-33078460D01*
X44002450Y-33123240D01*
X43997820Y-33203752D01*
X43993793Y-33302858D01*
X43990388Y-33418839D01*
X43987621Y-33549978D01*
X43985510Y-33694556D01*
X43984071Y-33850856D01*
X43983322Y-34017160D01*
X43983279Y-34191749D01*
X43570631Y-34191749D01*
X43570601Y-34058027D01*
X43569895Y-33901383D01*
X43568518Y-33748569D01*
X43566470Y-33602266D01*
X43563753Y-33465157D01*
X43560367Y-33339923D01*
X43556312Y-33229247D01*
X43551645Y-33136745D01*
X43546339Y-33045898D01*
X43542435Y-32970692D01*
X43539910Y-32906498D01*
X43538742Y-32848686D01*
X43538910Y-32792628D01*
X43540392Y-32733693D01*
X43543165Y-32667253D01*
X43547209Y-32588679D01*
X43548911Y-32557625D01*
X43553512Y-32470789D01*
X43558069Y-32378127D01*
X43562329Y-32285333D01*
X43566033Y-32198100D01*
X43568928Y-32122123D01*
X43570144Y-32085140D01*
X43576020Y-31890321D01*
X43553015Y-31883020D01*
X43537906Y-31873467D01*
X43511817Y-31852098D01*
X43477908Y-31821690D01*
X43439341Y-31785018D01*
X43422055Y-31767959D01*
X43360163Y-31703208D01*
X43310824Y-31644380D01*
X43269680Y-31586132D01*
X43256103Y-31564387D01*
X43217017Y-31498661D01*
X43188110Y-31447025D01*
X43168120Y-31406775D01*
X43155787Y-31375209D01*
X43149849Y-31349623D01*
X43148820Y-31334454D01*
X43145925Y-31305238D01*
X43138384Y-31265874D01*
X43129230Y-31229977D01*
X43125819Y-31217242D01*
X43122788Y-31203112D01*
X43120095Y-31186250D01*
X43117698Y-31165320D01*
X43115555Y-31138984D01*
X43113623Y-31105908D01*
X43111860Y-31064753D01*
X43110224Y-31014183D01*
X43108672Y-30952863D01*
X43107162Y-30879454D01*
X43105651Y-30792622D01*
X43104097Y-30691028D01*
X43102458Y-30573338D01*
X43100692Y-30438213D01*
X43098755Y-30284318D01*
X43098430Y-30258120D01*
X43096252Y-30073977D01*
X43094529Y-29906996D01*
X43093269Y-29754024D01*
X43092478Y-29611909D01*
X43092165Y-29477496D01*
X43092278Y-29392246D01*
X43244589Y-29392246D01*
X43244629Y-29521450D01*
X43245152Y-29656604D01*
X43246153Y-29800841D01*
X43247622Y-29957295D01*
X43249552Y-30129101D01*
X43250890Y-30237800D01*
X43252949Y-30397420D01*
X43254871Y-30537990D01*
X43256690Y-30660777D01*
X43258444Y-30767048D01*
X43260167Y-30858072D01*
X43261896Y-30935117D01*
X43263667Y-30999451D01*
X43265517Y-31052341D01*
X43267480Y-31095057D01*
X43269593Y-31128866D01*
X43271892Y-31155035D01*
X43274412Y-31174834D01*
X43277191Y-31189529D01*
X43278004Y-31192840D01*
X43288146Y-31236363D01*
X43296898Y-31281494D01*
X43300481Y-31304600D01*
X43313068Y-31351832D01*
X43338215Y-31408178D01*
X43373197Y-31469362D01*
X43415289Y-31531107D01*
X43461767Y-31589137D01*
X43509908Y-31639175D01*
X43518731Y-31647173D01*
X43578762Y-31700257D01*
X43572847Y-31289068D01*
X43570918Y-31181324D01*
X43568159Y-31064255D01*
X43564735Y-30943065D01*
X43560814Y-30822962D01*
X43556561Y-30709150D01*
X43552144Y-30606837D01*
X43549066Y-30545295D01*
X43544937Y-30465152D01*
X43541483Y-30391614D01*
X43538794Y-30327106D01*
X43536956Y-30274054D01*
X43536057Y-30234883D01*
X43536186Y-30212020D01*
X43536848Y-30207064D01*
X43548626Y-30205767D01*
X43576314Y-30206529D01*
X43615628Y-30209142D01*
X43656941Y-30212859D01*
X43733642Y-30218445D01*
X43805654Y-30218620D01*
X43884555Y-30213369D01*
X43892907Y-30212580D01*
X43940063Y-30208302D01*
X43979103Y-30205274D01*
X44006023Y-30203770D01*
X44016816Y-30204064D01*
X44016839Y-30204090D01*
X44017256Y-30215557D01*
X44016489Y-30247141D01*
X44014547Y-30298673D01*
X44011436Y-30369985D01*
X44007165Y-30460908D01*
X44001740Y-30571273D01*
X43995169Y-30700913D01*
X43992501Y-30752731D01*
X43988910Y-30834171D01*
X43985843Y-30926583D01*
X43983526Y-31021322D01*
X43982183Y-31109739D01*
X43981940Y-31157153D01*
X43981940Y-31357248D01*
X44196938Y-31363944D01*
X44261484Y-31365539D01*
X44343684Y-31366909D01*
X44440875Y-31368055D01*
X44550391Y-31368976D01*
X44669570Y-31369673D01*
X44795747Y-31370145D01*
X44926257Y-31370393D01*
X45058436Y-31370417D01*
X45189621Y-31370217D01*
X45317146Y-31369792D01*
X45438348Y-31369143D01*
X45550563Y-31368271D01*
X45651126Y-31367175D01*
X45737373Y-31365855D01*
X45806639Y-31364311D01*
X45820869Y-31363894D01*
X46037476Y-31357148D01*
X46030456Y-31010834D01*
X46028212Y-30915253D01*
X46025297Y-30814152D01*
X46021890Y-30712437D01*
X46018168Y-30615014D01*
X46014311Y-30526790D01*
X46010498Y-30452670D01*
X46009512Y-30435920D01*
X46005639Y-30370045D01*
X46002453Y-30311317D01*
X46000090Y-30262648D01*
X45998685Y-30226950D01*
X45998375Y-30207138D01*
X45998681Y-30204090D01*
X46009385Y-30203758D01*
X46036266Y-30205231D01*
X46075289Y-30208236D01*
X46122419Y-30212496D01*
X46123292Y-30212580D01*
X46203462Y-30218352D01*
X46275632Y-30218697D01*
X46351382Y-30213629D01*
X46359258Y-30212859D01*
X46405295Y-30208755D01*
X46443493Y-30206289D01*
X46469579Y-30205675D01*
X46479148Y-30206861D01*
X46479966Y-30217989D01*
X46479671Y-30246876D01*
X46478355Y-30290998D01*
X46476112Y-30347828D01*
X46473034Y-30414843D01*
X46469217Y-30489517D01*
X46467574Y-30519692D01*
X46463702Y-30603222D01*
X46460309Y-30703712D01*
X46457398Y-30818761D01*
X46454968Y-30945967D01*
X46453023Y-31082932D01*
X46451564Y-31227254D01*
X46450592Y-31376532D01*
X46450110Y-31528367D01*
X46450118Y-31680358D01*
X46450619Y-31830104D01*
X46451615Y-31975205D01*
X46453107Y-32113259D01*
X46455096Y-32241868D01*
X46457585Y-32358630D01*
X46460575Y-32461144D01*
X46464068Y-32547011D01*
X46466112Y-32584760D01*
X46470300Y-32655564D01*
X46474044Y-32721781D01*
X46477165Y-32779992D01*
X46479484Y-32826779D01*
X46480820Y-32858724D01*
X46481074Y-32869240D01*
X46481300Y-32909880D01*
X45993232Y-32909880D01*
X45998909Y-32838760D01*
X46005552Y-32750792D01*
X46011196Y-32664788D01*
X46015964Y-32577573D01*
X46019978Y-32485969D01*
X46023362Y-32386800D01*
X46026238Y-32276890D01*
X46028729Y-32153062D01*
X46030959Y-32012140D01*
X46030991Y-32009830D01*
X46037411Y-31556821D01*
X45897069Y-31550090D01*
X45858649Y-31548790D01*
X45802044Y-31547634D01*
X45729389Y-31546622D01*
X45642818Y-31545755D01*
X45544466Y-31545032D01*
X45436467Y-31544454D01*
X45320957Y-31544020D01*
X45200068Y-31543730D01*
X45075937Y-31543585D01*
X44950698Y-31543585D01*
X44826484Y-31543730D01*
X44705431Y-31544019D01*
X44589674Y-31544452D01*
X44481347Y-31545031D01*
X44382584Y-31545754D01*
X44295520Y-31546622D01*
X44222290Y-31547635D01*
X44165028Y-31548793D01*
X44126720Y-31550057D01*
X43981939Y-31556680D01*
X43981940Y-31742799D01*
X43981940Y-31928918D01*
X44009880Y-31943283D01*
X44037083Y-31954645D01*
X44079223Y-31969151D01*
X44131437Y-31985378D01*
X44188862Y-32001901D01*
X44246634Y-32017293D01*
X44299892Y-32030131D01*
X44323391Y-32035162D01*
X44429494Y-32054213D01*
X44546047Y-32070991D01*
X44666633Y-32084822D01*
X44784835Y-32095029D01*
X44894235Y-32100940D01*
X44960301Y-32102159D01*
X45022917Y-32102257D01*
X45068506Y-32102828D01*
X45100360Y-32104294D01*
X45121772Y-32107074D01*
X45136034Y-32111587D01*
X45146438Y-32118255D01*
X45155881Y-32127098D01*
X45180820Y-32152036D01*
X45180820Y-32613095D01*
X45180887Y-32688989D01*
X45181083Y-32783055D01*
X45181398Y-32893141D01*
X45181822Y-33017100D01*
X45182348Y-33152782D01*
X45182965Y-33298038D01*
X45183663Y-33450720D01*
X45184434Y-33608677D01*
X45185269Y-33769762D01*
X45186157Y-33931825D01*
X45187090Y-34092716D01*
X45187581Y-34173668D01*
X45194342Y-35273183D01*
X45275586Y-35266096D01*
X45315863Y-35263006D01*
X45339559Y-35262703D01*
X45350277Y-35265613D01*
X45351620Y-35272162D01*
X45350701Y-35274983D01*
X45344706Y-35295582D01*
X45338312Y-35324372D01*
X45337765Y-35327238D01*
X45330958Y-35363520D01*
X45790285Y-35363520D01*
X45755560Y-35318027D01*
X45722393Y-35258638D01*
X45704611Y-35190743D01*
X45701718Y-35118511D01*
X45703542Y-35107024D01*
X46024100Y-35107024D01*
X46024992Y-35149989D01*
X46028969Y-35180605D01*
X46037976Y-35206812D01*
X46053958Y-35236550D01*
X46057184Y-35241984D01*
X46092167Y-35289018D01*
X46136740Y-35324947D01*
X46145635Y-35330435D01*
X46201001Y-35363520D01*
X46544826Y-35363520D01*
X46546272Y-35362789D01*
X46740380Y-35362789D01*
X46783560Y-35363154D01*
X46810757Y-35362201D01*
X46823265Y-35356570D01*
X46826660Y-35343027D01*
X46826740Y-35338120D01*
X46822137Y-35318056D01*
X46807838Y-35314786D01*
X46783102Y-35328305D01*
X46770860Y-35337805D01*
X46740380Y-35362789D01*
X46546272Y-35362789D01*
X46607043Y-35332085D01*
X46655664Y-35304788D01*
X46703538Y-35273176D01*
X46745820Y-35240849D01*
X46777667Y-35211406D01*
X46790208Y-35195936D01*
X46796662Y-35180924D01*
X46801743Y-35156194D01*
X46805745Y-35119060D01*
X46808962Y-35066836D01*
X46811552Y-35001032D01*
X46813775Y-34939393D01*
X46816250Y-34880506D01*
X46818747Y-34829258D01*
X46821035Y-34790533D01*
X46822201Y-34775461D01*
X46827227Y-34720802D01*
X46793963Y-34727551D01*
X46773434Y-34731273D01*
X46736711Y-34737492D01*
X46687676Y-34745569D01*
X46630211Y-34754863D01*
X46572740Y-34764018D01*
X46484169Y-34778458D01*
X46412441Y-34791299D01*
X46354223Y-34803353D01*
X46306180Y-34815431D01*
X46264980Y-34828345D01*
X46227288Y-34842906D01*
X46201418Y-34854414D01*
X46132585Y-34892178D01*
X46082227Y-34933957D01*
X46048555Y-34982302D01*
X46029777Y-35039764D01*
X46024100Y-35107024D01*
X45703542Y-35107024D01*
X45713217Y-35046112D01*
X45738612Y-34977716D01*
X45777409Y-34917494D01*
X45806809Y-34887110D01*
X45839049Y-34860312D01*
X45872054Y-34836764D01*
X45907759Y-34815902D01*
X45948102Y-34797162D01*
X45995017Y-34779980D01*
X46050443Y-34763792D01*
X46116314Y-34748033D01*
X46194569Y-34732140D01*
X46287143Y-34715549D01*
X46395973Y-34697695D01*
X46522995Y-34678015D01*
X46526427Y-34677494D01*
X46614172Y-34661941D01*
X46687707Y-34644264D01*
X46745107Y-34625019D01*
X46784444Y-34604767D01*
X46789198Y-34601263D01*
X46811148Y-34571830D01*
X46822330Y-34529457D01*
X46823462Y-34477970D01*
X46815259Y-34421191D01*
X46798441Y-34362944D01*
X46773725Y-34307053D01*
X46741827Y-34257341D01*
X46719996Y-34232523D01*
X46664532Y-34186797D01*
X46601630Y-34154109D01*
X46528265Y-34133438D01*
X46441410Y-34123767D01*
X46394048Y-34122732D01*
X46276369Y-34130847D01*
X46169642Y-34154581D01*
X46074845Y-34193593D01*
X45992957Y-34247538D01*
X45963651Y-34273592D01*
X45934505Y-34299535D01*
X45908636Y-34318571D01*
X45891076Y-34327060D01*
X45889580Y-34327200D01*
X45880428Y-34325316D01*
X45875137Y-34317004D01*
X45872957Y-34298273D01*
X45873139Y-34265132D01*
X45873829Y-34243380D01*
X45876780Y-34159560D01*
X45990689Y-34102485D01*
X46083665Y-34060383D01*
X46174500Y-34029376D01*
X46270400Y-34007433D01*
X46378571Y-33992525D01*
X46382390Y-33992134D01*
X46485851Y-33986850D01*
X46589407Y-33991182D01*
X46686415Y-34004599D01*
X46756279Y-34021965D01*
X46789508Y-34032289D01*
X46813897Y-34039695D01*
X46824192Y-34042588D01*
X46824200Y-34042588D01*
X46824488Y-34032628D01*
X46824768Y-34003452D01*
X46825037Y-33956165D01*
X46825292Y-33891874D01*
X46825533Y-33811681D01*
X46825758Y-33716693D01*
X46825964Y-33608013D01*
X46826150Y-33486747D01*
X46826313Y-33354000D01*
X46826453Y-33210876D01*
X46826568Y-33058481D01*
X46826654Y-32897918D01*
X46826712Y-32730293D01*
X46826738Y-32556711D01*
X46826740Y-32503018D01*
X46826740Y-30963316D01*
X46849600Y-30940840D01*
X46875781Y-30924505D01*
X46919062Y-30908904D01*
X46953740Y-30900003D01*
X46996444Y-30890055D01*
X47035311Y-30880479D01*
X47062994Y-30873096D01*
X47066221Y-30872140D01*
X47093740Y-30865335D01*
X47114440Y-30862639D01*
X47132911Y-30859590D01*
X47163136Y-30851699D01*
X47189919Y-30843455D01*
X47225150Y-30832112D01*
X47272434Y-30817184D01*
X47324381Y-30800993D01*
X47355060Y-30791533D01*
X47403650Y-30775629D01*
X47449383Y-30758920D01*
X47486010Y-30743775D01*
X47502380Y-30735663D01*
X47536510Y-30718829D01*
X47577878Y-30701885D01*
X47598900Y-30694534D01*
X47638443Y-30680071D01*
X47684757Y-30660665D01*
X47720820Y-30643891D01*
X47754764Y-30627299D01*
X47782030Y-30614318D01*
X47797075Y-30607582D01*
X47797555Y-30607402D01*
X47819808Y-30596215D01*
X47852132Y-30576244D01*
X47888733Y-30551396D01*
X47923818Y-30525582D01*
X47948053Y-30505860D01*
X47979623Y-30480759D01*
X48012117Y-30458714D01*
X48025620Y-30451050D01*
X48052209Y-30436427D01*
X48079193Y-30418769D01*
X48110592Y-30395113D01*
X48150427Y-30362497D01*
X48181155Y-30336450D01*
X48229225Y-30294759D01*
X48265766Y-30260946D01*
X48295119Y-30230201D01*
X48321625Y-30197713D01*
X48349625Y-30158668D01*
X48373570Y-30123159D01*
X48417401Y-30056450D01*
X48451239Y-30001991D01*
X48476880Y-29955477D01*
X48496117Y-29912606D01*
X48510743Y-29869072D01*
X48522551Y-29820573D01*
X48533336Y-29762804D01*
X48539610Y-29724720D01*
X48541919Y-29708983D01*
X48544015Y-29691222D01*
X48545911Y-29670433D01*
X48547616Y-29645611D01*
X48549141Y-29615752D01*
X48550499Y-29579852D01*
X48551699Y-29536907D01*
X48552753Y-29485913D01*
X48553672Y-29425866D01*
X48554467Y-29355762D01*
X48555148Y-29274596D01*
X48555727Y-29181364D01*
X48556215Y-29075063D01*
X48556623Y-28954688D01*
X48556962Y-28819235D01*
X48557243Y-28667701D01*
X48557476Y-28499080D01*
X48557674Y-28312369D01*
X48557846Y-28106563D01*
X48557882Y-28058480D01*
X48559020Y-26498920D01*
X48536445Y-26456704D01*
X48513510Y-26422984D01*
X48479828Y-26384096D01*
X48441371Y-26346093D01*
X48404110Y-26315024D01*
X48382968Y-26301198D01*
X48337856Y-26277690D01*
X48298311Y-26260604D01*
X48259230Y-26248751D01*
X48215511Y-26240940D01*
X48162050Y-26235982D01*
X48093744Y-26232690D01*
X48088110Y-26232485D01*
X48004922Y-26230695D01*
X47940039Y-26232024D01*
X47891677Y-26236532D01*
X47874750Y-26239631D01*
X47816005Y-26256542D01*
X47757080Y-26280316D01*
X47701923Y-26308669D01*
X47654480Y-26339318D01*
X47618700Y-26369978D01*
X47598529Y-26398364D01*
X47597954Y-26399805D01*
X47596049Y-26414161D01*
X47594712Y-26445930D01*
X47593948Y-26495445D01*
X47593758Y-26563039D01*
X47594145Y-26649044D01*
X47595109Y-26753793D01*
X47596655Y-26877620D01*
X47598782Y-27020856D01*
X47601495Y-27183835D01*
X47603773Y-27311477D01*
X47606600Y-27467046D01*
X47609032Y-27604311D01*
X47611062Y-27725284D01*
X47612684Y-27831977D01*
X47613892Y-27926403D01*
X47614678Y-28010573D01*
X47615037Y-28086501D01*
X47614961Y-28156196D01*
X47614445Y-28221673D01*
X47613481Y-28284944D01*
X47612063Y-28348019D01*
X47610185Y-28412913D01*
X47607840Y-28481636D01*
X47605022Y-28556201D01*
X47601723Y-28638620D01*
X47599262Y-28698710D01*
X47593601Y-28833966D01*
X47588454Y-28950502D01*
X47583675Y-29049907D01*
X47579115Y-29133770D01*
X47574627Y-29203682D01*
X47570064Y-29261230D01*
X47565277Y-29308005D01*
X47560120Y-29345596D01*
X47554444Y-29375591D01*
X47548102Y-29399580D01*
X47540947Y-29419153D01*
X47532831Y-29435898D01*
X47530399Y-29440240D01*
X47499321Y-29485744D01*
X47456528Y-29536509D01*
X47405512Y-29589422D01*
X47349765Y-29641373D01*
X47292778Y-29689250D01*
X47238046Y-29729943D01*
X47189060Y-29760339D01*
X47153358Y-29776138D01*
X47119105Y-29789966D01*
X47084338Y-29808358D01*
X47080634Y-29810675D01*
X47052136Y-29823843D01*
X47010978Y-29836899D01*
X46964740Y-29847953D01*
X46921005Y-29855114D01*
X46895613Y-29856800D01*
X46876679Y-29850743D01*
X46855805Y-29837378D01*
X46831820Y-29817957D01*
X46826740Y-27857974D01*
X46821660Y-25897992D01*
X46794577Y-25857069D01*
X46775326Y-25831607D01*
X46746377Y-25797584D01*
X46712596Y-25760609D01*
X46695537Y-25742893D01*
X46665326Y-25712932D01*
X46639260Y-25689961D01*
X46612659Y-25670990D01*
X46580843Y-25653024D01*
X46539134Y-25633073D01*
X46488940Y-25610803D01*
X46426013Y-25584453D01*
X46370237Y-25564293D01*
X46317170Y-25549538D01*
X46262368Y-25539398D01*
X46201390Y-25533086D01*
X46129792Y-25529817D01*
X46043131Y-25528800D01*
X46026224Y-25528795D01*
X45954208Y-25529422D01*
X45897830Y-25531403D01*
X45852429Y-25535116D01*
X45813348Y-25540938D01*
X45777083Y-25548953D01*
X45707570Y-25569483D01*
X45639113Y-25595124D01*
X45576685Y-25623644D01*
X45525257Y-25652814D01*
X45494884Y-25675559D01*
X45470561Y-25695885D01*
X45451453Y-25708922D01*
X45444723Y-25711520D01*
X45428445Y-25719261D01*
X45403174Y-25740360D01*
X45371711Y-25771631D01*
X45336860Y-25809886D01*
X45301423Y-25851939D01*
X45268205Y-25894603D01*
X45240007Y-25934692D01*
X45221691Y-25965087D01*
X45220295Y-25971081D01*
X45219020Y-25984052D01*
X45217865Y-26004657D01*
X45216829Y-26033549D01*
X45215911Y-26071384D01*
X45215108Y-26118817D01*
X45214421Y-26176503D01*
X45213846Y-26245098D01*
X45213384Y-26325255D01*
X45213033Y-26417631D01*
X45212790Y-26522879D01*
X45212656Y-26641657D01*
X45212628Y-26774617D01*
X45212706Y-26922416D01*
X45212887Y-27085709D01*
X45213172Y-27265150D01*
X45213557Y-27461394D01*
X45214042Y-27675098D01*
X45214626Y-27906915D01*
X45215306Y-28157501D01*
X45216083Y-28427511D01*
X45216392Y-28531788D01*
X45223990Y-31074393D01*
X45197786Y-31100596D01*
X45174775Y-31118243D01*
X45153229Y-31126678D01*
X45151140Y-31126800D01*
X45121516Y-31125702D01*
X45077012Y-31122660D01*
X45021250Y-31118048D01*
X44957849Y-31112239D01*
X44890430Y-31105610D01*
X44822612Y-31098533D01*
X44758015Y-31091384D01*
X44700260Y-31084538D01*
X44652967Y-31078368D01*
X44619755Y-31073250D01*
X44606780Y-31070480D01*
X44567408Y-31059375D01*
X44528129Y-31048796D01*
X44515340Y-31045507D01*
X44449376Y-31019181D01*
X44395401Y-30976911D01*
X44354119Y-30919656D01*
X44326238Y-30848371D01*
X44313026Y-30771200D01*
X44312005Y-30753598D01*
X44310292Y-30717107D01*
X44307943Y-30663145D01*
X44305010Y-30593128D01*
X44301547Y-30508474D01*
X44297609Y-30410601D01*
X44293249Y-30300925D01*
X44288521Y-30180864D01*
X44283478Y-30051836D01*
X44278176Y-29915257D01*
X44272667Y-29772546D01*
X44267006Y-29625118D01*
X44261246Y-29474393D01*
X44255442Y-29321786D01*
X44249646Y-29168716D01*
X44243914Y-29016599D01*
X44238298Y-28866854D01*
X44232853Y-28720897D01*
X44227633Y-28580145D01*
X44222691Y-28446017D01*
X44218081Y-28319929D01*
X44213858Y-28203299D01*
X44210075Y-28097544D01*
X44206786Y-28004081D01*
X44204044Y-27924328D01*
X44201904Y-27859702D01*
X44200420Y-27811620D01*
X44200077Y-27799400D01*
X44196778Y-27726669D01*
X44190934Y-27669489D01*
X44181980Y-27623188D01*
X44176281Y-27603042D01*
X44157397Y-27554071D01*
X44130845Y-27499347D01*
X44100404Y-27445691D01*
X44069852Y-27399923D01*
X44050966Y-27376814D01*
X44023132Y-27353044D01*
X43981546Y-27325088D01*
X43931466Y-27295925D01*
X43878153Y-27268536D01*
X43826868Y-27245901D01*
X43806357Y-27238235D01*
X43772295Y-27227040D01*
X43745002Y-27220732D01*
X43717576Y-27218761D01*
X43683115Y-27220572D01*
X43640499Y-27224967D01*
X43567693Y-27236738D01*
X43510980Y-27253773D01*
X43471743Y-27275545D01*
X43453886Y-27295982D01*
X43437946Y-27314671D01*
X43413684Y-27333091D01*
X43412082Y-27334048D01*
X43391915Y-27351066D01*
X43370716Y-27380309D01*
X43346377Y-27424861D01*
X43337129Y-27443800D01*
X43318274Y-27484553D01*
X43305140Y-27517933D01*
X43296149Y-27550182D01*
X43289720Y-27587542D01*
X43284273Y-27636256D01*
X43281840Y-27662240D01*
X43279763Y-27693083D01*
X43277397Y-27742331D01*
X43274798Y-27808072D01*
X43272024Y-27888394D01*
X43269131Y-27981384D01*
X43266177Y-28085131D01*
X43263217Y-28197723D01*
X43260310Y-28317247D01*
X43257512Y-28441791D01*
X43254937Y-28566480D01*
X43251914Y-28725793D01*
X43249420Y-28872254D01*
X43247448Y-29008996D01*
X43245991Y-29139153D01*
X43245040Y-29265858D01*
X43244589Y-29392246D01*
X43092278Y-29392246D01*
X43092338Y-29347633D01*
X43093003Y-29219166D01*
X43094169Y-29088943D01*
X43095843Y-28953811D01*
X43098032Y-28810617D01*
X43100746Y-28656207D01*
X43102541Y-28561400D01*
X43105519Y-28408098D01*
X43108187Y-28273617D01*
X43110606Y-28156459D01*
X43112839Y-28055128D01*
X43114948Y-27968127D01*
X43116995Y-27893960D01*
X43119044Y-27831130D01*
X43121157Y-27778140D01*
X43123397Y-27733494D01*
X43125825Y-27695696D01*
X43128505Y-27663248D01*
X43131499Y-27634654D01*
X43134869Y-27608418D01*
X43138678Y-27583043D01*
X43142989Y-27557032D01*
X43144992Y-27545400D01*
X43159800Y-27482008D01*
X43181551Y-27417567D01*
X43208153Y-27356438D01*
X43237515Y-27302981D01*
X43267546Y-27261560D01*
X43291813Y-27239221D01*
X43321324Y-27215614D01*
X43347137Y-27188915D01*
X43350567Y-27184511D01*
X43387265Y-27149575D01*
X43439760Y-27119621D01*
X43503923Y-27095657D01*
X43575623Y-27078692D01*
X43650730Y-27069736D01*
X43725115Y-27069796D01*
X43786391Y-27078046D01*
X43848081Y-27093772D01*
X43906540Y-27115142D01*
X43967104Y-27144559D01*
X44035103Y-27184425D01*
X44065576Y-27203834D01*
X44130689Y-27250582D01*
X44183791Y-27300033D01*
X44227818Y-27356184D01*
X44265707Y-27423034D01*
X44300392Y-27504581D01*
X44314059Y-27542304D01*
X44329491Y-27588054D01*
X44339973Y-27624870D01*
X44346568Y-27659193D01*
X44350335Y-27697465D01*
X44352336Y-27746129D01*
X44353057Y-27779080D01*
X44354120Y-27824795D01*
X44355884Y-27887186D01*
X44358292Y-27964851D01*
X44361291Y-28056387D01*
X44364827Y-28160394D01*
X44368846Y-28275469D01*
X44373292Y-28400212D01*
X44378113Y-28533220D01*
X44383252Y-28673093D01*
X44388657Y-28818429D01*
X44394273Y-28967826D01*
X44400046Y-29119882D01*
X44405921Y-29273197D01*
X44411844Y-29426369D01*
X44417761Y-29577995D01*
X44423618Y-29726676D01*
X44429359Y-29871008D01*
X44434932Y-30009591D01*
X44440281Y-30141024D01*
X44445352Y-30263903D01*
X44450091Y-30376829D01*
X44454445Y-30478400D01*
X44458357Y-30567213D01*
X44461775Y-30641868D01*
X44464644Y-30700963D01*
X44466909Y-30743096D01*
X44468516Y-30766867D01*
X44468950Y-30770837D01*
X44478415Y-30818134D01*
X44492289Y-30851455D01*
X44514517Y-30875003D01*
X44549044Y-30892984D01*
X44598907Y-30909339D01*
X44635954Y-30917901D01*
X44688391Y-30927178D01*
X44751327Y-30936568D01*
X44819875Y-30945470D01*
X44889145Y-30953283D01*
X44954250Y-30959404D01*
X45010301Y-30963232D01*
X45045041Y-30964240D01*
X45071488Y-30964240D01*
X45064048Y-28482660D01*
X45063256Y-28214655D01*
X45062546Y-27966224D01*
X45061921Y-27736619D01*
X45061383Y-27525093D01*
X45060935Y-27330899D01*
X45060579Y-27153292D01*
X45060318Y-26991523D01*
X45060153Y-26844846D01*
X45060086Y-26712514D01*
X45060121Y-26593780D01*
X45060260Y-26487898D01*
X45060504Y-26394120D01*
X45060856Y-26311700D01*
X45061318Y-26239891D01*
X45061893Y-26177946D01*
X45062582Y-26125119D01*
X45063389Y-26080661D01*
X45064315Y-26043827D01*
X45065363Y-26013870D01*
X45066535Y-25990043D01*
X45067833Y-25971599D01*
X45069260Y-25957791D01*
X45070818Y-25947872D01*
X45071825Y-25943443D01*
X45087995Y-25901494D01*
X45115279Y-25851007D01*
X45150607Y-25796067D01*
X45190905Y-25740760D01*
X45233101Y-25689173D01*
X45274123Y-25645392D01*
X45310899Y-25613503D01*
X45328140Y-25602546D01*
X45352682Y-25586891D01*
X45383826Y-25563297D01*
X45405599Y-25544941D01*
X45435270Y-25521482D01*
X45470284Y-25499984D01*
X45514069Y-25478826D01*
X45570054Y-25456387D01*
X45641664Y-25431045D01*
X45658018Y-25425534D01*
X45719441Y-25407121D01*
X45781166Y-25393528D01*
X45847164Y-25384347D01*
X45921409Y-25379170D01*
X46007872Y-25377589D01*
X46109548Y-25379169D01*
X46109548Y-25379169D01*
G37*
X46109548Y-25379169D02*
X46195310Y-25382251D01*
X46265806Y-25387057D01*
X46326082Y-25394684D01*
X46381183Y-25406228D01*
X46436154Y-25422785D01*
X46496041Y-25445451D01*
X46565888Y-25475322D01*
X46579053Y-25481167D01*
X46630881Y-25504737D01*
X46669676Y-25524345D01*
X46701075Y-25543859D01*
X46730717Y-25567146D01*
X46764242Y-25598072D01*
X46798142Y-25631404D01*
X46861921Y-25699345D01*
X46910817Y-25761312D01*
X46934069Y-25797880D01*
X46974060Y-25869000D01*
X46976730Y-27776540D01*
X46977084Y-28014124D01*
X46977457Y-28232150D01*
X46977856Y-28431379D01*
X46978287Y-28612573D01*
X46978755Y-28776492D01*
X46979269Y-28923898D01*
X46979833Y-29055554D01*
X46980454Y-29172219D01*
X46981138Y-29274656D01*
X46981893Y-29363627D01*
X46982723Y-29439891D01*
X46983636Y-29504212D01*
X46984637Y-29557351D01*
X46985734Y-29600068D01*
X46986932Y-29633126D01*
X46988238Y-29657286D01*
X46989657Y-29673309D01*
X46991197Y-29681957D01*
X46992568Y-29684080D01*
X47010459Y-29678309D01*
X47025458Y-29669004D01*
X47048178Y-29656391D01*
X47079026Y-29644539D01*
X47085316Y-29642664D01*
X47128199Y-29624395D01*
X47177515Y-29593514D01*
X47227964Y-29553995D01*
X47274246Y-29509816D01*
X47296767Y-29484029D01*
X47325467Y-29448707D01*
X47354029Y-29414093D01*
X47375082Y-29389080D01*
X47384176Y-29377563D01*
X47392081Y-29364673D01*
X47398961Y-29348821D01*
X47404978Y-29328419D01*
X47410294Y-29301878D01*
X47415073Y-29267609D01*
X47419476Y-29224024D01*
X47423667Y-29169533D01*
X47427807Y-29102548D01*
X47432059Y-29021480D01*
X47436587Y-28924741D01*
X47441551Y-28810741D01*
X47446627Y-28689645D01*
X47450313Y-28600127D01*
X47453500Y-28519987D01*
X47456196Y-28447174D01*
X47458409Y-28379635D01*
X47460145Y-28315319D01*
X47461412Y-28252174D01*
X47462218Y-28188150D01*
X47462570Y-28121194D01*
X47462476Y-28049255D01*
X47461942Y-27970282D01*
X47460977Y-27882222D01*
X47459587Y-27783024D01*
X47457780Y-27670637D01*
X47455564Y-27543009D01*
X47452946Y-27398088D01*
X47451567Y-27322793D01*
X47448766Y-27168684D01*
X47446385Y-27033513D01*
X47444423Y-26915903D01*
X47442881Y-26814475D01*
X47441758Y-26727853D01*
X47441055Y-26654658D01*
X47440772Y-26593513D01*
X47440908Y-26543041D01*
X47441464Y-26501864D01*
X47442440Y-26468604D01*
X47443836Y-26441883D01*
X47445651Y-26420325D01*
X47447887Y-26402551D01*
X47450542Y-26387184D01*
X47451601Y-26381975D01*
X47461142Y-26342296D01*
X47471427Y-26308358D01*
X47480373Y-26286955D01*
X47481099Y-26285787D01*
X47495985Y-26271188D01*
X47524449Y-26249432D01*
X47562289Y-26223202D01*
X47605304Y-26195178D01*
X47649291Y-26168043D01*
X47690048Y-26144477D01*
X47723375Y-26127162D01*
X47741140Y-26119836D01*
X47822216Y-26099439D01*
X47913704Y-26085125D01*
X48009542Y-26077220D01*
X48103671Y-26076051D01*
X48190030Y-26081945D01*
X48251049Y-26092337D01*
X48359686Y-26125587D01*
X48457005Y-26171090D01*
X48541175Y-26227552D01*
X48610369Y-26293679D01*
X48662754Y-26368179D01*
X48674956Y-26392046D01*
X48701260Y-26448120D01*
X48710258Y-27076642D01*
X48712000Y-27226284D01*
X48713221Y-27393824D01*
X48713925Y-27576847D01*
X48714111Y-27772939D01*
X48713783Y-27979682D01*
X48712943Y-28194663D01*
X48711591Y-28415467D01*
X48709731Y-28639678D01*
X48708971Y-28717482D01*
X48698685Y-29729800D01*
X48666533Y-29856800D01*
X48644253Y-29933589D01*
X48617546Y-30007526D01*
X48588274Y-30074387D01*
X48558300Y-30129949D01*
X48529487Y-30169988D01*
X48527361Y-30172315D01*
X48511011Y-30192666D01*
X48503241Y-30207904D01*
X48503140Y-30208998D01*
X48496322Y-30224295D01*
X48477731Y-30250559D01*
X48450162Y-30284586D01*
X48416409Y-30323178D01*
X48379266Y-30363131D01*
X48341529Y-30401246D01*
X48307935Y-30432604D01*
X48259946Y-30474701D01*
X48223053Y-30505736D01*
X48193520Y-30528537D01*
X48167610Y-30545933D01*
X48141590Y-30560753D01*
X48132300Y-30565582D01*
X48100096Y-30585447D01*
X48071376Y-30608580D01*
X48066260Y-30613736D01*
X48042156Y-30634352D01*
X48008981Y-30656417D01*
X47990060Y-30666892D01*
X47951358Y-30688014D01*
X47911968Y-30711774D01*
X47897076Y-30721568D01*
X47860423Y-30743691D01*
X47811561Y-30769166D01*
X47757480Y-30794684D01*
X47705170Y-30816938D01*
X47664070Y-30831857D01*
X47634805Y-30842635D01*
X47595644Y-30859061D01*
X47554852Y-30877663D01*
X47553180Y-30878463D01*
X47505928Y-30898721D01*
X47450867Y-30918871D01*
X47400780Y-30934302D01*
X47354398Y-30947546D01*
X47308143Y-30962102D01*
X47271368Y-30975012D01*
X47268700Y-30976049D01*
X47225870Y-30991244D01*
X47176488Y-31006248D01*
X47126432Y-31019539D01*
X47081581Y-31029598D01*
X47047813Y-31034905D01*
X47039305Y-31035359D01*
X47012218Y-31037550D01*
X46995210Y-31041527D01*
X46993045Y-31043693D01*
X46991082Y-31049074D01*
X46989311Y-31058609D01*
X46987721Y-31073234D01*
X46986304Y-31093886D01*
X46985050Y-31121504D01*
X46983949Y-31157024D01*
X46982991Y-31201384D01*
X46982167Y-31255521D01*
X46981466Y-31320372D01*
X46980880Y-31396876D01*
X46980399Y-31485969D01*
X46980012Y-31588588D01*
X46979711Y-31705671D01*
X46979485Y-31838156D01*
X46979324Y-31986979D01*
X46979220Y-32153078D01*
X46979162Y-32337391D01*
X46979140Y-32540855D01*
X46979140Y-34140777D01*
X47004734Y-34164822D01*
X47045437Y-34213337D01*
X47080361Y-34274599D01*
X47105305Y-34341099D01*
X47107117Y-34347857D01*
X47111416Y-34366083D01*
X47114774Y-34385173D01*
X47117211Y-34407353D01*
X47118746Y-34434846D01*
X47119398Y-34469879D01*
X47119187Y-34514677D01*
X47118132Y-34571465D01*
X47116252Y-34642467D01*
X47113567Y-34729909D01*
X47111083Y-34806196D01*
X47108353Y-34895406D01*
X47106180Y-34979781D01*
X47104599Y-35056799D01*
X47103644Y-35123939D01*
X47103350Y-35178679D01*
X47103751Y-35218499D01*
X47104882Y-35240877D01*
X47105094Y-35242433D01*
X47119657Y-35301630D01*
X47142811Y-35343339D01*
X47176631Y-35369318D01*
X47223188Y-35381326D01*
X47269800Y-35382119D01*
X47334782Y-35378760D01*
X47334761Y-35412031D01*
X47330969Y-35437672D01*
X47316398Y-35451819D01*
X47308253Y-35455372D01*
X47277120Y-35463429D01*
X47231919Y-35470515D01*
X47178898Y-35476115D01*
X47124302Y-35479717D01*
X47074380Y-35480806D01*
X47035379Y-35478868D01*
X47030466Y-35478227D01*
X46997213Y-35474355D01*
X46976558Y-35476027D01*
X46961212Y-35484618D01*
X46952187Y-35492995D01*
X46929263Y-35515920D01*
X45092120Y-35515920D01*
X45064587Y-35494263D01*
X45037055Y-35472606D01*
X44285977Y-35477161D01*
X43534900Y-35481717D01*
X43534900Y-35442835D01*
X43535519Y-35422475D01*
X43537267Y-35384945D01*
X43539973Y-35333352D01*
X43543469Y-35270803D01*
X43547587Y-35200406D01*
X43552037Y-35127196D01*
X43556717Y-35036469D01*
X43560721Y-34928116D01*
X43564051Y-34804818D01*
X43566707Y-34669257D01*
X43568689Y-34524115D01*
X43569999Y-34372075D01*
X43570636Y-34215819D01*
X43570631Y-34191749D01*
X43983279Y-34191749D01*
X43983959Y-34372906D01*
X43985379Y-34558913D01*
X43986892Y-34696645D01*
X43994563Y-35315010D01*
X44326071Y-35308663D01*
X44416848Y-35306837D01*
X44510519Y-35304794D01*
X44602644Y-35302642D01*
X44688782Y-35300490D01*
X44764490Y-35298445D01*
X44825329Y-35296616D01*
X44836584Y-35296243D01*
X44895464Y-35293841D01*
X44947668Y-35290949D01*
X44989643Y-35287825D01*
X45017836Y-35284726D01*
X45028267Y-35282334D01*
X45030030Y-35277594D01*
X45031589Y-35265130D01*
X45032947Y-35244115D01*
X45034108Y-35213722D01*
X45035073Y-35173125D01*
X45035847Y-35121497D01*
X45036430Y-35058012D01*
X45036827Y-34981842D01*
X45037040Y-34892162D01*
X45037072Y-34788145D01*
X45036925Y-34668964D01*
X45036603Y-34533793D01*
X45036108Y-34381804D01*
X45035443Y-34212173D01*
X45034610Y-34024071D01*
X45033612Y-33816673D01*
X45033352Y-33764529D01*
X45025758Y-32254560D01*
X44895906Y-32254560D01*
X44830766Y-32253089D01*
X44757968Y-32249121D01*
X44687861Y-32243320D01*
X44645777Y-32238504D01*
X44575056Y-32228064D01*
X44493689Y-32214410D01*
X44406526Y-32198500D01*
X44318418Y-32181293D01*
X44234218Y-32163746D01*
X44158777Y-32146817D01*
X44096946Y-32131464D01*
X44079825Y-32126755D01*
X44039941Y-32116047D01*
X44007956Y-32108666D01*
X43988469Y-32105614D01*
X43984817Y-32106055D01*
X43983938Y-32117129D01*
X43984069Y-32145496D01*
X43985080Y-32188163D01*
X43986840Y-32242135D01*
X43989219Y-32304417D01*
X43992085Y-32372017D01*
X43995308Y-32441939D01*
X43998756Y-32511189D01*
X44002299Y-32576773D01*
X44005807Y-32635697D01*
X44009148Y-32684967D01*
X44011286Y-32711760D01*
X44014583Y-32757845D01*
X44016275Y-32805335D01*
X44016288Y-32857686D01*
X44014548Y-32918353D01*
X44010981Y-32990793D01*
X44005512Y-33078460D01*
X44002450Y-33123240D01*
X43997820Y-33203752D01*
X43993793Y-33302858D01*
X43990388Y-33418839D01*
X43987621Y-33549978D01*
X43985510Y-33694556D01*
X43984071Y-33850856D01*
X43983322Y-34017160D01*
X43983279Y-34191749D01*
X43570631Y-34191749D01*
X43570601Y-34058027D01*
X43569895Y-33901383D01*
X43568518Y-33748569D01*
X43566470Y-33602266D01*
X43563753Y-33465157D01*
X43560367Y-33339923D01*
X43556312Y-33229247D01*
X43551645Y-33136745D01*
X43546339Y-33045898D01*
X43542435Y-32970692D01*
X43539910Y-32906498D01*
X43538742Y-32848686D01*
X43538910Y-32792628D01*
X43540392Y-32733693D01*
X43543165Y-32667253D01*
X43547209Y-32588679D01*
X43548911Y-32557625D01*
X43553512Y-32470789D01*
X43558069Y-32378127D01*
X43562329Y-32285333D01*
X43566033Y-32198100D01*
X43568928Y-32122123D01*
X43570144Y-32085140D01*
X43576020Y-31890321D01*
X43553015Y-31883020D01*
X43537906Y-31873467D01*
X43511817Y-31852098D01*
X43477908Y-31821690D01*
X43439341Y-31785018D01*
X43422055Y-31767959D01*
X43360163Y-31703208D01*
X43310824Y-31644380D01*
X43269680Y-31586132D01*
X43256103Y-31564387D01*
X43217017Y-31498661D01*
X43188110Y-31447025D01*
X43168120Y-31406775D01*
X43155787Y-31375209D01*
X43149849Y-31349623D01*
X43148820Y-31334454D01*
X43145925Y-31305238D01*
X43138384Y-31265874D01*
X43129230Y-31229977D01*
X43125819Y-31217242D01*
X43122788Y-31203112D01*
X43120095Y-31186250D01*
X43117698Y-31165320D01*
X43115555Y-31138984D01*
X43113623Y-31105908D01*
X43111860Y-31064753D01*
X43110224Y-31014183D01*
X43108672Y-30952863D01*
X43107162Y-30879454D01*
X43105651Y-30792622D01*
X43104097Y-30691028D01*
X43102458Y-30573338D01*
X43100692Y-30438213D01*
X43098755Y-30284318D01*
X43098430Y-30258120D01*
X43096252Y-30073977D01*
X43094529Y-29906996D01*
X43093269Y-29754024D01*
X43092478Y-29611909D01*
X43092165Y-29477496D01*
X43092278Y-29392246D01*
X43244589Y-29392246D01*
X43244629Y-29521450D01*
X43245152Y-29656604D01*
X43246153Y-29800841D01*
X43247622Y-29957295D01*
X43249552Y-30129101D01*
X43250890Y-30237800D01*
X43252949Y-30397420D01*
X43254871Y-30537990D01*
X43256690Y-30660777D01*
X43258444Y-30767048D01*
X43260167Y-30858072D01*
X43261896Y-30935117D01*
X43263667Y-30999451D01*
X43265517Y-31052341D01*
X43267480Y-31095057D01*
X43269593Y-31128866D01*
X43271892Y-31155035D01*
X43274412Y-31174834D01*
X43277191Y-31189529D01*
X43278004Y-31192840D01*
X43288146Y-31236363D01*
X43296898Y-31281494D01*
X43300481Y-31304600D01*
X43313068Y-31351832D01*
X43338215Y-31408178D01*
X43373197Y-31469362D01*
X43415289Y-31531107D01*
X43461767Y-31589137D01*
X43509908Y-31639175D01*
X43518731Y-31647173D01*
X43578762Y-31700257D01*
X43572847Y-31289068D01*
X43570918Y-31181324D01*
X43568159Y-31064255D01*
X43564735Y-30943065D01*
X43560814Y-30822962D01*
X43556561Y-30709150D01*
X43552144Y-30606837D01*
X43549066Y-30545295D01*
X43544937Y-30465152D01*
X43541483Y-30391614D01*
X43538794Y-30327106D01*
X43536956Y-30274054D01*
X43536057Y-30234883D01*
X43536186Y-30212020D01*
X43536848Y-30207064D01*
X43548626Y-30205767D01*
X43576314Y-30206529D01*
X43615628Y-30209142D01*
X43656941Y-30212859D01*
X43733642Y-30218445D01*
X43805654Y-30218620D01*
X43884555Y-30213369D01*
X43892907Y-30212580D01*
X43940063Y-30208302D01*
X43979103Y-30205274D01*
X44006023Y-30203770D01*
X44016816Y-30204064D01*
X44016839Y-30204090D01*
X44017256Y-30215557D01*
X44016489Y-30247141D01*
X44014547Y-30298673D01*
X44011436Y-30369985D01*
X44007165Y-30460908D01*
X44001740Y-30571273D01*
X43995169Y-30700913D01*
X43992501Y-30752731D01*
X43988910Y-30834171D01*
X43985843Y-30926583D01*
X43983526Y-31021322D01*
X43982183Y-31109739D01*
X43981940Y-31157153D01*
X43981940Y-31357248D01*
X44196938Y-31363944D01*
X44261484Y-31365539D01*
X44343684Y-31366909D01*
X44440875Y-31368055D01*
X44550391Y-31368976D01*
X44669570Y-31369673D01*
X44795747Y-31370145D01*
X44926257Y-31370393D01*
X45058436Y-31370417D01*
X45189621Y-31370217D01*
X45317146Y-31369792D01*
X45438348Y-31369143D01*
X45550563Y-31368271D01*
X45651126Y-31367175D01*
X45737373Y-31365855D01*
X45806639Y-31364311D01*
X45820869Y-31363894D01*
X46037476Y-31357148D01*
X46030456Y-31010834D01*
X46028212Y-30915253D01*
X46025297Y-30814152D01*
X46021890Y-30712437D01*
X46018168Y-30615014D01*
X46014311Y-30526790D01*
X46010498Y-30452670D01*
X46009512Y-30435920D01*
X46005639Y-30370045D01*
X46002453Y-30311317D01*
X46000090Y-30262648D01*
X45998685Y-30226950D01*
X45998375Y-30207138D01*
X45998681Y-30204090D01*
X46009385Y-30203758D01*
X46036266Y-30205231D01*
X46075289Y-30208236D01*
X46122419Y-30212496D01*
X46123292Y-30212580D01*
X46203462Y-30218352D01*
X46275632Y-30218697D01*
X46351382Y-30213629D01*
X46359258Y-30212859D01*
X46405295Y-30208755D01*
X46443493Y-30206289D01*
X46469579Y-30205675D01*
X46479148Y-30206861D01*
X46479966Y-30217989D01*
X46479671Y-30246876D01*
X46478355Y-30290998D01*
X46476112Y-30347828D01*
X46473034Y-30414843D01*
X46469217Y-30489517D01*
X46467574Y-30519692D01*
X46463702Y-30603222D01*
X46460309Y-30703712D01*
X46457398Y-30818761D01*
X46454968Y-30945967D01*
X46453023Y-31082932D01*
X46451564Y-31227254D01*
X46450592Y-31376532D01*
X46450110Y-31528367D01*
X46450118Y-31680358D01*
X46450619Y-31830104D01*
X46451615Y-31975205D01*
X46453107Y-32113259D01*
X46455096Y-32241868D01*
X46457585Y-32358630D01*
X46460575Y-32461144D01*
X46464068Y-32547011D01*
X46466112Y-32584760D01*
X46470300Y-32655564D01*
X46474044Y-32721781D01*
X46477165Y-32779992D01*
X46479484Y-32826779D01*
X46480820Y-32858724D01*
X46481074Y-32869240D01*
X46481300Y-32909880D01*
X45993232Y-32909880D01*
X45998909Y-32838760D01*
X46005552Y-32750792D01*
X46011196Y-32664788D01*
X46015964Y-32577573D01*
X46019978Y-32485969D01*
X46023362Y-32386800D01*
X46026238Y-32276890D01*
X46028729Y-32153062D01*
X46030959Y-32012140D01*
X46030991Y-32009830D01*
X46037411Y-31556821D01*
X45897069Y-31550090D01*
X45858649Y-31548790D01*
X45802044Y-31547634D01*
X45729389Y-31546622D01*
X45642818Y-31545755D01*
X45544466Y-31545032D01*
X45436467Y-31544454D01*
X45320957Y-31544020D01*
X45200068Y-31543730D01*
X45075937Y-31543585D01*
X44950698Y-31543585D01*
X44826484Y-31543730D01*
X44705431Y-31544019D01*
X44589674Y-31544452D01*
X44481347Y-31545031D01*
X44382584Y-31545754D01*
X44295520Y-31546622D01*
X44222290Y-31547635D01*
X44165028Y-31548793D01*
X44126720Y-31550057D01*
X43981939Y-31556680D01*
X43981940Y-31742799D01*
X43981940Y-31928918D01*
X44009880Y-31943283D01*
X44037083Y-31954645D01*
X44079223Y-31969151D01*
X44131437Y-31985378D01*
X44188862Y-32001901D01*
X44246634Y-32017293D01*
X44299892Y-32030131D01*
X44323391Y-32035162D01*
X44429494Y-32054213D01*
X44546047Y-32070991D01*
X44666633Y-32084822D01*
X44784835Y-32095029D01*
X44894235Y-32100940D01*
X44960301Y-32102159D01*
X45022917Y-32102257D01*
X45068506Y-32102828D01*
X45100360Y-32104294D01*
X45121772Y-32107074D01*
X45136034Y-32111587D01*
X45146438Y-32118255D01*
X45155881Y-32127098D01*
X45180820Y-32152036D01*
X45180820Y-32613095D01*
X45180887Y-32688989D01*
X45181083Y-32783055D01*
X45181398Y-32893141D01*
X45181822Y-33017100D01*
X45182348Y-33152782D01*
X45182965Y-33298038D01*
X45183663Y-33450720D01*
X45184434Y-33608677D01*
X45185269Y-33769762D01*
X45186157Y-33931825D01*
X45187090Y-34092716D01*
X45187581Y-34173668D01*
X45194342Y-35273183D01*
X45275586Y-35266096D01*
X45315863Y-35263006D01*
X45339559Y-35262703D01*
X45350277Y-35265613D01*
X45351620Y-35272162D01*
X45350701Y-35274983D01*
X45344706Y-35295582D01*
X45338312Y-35324372D01*
X45337765Y-35327238D01*
X45330958Y-35363520D01*
X45790285Y-35363520D01*
X45755560Y-35318027D01*
X45722393Y-35258638D01*
X45704611Y-35190743D01*
X45701718Y-35118511D01*
X45703542Y-35107024D01*
X46024100Y-35107024D01*
X46024992Y-35149989D01*
X46028969Y-35180605D01*
X46037976Y-35206812D01*
X46053958Y-35236550D01*
X46057184Y-35241984D01*
X46092167Y-35289018D01*
X46136740Y-35324947D01*
X46145635Y-35330435D01*
X46201001Y-35363520D01*
X46544826Y-35363520D01*
X46546272Y-35362789D01*
X46740380Y-35362789D01*
X46783560Y-35363154D01*
X46810757Y-35362201D01*
X46823265Y-35356570D01*
X46826660Y-35343027D01*
X46826740Y-35338120D01*
X46822137Y-35318056D01*
X46807838Y-35314786D01*
X46783102Y-35328305D01*
X46770860Y-35337805D01*
X46740380Y-35362789D01*
X46546272Y-35362789D01*
X46607043Y-35332085D01*
X46655664Y-35304788D01*
X46703538Y-35273176D01*
X46745820Y-35240849D01*
X46777667Y-35211406D01*
X46790208Y-35195936D01*
X46796662Y-35180924D01*
X46801743Y-35156194D01*
X46805745Y-35119060D01*
X46808962Y-35066836D01*
X46811552Y-35001032D01*
X46813775Y-34939393D01*
X46816250Y-34880506D01*
X46818747Y-34829258D01*
X46821035Y-34790533D01*
X46822201Y-34775461D01*
X46827227Y-34720802D01*
X46793963Y-34727551D01*
X46773434Y-34731273D01*
X46736711Y-34737492D01*
X46687676Y-34745569D01*
X46630211Y-34754863D01*
X46572740Y-34764018D01*
X46484169Y-34778458D01*
X46412441Y-34791299D01*
X46354223Y-34803353D01*
X46306180Y-34815431D01*
X46264980Y-34828345D01*
X46227288Y-34842906D01*
X46201418Y-34854414D01*
X46132585Y-34892178D01*
X46082227Y-34933957D01*
X46048555Y-34982302D01*
X46029777Y-35039764D01*
X46024100Y-35107024D01*
X45703542Y-35107024D01*
X45713217Y-35046112D01*
X45738612Y-34977716D01*
X45777409Y-34917494D01*
X45806809Y-34887110D01*
X45839049Y-34860312D01*
X45872054Y-34836764D01*
X45907759Y-34815902D01*
X45948102Y-34797162D01*
X45995017Y-34779980D01*
X46050443Y-34763792D01*
X46116314Y-34748033D01*
X46194569Y-34732140D01*
X46287143Y-34715549D01*
X46395973Y-34697695D01*
X46522995Y-34678015D01*
X46526427Y-34677494D01*
X46614172Y-34661941D01*
X46687707Y-34644264D01*
X46745107Y-34625019D01*
X46784444Y-34604767D01*
X46789198Y-34601263D01*
X46811148Y-34571830D01*
X46822330Y-34529457D01*
X46823462Y-34477970D01*
X46815259Y-34421191D01*
X46798441Y-34362944D01*
X46773725Y-34307053D01*
X46741827Y-34257341D01*
X46719996Y-34232523D01*
X46664532Y-34186797D01*
X46601630Y-34154109D01*
X46528265Y-34133438D01*
X46441410Y-34123767D01*
X46394048Y-34122732D01*
X46276369Y-34130847D01*
X46169642Y-34154581D01*
X46074845Y-34193593D01*
X45992957Y-34247538D01*
X45963651Y-34273592D01*
X45934505Y-34299535D01*
X45908636Y-34318571D01*
X45891076Y-34327060D01*
X45889580Y-34327200D01*
X45880428Y-34325316D01*
X45875137Y-34317004D01*
X45872957Y-34298273D01*
X45873139Y-34265132D01*
X45873829Y-34243380D01*
X45876780Y-34159560D01*
X45990689Y-34102485D01*
X46083665Y-34060383D01*
X46174500Y-34029376D01*
X46270400Y-34007433D01*
X46378571Y-33992525D01*
X46382390Y-33992134D01*
X46485851Y-33986850D01*
X46589407Y-33991182D01*
X46686415Y-34004599D01*
X46756279Y-34021965D01*
X46789508Y-34032289D01*
X46813897Y-34039695D01*
X46824192Y-34042588D01*
X46824200Y-34042588D01*
X46824488Y-34032628D01*
X46824768Y-34003452D01*
X46825037Y-33956165D01*
X46825292Y-33891874D01*
X46825533Y-33811681D01*
X46825758Y-33716693D01*
X46825964Y-33608013D01*
X46826150Y-33486747D01*
X46826313Y-33354000D01*
X46826453Y-33210876D01*
X46826568Y-33058481D01*
X46826654Y-32897918D01*
X46826712Y-32730293D01*
X46826738Y-32556711D01*
X46826740Y-32503018D01*
X46826740Y-30963316D01*
X46849600Y-30940840D01*
X46875781Y-30924505D01*
X46919062Y-30908904D01*
X46953740Y-30900003D01*
X46996444Y-30890055D01*
X47035311Y-30880479D01*
X47062994Y-30873096D01*
X47066221Y-30872140D01*
X47093740Y-30865335D01*
X47114440Y-30862639D01*
X47132911Y-30859590D01*
X47163136Y-30851699D01*
X47189919Y-30843455D01*
X47225150Y-30832112D01*
X47272434Y-30817184D01*
X47324381Y-30800993D01*
X47355060Y-30791533D01*
X47403650Y-30775629D01*
X47449383Y-30758920D01*
X47486010Y-30743775D01*
X47502380Y-30735663D01*
X47536510Y-30718829D01*
X47577878Y-30701885D01*
X47598900Y-30694534D01*
X47638443Y-30680071D01*
X47684757Y-30660665D01*
X47720820Y-30643891D01*
X47754764Y-30627299D01*
X47782030Y-30614318D01*
X47797075Y-30607582D01*
X47797555Y-30607402D01*
X47819808Y-30596215D01*
X47852132Y-30576244D01*
X47888733Y-30551396D01*
X47923818Y-30525582D01*
X47948053Y-30505860D01*
X47979623Y-30480759D01*
X48012117Y-30458714D01*
X48025620Y-30451050D01*
X48052209Y-30436427D01*
X48079193Y-30418769D01*
X48110592Y-30395113D01*
X48150427Y-30362497D01*
X48181155Y-30336450D01*
X48229225Y-30294759D01*
X48265766Y-30260946D01*
X48295119Y-30230201D01*
X48321625Y-30197713D01*
X48349625Y-30158668D01*
X48373570Y-30123159D01*
X48417401Y-30056450D01*
X48451239Y-30001991D01*
X48476880Y-29955477D01*
X48496117Y-29912606D01*
X48510743Y-29869072D01*
X48522551Y-29820573D01*
X48533336Y-29762804D01*
X48539610Y-29724720D01*
X48541919Y-29708983D01*
X48544015Y-29691222D01*
X48545911Y-29670433D01*
X48547616Y-29645611D01*
X48549141Y-29615752D01*
X48550499Y-29579852D01*
X48551699Y-29536907D01*
X48552753Y-29485913D01*
X48553672Y-29425866D01*
X48554467Y-29355762D01*
X48555148Y-29274596D01*
X48555727Y-29181364D01*
X48556215Y-29075063D01*
X48556623Y-28954688D01*
X48556962Y-28819235D01*
X48557243Y-28667701D01*
X48557476Y-28499080D01*
X48557674Y-28312369D01*
X48557846Y-28106563D01*
X48557882Y-28058480D01*
X48559020Y-26498920D01*
X48536445Y-26456704D01*
X48513510Y-26422984D01*
X48479828Y-26384096D01*
X48441371Y-26346093D01*
X48404110Y-26315024D01*
X48382968Y-26301198D01*
X48337856Y-26277690D01*
X48298311Y-26260604D01*
X48259230Y-26248751D01*
X48215511Y-26240940D01*
X48162050Y-26235982D01*
X48093744Y-26232690D01*
X48088110Y-26232485D01*
X48004922Y-26230695D01*
X47940039Y-26232024D01*
X47891677Y-26236532D01*
X47874750Y-26239631D01*
X47816005Y-26256542D01*
X47757080Y-26280316D01*
X47701923Y-26308669D01*
X47654480Y-26339318D01*
X47618700Y-26369978D01*
X47598529Y-26398364D01*
X47597954Y-26399805D01*
X47596049Y-26414161D01*
X47594712Y-26445930D01*
X47593948Y-26495445D01*
X47593758Y-26563039D01*
X47594145Y-26649044D01*
X47595109Y-26753793D01*
X47596655Y-26877620D01*
X47598782Y-27020856D01*
X47601495Y-27183835D01*
X47603773Y-27311477D01*
X47606600Y-27467046D01*
X47609032Y-27604311D01*
X47611062Y-27725284D01*
X47612684Y-27831977D01*
X47613892Y-27926403D01*
X47614678Y-28010573D01*
X47615037Y-28086501D01*
X47614961Y-28156196D01*
X47614445Y-28221673D01*
X47613481Y-28284944D01*
X47612063Y-28348019D01*
X47610185Y-28412913D01*
X47607840Y-28481636D01*
X47605022Y-28556201D01*
X47601723Y-28638620D01*
X47599262Y-28698710D01*
X47593601Y-28833966D01*
X47588454Y-28950502D01*
X47583675Y-29049907D01*
X47579115Y-29133770D01*
X47574627Y-29203682D01*
X47570064Y-29261230D01*
X47565277Y-29308005D01*
X47560120Y-29345596D01*
X47554444Y-29375591D01*
X47548102Y-29399580D01*
X47540947Y-29419153D01*
X47532831Y-29435898D01*
X47530399Y-29440240D01*
X47499321Y-29485744D01*
X47456528Y-29536509D01*
X47405512Y-29589422D01*
X47349765Y-29641373D01*
X47292778Y-29689250D01*
X47238046Y-29729943D01*
X47189060Y-29760339D01*
X47153358Y-29776138D01*
X47119105Y-29789966D01*
X47084338Y-29808358D01*
X47080634Y-29810675D01*
X47052136Y-29823843D01*
X47010978Y-29836899D01*
X46964740Y-29847953D01*
X46921005Y-29855114D01*
X46895613Y-29856800D01*
X46876679Y-29850743D01*
X46855805Y-29837378D01*
X46831820Y-29817957D01*
X46826740Y-27857974D01*
X46821660Y-25897992D01*
X46794577Y-25857069D01*
X46775326Y-25831607D01*
X46746377Y-25797584D01*
X46712596Y-25760609D01*
X46695537Y-25742893D01*
X46665326Y-25712932D01*
X46639260Y-25689961D01*
X46612659Y-25670990D01*
X46580843Y-25653024D01*
X46539134Y-25633073D01*
X46488940Y-25610803D01*
X46426013Y-25584453D01*
X46370237Y-25564293D01*
X46317170Y-25549538D01*
X46262368Y-25539398D01*
X46201390Y-25533086D01*
X46129792Y-25529817D01*
X46043131Y-25528800D01*
X46026224Y-25528795D01*
X45954208Y-25529422D01*
X45897830Y-25531403D01*
X45852429Y-25535116D01*
X45813348Y-25540938D01*
X45777083Y-25548953D01*
X45707570Y-25569483D01*
X45639113Y-25595124D01*
X45576685Y-25623644D01*
X45525257Y-25652814D01*
X45494884Y-25675559D01*
X45470561Y-25695885D01*
X45451453Y-25708922D01*
X45444723Y-25711520D01*
X45428445Y-25719261D01*
X45403174Y-25740360D01*
X45371711Y-25771631D01*
X45336860Y-25809886D01*
X45301423Y-25851939D01*
X45268205Y-25894603D01*
X45240007Y-25934692D01*
X45221691Y-25965087D01*
X45220295Y-25971081D01*
X45219020Y-25984052D01*
X45217865Y-26004657D01*
X45216829Y-26033549D01*
X45215911Y-26071384D01*
X45215108Y-26118817D01*
X45214421Y-26176503D01*
X45213846Y-26245098D01*
X45213384Y-26325255D01*
X45213033Y-26417631D01*
X45212790Y-26522879D01*
X45212656Y-26641657D01*
X45212628Y-26774617D01*
X45212706Y-26922416D01*
X45212887Y-27085709D01*
X45213172Y-27265150D01*
X45213557Y-27461394D01*
X45214042Y-27675098D01*
X45214626Y-27906915D01*
X45215306Y-28157501D01*
X45216083Y-28427511D01*
X45216392Y-28531788D01*
X45223990Y-31074393D01*
X45197786Y-31100596D01*
X45174775Y-31118243D01*
X45153229Y-31126678D01*
X45151140Y-31126800D01*
X45121516Y-31125702D01*
X45077012Y-31122660D01*
X45021250Y-31118048D01*
X44957849Y-31112239D01*
X44890430Y-31105610D01*
X44822612Y-31098533D01*
X44758015Y-31091384D01*
X44700260Y-31084538D01*
X44652967Y-31078368D01*
X44619755Y-31073250D01*
X44606780Y-31070480D01*
X44567408Y-31059375D01*
X44528129Y-31048796D01*
X44515340Y-31045507D01*
X44449376Y-31019181D01*
X44395401Y-30976911D01*
X44354119Y-30919656D01*
X44326238Y-30848371D01*
X44313026Y-30771200D01*
X44312005Y-30753598D01*
X44310292Y-30717107D01*
X44307943Y-30663145D01*
X44305010Y-30593128D01*
X44301547Y-30508474D01*
X44297609Y-30410601D01*
X44293249Y-30300925D01*
X44288521Y-30180864D01*
X44283478Y-30051836D01*
X44278176Y-29915257D01*
X44272667Y-29772546D01*
X44267006Y-29625118D01*
X44261246Y-29474393D01*
X44255442Y-29321786D01*
X44249646Y-29168716D01*
X44243914Y-29016599D01*
X44238298Y-28866854D01*
X44232853Y-28720897D01*
X44227633Y-28580145D01*
X44222691Y-28446017D01*
X44218081Y-28319929D01*
X44213858Y-28203299D01*
X44210075Y-28097544D01*
X44206786Y-28004081D01*
X44204044Y-27924328D01*
X44201904Y-27859702D01*
X44200420Y-27811620D01*
X44200077Y-27799400D01*
X44196778Y-27726669D01*
X44190934Y-27669489D01*
X44181980Y-27623188D01*
X44176281Y-27603042D01*
X44157397Y-27554071D01*
X44130845Y-27499347D01*
X44100404Y-27445691D01*
X44069852Y-27399923D01*
X44050966Y-27376814D01*
X44023132Y-27353044D01*
X43981546Y-27325088D01*
X43931466Y-27295925D01*
X43878153Y-27268536D01*
X43826868Y-27245901D01*
X43806357Y-27238235D01*
X43772295Y-27227040D01*
X43745002Y-27220732D01*
X43717576Y-27218761D01*
X43683115Y-27220572D01*
X43640499Y-27224967D01*
X43567693Y-27236738D01*
X43510980Y-27253773D01*
X43471743Y-27275545D01*
X43453886Y-27295982D01*
X43437946Y-27314671D01*
X43413684Y-27333091D01*
X43412082Y-27334048D01*
X43391915Y-27351066D01*
X43370716Y-27380309D01*
X43346377Y-27424861D01*
X43337129Y-27443800D01*
X43318274Y-27484553D01*
X43305140Y-27517933D01*
X43296149Y-27550182D01*
X43289720Y-27587542D01*
X43284273Y-27636256D01*
X43281840Y-27662240D01*
X43279763Y-27693083D01*
X43277397Y-27742331D01*
X43274798Y-27808072D01*
X43272024Y-27888394D01*
X43269131Y-27981384D01*
X43266177Y-28085131D01*
X43263217Y-28197723D01*
X43260310Y-28317247D01*
X43257512Y-28441791D01*
X43254937Y-28566480D01*
X43251914Y-28725793D01*
X43249420Y-28872254D01*
X43247448Y-29008996D01*
X43245991Y-29139153D01*
X43245040Y-29265858D01*
X43244589Y-29392246D01*
X43092278Y-29392246D01*
X43092338Y-29347633D01*
X43093003Y-29219166D01*
X43094169Y-29088943D01*
X43095843Y-28953811D01*
X43098032Y-28810617D01*
X43100746Y-28656207D01*
X43102541Y-28561400D01*
X43105519Y-28408098D01*
X43108187Y-28273617D01*
X43110606Y-28156459D01*
X43112839Y-28055128D01*
X43114948Y-27968127D01*
X43116995Y-27893960D01*
X43119044Y-27831130D01*
X43121157Y-27778140D01*
X43123397Y-27733494D01*
X43125825Y-27695696D01*
X43128505Y-27663248D01*
X43131499Y-27634654D01*
X43134869Y-27608418D01*
X43138678Y-27583043D01*
X43142989Y-27557032D01*
X43144992Y-27545400D01*
X43159800Y-27482008D01*
X43181551Y-27417567D01*
X43208153Y-27356438D01*
X43237515Y-27302981D01*
X43267546Y-27261560D01*
X43291813Y-27239221D01*
X43321324Y-27215614D01*
X43347137Y-27188915D01*
X43350567Y-27184511D01*
X43387265Y-27149575D01*
X43439760Y-27119621D01*
X43503923Y-27095657D01*
X43575623Y-27078692D01*
X43650730Y-27069736D01*
X43725115Y-27069796D01*
X43786391Y-27078046D01*
X43848081Y-27093772D01*
X43906540Y-27115142D01*
X43967104Y-27144559D01*
X44035103Y-27184425D01*
X44065576Y-27203834D01*
X44130689Y-27250582D01*
X44183791Y-27300033D01*
X44227818Y-27356184D01*
X44265707Y-27423034D01*
X44300392Y-27504581D01*
X44314059Y-27542304D01*
X44329491Y-27588054D01*
X44339973Y-27624870D01*
X44346568Y-27659193D01*
X44350335Y-27697465D01*
X44352336Y-27746129D01*
X44353057Y-27779080D01*
X44354120Y-27824795D01*
X44355884Y-27887186D01*
X44358292Y-27964851D01*
X44361291Y-28056387D01*
X44364827Y-28160394D01*
X44368846Y-28275469D01*
X44373292Y-28400212D01*
X44378113Y-28533220D01*
X44383252Y-28673093D01*
X44388657Y-28818429D01*
X44394273Y-28967826D01*
X44400046Y-29119882D01*
X44405921Y-29273197D01*
X44411844Y-29426369D01*
X44417761Y-29577995D01*
X44423618Y-29726676D01*
X44429359Y-29871008D01*
X44434932Y-30009591D01*
X44440281Y-30141024D01*
X44445352Y-30263903D01*
X44450091Y-30376829D01*
X44454445Y-30478400D01*
X44458357Y-30567213D01*
X44461775Y-30641868D01*
X44464644Y-30700963D01*
X44466909Y-30743096D01*
X44468516Y-30766867D01*
X44468950Y-30770837D01*
X44478415Y-30818134D01*
X44492289Y-30851455D01*
X44514517Y-30875003D01*
X44549044Y-30892984D01*
X44598907Y-30909339D01*
X44635954Y-30917901D01*
X44688391Y-30927178D01*
X44751327Y-30936568D01*
X44819875Y-30945470D01*
X44889145Y-30953283D01*
X44954250Y-30959404D01*
X45010301Y-30963232D01*
X45045041Y-30964240D01*
X45071488Y-30964240D01*
X45064048Y-28482660D01*
X45063256Y-28214655D01*
X45062546Y-27966224D01*
X45061921Y-27736619D01*
X45061383Y-27525093D01*
X45060935Y-27330899D01*
X45060579Y-27153292D01*
X45060318Y-26991523D01*
X45060153Y-26844846D01*
X45060086Y-26712514D01*
X45060121Y-26593780D01*
X45060260Y-26487898D01*
X45060504Y-26394120D01*
X45060856Y-26311700D01*
X45061318Y-26239891D01*
X45061893Y-26177946D01*
X45062582Y-26125119D01*
X45063389Y-26080661D01*
X45064315Y-26043827D01*
X45065363Y-26013870D01*
X45066535Y-25990043D01*
X45067833Y-25971599D01*
X45069260Y-25957791D01*
X45070818Y-25947872D01*
X45071825Y-25943443D01*
X45087995Y-25901494D01*
X45115279Y-25851007D01*
X45150607Y-25796067D01*
X45190905Y-25740760D01*
X45233101Y-25689173D01*
X45274123Y-25645392D01*
X45310899Y-25613503D01*
X45328140Y-25602546D01*
X45352682Y-25586891D01*
X45383826Y-25563297D01*
X45405599Y-25544941D01*
X45435270Y-25521482D01*
X45470284Y-25499984D01*
X45514069Y-25478826D01*
X45570054Y-25456387D01*
X45641664Y-25431045D01*
X45658018Y-25425534D01*
X45719441Y-25407121D01*
X45781166Y-25393528D01*
X45847164Y-25384347D01*
X45921409Y-25379170D01*
X46007872Y-25377589D01*
X46109548Y-25379169D01*
G36*
X48052178Y-33219760D02*
X48050050Y-33247660D01*
X48047502Y-33295483D01*
X48044534Y-33363281D01*
X48041142Y-33451106D01*
X48037325Y-33559010D01*
X48033082Y-33687046D01*
X48028409Y-33835265D01*
X48023306Y-34003721D01*
X48020447Y-34100530D01*
X48014435Y-34305661D01*
X48108927Y-34212228D01*
X48193101Y-34137881D01*
X48279341Y-34080665D01*
X48372773Y-34037621D01*
X48457420Y-34011068D01*
X48522434Y-33998775D01*
X48600579Y-33991300D01*
X48685227Y-33988717D01*
X48769749Y-33991097D01*
X48847520Y-33998514D01*
X48892291Y-34006282D01*
X49013745Y-34041909D01*
X49122319Y-34092902D01*
X49217253Y-34158315D01*
X49297785Y-34237204D01*
X49363154Y-34328624D01*
X49412598Y-34431628D01*
X49445356Y-34545273D01*
X49460666Y-34668612D01*
X49461762Y-34713280D01*
X49452820Y-34840492D01*
X49425778Y-34958794D01*
X49380306Y-35068930D01*
X49316079Y-35171648D01*
X49232770Y-35267693D01*
X49208335Y-35291298D01*
X49125475Y-35356980D01*
X49028318Y-35414016D01*
X48921992Y-35459718D01*
X48838420Y-35485165D01*
X48776857Y-35496968D01*
X48702693Y-35505633D01*
X48622854Y-35510820D01*
X48544263Y-35512190D01*
X48473846Y-35509402D01*
X48434514Y-35505011D01*
X48361078Y-35488831D01*
X48284395Y-35463536D01*
X48209485Y-35431451D01*
X48141367Y-35394897D01*
X48085062Y-35356200D01*
X48056100Y-35329864D01*
X48037859Y-35312094D01*
X48025634Y-35303026D01*
X48024515Y-35302735D01*
X48014432Y-35308177D01*
X47990802Y-35323280D01*
X47956695Y-35346012D01*
X47915184Y-35374344D01*
X47894129Y-35388920D01*
X47842754Y-35424018D01*
X47804359Y-35448500D01*
X47775758Y-35464064D01*
X47753769Y-35472407D01*
X47735205Y-35475227D01*
X47732165Y-35475280D01*
X47694401Y-35475280D01*
X47704683Y-35391460D01*
X47706357Y-35367333D01*
X47707882Y-35324643D01*
X47709256Y-35265148D01*
X47710481Y-35190603D01*
X47711556Y-35102767D01*
X47712480Y-35003395D01*
X47713254Y-34894245D01*
X47713730Y-34804720D01*
X48010575Y-34804720D01*
X48011031Y-34871504D01*
X48012518Y-34922696D01*
X48015481Y-34963013D01*
X48020367Y-34997175D01*
X48027620Y-35029899D01*
X48034062Y-35053499D01*
X48070061Y-35151360D01*
X48117531Y-35232830D01*
X48177278Y-35298815D01*
X48250106Y-35350217D01*
X48329341Y-35385403D01*
X48436748Y-35412906D01*
X48545739Y-35422120D01*
X48652153Y-35412749D01*
X48668441Y-35409552D01*
X48758591Y-35380282D01*
X48842321Y-35332920D01*
X48917519Y-35269228D01*
X48982076Y-35190971D01*
X49030649Y-35106803D01*
X49062982Y-35033525D01*
X49085376Y-34967761D01*
X49100175Y-34900840D01*
X49109724Y-34824088D01*
X49110968Y-34809751D01*
X49114157Y-34681219D01*
X49101771Y-34564082D01*
X49074126Y-34458905D01*
X49031533Y-34366252D01*
X48974309Y-34286690D01*
X48902765Y-34220784D01*
X48817217Y-34169098D01*
X48737830Y-34138031D01*
X48695744Y-34129562D01*
X48640235Y-34124819D01*
X48577853Y-34123777D01*
X48515147Y-34126415D01*
X48458664Y-34132709D01*
X48426940Y-34139121D01*
X48327657Y-34173460D01*
X48242934Y-34221621D01*
X48171694Y-34284449D01*
X48112863Y-34362788D01*
X48090112Y-34403400D01*
X48061761Y-34463322D01*
X48040696Y-34519892D01*
X48025982Y-34577834D01*
X48016681Y-34641871D01*
X48011859Y-34716724D01*
X48010575Y-34804720D01*
X47713730Y-34804720D01*
X47713877Y-34777073D01*
X47714349Y-34653636D01*
X47714671Y-34525691D01*
X47714841Y-34394995D01*
X47714859Y-34263305D01*
X47714727Y-34132377D01*
X47714442Y-34003969D01*
X47714006Y-33879837D01*
X47713417Y-33761738D01*
X47712677Y-33651428D01*
X47711784Y-33550665D01*
X47710739Y-33461206D01*
X47709540Y-33384807D01*
X47708189Y-33323225D01*
X47706685Y-33278217D01*
X47705028Y-33251540D01*
X47704888Y-33250240D01*
X47695031Y-33163880D01*
X48058149Y-33163880D01*
X48052178Y-33219760D01*
X48052178Y-33219760D01*
G37*
X48052178Y-33219760D02*
X48050050Y-33247660D01*
X48047502Y-33295483D01*
X48044534Y-33363281D01*
X48041142Y-33451106D01*
X48037325Y-33559010D01*
X48033082Y-33687046D01*
X48028409Y-33835265D01*
X48023306Y-34003721D01*
X48020447Y-34100530D01*
X48014435Y-34305661D01*
X48108927Y-34212228D01*
X48193101Y-34137881D01*
X48279341Y-34080665D01*
X48372773Y-34037621D01*
X48457420Y-34011068D01*
X48522434Y-33998775D01*
X48600579Y-33991300D01*
X48685227Y-33988717D01*
X48769749Y-33991097D01*
X48847520Y-33998514D01*
X48892291Y-34006282D01*
X49013745Y-34041909D01*
X49122319Y-34092902D01*
X49217253Y-34158315D01*
X49297785Y-34237204D01*
X49363154Y-34328624D01*
X49412598Y-34431628D01*
X49445356Y-34545273D01*
X49460666Y-34668612D01*
X49461762Y-34713280D01*
X49452820Y-34840492D01*
X49425778Y-34958794D01*
X49380306Y-35068930D01*
X49316079Y-35171648D01*
X49232770Y-35267693D01*
X49208335Y-35291298D01*
X49125475Y-35356980D01*
X49028318Y-35414016D01*
X48921992Y-35459718D01*
X48838420Y-35485165D01*
X48776857Y-35496968D01*
X48702693Y-35505633D01*
X48622854Y-35510820D01*
X48544263Y-35512190D01*
X48473846Y-35509402D01*
X48434514Y-35505011D01*
X48361078Y-35488831D01*
X48284395Y-35463536D01*
X48209485Y-35431451D01*
X48141367Y-35394897D01*
X48085062Y-35356200D01*
X48056100Y-35329864D01*
X48037859Y-35312094D01*
X48025634Y-35303026D01*
X48024515Y-35302735D01*
X48014432Y-35308177D01*
X47990802Y-35323280D01*
X47956695Y-35346012D01*
X47915184Y-35374344D01*
X47894129Y-35388920D01*
X47842754Y-35424018D01*
X47804359Y-35448500D01*
X47775758Y-35464064D01*
X47753769Y-35472407D01*
X47735205Y-35475227D01*
X47732165Y-35475280D01*
X47694401Y-35475280D01*
X47704683Y-35391460D01*
X47706357Y-35367333D01*
X47707882Y-35324643D01*
X47709256Y-35265148D01*
X47710481Y-35190603D01*
X47711556Y-35102767D01*
X47712480Y-35003395D01*
X47713254Y-34894245D01*
X47713730Y-34804720D01*
X48010575Y-34804720D01*
X48011031Y-34871504D01*
X48012518Y-34922696D01*
X48015481Y-34963013D01*
X48020367Y-34997175D01*
X48027620Y-35029899D01*
X48034062Y-35053499D01*
X48070061Y-35151360D01*
X48117531Y-35232830D01*
X48177278Y-35298815D01*
X48250106Y-35350217D01*
X48329341Y-35385403D01*
X48436748Y-35412906D01*
X48545739Y-35422120D01*
X48652153Y-35412749D01*
X48668441Y-35409552D01*
X48758591Y-35380282D01*
X48842321Y-35332920D01*
X48917519Y-35269228D01*
X48982076Y-35190971D01*
X49030649Y-35106803D01*
X49062982Y-35033525D01*
X49085376Y-34967761D01*
X49100175Y-34900840D01*
X49109724Y-34824088D01*
X49110968Y-34809751D01*
X49114157Y-34681219D01*
X49101771Y-34564082D01*
X49074126Y-34458905D01*
X49031533Y-34366252D01*
X48974309Y-34286690D01*
X48902765Y-34220784D01*
X48817217Y-34169098D01*
X48737830Y-34138031D01*
X48695744Y-34129562D01*
X48640235Y-34124819D01*
X48577853Y-34123777D01*
X48515147Y-34126415D01*
X48458664Y-34132709D01*
X48426940Y-34139121D01*
X48327657Y-34173460D01*
X48242934Y-34221621D01*
X48171694Y-34284449D01*
X48112863Y-34362788D01*
X48090112Y-34403400D01*
X48061761Y-34463322D01*
X48040696Y-34519892D01*
X48025982Y-34577834D01*
X48016681Y-34641871D01*
X48011859Y-34716724D01*
X48010575Y-34804720D01*
X47713730Y-34804720D01*
X47713877Y-34777073D01*
X47714349Y-34653636D01*
X47714671Y-34525691D01*
X47714841Y-34394995D01*
X47714859Y-34263305D01*
X47714727Y-34132377D01*
X47714442Y-34003969D01*
X47714006Y-33879837D01*
X47713417Y-33761738D01*
X47712677Y-33651428D01*
X47711784Y-33550665D01*
X47710739Y-33461206D01*
X47709540Y-33384807D01*
X47708189Y-33323225D01*
X47706685Y-33278217D01*
X47705028Y-33251540D01*
X47704888Y-33250240D01*
X47695031Y-33163880D01*
X48058149Y-33163880D01*
X48052178Y-33219760D01*
G36*
X50511580Y-33987734D02*
X50543798Y-33990676D01*
X50582905Y-33996537D01*
X50630932Y-34005961D01*
X50683566Y-34017836D01*
X50736493Y-34031051D01*
X50785401Y-34044491D01*
X50825976Y-34057045D01*
X50853905Y-34067601D01*
X50863565Y-34073153D01*
X50863288Y-34085191D01*
X50855009Y-34110193D01*
X50840427Y-34143267D01*
X50836435Y-34151352D01*
X50817979Y-34191082D01*
X50802864Y-34229204D01*
X50794181Y-34257873D01*
X50793898Y-34259298D01*
X50787058Y-34284312D01*
X50775773Y-34294833D01*
X50759160Y-34296720D01*
X50732982Y-34289271D01*
X50720438Y-34272570D01*
X50689755Y-34226268D01*
X50642625Y-34182677D01*
X50582902Y-34145357D01*
X50582257Y-34145029D01*
X50502240Y-34115523D01*
X50415654Y-34103833D01*
X50326151Y-34110215D01*
X50270816Y-34123352D01*
X50225915Y-34139037D01*
X50191986Y-34157251D01*
X50159892Y-34183422D01*
X50144443Y-34198411D01*
X50099862Y-34253296D01*
X50075067Y-34309850D01*
X50069524Y-34369877D01*
X50078527Y-34421371D01*
X50101620Y-34467921D01*
X50143360Y-34511416D01*
X50202159Y-34550645D01*
X50276429Y-34584400D01*
X50306540Y-34594943D01*
X50334444Y-34603025D01*
X50377268Y-34614196D01*
X50430079Y-34627224D01*
X50487941Y-34640874D01*
X50514820Y-34647006D01*
X50629005Y-34676492D01*
X50724520Y-34709474D01*
X50802816Y-34746618D01*
X50865346Y-34788590D01*
X50904746Y-34825813D01*
X50947869Y-34888428D01*
X50973090Y-34959410D01*
X50979968Y-35036740D01*
X50968225Y-35117774D01*
X50936953Y-35199733D01*
X50887620Y-35275293D01*
X50821863Y-35343049D01*
X50741319Y-35401593D01*
X50647623Y-35449519D01*
X50542414Y-35485419D01*
X50539630Y-35486156D01*
X50490454Y-35495796D01*
X50426666Y-35503534D01*
X50353904Y-35509118D01*
X50277809Y-35512297D01*
X50204022Y-35512821D01*
X50138181Y-35510439D01*
X50093180Y-35506014D01*
X50006656Y-35490704D01*
X49921830Y-35470330D01*
X49847641Y-35447066D01*
X49842295Y-35445092D01*
X49785469Y-35423831D01*
X49814580Y-35355575D01*
X49830599Y-35313284D01*
X49843641Y-35270366D01*
X49850364Y-35239060D01*
X49857971Y-35207354D01*
X49870751Y-35192156D01*
X49890208Y-35193578D01*
X49917844Y-35211734D01*
X49955161Y-35246737D01*
X49955381Y-35246961D01*
X50011882Y-35294647D01*
X50081083Y-35337867D01*
X50155369Y-35372490D01*
X50227122Y-35394388D01*
X50227351Y-35394436D01*
X50288675Y-35401972D01*
X50358750Y-35402379D01*
X50429769Y-35396207D01*
X50493931Y-35384004D01*
X50527823Y-35373272D01*
X50597262Y-35337404D01*
X50650987Y-35290908D01*
X50687913Y-35235182D01*
X50706956Y-35171626D01*
X50709425Y-35138862D01*
X50706120Y-35091013D01*
X50694346Y-35049514D01*
X50672516Y-35013247D01*
X50639038Y-34981092D01*
X50592324Y-34951933D01*
X50530783Y-34924650D01*
X50452825Y-34898125D01*
X50356862Y-34871240D01*
X50313283Y-34860185D01*
X50213768Y-34834307D01*
X50131584Y-34809908D01*
X50063930Y-34785698D01*
X50008008Y-34760391D01*
X49961017Y-34732696D01*
X49920156Y-34701326D01*
X49882627Y-34664992D01*
X49877790Y-34659775D01*
X49838589Y-34602523D01*
X49814034Y-34534290D01*
X49804547Y-34458604D01*
X49810550Y-34378994D01*
X49832462Y-34298987D01*
X49834202Y-34294480D01*
X49863211Y-34239783D01*
X49905945Y-34183628D01*
X49957186Y-34131907D01*
X50011718Y-34090517D01*
X50018335Y-34086464D01*
X50099401Y-34047375D01*
X50194232Y-34017050D01*
X50297854Y-33996397D01*
X50405295Y-33986323D01*
X50511580Y-33987734D01*
X50511580Y-33987734D01*
G37*
X50511580Y-33987734D02*
X50543798Y-33990676D01*
X50582905Y-33996537D01*
X50630932Y-34005961D01*
X50683566Y-34017836D01*
X50736493Y-34031051D01*
X50785401Y-34044491D01*
X50825976Y-34057045D01*
X50853905Y-34067601D01*
X50863565Y-34073153D01*
X50863288Y-34085191D01*
X50855009Y-34110193D01*
X50840427Y-34143267D01*
X50836435Y-34151352D01*
X50817979Y-34191082D01*
X50802864Y-34229204D01*
X50794181Y-34257873D01*
X50793898Y-34259298D01*
X50787058Y-34284312D01*
X50775773Y-34294833D01*
X50759160Y-34296720D01*
X50732982Y-34289271D01*
X50720438Y-34272570D01*
X50689755Y-34226268D01*
X50642625Y-34182677D01*
X50582902Y-34145357D01*
X50582257Y-34145029D01*
X50502240Y-34115523D01*
X50415654Y-34103833D01*
X50326151Y-34110215D01*
X50270816Y-34123352D01*
X50225915Y-34139037D01*
X50191986Y-34157251D01*
X50159892Y-34183422D01*
X50144443Y-34198411D01*
X50099862Y-34253296D01*
X50075067Y-34309850D01*
X50069524Y-34369877D01*
X50078527Y-34421371D01*
X50101620Y-34467921D01*
X50143360Y-34511416D01*
X50202159Y-34550645D01*
X50276429Y-34584400D01*
X50306540Y-34594943D01*
X50334444Y-34603025D01*
X50377268Y-34614196D01*
X50430079Y-34627224D01*
X50487941Y-34640874D01*
X50514820Y-34647006D01*
X50629005Y-34676492D01*
X50724520Y-34709474D01*
X50802816Y-34746618D01*
X50865346Y-34788590D01*
X50904746Y-34825813D01*
X50947869Y-34888428D01*
X50973090Y-34959410D01*
X50979968Y-35036740D01*
X50968225Y-35117774D01*
X50936953Y-35199733D01*
X50887620Y-35275293D01*
X50821863Y-35343049D01*
X50741319Y-35401593D01*
X50647623Y-35449519D01*
X50542414Y-35485419D01*
X50539630Y-35486156D01*
X50490454Y-35495796D01*
X50426666Y-35503534D01*
X50353904Y-35509118D01*
X50277809Y-35512297D01*
X50204022Y-35512821D01*
X50138181Y-35510439D01*
X50093180Y-35506014D01*
X50006656Y-35490704D01*
X49921830Y-35470330D01*
X49847641Y-35447066D01*
X49842295Y-35445092D01*
X49785469Y-35423831D01*
X49814580Y-35355575D01*
X49830599Y-35313284D01*
X49843641Y-35270366D01*
X49850364Y-35239060D01*
X49857971Y-35207354D01*
X49870751Y-35192156D01*
X49890208Y-35193578D01*
X49917844Y-35211734D01*
X49955161Y-35246737D01*
X49955381Y-35246961D01*
X50011882Y-35294647D01*
X50081083Y-35337867D01*
X50155369Y-35372490D01*
X50227122Y-35394388D01*
X50227351Y-35394436D01*
X50288675Y-35401972D01*
X50358750Y-35402379D01*
X50429769Y-35396207D01*
X50493931Y-35384004D01*
X50527823Y-35373272D01*
X50597262Y-35337404D01*
X50650987Y-35290908D01*
X50687913Y-35235182D01*
X50706956Y-35171626D01*
X50709425Y-35138862D01*
X50706120Y-35091013D01*
X50694346Y-35049514D01*
X50672516Y-35013247D01*
X50639038Y-34981092D01*
X50592324Y-34951933D01*
X50530783Y-34924650D01*
X50452825Y-34898125D01*
X50356862Y-34871240D01*
X50313283Y-34860185D01*
X50213768Y-34834307D01*
X50131584Y-34809908D01*
X50063930Y-34785698D01*
X50008008Y-34760391D01*
X49961017Y-34732696D01*
X49920156Y-34701326D01*
X49882627Y-34664992D01*
X49877790Y-34659775D01*
X49838589Y-34602523D01*
X49814034Y-34534290D01*
X49804547Y-34458604D01*
X49810550Y-34378994D01*
X49832462Y-34298987D01*
X49834202Y-34294480D01*
X49863211Y-34239783D01*
X49905945Y-34183628D01*
X49957186Y-34131907D01*
X50011718Y-34090517D01*
X50018335Y-34086464D01*
X50099401Y-34047375D01*
X50194232Y-34017050D01*
X50297854Y-33996397D01*
X50405295Y-33986323D01*
X50511580Y-33987734D01*
G36*
X48059120Y-31428068D02*
X48123544Y-31441944D01*
X48227694Y-31476756D01*
X48317186Y-31524442D01*
X48391367Y-31584517D01*
X48449586Y-31656495D01*
X48476375Y-31704751D01*
X48508220Y-31771960D01*
X48504694Y-32231101D01*
X48503876Y-32345786D01*
X48503436Y-32441971D01*
X48503521Y-32521474D01*
X48504281Y-32586113D01*
X48505864Y-32637707D01*
X48508420Y-32678073D01*
X48512097Y-32709029D01*
X48517044Y-32732395D01*
X48523410Y-32749988D01*
X48531343Y-32763627D01*
X48540994Y-32775129D01*
X48549955Y-32783925D01*
X48566263Y-32796787D01*
X48584999Y-32804170D01*
X48612203Y-32807518D01*
X48651698Y-32808280D01*
X48727536Y-32808280D01*
X48724558Y-32843658D01*
X48721600Y-32864065D01*
X48713682Y-32876268D01*
X48695696Y-32884476D01*
X48665700Y-32892158D01*
X48623720Y-32898513D01*
X48566594Y-32902015D01*
X48499329Y-32902382D01*
X48487900Y-32902129D01*
X48432329Y-32900122D01*
X48392258Y-32896960D01*
X48362870Y-32891894D01*
X48339348Y-32884176D01*
X48323388Y-32876582D01*
X48274277Y-32840461D01*
X48235237Y-32791602D01*
X48219300Y-32759165D01*
X48208387Y-32730461D01*
X48170343Y-32760153D01*
X48108241Y-32803194D01*
X48036126Y-32844617D01*
X47962845Y-32879655D01*
X47913860Y-32898406D01*
X47836229Y-32918906D01*
X47748268Y-32933579D01*
X47658044Y-32941569D01*
X47573629Y-32942020D01*
X47532860Y-32938776D01*
X47420245Y-32918297D01*
X47323735Y-32885488D01*
X47243242Y-32840300D01*
X47178680Y-32782683D01*
X47129965Y-32712589D01*
X47126093Y-32705152D01*
X47101411Y-32634942D01*
X47094109Y-32559960D01*
X47098660Y-32522828D01*
X47416534Y-32522828D01*
X47419018Y-32575475D01*
X47427877Y-32621978D01*
X47427968Y-32622282D01*
X47455166Y-32679173D01*
X47498473Y-32727455D01*
X47555174Y-32766180D01*
X47622557Y-32794396D01*
X47697907Y-32811153D01*
X47778512Y-32815502D01*
X47861658Y-32806491D01*
X47915630Y-32793066D01*
X47985475Y-32765646D01*
X48056812Y-32727423D01*
X48121054Y-32683316D01*
X48149380Y-32659149D01*
X48196249Y-32615240D01*
X48202385Y-32473000D01*
X48205096Y-32410529D01*
X48207962Y-32345169D01*
X48210641Y-32284613D01*
X48212797Y-32236554D01*
X48212823Y-32235987D01*
X48214499Y-32191751D01*
X48214316Y-32164348D01*
X48211786Y-32150338D01*
X48206417Y-32146279D01*
X48200267Y-32147684D01*
X48185426Y-32151277D01*
X48153851Y-32157532D01*
X48108860Y-32165839D01*
X48053772Y-32175587D01*
X47991908Y-32186167D01*
X47980054Y-32188155D01*
X47913093Y-32199651D01*
X47848336Y-32211313D01*
X47790207Y-32222305D01*
X47743126Y-32231788D01*
X47711515Y-32238927D01*
X47710660Y-32239145D01*
X47624176Y-32267814D01*
X47549873Y-32305555D01*
X47489940Y-32350853D01*
X47446568Y-32402191D01*
X47430272Y-32433155D01*
X47420319Y-32472551D01*
X47416534Y-32522828D01*
X47098660Y-32522828D01*
X47103362Y-32484466D01*
X47128349Y-32412718D01*
X47168244Y-32348974D01*
X47201772Y-32313858D01*
X47251632Y-32275183D01*
X47308526Y-32241772D01*
X47374798Y-32212827D01*
X47452787Y-32187552D01*
X47544836Y-32165151D01*
X47653286Y-32144826D01*
X47736060Y-32132005D01*
X47842267Y-32116253D01*
X47930233Y-32102246D01*
X48001917Y-32089520D01*
X48059278Y-32077614D01*
X48104274Y-32066064D01*
X48138865Y-32054409D01*
X48165009Y-32042184D01*
X48184666Y-32028928D01*
X48189286Y-32024958D01*
X48204695Y-31998955D01*
X48212751Y-31958773D01*
X48213761Y-31909049D01*
X48208036Y-31854423D01*
X48195883Y-31799535D01*
X48177612Y-31749025D01*
X48169870Y-31733315D01*
X48145843Y-31696381D01*
X48115845Y-31660327D01*
X48103668Y-31648329D01*
X48039473Y-31603397D01*
X47963186Y-31571558D01*
X47878054Y-31552577D01*
X47787325Y-31546222D01*
X47694248Y-31552259D01*
X47602069Y-31570454D01*
X47514036Y-31600573D01*
X47433398Y-31642383D01*
X47363402Y-31695650D01*
X47356629Y-31702066D01*
X47319635Y-31736085D01*
X47293833Y-31753974D01*
X47277282Y-31755110D01*
X47268041Y-31738868D01*
X47264173Y-31704626D01*
X47263620Y-31672187D01*
X47263620Y-31587654D01*
X47368577Y-31535482D01*
X47503242Y-31478642D01*
X47642307Y-31439149D01*
X47783094Y-31417335D01*
X47922924Y-31413530D01*
X48059120Y-31428068D01*
X48059120Y-31428068D01*
G37*
X48059120Y-31428068D02*
X48123544Y-31441944D01*
X48227694Y-31476756D01*
X48317186Y-31524442D01*
X48391367Y-31584517D01*
X48449586Y-31656495D01*
X48476375Y-31704751D01*
X48508220Y-31771960D01*
X48504694Y-32231101D01*
X48503876Y-32345786D01*
X48503436Y-32441971D01*
X48503521Y-32521474D01*
X48504281Y-32586113D01*
X48505864Y-32637707D01*
X48508420Y-32678073D01*
X48512097Y-32709029D01*
X48517044Y-32732395D01*
X48523410Y-32749988D01*
X48531343Y-32763627D01*
X48540994Y-32775129D01*
X48549955Y-32783925D01*
X48566263Y-32796787D01*
X48584999Y-32804170D01*
X48612203Y-32807518D01*
X48651698Y-32808280D01*
X48727536Y-32808280D01*
X48724558Y-32843658D01*
X48721600Y-32864065D01*
X48713682Y-32876268D01*
X48695696Y-32884476D01*
X48665700Y-32892158D01*
X48623720Y-32898513D01*
X48566594Y-32902015D01*
X48499329Y-32902382D01*
X48487900Y-32902129D01*
X48432329Y-32900122D01*
X48392258Y-32896960D01*
X48362870Y-32891894D01*
X48339348Y-32884176D01*
X48323388Y-32876582D01*
X48274277Y-32840461D01*
X48235237Y-32791602D01*
X48219300Y-32759165D01*
X48208387Y-32730461D01*
X48170343Y-32760153D01*
X48108241Y-32803194D01*
X48036126Y-32844617D01*
X47962845Y-32879655D01*
X47913860Y-32898406D01*
X47836229Y-32918906D01*
X47748268Y-32933579D01*
X47658044Y-32941569D01*
X47573629Y-32942020D01*
X47532860Y-32938776D01*
X47420245Y-32918297D01*
X47323735Y-32885488D01*
X47243242Y-32840300D01*
X47178680Y-32782683D01*
X47129965Y-32712589D01*
X47126093Y-32705152D01*
X47101411Y-32634942D01*
X47094109Y-32559960D01*
X47098660Y-32522828D01*
X47416534Y-32522828D01*
X47419018Y-32575475D01*
X47427877Y-32621978D01*
X47427968Y-32622282D01*
X47455166Y-32679173D01*
X47498473Y-32727455D01*
X47555174Y-32766180D01*
X47622557Y-32794396D01*
X47697907Y-32811153D01*
X47778512Y-32815502D01*
X47861658Y-32806491D01*
X47915630Y-32793066D01*
X47985475Y-32765646D01*
X48056812Y-32727423D01*
X48121054Y-32683316D01*
X48149380Y-32659149D01*
X48196249Y-32615240D01*
X48202385Y-32473000D01*
X48205096Y-32410529D01*
X48207962Y-32345169D01*
X48210641Y-32284613D01*
X48212797Y-32236554D01*
X48212823Y-32235987D01*
X48214499Y-32191751D01*
X48214316Y-32164348D01*
X48211786Y-32150338D01*
X48206417Y-32146279D01*
X48200267Y-32147684D01*
X48185426Y-32151277D01*
X48153851Y-32157532D01*
X48108860Y-32165839D01*
X48053772Y-32175587D01*
X47991908Y-32186167D01*
X47980054Y-32188155D01*
X47913093Y-32199651D01*
X47848336Y-32211313D01*
X47790207Y-32222305D01*
X47743126Y-32231788D01*
X47711515Y-32238927D01*
X47710660Y-32239145D01*
X47624176Y-32267814D01*
X47549873Y-32305555D01*
X47489940Y-32350853D01*
X47446568Y-32402191D01*
X47430272Y-32433155D01*
X47420319Y-32472551D01*
X47416534Y-32522828D01*
X47098660Y-32522828D01*
X47103362Y-32484466D01*
X47128349Y-32412718D01*
X47168244Y-32348974D01*
X47201772Y-32313858D01*
X47251632Y-32275183D01*
X47308526Y-32241772D01*
X47374798Y-32212827D01*
X47452787Y-32187552D01*
X47544836Y-32165151D01*
X47653286Y-32144826D01*
X47736060Y-32132005D01*
X47842267Y-32116253D01*
X47930233Y-32102246D01*
X48001917Y-32089520D01*
X48059278Y-32077614D01*
X48104274Y-32066064D01*
X48138865Y-32054409D01*
X48165009Y-32042184D01*
X48184666Y-32028928D01*
X48189286Y-32024958D01*
X48204695Y-31998955D01*
X48212751Y-31958773D01*
X48213761Y-31909049D01*
X48208036Y-31854423D01*
X48195883Y-31799535D01*
X48177612Y-31749025D01*
X48169870Y-31733315D01*
X48145843Y-31696381D01*
X48115845Y-31660327D01*
X48103668Y-31648329D01*
X48039473Y-31603397D01*
X47963186Y-31571558D01*
X47878054Y-31552577D01*
X47787325Y-31546222D01*
X47694248Y-31552259D01*
X47602069Y-31570454D01*
X47514036Y-31600573D01*
X47433398Y-31642383D01*
X47363402Y-31695650D01*
X47356629Y-31702066D01*
X47319635Y-31736085D01*
X47293833Y-31753974D01*
X47277282Y-31755110D01*
X47268041Y-31738868D01*
X47264173Y-31704626D01*
X47263620Y-31672187D01*
X47263620Y-31587654D01*
X47368577Y-31535482D01*
X47503242Y-31478642D01*
X47642307Y-31439149D01*
X47783094Y-31417335D01*
X47922924Y-31413530D01*
X48059120Y-31428068D01*
G36*
X53084378Y-31414659D02*
X53171803Y-31420645D01*
X53250817Y-31431957D01*
X53278340Y-31437905D01*
X53376471Y-31470174D01*
X53464848Y-31516004D01*
X53540988Y-31573584D01*
X53602404Y-31641103D01*
X53639158Y-31700840D01*
X53669500Y-31761800D01*
X53666059Y-32230807D01*
X53665303Y-32341919D01*
X53664844Y-32434554D01*
X53664729Y-32510552D01*
X53665007Y-32571753D01*
X53665729Y-32619998D01*
X53666942Y-32657128D01*
X53668696Y-32684983D01*
X53671040Y-32705404D01*
X53674022Y-32720232D01*
X53677691Y-32731306D01*
X53679478Y-32735343D01*
X53698919Y-32770213D01*
X53720546Y-32792035D01*
X53749600Y-32803669D01*
X53791321Y-32807971D01*
X53813226Y-32808280D01*
X53888816Y-32808280D01*
X53885838Y-32843823D01*
X53882632Y-32865125D01*
X53873997Y-32877442D01*
X53854525Y-32885532D01*
X53832060Y-32891107D01*
X53794257Y-32897067D01*
X53744399Y-32901126D01*
X53688415Y-32903218D01*
X53632233Y-32903277D01*
X53581781Y-32901236D01*
X53542988Y-32897030D01*
X53531144Y-32894477D01*
X53471779Y-32868589D01*
X53425435Y-32827202D01*
X53398751Y-32785675D01*
X53371843Y-32732612D01*
X53344133Y-32754408D01*
X53296008Y-32788238D01*
X53237066Y-32823690D01*
X53174355Y-32856974D01*
X53114921Y-32884300D01*
X53075191Y-32899096D01*
X53022479Y-32912866D01*
X52958301Y-32925343D01*
X52890065Y-32935456D01*
X52825180Y-32942138D01*
X52771055Y-32944317D01*
X52763120Y-32944151D01*
X52731627Y-32942087D01*
X52690541Y-32938103D01*
X52660167Y-32934503D01*
X52558382Y-32913148D01*
X52468676Y-32877495D01*
X52392257Y-32828358D01*
X52330336Y-32766551D01*
X52284122Y-32692889D01*
X52276614Y-32676200D01*
X52263708Y-32626983D01*
X52259823Y-32567164D01*
X52260598Y-32557360D01*
X52579239Y-32557360D01*
X52592489Y-32621655D01*
X52619317Y-32679392D01*
X52658665Y-32725507D01*
X52659582Y-32726284D01*
X52731220Y-32773599D01*
X52812097Y-32803589D01*
X52900438Y-32816008D01*
X52994469Y-32810607D01*
X53092415Y-32787139D01*
X53093208Y-32786878D01*
X53154886Y-32762220D01*
X53216789Y-32729918D01*
X53272882Y-32693606D01*
X53317129Y-32656919D01*
X53327885Y-32645596D01*
X53339554Y-32631345D01*
X53348727Y-32616540D01*
X53355802Y-32598509D01*
X53361180Y-32574577D01*
X53365261Y-32542072D01*
X53368445Y-32498322D01*
X53371132Y-32440654D01*
X53373721Y-32366396D01*
X53374800Y-32332060D01*
X53376766Y-32265322D01*
X53377818Y-32216313D01*
X53377785Y-32182458D01*
X53376496Y-32161180D01*
X53373781Y-32149902D01*
X53369468Y-32146048D01*
X53363387Y-32147042D01*
X53362557Y-32147354D01*
X53347318Y-32151126D01*
X53315358Y-32157564D01*
X53270008Y-32166050D01*
X53214597Y-32175962D01*
X53152457Y-32186682D01*
X53139495Y-32188872D01*
X53055547Y-32203143D01*
X52988582Y-32214994D01*
X52935510Y-32225173D01*
X52893240Y-32234427D01*
X52858685Y-32243507D01*
X52828754Y-32253160D01*
X52800359Y-32264135D01*
X52770410Y-32277181D01*
X52765055Y-32279607D01*
X52698980Y-32314550D01*
X52649959Y-32352492D01*
X52614722Y-32396358D01*
X52597692Y-32429364D01*
X52580621Y-32491574D01*
X52579239Y-32557360D01*
X52260598Y-32557360D01*
X52264798Y-32504266D01*
X52278471Y-32445814D01*
X52281735Y-32436632D01*
X52317455Y-32370628D01*
X52371973Y-32311396D01*
X52444801Y-32259307D01*
X52535452Y-32214733D01*
X52606265Y-32189147D01*
X52645940Y-32178513D01*
X52702158Y-32166283D01*
X52771270Y-32153151D01*
X52849629Y-32139811D01*
X52931385Y-32127275D01*
X53037578Y-32111578D01*
X53125358Y-32097617D01*
X53196470Y-32084579D01*
X53252660Y-32071651D01*
X53295673Y-32058021D01*
X53327257Y-32042875D01*
X53349155Y-32025401D01*
X53363114Y-32004784D01*
X53370881Y-31980212D01*
X53374200Y-31950873D01*
X53374828Y-31920753D01*
X53366469Y-31830409D01*
X53341708Y-31751391D01*
X53300899Y-31684306D01*
X53244399Y-31629764D01*
X53183597Y-31593385D01*
X53098727Y-31563476D01*
X53005542Y-31548415D01*
X52907984Y-31547557D01*
X52809996Y-31560256D01*
X52715520Y-31585865D01*
X52628500Y-31623737D01*
X52552877Y-31673228D01*
X52520665Y-31702035D01*
X52490708Y-31729310D01*
X52464168Y-31748697D01*
X52445913Y-31756679D01*
X52445029Y-31756720D01*
X52434794Y-31755361D01*
X52428809Y-31748586D01*
X52426205Y-31732344D01*
X52426112Y-31702586D01*
X52427029Y-31672900D01*
X52429980Y-31589080D01*
X52546820Y-31530808D01*
X52644753Y-31486573D01*
X52739177Y-31454439D01*
X52838648Y-31431850D01*
X52916670Y-31420248D01*
X52996636Y-31414395D01*
X53084378Y-31414659D01*
X53084378Y-31414659D01*
G37*
X53084378Y-31414659D02*
X53171803Y-31420645D01*
X53250817Y-31431957D01*
X53278340Y-31437905D01*
X53376471Y-31470174D01*
X53464848Y-31516004D01*
X53540988Y-31573584D01*
X53602404Y-31641103D01*
X53639158Y-31700840D01*
X53669500Y-31761800D01*
X53666059Y-32230807D01*
X53665303Y-32341919D01*
X53664844Y-32434554D01*
X53664729Y-32510552D01*
X53665007Y-32571753D01*
X53665729Y-32619998D01*
X53666942Y-32657128D01*
X53668696Y-32684983D01*
X53671040Y-32705404D01*
X53674022Y-32720232D01*
X53677691Y-32731306D01*
X53679478Y-32735343D01*
X53698919Y-32770213D01*
X53720546Y-32792035D01*
X53749600Y-32803669D01*
X53791321Y-32807971D01*
X53813226Y-32808280D01*
X53888816Y-32808280D01*
X53885838Y-32843823D01*
X53882632Y-32865125D01*
X53873997Y-32877442D01*
X53854525Y-32885532D01*
X53832060Y-32891107D01*
X53794257Y-32897067D01*
X53744399Y-32901126D01*
X53688415Y-32903218D01*
X53632233Y-32903277D01*
X53581781Y-32901236D01*
X53542988Y-32897030D01*
X53531144Y-32894477D01*
X53471779Y-32868589D01*
X53425435Y-32827202D01*
X53398751Y-32785675D01*
X53371843Y-32732612D01*
X53344133Y-32754408D01*
X53296008Y-32788238D01*
X53237066Y-32823690D01*
X53174355Y-32856974D01*
X53114921Y-32884300D01*
X53075191Y-32899096D01*
X53022479Y-32912866D01*
X52958301Y-32925343D01*
X52890065Y-32935456D01*
X52825180Y-32942138D01*
X52771055Y-32944317D01*
X52763120Y-32944151D01*
X52731627Y-32942087D01*
X52690541Y-32938103D01*
X52660167Y-32934503D01*
X52558382Y-32913148D01*
X52468676Y-32877495D01*
X52392257Y-32828358D01*
X52330336Y-32766551D01*
X52284122Y-32692889D01*
X52276614Y-32676200D01*
X52263708Y-32626983D01*
X52259823Y-32567164D01*
X52260598Y-32557360D01*
X52579239Y-32557360D01*
X52592489Y-32621655D01*
X52619317Y-32679392D01*
X52658665Y-32725507D01*
X52659582Y-32726284D01*
X52731220Y-32773599D01*
X52812097Y-32803589D01*
X52900438Y-32816008D01*
X52994469Y-32810607D01*
X53092415Y-32787139D01*
X53093208Y-32786878D01*
X53154886Y-32762220D01*
X53216789Y-32729918D01*
X53272882Y-32693606D01*
X53317129Y-32656919D01*
X53327885Y-32645596D01*
X53339554Y-32631345D01*
X53348727Y-32616540D01*
X53355802Y-32598509D01*
X53361180Y-32574577D01*
X53365261Y-32542072D01*
X53368445Y-32498322D01*
X53371132Y-32440654D01*
X53373721Y-32366396D01*
X53374800Y-32332060D01*
X53376766Y-32265322D01*
X53377818Y-32216313D01*
X53377785Y-32182458D01*
X53376496Y-32161180D01*
X53373781Y-32149902D01*
X53369468Y-32146048D01*
X53363387Y-32147042D01*
X53362557Y-32147354D01*
X53347318Y-32151126D01*
X53315358Y-32157564D01*
X53270008Y-32166050D01*
X53214597Y-32175962D01*
X53152457Y-32186682D01*
X53139495Y-32188872D01*
X53055547Y-32203143D01*
X52988582Y-32214994D01*
X52935510Y-32225173D01*
X52893240Y-32234427D01*
X52858685Y-32243507D01*
X52828754Y-32253160D01*
X52800359Y-32264135D01*
X52770410Y-32277181D01*
X52765055Y-32279607D01*
X52698980Y-32314550D01*
X52649959Y-32352492D01*
X52614722Y-32396358D01*
X52597692Y-32429364D01*
X52580621Y-32491574D01*
X52579239Y-32557360D01*
X52260598Y-32557360D01*
X52264798Y-32504266D01*
X52278471Y-32445814D01*
X52281735Y-32436632D01*
X52317455Y-32370628D01*
X52371973Y-32311396D01*
X52444801Y-32259307D01*
X52535452Y-32214733D01*
X52606265Y-32189147D01*
X52645940Y-32178513D01*
X52702158Y-32166283D01*
X52771270Y-32153151D01*
X52849629Y-32139811D01*
X52931385Y-32127275D01*
X53037578Y-32111578D01*
X53125358Y-32097617D01*
X53196470Y-32084579D01*
X53252660Y-32071651D01*
X53295673Y-32058021D01*
X53327257Y-32042875D01*
X53349155Y-32025401D01*
X53363114Y-32004784D01*
X53370881Y-31980212D01*
X53374200Y-31950873D01*
X53374828Y-31920753D01*
X53366469Y-31830409D01*
X53341708Y-31751391D01*
X53300899Y-31684306D01*
X53244399Y-31629764D01*
X53183597Y-31593385D01*
X53098727Y-31563476D01*
X53005542Y-31548415D01*
X52907984Y-31547557D01*
X52809996Y-31560256D01*
X52715520Y-31585865D01*
X52628500Y-31623737D01*
X52552877Y-31673228D01*
X52520665Y-31702035D01*
X52490708Y-31729310D01*
X52464168Y-31748697D01*
X52445913Y-31756679D01*
X52445029Y-31756720D01*
X52434794Y-31755361D01*
X52428809Y-31748586D01*
X52426205Y-31732344D01*
X52426112Y-31702586D01*
X52427029Y-31672900D01*
X52429980Y-31589080D01*
X52546820Y-31530808D01*
X52644753Y-31486573D01*
X52739177Y-31454439D01*
X52838648Y-31431850D01*
X52916670Y-31420248D01*
X52996636Y-31414395D01*
X53084378Y-31414659D01*
G36*
X56459578Y-31427742D02*
X56525864Y-31441906D01*
X56628421Y-31476429D01*
X56717593Y-31524322D01*
X56792230Y-31584721D01*
X56851180Y-31656767D01*
X56878875Y-31705920D01*
X56910540Y-31771960D01*
X56903608Y-32716840D01*
X56927699Y-32752251D01*
X56954569Y-32784271D01*
X56985237Y-32803045D01*
X57025255Y-32810939D01*
X57065962Y-32811088D01*
X57129944Y-32808280D01*
X57126922Y-32843840D01*
X57124227Y-32863619D01*
X57117120Y-32875563D01*
X57100711Y-32883375D01*
X57070109Y-32890756D01*
X57062940Y-32892277D01*
X57022295Y-32897991D01*
X56968310Y-32901497D01*
X56907879Y-32902419D01*
X56885140Y-32902026D01*
X56829841Y-32899862D01*
X56789979Y-32896325D01*
X56760679Y-32890654D01*
X56737066Y-32882087D01*
X56727660Y-32877437D01*
X56676082Y-32842219D01*
X56640139Y-32797836D01*
X56626549Y-32770378D01*
X56610829Y-32732754D01*
X56547324Y-32777144D01*
X56480280Y-32819911D01*
X56408383Y-32858778D01*
X56338548Y-32890269D01*
X56285700Y-32908718D01*
X56209660Y-32925556D01*
X56122471Y-32936964D01*
X56032741Y-32942250D01*
X55949081Y-32940722D01*
X55919940Y-32938128D01*
X55817805Y-32919147D01*
X55727811Y-32887655D01*
X55651005Y-32844890D01*
X55588434Y-32792090D01*
X55541149Y-32730493D01*
X55510196Y-32661337D01*
X55496624Y-32585860D01*
X55500321Y-32524530D01*
X55818563Y-32524530D01*
X55825019Y-32597272D01*
X55845762Y-32657529D01*
X55881983Y-32708357D01*
X55895597Y-32721809D01*
X55962726Y-32770182D01*
X56040009Y-32801685D01*
X56125893Y-32816057D01*
X56218821Y-32813036D01*
X56316180Y-32792671D01*
X56391234Y-32763638D01*
X56467497Y-32721648D01*
X56536447Y-32671582D01*
X56553019Y-32657023D01*
X56598413Y-32615240D01*
X56604627Y-32473000D01*
X56607369Y-32410530D01*
X56610258Y-32345171D01*
X56612955Y-32284615D01*
X56615117Y-32236556D01*
X56615143Y-32235987D01*
X56616799Y-32191681D01*
X56616565Y-32164230D01*
X56613979Y-32150219D01*
X56608575Y-32146232D01*
X56603122Y-32147478D01*
X56588515Y-32150986D01*
X56557110Y-32157179D01*
X56512160Y-32165463D01*
X56456921Y-32175241D01*
X56394647Y-32185917D01*
X56377829Y-32188745D01*
X56273882Y-32206790D01*
X56187676Y-32223382D01*
X56116757Y-32239316D01*
X56058670Y-32255384D01*
X56010960Y-32272380D01*
X55971172Y-32291095D01*
X55936852Y-32312324D01*
X55905546Y-32336860D01*
X55897574Y-32343900D01*
X55853935Y-32393701D01*
X55828195Y-32449816D01*
X55818690Y-32516046D01*
X55818563Y-32524530D01*
X55500321Y-32524530D01*
X55501481Y-32505299D01*
X55512934Y-32457457D01*
X55528553Y-32412725D01*
X55546733Y-32378876D01*
X55572982Y-32346684D01*
X55588815Y-32330359D01*
X55635661Y-32289121D01*
X55688988Y-32253593D01*
X55751088Y-32222947D01*
X55824252Y-32196353D01*
X55910774Y-32172983D01*
X56012944Y-32152007D01*
X56133054Y-32132597D01*
X56137329Y-32131976D01*
X56245542Y-32115898D01*
X56335399Y-32101499D01*
X56408751Y-32088314D01*
X56467448Y-32075882D01*
X56513341Y-32063741D01*
X56548282Y-32051427D01*
X56574120Y-32038478D01*
X56592706Y-32024431D01*
X56600377Y-32016229D01*
X56609505Y-31993454D01*
X56614173Y-31956343D01*
X56614457Y-31910367D01*
X56610430Y-31860998D01*
X56602168Y-31813708D01*
X56597367Y-31795494D01*
X56566017Y-31724789D01*
X56517925Y-31662730D01*
X56455721Y-31611836D01*
X56382036Y-31574626D01*
X56358153Y-31566528D01*
X56308533Y-31556392D01*
X56245678Y-31550708D01*
X56176177Y-31549466D01*
X56106618Y-31552658D01*
X56043592Y-31560272D01*
X56011380Y-31567031D01*
X55935757Y-31592012D01*
X55863258Y-31626018D01*
X55799676Y-31665919D01*
X55752060Y-31707226D01*
X55725442Y-31732642D01*
X55701306Y-31750499D01*
X55685852Y-31756720D01*
X55676100Y-31754992D01*
X55670171Y-31747149D01*
X55667131Y-31729198D01*
X55666044Y-31697148D01*
X55665940Y-31671705D01*
X55665940Y-31586690D01*
X55770080Y-31535097D01*
X55904311Y-31478659D01*
X56043174Y-31439360D01*
X56183871Y-31417544D01*
X56323605Y-31413557D01*
X56459578Y-31427742D01*
X56459578Y-31427742D01*
G37*
X56459578Y-31427742D02*
X56525864Y-31441906D01*
X56628421Y-31476429D01*
X56717593Y-31524322D01*
X56792230Y-31584721D01*
X56851180Y-31656767D01*
X56878875Y-31705920D01*
X56910540Y-31771960D01*
X56903608Y-32716840D01*
X56927699Y-32752251D01*
X56954569Y-32784271D01*
X56985237Y-32803045D01*
X57025255Y-32810939D01*
X57065962Y-32811088D01*
X57129944Y-32808280D01*
X57126922Y-32843840D01*
X57124227Y-32863619D01*
X57117120Y-32875563D01*
X57100711Y-32883375D01*
X57070109Y-32890756D01*
X57062940Y-32892277D01*
X57022295Y-32897991D01*
X56968310Y-32901497D01*
X56907879Y-32902419D01*
X56885140Y-32902026D01*
X56829841Y-32899862D01*
X56789979Y-32896325D01*
X56760679Y-32890654D01*
X56737066Y-32882087D01*
X56727660Y-32877437D01*
X56676082Y-32842219D01*
X56640139Y-32797836D01*
X56626549Y-32770378D01*
X56610829Y-32732754D01*
X56547324Y-32777144D01*
X56480280Y-32819911D01*
X56408383Y-32858778D01*
X56338548Y-32890269D01*
X56285700Y-32908718D01*
X56209660Y-32925556D01*
X56122471Y-32936964D01*
X56032741Y-32942250D01*
X55949081Y-32940722D01*
X55919940Y-32938128D01*
X55817805Y-32919147D01*
X55727811Y-32887655D01*
X55651005Y-32844890D01*
X55588434Y-32792090D01*
X55541149Y-32730493D01*
X55510196Y-32661337D01*
X55496624Y-32585860D01*
X55500321Y-32524530D01*
X55818563Y-32524530D01*
X55825019Y-32597272D01*
X55845762Y-32657529D01*
X55881983Y-32708357D01*
X55895597Y-32721809D01*
X55962726Y-32770182D01*
X56040009Y-32801685D01*
X56125893Y-32816057D01*
X56218821Y-32813036D01*
X56316180Y-32792671D01*
X56391234Y-32763638D01*
X56467497Y-32721648D01*
X56536447Y-32671582D01*
X56553019Y-32657023D01*
X56598413Y-32615240D01*
X56604627Y-32473000D01*
X56607369Y-32410530D01*
X56610258Y-32345171D01*
X56612955Y-32284615D01*
X56615117Y-32236556D01*
X56615143Y-32235987D01*
X56616799Y-32191681D01*
X56616565Y-32164230D01*
X56613979Y-32150219D01*
X56608575Y-32146232D01*
X56603122Y-32147478D01*
X56588515Y-32150986D01*
X56557110Y-32157179D01*
X56512160Y-32165463D01*
X56456921Y-32175241D01*
X56394647Y-32185917D01*
X56377829Y-32188745D01*
X56273882Y-32206790D01*
X56187676Y-32223382D01*
X56116757Y-32239316D01*
X56058670Y-32255384D01*
X56010960Y-32272380D01*
X55971172Y-32291095D01*
X55936852Y-32312324D01*
X55905546Y-32336860D01*
X55897574Y-32343900D01*
X55853935Y-32393701D01*
X55828195Y-32449816D01*
X55818690Y-32516046D01*
X55818563Y-32524530D01*
X55500321Y-32524530D01*
X55501481Y-32505299D01*
X55512934Y-32457457D01*
X55528553Y-32412725D01*
X55546733Y-32378876D01*
X55572982Y-32346684D01*
X55588815Y-32330359D01*
X55635661Y-32289121D01*
X55688988Y-32253593D01*
X55751088Y-32222947D01*
X55824252Y-32196353D01*
X55910774Y-32172983D01*
X56012944Y-32152007D01*
X56133054Y-32132597D01*
X56137329Y-32131976D01*
X56245542Y-32115898D01*
X56335399Y-32101499D01*
X56408751Y-32088314D01*
X56467448Y-32075882D01*
X56513341Y-32063741D01*
X56548282Y-32051427D01*
X56574120Y-32038478D01*
X56592706Y-32024431D01*
X56600377Y-32016229D01*
X56609505Y-31993454D01*
X56614173Y-31956343D01*
X56614457Y-31910367D01*
X56610430Y-31860998D01*
X56602168Y-31813708D01*
X56597367Y-31795494D01*
X56566017Y-31724789D01*
X56517925Y-31662730D01*
X56455721Y-31611836D01*
X56382036Y-31574626D01*
X56358153Y-31566528D01*
X56308533Y-31556392D01*
X56245678Y-31550708D01*
X56176177Y-31549466D01*
X56106618Y-31552658D01*
X56043592Y-31560272D01*
X56011380Y-31567031D01*
X55935757Y-31592012D01*
X55863258Y-31626018D01*
X55799676Y-31665919D01*
X55752060Y-31707226D01*
X55725442Y-31732642D01*
X55701306Y-31750499D01*
X55685852Y-31756720D01*
X55676100Y-31754992D01*
X55670171Y-31747149D01*
X55667131Y-31729198D01*
X55666044Y-31697148D01*
X55665940Y-31671705D01*
X55665940Y-31586690D01*
X55770080Y-31535097D01*
X55904311Y-31478659D01*
X56043174Y-31439360D01*
X56183871Y-31417544D01*
X56323605Y-31413557D01*
X56459578Y-31427742D01*
G36*
X50149084Y-31422511D02*
X50220846Y-31434033D01*
X50245122Y-31440124D01*
X50329177Y-31469708D01*
X50406945Y-31507893D01*
X50475317Y-31552502D01*
X50531183Y-31601357D01*
X50571434Y-31652283D01*
X50584772Y-31677933D01*
X50601671Y-31717724D01*
X50653752Y-31656138D01*
X50694058Y-31610407D01*
X50729408Y-31576019D01*
X50766402Y-31547606D01*
X50811640Y-31519797D01*
X50841776Y-31503165D01*
X50910410Y-31469737D01*
X50977074Y-31445688D01*
X51047118Y-31429831D01*
X51125889Y-31420979D01*
X51218736Y-31417947D01*
X51226020Y-31417922D01*
X51304315Y-31418973D01*
X51366553Y-31422669D01*
X51416861Y-31429333D01*
X51443439Y-31434990D01*
X51544978Y-31468578D01*
X51631522Y-31515265D01*
X51702691Y-31574771D01*
X51758108Y-31646812D01*
X51778628Y-31684972D01*
X51810220Y-31751640D01*
X51809585Y-31970080D01*
X51809294Y-32037308D01*
X51808786Y-32119995D01*
X51808097Y-32213282D01*
X51807269Y-32312308D01*
X51806338Y-32412215D01*
X51805345Y-32508142D01*
X51805114Y-32528880D01*
X51804397Y-32610846D01*
X51804127Y-32686926D01*
X51804283Y-32754579D01*
X51804842Y-32811264D01*
X51805783Y-32854442D01*
X51807086Y-32881571D01*
X51808167Y-32889560D01*
X51809923Y-32896946D01*
X51807598Y-32902284D01*
X51798471Y-32905906D01*
X51779822Y-32908144D01*
X51748931Y-32909331D01*
X51703076Y-32909799D01*
X51641804Y-32909880D01*
X51468551Y-32909880D01*
X51474133Y-32879400D01*
X51477316Y-32853514D01*
X51480871Y-32809823D01*
X51484679Y-32750835D01*
X51488618Y-32679059D01*
X51492567Y-32597003D01*
X51496407Y-32507175D01*
X51500016Y-32412086D01*
X51503275Y-32314242D01*
X51506062Y-32216152D01*
X51506131Y-32213483D01*
X51508249Y-32109751D01*
X51508629Y-32023800D01*
X51507035Y-31953149D01*
X51503235Y-31895315D01*
X51496992Y-31847816D01*
X51488072Y-31808170D01*
X51476240Y-31773893D01*
X51461676Y-31743272D01*
X51419531Y-31685805D01*
X51361990Y-31639672D01*
X51290977Y-31605582D01*
X51208417Y-31584244D01*
X51116232Y-31576364D01*
X51023007Y-31581803D01*
X50957195Y-31592815D01*
X50901051Y-31609560D01*
X50857240Y-31628497D01*
X50784054Y-31669149D01*
X50728816Y-31713210D01*
X50689159Y-31763856D01*
X50662714Y-31824263D01*
X50647110Y-31897607D01*
X50645236Y-31912730D01*
X50642050Y-31952680D01*
X50639348Y-32009676D01*
X50637151Y-32080446D01*
X50635479Y-32161724D01*
X50634354Y-32250237D01*
X50633797Y-32342718D01*
X50633830Y-32435897D01*
X50634472Y-32526504D01*
X50635746Y-32611269D01*
X50637673Y-32686924D01*
X50639870Y-32742240D01*
X50648080Y-32909880D01*
X50474657Y-32909880D01*
X50408860Y-32909549D01*
X50361228Y-32908451D01*
X50329617Y-32906423D01*
X50311881Y-32903307D01*
X50305875Y-32898940D01*
X50306083Y-32897244D01*
X50308724Y-32881498D01*
X50311907Y-32848147D01*
X50315482Y-32799895D01*
X50319301Y-32739446D01*
X50323213Y-32669505D01*
X50327068Y-32592774D01*
X50330716Y-32511958D01*
X50334008Y-32429759D01*
X50336794Y-32348883D01*
X50337195Y-32335840D01*
X50338684Y-32259186D01*
X50338886Y-32176711D01*
X50337878Y-32095270D01*
X50335734Y-32021720D01*
X50333218Y-31972672D01*
X50329005Y-31912429D01*
X50325013Y-31868120D01*
X50320365Y-31835390D01*
X50314182Y-31809882D01*
X50305588Y-31787240D01*
X50293704Y-31763109D01*
X50289348Y-31754893D01*
X50253843Y-31702198D01*
X50207500Y-31659255D01*
X50146737Y-31623187D01*
X50100690Y-31603186D01*
X50067360Y-31591880D01*
X50033341Y-31584883D01*
X49992166Y-31581293D01*
X49937368Y-31580209D01*
X49935700Y-31580207D01*
X49828605Y-31587472D01*
X49735331Y-31609626D01*
X49655801Y-31646735D01*
X49589935Y-31698863D01*
X49537658Y-31766078D01*
X49498890Y-31848443D01*
X49473555Y-31946026D01*
X49469168Y-31973822D01*
X49465190Y-32016297D01*
X49462364Y-32075742D01*
X49460634Y-32148845D01*
X49459945Y-32232290D01*
X49460240Y-32322765D01*
X49461463Y-32416956D01*
X49463558Y-32511549D01*
X49466469Y-32603231D01*
X49470140Y-32688687D01*
X49474513Y-32764606D01*
X49479534Y-32827672D01*
X49484347Y-32869240D01*
X49490205Y-32909880D01*
X49141589Y-32909880D01*
X49146808Y-32874320D01*
X49148478Y-32855627D01*
X49150754Y-32819379D01*
X49153500Y-32768328D01*
X49156579Y-32705223D01*
X49159853Y-32632817D01*
X49163187Y-32553861D01*
X49164900Y-32511059D01*
X49168962Y-32397667D01*
X49171545Y-32297827D01*
X49172648Y-32205400D01*
X49172271Y-32114245D01*
X49170412Y-32018223D01*
X49167070Y-31911193D01*
X49164805Y-31850659D01*
X49161487Y-31768604D01*
X49158144Y-31691520D01*
X49154911Y-31622162D01*
X49151927Y-31563286D01*
X49149328Y-31517649D01*
X49147250Y-31488006D01*
X49146360Y-31479373D01*
X49143708Y-31454605D01*
X49147505Y-31445049D01*
X49160905Y-31445865D01*
X49167204Y-31447392D01*
X49195355Y-31451461D01*
X49237626Y-31454089D01*
X49287863Y-31455244D01*
X49339916Y-31454895D01*
X49387630Y-31453011D01*
X49424856Y-31449559D01*
X49430155Y-31448737D01*
X49459481Y-31444857D01*
X49472843Y-31446614D01*
X49474112Y-31453850D01*
X49471881Y-31468977D01*
X49469103Y-31499632D01*
X49466167Y-31541044D01*
X49463954Y-31578920D01*
X49458013Y-31690680D01*
X49506356Y-31639307D01*
X49587558Y-31563018D01*
X49672444Y-31504225D01*
X49765645Y-31460127D01*
X49844260Y-31434887D01*
X49909030Y-31422839D01*
X49986124Y-31416822D01*
X50068493Y-31416743D01*
X50149084Y-31422511D01*
X50149084Y-31422511D01*
G37*
X50149084Y-31422511D02*
X50220846Y-31434033D01*
X50245122Y-31440124D01*
X50329177Y-31469708D01*
X50406945Y-31507893D01*
X50475317Y-31552502D01*
X50531183Y-31601357D01*
X50571434Y-31652283D01*
X50584772Y-31677933D01*
X50601671Y-31717724D01*
X50653752Y-31656138D01*
X50694058Y-31610407D01*
X50729408Y-31576019D01*
X50766402Y-31547606D01*
X50811640Y-31519797D01*
X50841776Y-31503165D01*
X50910410Y-31469737D01*
X50977074Y-31445688D01*
X51047118Y-31429831D01*
X51125889Y-31420979D01*
X51218736Y-31417947D01*
X51226020Y-31417922D01*
X51304315Y-31418973D01*
X51366553Y-31422669D01*
X51416861Y-31429333D01*
X51443439Y-31434990D01*
X51544978Y-31468578D01*
X51631522Y-31515265D01*
X51702691Y-31574771D01*
X51758108Y-31646812D01*
X51778628Y-31684972D01*
X51810220Y-31751640D01*
X51809585Y-31970080D01*
X51809294Y-32037308D01*
X51808786Y-32119995D01*
X51808097Y-32213282D01*
X51807269Y-32312308D01*
X51806338Y-32412215D01*
X51805345Y-32508142D01*
X51805114Y-32528880D01*
X51804397Y-32610846D01*
X51804127Y-32686926D01*
X51804283Y-32754579D01*
X51804842Y-32811264D01*
X51805783Y-32854442D01*
X51807086Y-32881571D01*
X51808167Y-32889560D01*
X51809923Y-32896946D01*
X51807598Y-32902284D01*
X51798471Y-32905906D01*
X51779822Y-32908144D01*
X51748931Y-32909331D01*
X51703076Y-32909799D01*
X51641804Y-32909880D01*
X51468551Y-32909880D01*
X51474133Y-32879400D01*
X51477316Y-32853514D01*
X51480871Y-32809823D01*
X51484679Y-32750835D01*
X51488618Y-32679059D01*
X51492567Y-32597003D01*
X51496407Y-32507175D01*
X51500016Y-32412086D01*
X51503275Y-32314242D01*
X51506062Y-32216152D01*
X51506131Y-32213483D01*
X51508249Y-32109751D01*
X51508629Y-32023800D01*
X51507035Y-31953149D01*
X51503235Y-31895315D01*
X51496992Y-31847816D01*
X51488072Y-31808170D01*
X51476240Y-31773893D01*
X51461676Y-31743272D01*
X51419531Y-31685805D01*
X51361990Y-31639672D01*
X51290977Y-31605582D01*
X51208417Y-31584244D01*
X51116232Y-31576364D01*
X51023007Y-31581803D01*
X50957195Y-31592815D01*
X50901051Y-31609560D01*
X50857240Y-31628497D01*
X50784054Y-31669149D01*
X50728816Y-31713210D01*
X50689159Y-31763856D01*
X50662714Y-31824263D01*
X50647110Y-31897607D01*
X50645236Y-31912730D01*
X50642050Y-31952680D01*
X50639348Y-32009676D01*
X50637151Y-32080446D01*
X50635479Y-32161724D01*
X50634354Y-32250237D01*
X50633797Y-32342718D01*
X50633830Y-32435897D01*
X50634472Y-32526504D01*
X50635746Y-32611269D01*
X50637673Y-32686924D01*
X50639870Y-32742240D01*
X50648080Y-32909880D01*
X50474657Y-32909880D01*
X50408860Y-32909549D01*
X50361228Y-32908451D01*
X50329617Y-32906423D01*
X50311881Y-32903307D01*
X50305875Y-32898940D01*
X50306083Y-32897244D01*
X50308724Y-32881498D01*
X50311907Y-32848147D01*
X50315482Y-32799895D01*
X50319301Y-32739446D01*
X50323213Y-32669505D01*
X50327068Y-32592774D01*
X50330716Y-32511958D01*
X50334008Y-32429759D01*
X50336794Y-32348883D01*
X50337195Y-32335840D01*
X50338684Y-32259186D01*
X50338886Y-32176711D01*
X50337878Y-32095270D01*
X50335734Y-32021720D01*
X50333218Y-31972672D01*
X50329005Y-31912429D01*
X50325013Y-31868120D01*
X50320365Y-31835390D01*
X50314182Y-31809882D01*
X50305588Y-31787240D01*
X50293704Y-31763109D01*
X50289348Y-31754893D01*
X50253843Y-31702198D01*
X50207500Y-31659255D01*
X50146737Y-31623187D01*
X50100690Y-31603186D01*
X50067360Y-31591880D01*
X50033341Y-31584883D01*
X49992166Y-31581293D01*
X49937368Y-31580209D01*
X49935700Y-31580207D01*
X49828605Y-31587472D01*
X49735331Y-31609626D01*
X49655801Y-31646735D01*
X49589935Y-31698863D01*
X49537658Y-31766078D01*
X49498890Y-31848443D01*
X49473555Y-31946026D01*
X49469168Y-31973822D01*
X49465190Y-32016297D01*
X49462364Y-32075742D01*
X49460634Y-32148845D01*
X49459945Y-32232290D01*
X49460240Y-32322765D01*
X49461463Y-32416956D01*
X49463558Y-32511549D01*
X49466469Y-32603231D01*
X49470140Y-32688687D01*
X49474513Y-32764606D01*
X49479534Y-32827672D01*
X49484347Y-32869240D01*
X49490205Y-32909880D01*
X49141589Y-32909880D01*
X49146808Y-32874320D01*
X49148478Y-32855627D01*
X49150754Y-32819379D01*
X49153500Y-32768328D01*
X49156579Y-32705223D01*
X49159853Y-32632817D01*
X49163187Y-32553861D01*
X49164900Y-32511059D01*
X49168962Y-32397667D01*
X49171545Y-32297827D01*
X49172648Y-32205400D01*
X49172271Y-32114245D01*
X49170412Y-32018223D01*
X49167070Y-31911193D01*
X49164805Y-31850659D01*
X49161487Y-31768604D01*
X49158144Y-31691520D01*
X49154911Y-31622162D01*
X49151927Y-31563286D01*
X49149328Y-31517649D01*
X49147250Y-31488006D01*
X49146360Y-31479373D01*
X49143708Y-31454605D01*
X49147505Y-31445049D01*
X49160905Y-31445865D01*
X49167204Y-31447392D01*
X49195355Y-31451461D01*
X49237626Y-31454089D01*
X49287863Y-31455244D01*
X49339916Y-31454895D01*
X49387630Y-31453011D01*
X49424856Y-31449559D01*
X49430155Y-31448737D01*
X49459481Y-31444857D01*
X49472843Y-31446614D01*
X49474112Y-31453850D01*
X49471881Y-31468977D01*
X49469103Y-31499632D01*
X49466167Y-31541044D01*
X49463954Y-31578920D01*
X49458013Y-31690680D01*
X49506356Y-31639307D01*
X49587558Y-31563018D01*
X49672444Y-31504225D01*
X49765645Y-31460127D01*
X49844260Y-31434887D01*
X49909030Y-31422839D01*
X49986124Y-31416822D01*
X50068493Y-31416743D01*
X50149084Y-31422511D01*
G36*
X55231208Y-31421866D02*
X55255254Y-31430042D01*
X55263572Y-31439355D01*
X55260396Y-31454742D01*
X55260091Y-31455549D01*
X55255644Y-31475308D01*
X55250796Y-31509768D01*
X55246259Y-31553338D01*
X55243874Y-31583024D01*
X55239429Y-31634960D01*
X55233783Y-31669003D01*
X55225344Y-31687577D01*
X55212523Y-31693105D01*
X55193730Y-31688010D01*
X55179490Y-31681156D01*
X55138389Y-31666597D01*
X55084517Y-31656926D01*
X55025018Y-31652988D01*
X54967035Y-31655629D01*
X54965390Y-31655819D01*
X54887010Y-31674623D01*
X54814087Y-31710420D01*
X54750545Y-31760507D01*
X54700311Y-31822188D01*
X54685388Y-31848380D01*
X54671854Y-31876455D01*
X54660704Y-31903774D01*
X54651712Y-31932601D01*
X54644653Y-31965202D01*
X54639303Y-32003842D01*
X54635434Y-32050786D01*
X54632822Y-32108300D01*
X54631241Y-32178648D01*
X54630465Y-32264097D01*
X54630270Y-32366911D01*
X54630291Y-32401880D01*
X54630577Y-32490450D01*
X54631222Y-32575245D01*
X54632180Y-32653475D01*
X54633400Y-32722347D01*
X54634835Y-32779072D01*
X54636435Y-32820859D01*
X54638026Y-32843840D01*
X54645388Y-32909880D01*
X54324385Y-32909880D01*
X54332131Y-32848920D01*
X54333816Y-32825055D01*
X54335291Y-32783166D01*
X54336556Y-32725548D01*
X54337611Y-32654494D01*
X54338458Y-32572299D01*
X54339095Y-32481259D01*
X54339524Y-32383666D01*
X54339745Y-32281816D01*
X54339758Y-32178004D01*
X54339563Y-32074524D01*
X54339161Y-31973670D01*
X54338552Y-31877737D01*
X54337736Y-31789020D01*
X54336713Y-31709813D01*
X54335485Y-31642410D01*
X54334050Y-31589107D01*
X54332410Y-31552197D01*
X54331961Y-31545703D01*
X54323862Y-31441366D01*
X54367521Y-31448974D01*
X54411300Y-31453839D01*
X54466386Y-31456127D01*
X54524270Y-31455824D01*
X54576445Y-31452918D01*
X54604916Y-31449345D01*
X54646252Y-31442109D01*
X54638677Y-31495274D01*
X54635195Y-31530192D01*
X54632489Y-31577103D01*
X54630995Y-31627686D01*
X54630838Y-31644960D01*
X54630574Y-31741480D01*
X54657338Y-31705920D01*
X54675613Y-31684102D01*
X54704219Y-31652757D01*
X54738879Y-31616480D01*
X54767368Y-31587714D01*
X54845749Y-31520193D01*
X54928373Y-31468039D01*
X55012931Y-31432075D01*
X55097112Y-31413130D01*
X55178605Y-31412028D01*
X55231208Y-31421866D01*
X55231208Y-31421866D01*
G37*
X55231208Y-31421866D02*
X55255254Y-31430042D01*
X55263572Y-31439355D01*
X55260396Y-31454742D01*
X55260091Y-31455549D01*
X55255644Y-31475308D01*
X55250796Y-31509768D01*
X55246259Y-31553338D01*
X55243874Y-31583024D01*
X55239429Y-31634960D01*
X55233783Y-31669003D01*
X55225344Y-31687577D01*
X55212523Y-31693105D01*
X55193730Y-31688010D01*
X55179490Y-31681156D01*
X55138389Y-31666597D01*
X55084517Y-31656926D01*
X55025018Y-31652988D01*
X54967035Y-31655629D01*
X54965390Y-31655819D01*
X54887010Y-31674623D01*
X54814087Y-31710420D01*
X54750545Y-31760507D01*
X54700311Y-31822188D01*
X54685388Y-31848380D01*
X54671854Y-31876455D01*
X54660704Y-31903774D01*
X54651712Y-31932601D01*
X54644653Y-31965202D01*
X54639303Y-32003842D01*
X54635434Y-32050786D01*
X54632822Y-32108300D01*
X54631241Y-32178648D01*
X54630465Y-32264097D01*
X54630270Y-32366911D01*
X54630291Y-32401880D01*
X54630577Y-32490450D01*
X54631222Y-32575245D01*
X54632180Y-32653475D01*
X54633400Y-32722347D01*
X54634835Y-32779072D01*
X54636435Y-32820859D01*
X54638026Y-32843840D01*
X54645388Y-32909880D01*
X54324385Y-32909880D01*
X54332131Y-32848920D01*
X54333816Y-32825055D01*
X54335291Y-32783166D01*
X54336556Y-32725548D01*
X54337611Y-32654494D01*
X54338458Y-32572299D01*
X54339095Y-32481259D01*
X54339524Y-32383666D01*
X54339745Y-32281816D01*
X54339758Y-32178004D01*
X54339563Y-32074524D01*
X54339161Y-31973670D01*
X54338552Y-31877737D01*
X54337736Y-31789020D01*
X54336713Y-31709813D01*
X54335485Y-31642410D01*
X54334050Y-31589107D01*
X54332410Y-31552197D01*
X54331961Y-31545703D01*
X54323862Y-31441366D01*
X54367521Y-31448974D01*
X54411300Y-31453839D01*
X54466386Y-31456127D01*
X54524270Y-31455824D01*
X54576445Y-31452918D01*
X54604916Y-31449345D01*
X54646252Y-31442109D01*
X54638677Y-31495274D01*
X54635195Y-31530192D01*
X54632489Y-31577103D01*
X54630995Y-31627686D01*
X54630838Y-31644960D01*
X54630574Y-31741480D01*
X54657338Y-31705920D01*
X54675613Y-31684102D01*
X54704219Y-31652757D01*
X54738879Y-31616480D01*
X54767368Y-31587714D01*
X54845749Y-31520193D01*
X54928373Y-31468039D01*
X55012931Y-31432075D01*
X55097112Y-31413130D01*
X55178605Y-31412028D01*
X55231208Y-31421866D01*
D16*
X28481540Y-19200560D02*
X27076374Y-18333831D01*
X28481540Y-19200560D02*
X29135449Y-17684607D01*
X24598900Y-6886400D02*
X28462970Y-19141663D01*
X34171046Y-12289842D02*
X34824955Y-13805794D01*
X34171046Y-12289842D02*
X32765880Y-13156571D01*
X30498900Y-23936400D02*
X34137440Y-12396425D01*
M02*
